<svg width="48" height="48" viewBox="0 0 48 48" fill="none" xmlns="http://www.w3.org/2000/svg">
<path d="M36.375 0.375C35.7375 0.375 35.25 0.8625 35.25 1.5V11.625H10.5V5.25C10.5 4.6125 10.0125 4.125 9.375 4.125H1.5C0.8625 4.125 0.375 4.6125 0.375 5.25C0.375 5.8875 0.8625 6.375 1.5 6.375H8.25V12.75V20.25V37.875H1.5C0.8625 37.875 0.375 38.3625 0.375 39C0.375 39.6375 0.8625 40.125 1.5 40.125H46.5C47.1375 40.125 47.625 39.6375 47.625 39C47.625 38.3625 47.1375 37.875 46.5 37.875H37.5V20.25V12.75V2.625H46.5C47.1375 2.625 47.625 2.1375 47.625 1.5C47.625 0.8625 47.1375 0.375 46.5 0.375H36.375ZM44.625 11.625C43.9875 11.625 43.5 12.1125 43.5 12.75V18.375C43.5 19.0125 43.9875 19.5 44.625 19.5H46.5C47.1375 19.5 47.625 19.0125 47.625 18.375V12.75C47.625 12.1125 47.1375 11.625 46.5 11.625H44.625ZM10.5 13.875H12.75V20.25C12.75 20.8875 12.2625 21.375 11.625 21.375C10.9875 21.375 10.5 20.8875 10.5 20.25V13.875ZM15 13.875H17.25V20.25C17.25 20.8875 16.7625 21.375 16.125 21.375C15.4875 21.375 15 20.8875 15 20.25V13.875ZM19.5 13.875H21.75V20.25C21.75 20.8875 21.2625 21.375 20.625 21.375C19.9875 21.375 19.5 20.8875 19.5 20.25V13.875ZM24 13.875H26.25V20.25C26.25 20.8875 25.7625 21.375 25.125 21.375C24.4875 21.375 24 20.8875 24 20.25V13.875ZM28.5 13.875H30.75V20.25C30.75 20.8875 30.2625 21.375 29.625 21.375C28.9875 21.375 28.5 20.8875 28.5 20.25V13.875ZM33 13.875H35.25V20.25C35.25 20.8875 34.7625 21.375 34.125 21.375C33.4875 21.375 33 20.8875 33 20.25V13.875ZM13.875 22.7622C14.475 23.2872 15.2625 23.625 16.125 23.625C16.9875 23.625 17.775 23.2872 18.375 22.7622C18.975 23.2872 19.7625 23.625 20.625 23.625C21.4875 23.625 22.275 23.2872 22.875 22.7622C23.475 23.2872 24.2625 23.625 25.125 23.625C25.9875 23.625 26.775 23.2872 27.375 22.7622C27.975 23.2872 28.7625 23.625 29.625 23.625C30.4875 23.625 31.275 23.2872 31.875 22.7622C32.475 23.2872 33.2625 23.625 34.125 23.625C34.5375 23.625 34.9125 23.55 35.25 23.4375V37.875H21V27.75C21 27.1125 20.5125 26.625 19.875 26.625H15.375C14.7375 26.625 14.25 27.1125 14.25 27.75V37.875H10.5V23.4375C10.8375 23.55 11.2125 23.625 11.625 23.625C12.4875 23.625 13.275 23.2872 13.875 22.7622ZM25.5 26.625C24.8625 26.625 24.375 27.1125 24.375 27.75V33.375C24.375 34.0125 24.8625 34.5 25.5 34.5H30.375C31.0125 34.5 31.5 34.0125 31.5 33.375V27.75C31.5 27.1125 31.0125 26.625 30.375 26.625H25.5ZM44.625 26.625C43.9875 26.625 43.5 27.1125 43.5 27.75V33.375C43.5 34.0125 43.9875 34.5 44.625 34.5H46.5C47.1375 34.5 47.625 34.0125 47.625 33.375V27.75C47.625 27.1125 47.1375 26.625 46.5 26.625H44.625ZM5.25 45.375C4.6125 45.375 4.125 45.8625 4.125 46.5C4.125 47.1375 4.6125 47.625 5.25 47.625H37.125C37.7625 47.625 38.25 47.1375 38.25 46.5C38.25 45.8625 37.7625 45.375 37.125 45.375H5.25ZM42.75 45.375C42.1125 45.375 41.625 45.8625 41.625 46.5C41.625 47.1249 42.0944 47.6026 42.7134 47.6213C43.2987 47.6026 43.8383 47.1618 43.875 46.5747C43.9125 45.9372 43.3875 45.375 42.75 45.375ZM42.7134 47.6213C42.7005 47.6217 42.6882 47.625 42.6753 47.625H42.75C42.7374 47.625 42.7259 47.6217 42.7134 47.6213Z" fill="#2C2D36"/>
</svg>
