<svg width="48" height="48" viewBox="0 0 48 48" fill="none" xmlns="http://www.w3.org/2000/svg">
<path d="M22.125 3.375C11.175 3.375 2.25 12.3 2.25 23.25C2.25 35.025 11.85 44.625 23.625 44.625C29.55 44.625 35.0997 42.3372 39.2622 38.1372C43.4622 33.9747 45.75 28.425 45.75 22.5C45.75 21.8625 45.2625 21.375 44.625 21.375C43.9875 21.375 43.5 21.8625 43.5 22.5C43.5 27.825 41.4375 32.8125 37.6875 36.5625C33.9375 40.3125 28.95 42.375 23.625 42.375C13.0875 42.375 4.5 33.7875 4.5 23.25C4.5 13.5375 12.4125 5.625 22.125 5.625C30.825 5.625 37.875 12.675 37.875 21.375V22.125C37.875 30.1875 31.3125 36.75 23.25 36.75C16.0125 36.75 10.125 30.8625 10.125 23.625V23.4375C10.125 17.025 15.3375 11.8125 21.75 11.8125C22.3875 11.8125 22.875 11.325 22.875 10.6875C22.875 10.05 22.3875 9.5625 21.75 9.5625C14.1 9.5625 7.875 15.7875 7.875 23.4375V23.625C7.875 32.1 14.775 39 23.25 39C32.55 39 40.125 31.425 40.125 22.125V21.375C40.125 11.4375 32.0625 3.375 22.125 3.375ZM22.5 16.875C21.8625 16.875 21.375 17.3625 21.375 18V24.75C21.375 25.3875 21.8625 25.875 22.5 25.875H29.25C29.8875 25.875 30.375 25.3875 30.375 24.75C30.375 24.1125 29.8875 23.625 29.25 23.625H23.625V18C23.625 17.3625 23.1375 16.875 22.5 16.875Z" fill="#2C2D36"/>
</svg>
