<svg width="48" height="48" viewBox="0 0 48 48" fill="none" xmlns="http://www.w3.org/2000/svg">
<path d="M9 0.375C6.3 0.375 4.125 2.55 4.125 5.25V29.625C4.125 32.325 6.3 34.5 9 34.5H34.8003L41.9626 41.6624C42.1876 41.8874 42.45 42 42.75 42C42.9 42 43.0499 41.9628 43.1624 41.9253C43.5749 41.7378 43.875 41.325 43.875 40.875V5.25C43.875 2.55 41.7 0.375 39 0.375H9ZM9 2.625H39C40.4625 2.625 41.625 3.7875 41.625 5.25V38.1753L36.0374 32.5876C35.8499 32.3626 35.55 32.25 35.25 32.25H9C7.5375 32.25 6.375 31.0875 6.375 29.625V5.25C6.375 3.7875 7.5375 2.625 9 2.625ZM15 13.5C14.3625 13.5 13.875 13.9875 13.875 14.625C13.875 15.2625 14.3625 15.75 15 15.75H33C33.6375 15.75 34.125 15.2625 34.125 14.625C34.125 13.9875 33.6375 13.5 33 13.5H15ZM15 19.125C14.3625 19.125 13.875 19.6125 13.875 20.25C13.875 20.8875 14.3625 21.375 15 21.375H27.375C28.0125 21.375 28.5 20.8875 28.5 20.25C28.5 19.6125 28.0125 19.125 27.375 19.125H15ZM33 19.125C32.7016 19.125 32.4155 19.2435 32.2045 19.4545C31.9935 19.6655 31.875 19.9516 31.875 20.25C31.875 20.5484 31.9935 20.8345 32.2045 21.0455C32.4155 21.2565 32.7016 21.375 33 21.375C33.2984 21.375 33.5845 21.2565 33.7955 21.0455C34.0065 20.8345 34.125 20.5484 34.125 20.25C34.125 19.9516 34.0065 19.6655 33.7955 19.4545C33.5845 19.2435 33.2984 19.125 33 19.125ZM9 45.375C8.70163 45.375 8.41548 45.4935 8.2045 45.7045C7.99353 45.9155 7.875 46.2016 7.875 46.5C7.875 46.7984 7.99353 47.0845 8.2045 47.2955C8.41548 47.5065 8.70163 47.625 9 47.625C9.29837 47.625 9.58452 47.5065 9.7955 47.2955C10.0065 47.0845 10.125 46.7984 10.125 46.5C10.125 46.2016 10.0065 45.9155 9.7955 45.7045C9.58452 45.4935 9.29837 45.375 9 45.375V45.375ZM14.625 45.375C13.9875 45.375 13.5 45.8625 13.5 46.5C13.5 47.1375 13.9875 47.625 14.625 47.625H42.75C43.3875 47.625 43.875 47.1375 43.875 46.5C43.875 45.8625 43.3875 45.375 42.75 45.375H14.625Z" fill="white"/>
</svg>
