<svg width="48" height="48" viewBox="0 0 48 48" fill="none" xmlns="http://www.w3.org/2000/svg">
<path d="M11.6623 4.125C11.0248 4.125 10.5373 4.6125 10.5373 5.25V7.125V16.5V20.25C10.5373 20.8875 11.0248 21.375 11.6623 21.375C12.2998 21.375 12.7873 20.8875 12.7873 20.25V16.6501V16.5V9.75C12.7873 9.1125 13.2748 8.625 13.9123 8.625C14.5498 8.625 15.0373 9.1125 15.0373 9.75V16.9497C14.9623 17.5497 15.4127 18.1125 16.0502 18.1875C18.9377 18.4875 21.1123 18.5625 24.0373 18.5625C27.7873 18.5625 31.5748 18.3 35.2873 17.8125V23.5503C26.0248 25.3128 19.6127 25.1249 9.6752 22.9124C9.1502 22.7999 8.62506 23.0628 8.40006 23.5503C8.17506 24.0378 8.36241 24.6375 8.81241 24.9375L36.1874 43.6875C36.3749 43.8375 36.5996 43.875 36.8246 43.875C37.1996 43.875 37.5371 43.6872 37.7621 43.3872C38.0996 42.8622 37.9876 42.1875 37.4626 41.8125L14.5876 26.1372C21.3001 27.2247 26.8498 27.2247 33.5998 26.1372L27.2248 30.5251C26.6998 30.8626 26.5877 31.5749 26.9252 32.0999C27.1502 32.3999 27.4877 32.5876 27.8627 32.5876C28.0877 32.5876 28.3124 32.5126 28.4999 32.4001L39.3749 24.9375L39.4877 24.8247L39.5251 24.7874C39.5626 24.7499 39.5623 24.7128 39.5998 24.6753C39.5998 24.6378 39.6371 24.6374 39.6371 24.5999C39.6746 24.5624 39.6752 24.5253 39.6752 24.4878C39.6752 24.4503 39.7126 24.4124 39.7126 24.4124C39.7501 24.3374 39.7498 24.2999 39.7873 24.2249V24.1128V24V23.9253C39.7498 23.8503 39.7501 23.8126 39.7126 23.7751C39.7126 23.7376 39.7127 23.6997 39.6752 23.6997C39.6752 23.6622 39.6371 23.6251 39.6371 23.5876C39.6371 23.5501 39.5999 23.5124 39.5624 23.4749C39.5624 23.4374 39.5251 23.4376 39.5251 23.4001C39.4876 23.3626 39.4496 23.3249 39.4496 23.2874C39.4496 23.2499 39.4123 23.2501 39.4123 23.2126C39.4123 23.2126 39.3751 23.1753 39.3376 23.1753C39.1876 23.0628 38.9999 22.9499 38.8124 22.9124H38.7751H38.6249H38.5502H38.4001C38.1001 22.9874 37.7998 23.0249 37.5373 23.0999V16.5V7.125V5.25C37.5373 4.6125 37.0498 4.125 36.4123 4.125C35.7748 4.125 35.2873 4.6125 35.2873 5.25V6.15015C27.8248 7.20015 20.2498 7.20015 12.7873 6.15015V5.25C12.7873 4.6125 12.2998 4.125 11.6623 4.125ZM20.2426 35.4543C20.0273 35.4552 19.8096 35.5217 19.6127 35.6624L10.6127 41.8125C10.0877 42.15 9.97491 42.8622 10.3124 43.3872C10.5374 43.6872 10.8749 43.875 11.2499 43.875C11.4749 43.875 11.6996 43.8 11.8871 43.6875L20.8871 37.5374C21.4121 37.1999 21.5249 36.4876 21.1874 35.9626C20.953 35.6345 20.6015 35.4529 20.2426 35.4543Z" fill="#2C2D36"/>
</svg>
