<svg width="48" height="48" viewBox="0 0 48 48" fill="none" xmlns="http://www.w3.org/2000/svg">
<path d="M14.625 2.25C11.925 2.25 9.75 4.425 9.75 7.125V14.25C9.75 14.8875 10.2375 15.375 10.875 15.375C11.5125 15.375 12 14.8875 12 14.25V7.125C12 5.6625 13.1625 4.5 14.625 4.5H33.375C34.8375 4.5 36 5.6625 36 7.125V20.25V22.125V28.6128C35.775 28.5378 35.5125 28.5 35.25 28.5H12.75C11.1 28.5 9.75 29.85 9.75 31.5V35.25C9.75 35.8875 10.2375 36.375 10.875 36.375C11.5125 36.375 12 35.8875 12 35.25V31.5C12 31.0875 12.3375 30.75 12.75 30.75H32.625C33.0375 30.75 33.375 31.0875 33.375 31.5V34.125V39.75H32.2874H12C11.3625 39.75 10.875 40.2375 10.875 40.875V44.625C10.875 45.2625 11.3625 45.75 12 45.75C12.6375 45.75 13.125 45.2625 13.125 44.625V42H32.2874H33.375H34.875V44.625C34.875 45.2625 35.3625 45.75 36 45.75C36.6375 45.75 37.125 45.2625 37.125 44.625V42H38.25H39C41.7 42 43.875 39.825 43.875 37.125V20.25C43.875 18.6 42.525 17.25 40.875 17.25H39C38.7375 17.25 38.475 17.2878 38.25 17.3628V7.125C38.25 4.425 36.075 2.25 33.375 2.25H14.625ZM19.125 13.1528C18.8344 13.1528 18.5439 13.2564 18.3376 13.4626C18.1126 13.6501 18 13.95 18 14.25C18 14.55 18.1126 14.8499 18.3376 15.0374C18.5626 15.2624 18.825 15.375 19.125 15.375C19.425 15.375 19.7249 15.2624 19.9124 15.0374C20.1374 14.8124 20.25 14.55 20.25 14.25C20.25 13.95 20.1374 13.6501 19.9124 13.4626C19.7061 13.2564 19.4156 13.1528 19.125 13.1528ZM28.875 13.1528C28.5844 13.1528 28.2939 13.2564 28.0876 13.4626C27.8626 13.6501 27.75 13.95 27.75 14.25C27.75 14.55 27.8626 14.8499 28.0876 15.0374C28.3126 15.2624 28.575 15.375 28.875 15.375C29.175 15.375 29.4749 15.2624 29.6624 15.0374C29.8874 14.8124 30 14.55 30 14.25C30 13.95 29.8874 13.6501 29.6624 13.4626C29.4561 13.2564 29.1656 13.1528 28.875 13.1528ZM7.125 17.25C5.475 17.25 4.125 18.6 4.125 20.25V37.125C4.125 39.825 6.3 42 9 42C9.6375 42 10.125 41.5125 10.125 40.875C10.125 40.2375 9.6375 39.75 9 39.75C7.5375 39.75 6.375 38.5875 6.375 37.125V20.25C6.375 19.8375 6.7125 19.5 7.125 19.5H9C9.4125 19.5 9.75 19.8375 9.75 20.25V25.875C9.75 26.5125 10.2375 27 10.875 27C11.5125 27 12 26.5125 12 25.875V20.25C12 18.6 10.65 17.25 9 17.25H7.125ZM39 19.5H40.875C41.2875 19.5 41.625 19.8375 41.625 20.25V37.125C41.625 38.5875 40.4625 39.75 39 39.75H38.25V35.25V34.125V31.5V22.125V20.25C38.25 19.8375 38.5875 19.5 39 19.5Z" fill="white"/>
</svg>
