<svg width="48" height="48" viewBox="0 0 48 48" fill="none" xmlns="http://www.w3.org/2000/svg">
<path d="M31.3359 9.07471C31.05 9.07471 30.7687 9.18735 30.5625 9.41235C30.1125 9.86235 30.1125 10.5753 30.5625 10.9878L32.9253 13.3499C31.9128 13.7624 30.3747 14.2875 28.5747 14.4375C26.0622 14.6625 22.7626 14.1 21.5251 13.875C20.8876 13.7625 20.475 13.6874 20.0625 14.0999C19.95 14.2124 19.8378 14.3622 19.8003 14.5122L14.25 30.6372C14.0625 31.2372 14.3626 31.875 14.9626 32.0625C15.0751 32.1 15.2251 32.1372 15.3376 32.1372C15.7876 32.1372 16.2372 31.8372 16.3872 31.3872L21.6372 16.1624C23.1747 16.4249 26.2878 16.9125 28.8003 16.6875C30.7503 16.5 32.7376 15.9374 34.6501 15.0374L37.125 17.5122C36.2625 19.1622 35.7376 20.9253 35.5876 22.8003C35.3251 25.5003 35.8122 28.95 36.0747 30.5625L16.2751 37.3872L27.1128 26.5503C27.5628 26.1003 27.5628 25.3874 27.1128 24.9749C26.6628 24.5249 25.9499 24.5249 25.5374 24.9749L11.3247 39.1875C11.0247 39.45 10.875 39.7874 10.875 40.1624C10.875 40.7999 11.4 41.3624 12 41.2874C12.15 41.2874 12.2625 41.2501 12.375 41.2126L37.6501 32.4375C37.8001 32.4 37.95 32.2878 38.0625 32.1753C38.475 31.7628 38.4374 31.3872 38.2874 30.6372C38.0624 29.2872 37.5372 25.725 37.7622 23.0625C37.8747 21.7125 38.2128 20.4378 38.7378 19.2378L41.1372 21.6372C41.3247 21.7497 41.5872 21.8628 41.8872 21.8628C42.1872 21.8628 42.4503 21.7501 42.6753 21.5251C43.1253 21.1126 43.1253 20.4003 42.6753 19.9878L32.1372 9.41235C31.9122 9.18735 31.6219 9.07471 31.3359 9.07471ZM28.5659 40.864C28.4331 40.8575 28.2983 40.8609 28.1624 40.875C27.0749 40.9875 26.1751 41.7 25.8376 42.75L25.0503 45.2622C25.0503 45.2997 25.0125 45.3376 24.9375 45.3376C24.8625 45.3376 24.8247 45.2997 24.8247 45.2622L24.4878 44.625C24.0753 43.8375 23.3251 43.35 22.4626 43.3125C21.6001 43.275 20.7749 43.7249 20.2874 44.4749L19.1997 45.75C18.7872 46.2375 18.8625 46.9497 19.3125 47.3247C19.5375 47.5122 19.8001 47.5876 20.0251 47.5876C20.3251 47.5876 20.6622 47.4378 20.8872 47.1753L22.0122 45.8628C22.0497 45.8253 22.0875 45.7501 22.125 45.7126C22.2 45.6001 22.275 45.5625 22.3125 45.5625C22.3125 45.5625 22.3497 45.5622 22.3872 45.6372L22.7249 46.2751C23.1749 47.1376 24.0753 47.6626 25.0503 47.5876C26.0253 47.5126 26.8503 46.875 27.1128 45.9375L27.9001 43.4253C27.9751 43.1628 28.1626 43.125 28.2751 43.125C28.3876 43.125 28.5749 43.1249 28.7249 43.3499L29.8499 45.4878C30.4124 46.5378 31.3878 47.2126 32.5503 47.4001C33.7128 47.5876 34.8747 47.2124 35.6997 46.3499C36.1497 45.8999 36.1497 45.1876 35.6997 44.7751C35.3622 44.3251 34.6497 44.3251 34.1997 44.7751C33.8622 45.1126 33.4501 45.2625 32.9626 45.1875C32.5126 45.1125 32.1374 44.85 31.9124 44.4375L30.7874 42.3003C30.328 41.4472 29.4954 40.9096 28.5659 40.864ZM14.625 45.375C14.3266 45.375 14.0405 45.4935 13.8295 45.7045C13.6185 45.9155 13.5 46.2016 13.5 46.5C13.5 46.7984 13.6185 47.0845 13.8295 47.2955C14.0405 47.5065 14.3266 47.625 14.625 47.625C14.9234 47.625 15.2095 47.5065 15.4205 47.2955C15.6315 47.0845 15.75 46.7984 15.75 46.5C15.75 46.2016 15.6315 45.9155 15.4205 45.7045C15.2095 45.4935 14.9234 45.375 14.625 45.375Z" fill="#2C2D36"/>
</svg>
