<svg width="48" height="48" viewBox="0 0 48 48" fill="none" xmlns="http://www.w3.org/2000/svg">
<path d="M24 2.25C23.3625 2.25 22.875 2.7375 22.875 3.375V4.125H9C8.5875 4.125 8.17529 4.34971 7.98779 4.76221L3.30029 14.1372C3.03779 14.6997 3.26235 15.3747 3.78735 15.6372C4.34985 15.8997 5.02485 15.6751 5.28735 15.1501L9 7.76221L14.6624 19.125H1.5C0.8625 19.125 0.375 19.6125 0.375 20.25C0.375 25.0125 4.2375 28.875 9 28.875C13.7625 28.875 17.625 25.0125 17.625 20.25C17.625 20.0625 17.5872 19.8749 17.5122 19.7249L10.8376 6.375H22.875V42C22.875 42.6375 23.3625 43.125 24 43.125H31.5C32.1375 43.125 32.625 42.6375 32.625 42C32.625 41.3625 32.1375 40.875 31.5 40.875H25.125V6.375H37.1624L33.3003 14.1372C33.0378 14.6997 33.2624 15.3747 33.7874 15.6372C34.3124 15.8997 35.0249 15.6751 35.2874 15.1501L38.9626 7.80029L44.6624 19.125H31.5C30.8625 19.125 30.375 19.6125 30.375 20.25C30.375 25.0125 34.2375 28.875 39 28.875C43.7625 28.875 47.625 25.0125 47.625 20.25C47.625 20.0625 47.5872 19.8749 47.5122 19.7249L40.0122 4.76221C39.8247 4.38721 39.45 4.125 39 4.125H25.125V3.375C25.125 2.7375 24.6375 2.25 24 2.25ZM2.73779 21.375H15.3003C14.7378 24.3375 12.15 26.625 9 26.625C5.85 26.625 3.26279 24.3375 2.73779 21.375ZM32.7378 21.375H45.3003C44.7378 24.3375 42.15 26.625 39 26.625C35.85 26.625 33.2628 24.3375 32.7378 21.375ZM9 45.375C8.3625 45.375 7.875 45.8625 7.875 46.5C7.875 47.1375 8.3625 47.625 9 47.625H39C39.6375 47.625 40.125 47.1375 40.125 46.5C40.125 45.8625 39.6375 45.375 39 45.375H9Z" fill="#2C2D36"/>
</svg>
