<svg width="48" height="48" viewBox="0 0 48 48" fill="none" xmlns="http://www.w3.org/2000/svg">
<path d="M24.0001 5.25C18.4501 5.25 13.7251 8.92529 12.1876 13.9878C8.55014 14.6253 5.81264 17.8125 5.81264 21.5625C5.81264 23.8875 6.8625 26.0626 8.6625 27.5251C8.8875 27.7126 9.11264 27.7874 9.37514 27.7874C9.71264 27.7874 10.0129 27.6375 10.2379 27.375C10.6129 26.8875 10.5378 26.1753 10.0878 25.8003C8.81279 24.7503 8.06264 23.2124 8.06264 21.5999C8.06264 19.2749 9.5625 17.25 11.6625 16.5C11.625 16.875 11.5878 17.2872 11.5878 17.6997V27.4124C11.5878 28.7249 12.1124 29.9628 13.0124 30.8628C13.9499 31.8003 15.1503 32.2874 16.4628 32.2874H16.5375C13.4625 33.7874 10.7999 36.1872 9.07485 39.2622C8.77485 39.7872 8.96294 40.5003 9.48794 40.8003C9.67544 40.9128 9.86294 40.9497 10.0504 40.9497C10.4254 40.9497 10.8378 40.7622 11.0253 40.3872C13.6503 35.7372 18.6003 32.8499 23.9628 32.8499C29.2878 32.8499 34.2378 35.7372 36.9003 40.3872C37.2003 40.9122 37.9126 41.1003 38.4376 40.8003C38.9626 40.5003 39.15 39.8247 38.85 39.2622C37.125 36.1122 34.4999 33.7126 31.3874 32.2126H31.5375C32.85 32.2126 34.0504 31.6874 34.9879 30.7874C35.4754 30.2999 35.8504 29.7 36.1129 29.0625C39.6004 28.3125 42.1876 25.2375 42.1876 21.5625C42.1876 19.2375 41.1751 17.0997 39.3751 15.6372C38.8876 15.2247 38.1754 15.2999 37.8004 15.7874C37.4254 16.2749 37.4624 16.9878 37.9499 17.3628C39.2249 18.4128 39.9376 19.9125 39.9376 21.5625C39.9376 23.8875 38.475 25.875 36.4125 26.625L36.3751 17.625C36.3751 10.8 30.8251 5.25 24.0001 5.25ZM17.3168 12.2065C17.6892 12.2252 18.0375 12.4219 18.225 12.75L18.6754 13.4253C19.9129 15.1878 21.9375 16.6875 24.4125 17.4375C26.4375 18.075 28.4625 18.1128 30.225 17.7378C30.8625 17.6253 31.5001 18.075 31.5001 18.75C31.5001 22.9875 27.975 26.4375 23.6625 26.25C19.875 26.0625 16.7251 22.9874 16.5001 19.1624C16.4251 18.0374 16.6503 16.9499 17.0253 15.9749C17.1753 15.5999 17.1375 15.2247 16.9125 14.8872C16.6875 14.5872 16.5001 14.2872 16.3126 13.9497C16.0126 13.4247 16.1253 12.7125 16.6503 12.375C16.8612 12.2484 17.0933 12.1953 17.3168 12.2065ZM9.67617 32.0662C9.60102 32.0701 9.52485 32.0811 9.44985 32.0999C5.62485 33.1874 2.32514 35.775 0.375144 39.1875C0.0751442 39.75 0.262498 40.4249 0.787498 40.7249C0.974998 40.8374 1.1625 40.875 1.35 40.875C1.725 40.875 2.13735 40.6875 2.32485 40.3125C3.97485 37.3875 6.78794 35.1751 10.0504 34.2751C10.6504 34.1251 10.9878 33.4872 10.8378 32.8872C10.7065 32.3622 10.2022 32.0385 9.67617 32.0662ZM38.3241 32.0662C37.7981 32.0385 37.2937 32.3622 37.1625 32.8872C37.0125 33.4872 37.3499 34.1251 37.9499 34.2751C41.1749 35.1751 43.9879 37.3875 45.6754 40.3125C45.9004 40.6875 46.2753 40.875 46.6503 40.875C46.8378 40.875 47.0253 40.8374 47.2128 40.7249C47.7378 40.4249 47.9251 39.75 47.6251 39.1875C45.6751 35.775 42.3754 33.1874 38.5504 32.0999C38.4754 32.0811 38.3993 32.0701 38.3241 32.0662Z" fill="#2C2D36"/>
</svg>
