<svg width="48" height="48" viewBox="0 0 48 48" fill="none" xmlns="http://www.w3.org/2000/svg">
<path d="M4.125 0.375C3.4875 0.375 3 0.8625 3 1.5V40.875C3 41.5125 3.4875 42 4.125 42H18.2622C18.8997 42 19.3872 41.5125 19.3872 40.875C19.3872 40.2375 18.8997 39.75 18.2622 39.75H5.25V2.625H33.375V16.5374C33.375 17.1749 33.8625 17.6624 34.5 17.6624C35.1375 17.6624 35.625 17.1749 35.625 16.5374V1.5C35.625 0.8625 35.1375 0.375 34.5 0.375H4.125ZM19.3125 6C16.6125 6 14.4375 8.175 14.4375 10.875C14.4375 13.575 16.6125 15.75 19.3125 15.75C22.0125 15.75 24.1875 13.575 24.1875 10.875C24.1875 8.175 22.0125 6 19.3125 6ZM19.3125 8.25C20.775 8.25 21.9375 9.4125 21.9375 10.875C21.9375 12.3375 20.775 13.5 19.3125 13.5C17.85 13.5 16.6875 12.3375 16.6875 10.875C16.6875 9.4125 17.85 8.25 19.3125 8.25ZM19.3125 17.2126C16.2375 17.2126 13.3874 18.8626 11.8499 21.5251C11.5499 22.0501 11.7372 22.7625 12.2622 23.0625C12.4497 23.175 12.6372 23.2126 12.8247 23.2126C13.1997 23.2126 13.5753 23.0251 13.8003 22.6501C14.9253 20.7001 17.0625 19.4626 19.3125 19.4626C20.5875 19.5001 21.825 19.8751 22.875 20.5876C23.4 20.9251 24.0747 20.8124 24.4497 20.2874C24.7872 19.7624 24.6751 19.0876 24.1501 18.7126C22.7251 17.7376 21.0375 17.2126 19.3125 17.2126ZM33.375 21C26.55 21 21 26.55 21 33.375C21 40.2 26.55 45.75 33.375 45.75C36.375 45.75 39.1499 44.6628 41.2874 42.8628L45.7126 47.2874C45.9376 47.5124 46.2375 47.625 46.5 47.625C46.7625 47.625 47.0624 47.5124 47.2874 47.2874C47.7374 46.8374 47.7374 46.1251 47.2874 45.7126L42.8628 41.2874C44.6628 39.1499 45.75 36.375 45.75 33.375C45.75 26.55 40.2 21 33.375 21ZM33.375 23.25C38.9625 23.25 43.5 27.7875 43.5 33.375C43.5 38.9625 38.9625 43.5 33.375 43.5C27.7875 43.5 23.25 38.9625 23.25 33.375C23.25 27.7875 27.7875 23.25 33.375 23.25ZM11.625 26.625C10.9875 26.625 10.5 27.1125 10.5 27.75C10.5 28.3875 10.9875 28.875 11.625 28.875H17.4749C18.0749 28.875 18.5999 28.3875 18.5999 27.75C18.5999 27.1125 18.1124 26.625 17.4749 26.625H11.625ZM11.625 32.25C10.9875 32.25 10.5 32.7375 10.5 33.375C10.5 34.0125 10.9875 34.5 11.625 34.5H16.5C17.1375 34.5 17.625 34.0125 17.625 33.375C17.625 32.7375 17.1375 32.25 16.5 32.25H11.625Z" fill="#2C2D36"/>
</svg>
