<svg width="48" height="48" viewBox="0 0 48 48" fill="none" xmlns="http://www.w3.org/2000/svg">
<path d="M23.9998 4.125C23.3623 4.125 22.8748 4.6125 22.8748 5.25V20.625C22.8748 21.2625 23.3623 21.75 23.9998 21.75C24.6373 21.75 25.1248 21.2625 25.1248 20.625V13.875H35.2498C35.6998 13.875 36.1126 13.6124 36.3001 13.1624C36.4876 12.7124 36.3747 12.2628 36.0372 11.9253C35.2497 11.1753 34.8375 10.125 34.8375 9C34.8375 7.875 35.2871 6.82485 36.0746 6.03735C36.3746 5.73735 36.4501 5.25015 36.3001 4.83765C36.1126 4.38765 35.6998 4.125 35.2498 4.125H23.9998ZM25.1248 6.375H33.15C32.4 8.025 32.4 9.975 33.15 11.625H25.1248V6.375ZM23.9998 25.144C23.728 25.144 23.4561 25.2378 23.2498 25.4253L0.749846 45.6753C0.299846 46.0878 0.262639 46.8 0.675139 47.25C1.08764 47.7 1.79985 47.7372 2.24985 47.3247L23.9998 27.75L31.275 34.3125L27.7498 37.5L24.7498 34.8003L24.7125 34.7622C24.675 34.7247 24.6372 34.725 24.5997 34.6875C24.5622 34.65 24.525 34.6501 24.525 34.6501C24.4875 34.6501 24.4497 34.6128 24.4122 34.6128C24.3747 34.6128 24.3376 34.5747 24.3001 34.5747C24.2626 34.5747 24.2248 34.5749 24.1873 34.5374H24.0746H23.9625H23.8497H23.7376C23.7001 34.5374 23.6623 34.5372 23.6248 34.5747C23.5873 34.5747 23.5496 34.6128 23.5121 34.6128C23.4746 34.6128 23.4375 34.6501 23.4 34.6501C23.3625 34.6501 23.3246 34.6875 23.3246 34.6875C23.2871 34.725 23.25 34.7247 23.2125 34.7622L23.1751 34.8003L20.1751 37.5L19.0501 36.4878C18.6001 36.0753 17.8872 36.1125 17.4747 36.5625C17.0622 37.0125 17.1001 37.7247 17.5501 38.1372L19.4251 39.8247C19.7251 40.0122 19.9873 40.125 20.2498 40.125C20.5123 40.125 20.7748 40.0122 20.9998 39.8247L23.9998 37.125L26.9998 39.8247C27.2248 40.0122 27.4873 40.125 27.7498 40.125C28.0123 40.125 28.2748 40.0122 28.4998 39.8247L32.9625 35.8125L45.7499 47.3247C45.9748 47.5122 46.2374 47.625 46.4999 47.625C46.7999 47.625 47.0996 47.5125 47.3246 47.25C47.7371 46.8 47.6999 46.0878 47.2499 45.6753L24.7498 25.4253C24.5436 25.2378 24.2717 25.144 23.9998 25.144Z" fill="#2C2D36"/>
</svg>
