<svg width="166" height="121" viewBox="0 0 166 121" fill="none" xmlns="http://www.w3.org/2000/svg">
<path d="M15.1639 31.5593C20.5446 31.5593 25.1101 27.3545 25.1101 22.0175C25.1101 16.6806 20.5446 12.314 15.1639 12.314C9.78314 12.314 5.54378 16.6806 5.54378 22.0175C5.54378 27.3545 9.78314 31.5593 15.1639 31.5593ZM32.1213 118.567C26.2514 116.95 25.4362 112.584 25.4362 103.689V44.8208L0 50.3194V52.7453C6.68515 55.4946 8.31567 57.7588 8.31567 63.2574V103.689C8.31567 111.937 7.98957 116.627 1.79358 118.567V120.993H32.1213V118.567Z" fill="#2C2D36"/>
<path d="M74.1391 118.567C68.2692 117.112 67.454 112.584 67.454 103.689V0.993286L42.0178 6.16849V8.59436C48.703 10.3733 50.1704 12.7992 50.1704 18.4596V103.689C50.1704 111.937 49.8443 116.788 43.6483 118.567V120.993H74.1391V118.567Z" fill="#2C2D36"/>
<path d="M163.67 118.567C160.409 118.406 154.213 117.921 149.158 111.29C149.158 111.29 141.006 102.88 122.907 77.651C146.876 49.996 159.92 48.8639 165.138 48.7022V46.2763H126.983V48.7022C148.506 48.217 124.701 71.182 124.701 71.182L109.374 87.3545C109.374 87.3545 116.385 96.5728 120.135 101.91C131.549 118.082 133.669 120.993 144.919 120.993H163.67V118.567ZM112.146 118.567C106.276 117.112 105.46 112.584 105.46 103.689V0.993286L80.0243 6.16849V8.59436C86.7094 10.3733 88.1769 12.7992 88.1769 18.4596V103.689C88.1769 111.937 87.8508 116.788 81.6548 118.567V120.993H112.146V118.567Z" fill="#2C2D36"/>
</svg>
