<svg width="66" height="48" viewBox="0 0 66 48" fill="none" xmlns="http://www.w3.org/2000/svg">
<path d="M6.06049 12.2264C8.21099 12.2264 10.0357 10.5445 10.0357 8.4097C10.0357 6.27493 8.21099 4.5283 6.06049 4.5283C3.91 4.5283 2.21566 6.27493 2.21566 8.4097C2.21566 10.5445 3.91 12.2264 6.06049 12.2264ZM12.8378 47.0297C10.4918 46.3828 10.166 44.6361 10.166 41.0782V17.531L0 19.7305V20.7008C2.67183 21.8005 3.3235 22.7062 3.3235 24.9057V41.0782C3.3235 44.3774 3.19316 46.2534 0.716832 47.0297V48H12.8378V47.0297Z" fill="white"/>
<path d="M29.6309 47.0297C27.2849 46.4474 26.9591 44.6361 26.9591 41.0782V0L16.7931 2.07008V3.04043C19.465 3.75202 20.0515 4.72237 20.0515 6.98653V41.0782C20.0515 44.3774 19.9211 46.3181 17.4448 47.0297V48H29.6309V47.0297Z" fill="white"/>
<path d="M65.4135 47.0297C64.1102 46.965 61.6338 46.7709 59.6137 44.1186C59.6137 44.1186 56.3553 40.7547 49.1219 30.6631C58.7013 19.6011 63.9147 19.1483 66 19.0836V18.1132H50.751V19.0836C59.353 18.8895 49.8387 28.0755 49.8387 28.0755L43.713 34.5445C43.713 34.5445 46.5152 38.2318 48.014 40.3666C52.5757 46.8356 53.4228 48 57.9193 48H65.4135V47.0297ZM44.8209 47.0297C42.4749 46.4474 42.149 44.6361 42.149 41.0782V0L31.983 2.07008V3.04043C34.6549 3.75202 35.2414 4.72237 35.2414 6.98653V41.0782C35.2414 44.3774 35.111 46.3181 32.6347 47.0297V48H44.8209V47.0297Z" fill="white"/>
</svg>
