<svg width="36" height="26" viewBox="0 0 36 26" fill="none" xmlns="http://www.w3.org/2000/svg">
<path d="M3.30572 6.62264C4.47872 6.62264 5.47399 5.71159 5.47399 4.55526C5.47399 3.39892 4.47872 2.45283 3.30572 2.45283C2.13273 2.45283 1.20854 3.39892 1.20854 4.55526C1.20854 5.71159 2.13273 6.62264 3.30572 6.62264ZM7.00245 25.4744C5.72281 25.124 5.54508 24.1779 5.54508 22.2507V9.49596L0 10.6873V11.2129C1.45736 11.8086 1.81282 12.2992 1.81282 13.4906V22.2507C1.81282 24.0377 1.74173 25.0539 0.390999 25.4744V26H7.00245V25.4744Z" fill="#2C2D36"/>
<path d="M16.1623 25.4744C14.8827 25.159 14.705 24.1779 14.705 22.2507V0L9.15989 1.12129V1.6469C10.6172 2.03235 10.9372 2.55795 10.9372 3.78437V22.2507C10.9372 24.0377 10.8661 25.0889 9.51534 25.4744V26H16.1623V25.4744Z" fill="#2C2D36"/>
<path d="M35.6801 25.4744C34.9692 25.4394 33.6185 25.3342 32.5166 23.8976C32.5166 23.8976 30.7393 22.0755 26.7937 16.6092C32.0189 10.6173 34.8625 10.372 36 10.3369V9.81132H27.6824V10.3369C32.3744 10.2318 27.1847 15.2075 27.1847 15.2075L23.8435 18.7116C23.8435 18.7116 25.3719 20.7089 26.1895 21.8652C28.6776 25.3693 29.1397 26 31.5924 26H35.6801V25.4744ZM24.4477 25.4744C23.1681 25.159 22.9904 24.1779 22.9904 22.2507V0L17.4453 1.12129V1.6469C18.9027 2.03235 19.2226 2.55795 19.2226 3.78437V22.2507C19.2226 24.0377 19.1515 25.0889 17.8008 25.4744V26H24.4477V25.4744Z" fill="#2C2D36"/>
</svg>
