<svg width="504" height="357" fill="none" xmlns="http://www.w3.org/2000/svg"><path fill-rule="evenodd" clip-rule="evenodd" d="M308.876 196.685c.208 1.069.727 1.572.183 2.554-.462.834-1.786 1.379-2.675 1.168l2.492-3.722zm24.076-38.017l4.384 1.503c-1.198 1.176-2.34 2.411-3.661 3.455l-.723-4.958zm-72.305 3.849c2.09-1.054 4.432-1.173 6.724-1.308l-1.046 5.645-5.678-4.337zm50.201 145.657c.417-.739 3.263-6.447 3.854-6.154.314.155.339 3.333.385 3.785l.489 4.824c-1.683-.595-3.481-1.088-4.728-2.455zm19.882-46.148l-1.291 3.785c-.205.6-.325 1.484-.687 2.014-.471.686-.116 1.09-.744.338-.675-.807-.876-2.96-1.169-3.949l-1.334-4.507c2.096-.017 3.366 1.709 5.225 2.319zm44.047-74.294c2.577 1.762 5.186 3.509 7.429 5.699-1.973-.123-4.72 1.234-6.578.597-.857.183-1.141-.143-.851-.978V187.732zm-38.215 12.462v10.285c-2.407-2.05-4.94-3.955-7.255-6.111l7.255-4.174zm-86.026 26.65c.76 4.579.802 9.291 1.01 13.925.037.822.353 2.06-.195 2.781-.549.722-2.116 1.122-2.912 1.508-2.24 1.086-4.465 2.202-6.698 3.302l8.795-21.516zm-56.869-28.159l-16.578-8.15 16.254-6.881.324 15.031zm56.881 12.789c-1.01.073-1.17-3.774-1.337-4.792a645.057 645.057 0 00-3.091-17.335 547.287 547.287 0 00-4.923-22.95c1.945-.35 3.731-.602 5.63-1.168 1.534-.458 3.361-.209 4.731-1.16.177 3.567-.713 7.359-1.043 10.926-.382 4.127-.587 8.232-.553 12.378.066 8.034.372 16.07.586 24.101zm127.193 108.85c-.958-.255.346-13.383.404-15.276.166-5.481.199-10.966.101-16.449 5.159 3.235 10.439 6.215 15.889 8.903-1.401 1.817-2.713 3.776-4.263 5.467-1.597 1.742-3.43 3.169-4.91 5.045-2.979 3.777-5.021 8.065-7.221 12.31zm-124.16-77.661c-.24-3.949-.462-7.889-.861-11.826-.17-1.676-1.789-10.578.804-10.369 1.475.119 4.061 2.277 5.413 3.033 1.787.999 3.575 1.995 5.37 2.979 3.542 1.941 7.107 3.838 10.662 5.756l-21.388 10.427zm15.393-82.108c2.952-.22 5.807-.439 8.72-.989 1.57-.297 3.141-.256 4.72-.456 1.131-.143 3.342-1.072 4.395-.768 1.324.382 1.805 7.016 1.987 8.682.293 2.682.491 5.936-.707 8.455-2.309 4.857-8.53 1.066-11.557-.971-2.595-1.747-5.534-3.516-7.835-5.637-2.038-1.878-.209-5.888.277-8.316zm-15.314 52.817c-2.225-.9-2.19-2.03-2.287-4.357-.117-2.828-.186-5.66-.266-8.489-.144-5.042-.28-10.087-.235-15.132.043-4.928.285-9.848.849-14.745.199-1.732.001-4.69.913-6.167.833-1.347 3.418-1.362 4.829-1.278 1.59.093 2.878 1.604 4.052 2.558 1.3 1.058 3.971 2.548 4.184 4.125.238 1.762-.729 4.276-1.105 5.984-1.371 6.237-3.04 12.412-4.797 18.548-1.824 6.367-3.671 12.798-6.137 18.953zm56.525-14.927c-.144-1.401-.665-2.571.04-3.906.606-1.148 1.592-2.301 2.332-3.387 2.12-3.112 4.498-6.093 6.808-9.066a272.94 272.94 0 016.499-8.057c1.234-1.47 2.507-2.909 3.773-4.353.926-1.057 1.805-2.543 3.115-3.096a326.636 326.636 0 012.387 18.281c.301 2.956.56 5.916.778 8.879.062.836.711 3.661.296 4.44-.436.818-3.102 1.913-3.918 2.414-2.282 1.402-4.055 3.515-6.225 1.21-1.494-1.588-2.697-3.825-4.366-5.21-.87-.722-1.689-.688-2.665-1.116-1.135-.498-1.17-.977-2.526-.3-2.284 1.14-3.672 2.825-6.328 3.267zm114.348 31.23c0 4.202.288 7.657-2.561 11.059-2.489 2.973-5.076 3.661-8.577 4.834-2.062.69-2.206.054-3.876-1.113-1.588-1.107-3.317-1.996-4.883-3.138a332.143 332.143 0 01-10.027-7.594c-1.102-.871-.94-.574-.772-1.619.153-.952.836-2.165 1.21-3.07.676-1.639 1.472-3.225 2.268-4.808.905-1.796 1.692-3.746 2.816-5.421.466-.695 1.019-1.323 1.563-1.957 1.145-1.334 1.104-1.285 2.474-.194 2.891 2.302 5.581 4.795 8.835 6.595 3.85 2.131 7.69 4.276 11.53 6.426zm-87.175-32.552c-.417-6.033-.888-12.033-1.612-18.038-.371-3.084-.803-6.159-1.224-9.236-.171-1.253-.832-3.356-.464-4.573.362-1.198 1.959-2.339 2.835-3.205.236-.233.96-1.211 1.271-1.255.334-.047 1.588.872 1.95 1.079a80.822 80.822 0 013.775 2.309c2.332 1.513 4.592 3.137 6.804 4.822 4.638 3.533 9.06 7.334 13.599 10.991-4.158 3.644-9.277 6.475-13.927 9.427a337.341 337.341 0 01-8.312 5.136c-1.419.843-3.065 2.132-4.695 2.543zm56.851 107.882c3.358 2.221 6.565 4.565 10.363 5.989 3.781 1.419 7.518 1.965 11.425 2.808 1.971.426 3.823.891 5.835 1.189 1.127.166 2.871.102 3.899.578.915-.195 1.241.117.977.936l-.029.764c-.259 3.541-2.535 7.803-4.521 10.682-1.159 1.681-2.635 3.245-4.103 4.658-1.657 1.596-2.612 2.721-4.921 2.053-3.893-1.127-7.329-3.396-11.275-4.396-3.121-.791-5.713-2.45-8.757-3.308-3.754-1.058-7.469-2.265-11.275-3.149 1.7-3.281 3.221-6.698 5.397-9.704 2.232-3.084 4.693-6.048 6.985-9.1zm-20.596-110.416c-7.023 1.398-14.635 2.692-20.921 6.317-2.453 1.415-5.563 3.602-6.281 6.529-.859 3.498 2.518 5.664 5.338 6.756 3.386 1.311 7.072 1.813 10.66 2.226 1.899.219 3.807.339 5.715.447 1.544.088 4.163-.251 5.575.361.884-.177 1.191.182.919 1.075l.049.963.147 2.884.292 5.761.637 12.55c-3.679-2.279-6.643-5.542-10.238-7.974-1.71-1.156-3.407-2.314-5.109-3.466-.714-.483-1.15-1.16-1.853-1.61-.931-.597-1.757-.956-2.631-1.738-3.57-3.192-7.539-5.951-11.325-8.882-1.719-1.331-3.602-2.555-5.238-3.984-1.714-1.496-1.477-2.728-1.435-4.879.045-2.277-.791-5.104-.403-7.3-.326-.745-.076-1.209.749-1.391l1.654-1.058 3.297-2.109 13.118-8.389 6.553-4.19c.61-.39 2.6-2.152 3.284-2.101.698.053 1.91 1.416 2.433 1.85.803.665 1.582 1.365 2.45 1.947.432.3.884.567 1.354.802.751.073 1.012.486.784 1.238.66 2.117.297 5.141.426 7.365zm-97.39 99.806c1.59-7.435 3.641-16.239 9.844-21.296 6.291-5.129 15.488-3.147 20.409 2.876 2.465 3.017 3.993 6.584 5.128 10.28 1.165 3.793 2.882 8.736 2.568 12.748-.137 1.758-1.644 3.649-2.506 5.183-.888 1.585-1.478 3.857-3.573 3.309-3.247-.852-6.55-2.806-9.589-4.205-3.074-1.416-6.311-2.58-9.498-3.947-2.116-.907-4.313-1.598-6.424-2.518-2.001-.872-4.642-1.083-6.359-2.43zm-93.972-44.283c-4.436 1.588-6.742-.953-9.863-3.815-2.957-2.71-6.16-5.317-8.883-8.263-2.808-3.037-5.028-6.627-7.187-10.136-2.183-3.546-5.134-7.375-6.478-11.325-.683-2.008-.975-4.234-1.406-6.311-.103-.5-.799-2.36-.578-2.78.304-.578 2.241-.64 2.773-.724a44.447 44.447 0 0112.963-.104c8.214 1.157 15.084 5.764 17.681 13.819 3.043 9.443 1.581 19.938.978 29.639zm28.761-81.903c.069 1.635-3.85 2.089-4.866 2.471-2.347.88-4.681 1.81-6.96 2.852-4.694 2.145-9.7 3.543-14.194 6.137-9.689 5.592-20.208 9.534-29.996 14.882-1.525.834-4.505 2.842-6.247 2.672-.926-.09-.236.655-.837-.817-.216-.529-.288-1.218-.409-1.786-.363-1.7-.643-3.416-1.051-5.107-.67-2.784-1.354-5.366-1.637-8.227-.12-1.212-.251-2.423-.265-3.642-.015-1.236-.299-4.332.258-5.402.37-.709.444-.466 1.369-.666.529-.115 1.085-.353 1.596-.513 1.199-.373 2.399-.731 3.656-.841 1.242-.108 2.035-.486 3.2-.706 1.222-.23 2.477.049 3.722-.272 1.344-.347 1.986-.664 3.39-.531 1.362.128 1.753-.174 3.087-.545 1.112-.309 2.438-.093 3.598-.187 1.404-.114 2.803-.29 4.208-.401 6.316-.5 12.707.242 19.038.183 3.442-.032 6.811.476 10.248.319a74.703 74.703 0 019.092.127zm-16.431 33.288c3.073 1.17 5.922 3.071 8.77 4.708 3.285 1.887 6.429 3.893 9.469 6.156 5.111 3.807 11.075 8.37 12.421 15.012 1.38 6.816-4.539 12.401-10.089 15.19-6.329 3.18-13.693 4.825-20.626 6.039.742-15.691.567-31.409.055-47.105zm91.916 36.943c1.864.515 3.442 1.618 5.172 2.434 1.548.731 3.047 1.282 4.494 2.223 2.357 1.534 5.09 2.847 7.555 4.034 6.099 2.934 12.019 6.578 18.057 9.83 1.6.862 2.125 1.407 2.667 3.181.588 1.927 1.143 3.868 1.71 5.802.529 1.803 1.373 3.732 1.151 5.636-.194 1.656-1.051 3.219-1.697 4.73-1.626 3.802-3.389 7.544-5.211 11.255-1.635 3.333-3.127 6.868-5.225 9.931-1.631-8.506-3.095-18.038-9.417-24.52-6.318-6.477-16.396-6.568-22.484.118-2.892 3.176-4.653 7.176-6.036 11.195-.727 2.112-1.215 4.264-1.682 6.445-.5 2.329-.377 3.566-2.947 2.86-2.042-.561-4.206-1.009-6.207-1.648-1.038-.332-2.05-.704-2.097-1.524-.06-1.036 1.334-3.156 1.746-4.131l6.38-15.087 6.93-16.381 3.459-8.173c1.052-2.483 1.928-6.171 3.682-8.21zm-92.089-42.466c-.034-2.483-.075-4.966-.107-7.449-.02-1.48-.679-4.341.609-5.398.799-.655 3.17-1.157 4.18-1.606 1.994-.884 4.153-1.279 6.159-2.157 7.857-3.442 16.033-6.308 24.122-9.081 1.744-.599 3.526-1.088 5.282-1.677.948-.318 4.459-2.186 5.336-1.697.768.428 1.347 5.519 1.593 6.577a410.419 410.419 0 011.674 7.525c2.076 9.759 3.818 19.587 5.437 29.431-4.302-1.634-8.426-4.465-12.492-6.653-4.223-2.274-8.431-4.541-12.683-6.762-1.2-.628-5.422-3.509-6.41-2.378-1.585 1.815 2.192 3.943 3.183 4.721 3.835 3.008 7.886 5.63 11.987 8.253 4.249 2.719 8.672 5.121 12.943 7.791 1.542.963 4.003 2.136 4.609 3.764.78 2.093.217 4.638-.493 6.638-1.743 4.915-3.652 9.77-5.671 14.578a376.562 376.562 0 01-2.818 6.53c-1.143 2.582-2.641 3.128-5.13 4.317-10.602 5.062-21.614 9.867-31.798 15.725 1.705 1.964 5.858-1.261 7.54-2.078 3.115-1.513 6.233-3.021 9.345-4.538 5.799-2.827 11.568-5.71 17.399-8.468-3.737 8.5-8.147 16.69-13.038 24.58 1.235.418.934.44 1.709-.303.653-.625 1.091-1.85 1.533-2.635.914-1.622 1.816-3.251 2.737-4.869 1.911-3.358 3.891-6.666 5.635-10.115 1.312-2.594 2.329-7.129 5.025-8.437 3.361-1.63 6.765-3.217 10.126-4.871 0 12.924-.929 25.56-2.292 38.404-.069.648-.69 2.559.562 2.372.564-.085.755-3.629.854-4.368a251.53 251.53 0 001.157-10.201c.629-6.801.972-13.628 1.016-20.458l2.419 19.919 1.146 9.439.602 4.957c.092.759.034 1.752.301 2.476.419 1.139.278 1.052 1.594 1.572a982.65 982.65 0 01-3.447-25.984 796.239 796.239 0 01-1.748-16.134c-.056-.581-.558-2.452-.279-2.935.275-.479 2.103-.978 2.629-1.223 1.152-.534 2.304-1.068 3.456-1.606 3.736-1.746 7.47-3.507 11.166-5.339 1.616-.801 3.312-2.04 5.07-2.467 1.75-.425 3.023.793 4.52 1.567 1.165.603 3.909 1.405 4.687 2.429.724.953-1.524 4.766-2.115 6.172l-5 11.898-10.137 24.125-2.478 5.897c-.529 1.259-1.413 4.849-2.697 4.99-.569.062-1.502-.557-2.051-.734-.82-.265-1.577-.261-2.4-.401-1.507-.255-3.071-1.033-4.551-1.578-3.804-1.403-7.748-2.308-11.582-3.618-3.853-1.315-7.642-2.793-11.479-4.109-3.485-1.195-7.002-2.557-10.35-4.113-3.535-1.643-7.161-3.092-10.606-4.915-6.275-3.319-12.482-6.419-18.026-10.489-1.304-.957-2.692-1.919-3.982-2.943-1.13-.9-3.288-2.01-4.057-3.193-.293-.451-.546-1.335-.203-1.87.368-.575 1.996-.522 2.757-.625l7.198-.967c-.184 1.578-.37 3.155-.504 4.739-.093 1.118-.754 4.072.137 4.948 1.225-1.164.831-4.646.941-6.197.058-.829-.152-2.452.219-3.187.406-.806 1.531-.795 2.55-1.016 4.32-.934 8.601-1.719 12.782-3.2 7.063-2.501 15.505-6.725 17.082-14.872 1.645-8.493-5.582-15.852-11.666-20.589-3.643-2.836-7.519-5.292-11.527-7.571-1.874-1.065-3.747-2.131-5.632-3.173-.686-.379-2.938-1.16-3.3-1.823-.37-.678-.18-2.491-.259-3.264zm151.104 130.435l1.028.503c-3.811-10.862-7.588-21.676-10.774-32.742a1712.713 1712.713 0 00-4.688-16.003c-.687-2.297-2.374-5.461-1.905-7.841.507-2.576 1.723-5.316 2.664-7.765 6.024 3.787 12.174 7.379 18.298 10.994 5.49 3.241 11.073 6.124 16.602 9.332 2.833 1.643 5.755 2.753 8.712 4.095 2.403 1.092 1.47 4.427 1.435 6.656-.121 7.867-.115 15.762-.593 23.618-.173 2.861.051 6.147-1.771 8.529-2.33 3.045-4.491 6.15-6.616 9.356-.796 1.201-4.141 7.704-5.388 7.561-.814-.092-1.564-2.726-1.971-3.35-.878-1.346-2.161-2.504-3.329-3.587-5.045-4.681-10.644-7.978-16.462-11.399-5.911-3.475-11.96-6.71-17.983-10.006-1.36-.744-2.826-1.281-4.178-2.042-.534-.301-1.593-.778-1.929-1.315-.503-.804-.333-3.032-.437-3.993-.215-1.963-.6-4.003-.621-5.981-.02-1.953 1.155-3.632 2.006-5.336 3.738-7.48 7.369-14.978 10.621-22.685 2.564 8.949 5.256 17.856 7.772 26.818 1.313 4.68 2.896 9.283 4.437 13.891.787 2.354 1.578 4.705 2.364 7.059.612 1.833.93 4.517 2.706 5.633zm-53.681-168.655c1.981.022 3.777-.269 5.715-.683.711-.151 1.336-.216 2.056-.279.817-.072 1.56-.515 2.276-.602.542-.065 1.487.163 2.004.336 1.199.401 1.16.199 1.21 1.59.079 2.15.137 4.3.255 6.448.465 8.455 1.363 16.828 2.593 25.202.25 1.692.947 3.912.563 5.593-.345 1.515-1.654 3.134-2.519 4.405-1.779 2.614-5.968 3.906-8.915 4.647-3.108.782-6.334 1.07-9.286 1.767-.819.193-1.758-.147-2.63.047-.806.179-1.432.621-2.177.942-1.826.783-3.866.928-5.751 1.533-3.739 1.2-7.742 1.128-11.484 2.281-.957.294-1.784 1.036-2.704 1.29-.842.232-1.708-.041-2.589.089-1.866.275-3.607.913-4.037 2.916-1.141-.903-1.3-.666-1.103-2.063.127-.896.626-1.987.899-2.851.696-2.202 1.396-4.403 2.092-6.605 1.376-4.358 2.744-8.72 4.013-13.11a208.145 208.145 0 003.069-11.872c.459-2.027.842-4.063 1.236-6.102.114-.591.001-1.531.595-1.925.539-.357 1.797.924 2.367 1.337 3.977 2.881 13.099 11.401 18.071 6.375 2.678-2.707 2.521-7.465 2.231-10.962-.179-2.149-.556-4.271-.978-6.384-.106-.527-.75-2.221-.514-2.597.255-.404 2.909-.645 3.442-.763zm-139.745 47.03l-3.176.356c.097-.855.01-2.142.334-2.938.448-1.101 1.544-1.224 2.75-1.681 1.907-.721 3.853-1.348 5.739-2.124 4.094-1.685 8.169-3.394 12.266-5.079 1.795-.739 3.905-1.947 5.855-1.344 2.102.651 4.177 1.977 6.142 2.948 2.226 1.099 4.45 2.202 6.674 3.304l3.129 1.55c1.639.812 1.856.894 1.986 2.749.658 9.484.609 19.337.322 28.835-.147 4.846.018 9.72-.33 14.558-.027.372.001 2.472-.232 2.758-.328.404-2.637.54-3.189.641-2.151.393-4.318.524-6.492.719.512-11.032 2.393-24.074-3.272-34.165-5.691-10.138-17.855-12.334-28.506-11.087zm98.929-108.533c-.638-1.453-1.737-2.68-2.676-3.955-.507-.69-1.386-1.513-1.711-2.32-.463-1.147-.46-.902.231-1.907.654-.95.641-1.021 1.651-1.191.851-.143 1.757.1 2.626-.056.879-.157 3.295-.898 2.741-2.296.024.061-1.374-.628-1.482-.747-.351-.383-.462-1.198-.636-1.66-.558-1.482-.754-2.44-.132-4.018.929-2.356 4.602-3.053 6.889-2.26 1.143.395 1.795 1.234 2.308 2.289.327.67.403 1.638.825 2.22.636.879.676.781 1.995.626 1.68-.197 3.058-.843 4.649-1.292 1.734-.491 2.862.507 4.377 1.311 2.735 1.453 5.376 1.958 8.44 2.188 3.411.257 6.573-.565 9.951-.777-.876 4.037-3.143 7.314-4.954 10.97-.319.642-.833 1.3-.845 2.043-.013.7 1.001 1.654.887 2.234-.244 1.237-2.966 2.227-3.997 2.575-2.917.983-6.238 2.909-9.448 2.135-1.76-.424-2.707-3.203-4.363-3.407-2.222-.275-.56 2.586-.147 3.57-3.154.48-7.151.073-10.169-.996-1.513-.536-2.795-1.335-4.176-2.128-1.719-.987-2.077-1.258-2.834-3.15zm55.187 60.08c5.622.094 11.326-.715 16.961.028 1.306.172 2.594.449 3.877.744.922.212 3.85.391 4.465 1.077.56.625.564 3.503.68 4.315.257 1.806.188 2.43-.964 3.827-3.791 4.597-7.738 9.056-11.474 13.703-3.587 4.465-6.533 9.453-10.159 13.854-1.937-5.638-2.053-12.404-2.585-18.316a748.97 748.97 0 01-.784-9.461c-.23-3.006-1.015-6.905-.017-9.771zm72.77 59.418c-.65 0-1.687.204-2.319 0-.869.277-1.159-.049-.872-.977l-.041-.975c-.091-2.094-.191-4.188-.288-6.282a785.363 785.363 0 01-.251-5.744c-.052-1.307-.712-4.548-.184-5.728.355-.794 1.195-.614 2.218-.73.973-.11 1.949-.212 2.916-.363 1.228-.191 2.589-.631 3.839-.356 1.255.277 2.168 1.436 3.153 2.173 1.559 1.166 3.152 2.289 4.724 3.436 2.857 2.087 5.686 4.212 8.519 6.33 1.17.875 1.395.571.825 1.829-.353.776-1.156 1.655-1.644 2.357-.973 1.397-1.942 3.515-3.19 4.649-1.816 1.65-6.855.602-9.267.591-2.751-.014-5.403.028-8.138-.21zm-7.12-.136c-2.385-.234-4.795-.133-7.165-.454-2.578-.349-5.137-.865-7.709-1.252-2.565-.386-10.367-1.945-9.596-5.773.813-4.046 6.786-6.47 10.091-7.83 5.162-2.124 10.55-3.262 15.98-4.463.681 3.627.583 7.521.707 11.197.068 1.996.127 3.995.126 5.993 0 .48.165 1.478-.031 1.925-.462 1.052-.998.657-2.403.657zm7.845 1.738h15.225c-2.253 4.664-4.383 9.415-6.812 13.991-2.419 4.558-5.534 8.853-8.279 13.229-.695-.757-1.804-1.578-2.276-2.478-.524-.996-.509-2.461-.595-3.614-.222-2.993-.324-6.012-.399-9.011a152.57 152.57 0 00-.383-7.856c-.044-.575-.678-3.56-.316-4.051.324-.437 3.169-.206 3.835-.21zm-62.702-91.576c-2.569-.001-5.14-.033-7.708.01-2.331.04-5.367-.366-7.502.834-4.349 2.444 4.345 8.721 6.108 10.301-2.851 1.033-7.3-1.017-10.091-1.957-3.45-1.161-6.969-1.941-10.489-2.851-.879-.227-4.654-.672-5.131-1.346-.473-.668.586-4.7.693-5.55.099-.8.015-2.046.348-2.799-.204-.903.113-1.22.952-.948l.869-.004c2.141.017 4.285.117 6.425.188 7.356.244 14.533.571 21.826 1.719 3.391.534 6.811 1.19 10.184 1.846 2.839.551 2.362 1.014-.29 1.02-2.074.006-4.13-.302-6.194-.463zM105.982 71.682l-1.311-1.506 3.194-.913c1.133-.323 1.742-.25 1.239-1.514-.631-1.585-3.512-1.767-4.896-1.826-4.768-.207-9.776 1.31-14.305 2.646-2.21.653-3.941 1.662-5.811 3.004-.816.586-1.759 1.136-2.473 1.84-.743.732-1.051 1.669-1.777 2.402-1.19 1.203-2.713 1.801-3.297 3.537-.67 1.992.13 4.273 1.121 6.01 1.006 1.763 2.5 3.096 3.713 4.698.963 1.272 2.974 4.744-.169 4.342-1.661-.213-3.817-3.047-5.013-4.176-1.714-1.62-3.4-3.276-5.216-4.784-1.61-1.337-3.464-2.708-5.617-2.943-2.269-.247-3.402 1.205-4.508 2.97-1.043 1.666-1.21 3.293-1.944 4.997-.354.822-.804 1.28-1.012 2.177-.32 1.378-.354 2.882-.517 4.287-.256 2.206-.498 3.942-.07 6.104.4 2.023.51 4.173.847 6.231.382 2.332.7 4.674 1.076 7.007.319 1.976 1.532 4.79.342 6.628-2.859 4.416-6.288-2.085-7.19-4.514-1.588-4.267-2.396-8.932-3.796-13.287-.75-2.329-1.405-4.68-1.835-7.092-.356-1.994-.18-4.423-1.274-6.2-.85-1.38-2.36-2.427-4.018-2.006-2.075.527-2.872 3.527-3.483 5.35-1.611 4.809-1.018 9.14-.362 14.044.303 2.271.593 4.546 1.115 6.779.352 1.506 1.81 4.556-.358 5.375-3.072 1.162-6.329-7.652-7.204-9.642-2.292-5.213-3.17-10.383-4.115-15.968-.217-1.285-.383-2.597-.708-3.859-.282-1.098-1.126-2.209-1.202-3.307-.076-1.1.652-1.867-.094-2.947-.621-.898-1.743-.953-2.756-.96-2.38-.02-4.658 1.026-6.872 1.785-2.062.705-5.11 2.253-7.332 1.755 6.972-7.079 13.926-14.077 22.24-19.59 3.862-2.56 7.726-5.02 11.9-7.107 4.227-2.115 9.07-3.543 13.598-4.823 2.463-.696 4.911-1.485 7.343-2.283 2.164-.711 4.343-.846 6.463-1.652 4.604-1.751 9.75-2.43 14.517-3.672 2.106-.547 4.234-1.018 6.344-1.525 2.218-.534 5.334-1.46 7.594-1.37 1.93.076 2.581 2.288 3.509 3.826 1.348 2.233 2.497 4.553 3.557 6.935 2.171 4.88 4.463 9.923 6.016 15.022.853 2.8 1.695 5.602 2.533 8.406.724 2.427 2.537 5.93 2.055 8.42-3.57-5.503-6.895-11.217-9.781-17.11zm166.24 49.688l5.683.258c-1.889 6.209-1.625 12.819-1.625 19.254-8.828-1.04-17.726-1.217-26.606-1.145 1.632-3.148.999-7.231.535-10.601-.273-1.972-.424-3.872-.385-5.863.038-1.867-.501-3.436 1.477-4.014 1.57-.457 2.562.305 4.056.654 1.791.416 3.741.467 5.564.693 3.794.472 7.452.749 11.301.764zm50.865 12.091c-5.689-1.578-11.734-.997-17.451-2.196 1.3-1.187 3.75-.484 5.477-.385 1.963.112 3.925.193 5.889.289 1.915.093 7.226-.052 7.917 2.385l-1.832-.093zM114.933 45.487c7.444.653 15.24.552 22.63 1.85 8.464 1.488 17.287 2.421 25.494 5.043 8.049 2.572 16.259 4.372 24.195 7.392 7.714 2.936 15.144 6.059 22.409 9.986a147.777 147.777 0 0110.406 6.166c3.309 2.155 6.935 3.921 10.141 6.205 2.855 2.033 5.317 3.898 7.806 6.39 2.661 2.663 5.249 5.399 7.912 8.058 2.223 2.218.816 7.642.675 10.594a162.55 162.55 0 01-1.034 12.195c-.478 3.875-.969 8.04-.338 11.906.265 1.626 1.179 4.434.743 6.056-.35 1.3-2.667 2.252-3.85 2.676-1.446.518-2.923.3-4.407.959-1.658.736-3.055 1.655-4.815 2.042-2.17.478-4.609.879-6.839.894-2.061.013-4.13.681-6.186 1.092-3.344.67-6.608.878-6.4 4.911.24 4.654 2.087 8.646 3.186 13.064-1.487 0-2.523.095-3.884-.433-1.589-.615-3.285-.778-4.955-1.043-3.69-.587-7.287-.775-11.001-1.15-6.804-.686-13.726-.604-20.535-.532-3.447.036-7.187.303-10.586.839-3.488.551-7.101.895-10.481 1.952-2.852.891-5.796 1.498-8.705 2.285-1.311.355-2.881.642-4.12 1.039-1.795.575-2.754 1.802-4.827 1.774.583-3.839 1.953-7.4 2.78-11.206.863-3.976 2.584-7.493 4.484-11.244.847-1.673 1.474-3.448 2.292-5.135.908-1.877 2.186-3.432 3.283-5.186 2.245-3.59 4.641-7.042 6.846-10.657 1.925-3.156 4.125-6.182 6.232-9.228 2.317-3.349 5.537-5.877 8.167-8.95 1.11-1.298 2.166-2.504 3.41-3.695 1.145-1.097 2.77-3.525 4.523-3.638 1.008-.066 2.754.501 3.715.805 1.779.564 3.667.931 5.504 1.427 2.011.543 3.987 1.25 6.002 1.766.805.206 1.763.108 2.527.341.799.245 1.437.784 2.311 1.031 4.311 1.224 8.597 2.612 12.94 3.725 4.472 1.147 9.012 2.123 13.346 3.747.826.31 1.746 1.043 2.381.562.473-.36.779-1.375.654-1.967-.416-1.972-3.57-2.685-5.089-3.476-4.07-2.122-8.114-3.619-12.488-5.06-2.155-.709-4.302-1.466-6.487-2.078-1.826-.512-3.727-1.377-5.594-1.64-1.661-.232-2.84-.886-4.489-1.466-2.428-.853-4.926-1.554-7.394-2.283-4.218-1.246-8.689-1.77-13.005-2.606-9.999-1.936-20.38-2.906-30.583-2.786-5.144.06-10.525-.09-15.608.757-1.226.203-3.803.164-4.648 1.264-.454.59-.208 1.47-.325 2.11-.197 1.08-.786 1.583-1.297 2.567a269.513 269.513 0 00-3.733-15.784c-1.267-4.749-2.44-9.584-4.133-14.266-1.792-4.954-3.964-10.206-6.641-14.74-.552-.933-1.926-2.416-2.044-3.46-.122-1.077 1.387-1.911 2.424-2.031 2.327-.269 4.818.191 7.103.27zm-50.008 76.088c-.757-7.386-2.971-15.113-1.734-22.53.523-3.139.932-6.136 2.502-8.97.794-1.433 1.112-2.485 2.628-1.64 1.535.855 2.947 2.968 4.22 4.192 2.337 2.251 4.786 4.569 7.585 6.24 2.206 1.317 6.586 2.564 8.243-.283 1.58-2.713-.527-6.5-2.04-8.739-1.73-2.56-5.008-4.933-3.168-8.093.791-1.36 1.93-1.716 3.128-2.609 1.037-.773 1.905-1.773 2.942-2.56 3.005-2.279 6.3-3.255 9.769-4.558 1.601-.601 1.812-1.167 2.737.208 1.005 1.494 1.555 3.587 2.282 5.24 1.455 3.309 3.007 6.444 4.883 9.53 1.893 3.114 3.571 6.367 5.361 9.542.675 1.198 1.31 2.416 2.108 3.541.435.612.973 1.157 1.326 1.827.522.99.29 1.893.615 2.879 1.403 4.255 3.45-1.684 3.841-3.073.444-1.579 1.517-2.81 2.212-4.284.575-1.217.966-3.025 2.353-3.598 1.136-.469 2.6.175 3.759.238 2.13.115 4.275-.057 6.414.076 2 .124 3.996.316 5.996.439 2.001.123 4-.216 5.975-.005 3.545.378 7.168.317 10.705.841 4.15.614 8.257 1.27 12.419 1.78-.967 1.829-2.972 2.622-4.557 3.927-1.416 1.166-2.538 2.512-3.965 3.622-1.447 1.126-2.308 2.791-3.506 4.145-1.174 1.325-2.261 2.437-3.289 3.92-4.965 7.161-10.085 14.057-14.18 21.797-2.072 3.918-4.051 8.109-5.467 12.311-1.519 4.508-2.264 9.343-3.166 14.004-.45 2.323-.685 4.284-.193 6.62.129.557.264 1.112.404 1.666.431.663.272 1.092-.48 1.29-.44.641-1.04.881-1.078 1.757-.03.666.341 1.438.914 1.813 1.107.725 1.107-.254 2.249-.037l1.283.694c.226-.344.458-.683.697-1.018.727-.692 1.306-.629 2.257-.797-.484 5.565.287 10.534 1.512 15.963.59 2.611 1.6 5.166 2.109 7.781.568 2.921-.674 4.252-2.597 6.201.488.254 1.343.531 1.745.911.641.607.477.682.477 1.631-.001 1.738.332 3.451.605 5.16.506 3.166.967 6.441 2.057 9.472 1.98 5.505 5.179 11.221 8.439 16.07 1.825 2.713 3.653 5.796 5.94 8.137 2.295 2.35 4.569 4.72 6.859 7.077 4.506 4.638 9.43 7.843 14.828 11.316 2.137 1.376 4.389 2.883 6.228 4.595 1.868 1.74 4.353 2.958 6.586 4.223.996.564 1.705 1.374 2.781 1.837 1.01.434 1.716.576 2.564 1.146 2.103 1.414 4.374 2.623 6.69 3.689 2.824 1.3 5.603 2.813 8.503 3.923a61.052 61.052 0 013.845 1.649c1.385.64 2.879 1.06 4.3 1.742 1.2.576 2.416.911 3.638 1.382.998.385 1.781 1.008 2.799 1.41 2.114.835 4.038 1.284 6.091 2.269 2.729 1.307 5.962 1.917 8.836 2.858 3.209 1.052 6.538 2.097 9.831 2.843 1.401.317 2.595.732 3.948 1.212.882.313 1.893.484 2.87.781 2.699.823 5.397 1.616 8.11 2.316 5.302 1.368 10.718 3.009 15.859 4.865a88.027 88.027 0 018.017 3.384c2.923 1.4 6.073 2.209 9.008 3.595a797.78 797.78 0 0116.92 8.246 220.679 220.679 0 018.715 4.604c1.043.582 2.183.823 3.218 1.394 1.354.748 2.466 1.845 3.853 2.586 5.346 2.855 10.803 5.545 15.714 9.158 2.57 1.891 5.331 3.827 7.552 6.13.733.759 2.003 1.935 2.136 3.037.195 1.63.012.13-.552 1.136-.782.095-.959.396-.533.901a.961.961 0 00.756.363c.988.199 2.835-.847 3.629-1.285 1.375-.757 2.105-1.716 2.989-2.988 1.918-2.761 3.79-5.546 5.765-8.268 1.777-2.447 3.516-5.142 5.538-7.39 1.371-1.524 1.473-.858 2.998.001 1.135.639 2.452.912 3.628 1.513 4.479 2.295 9.403 3.99 13.998 5.589 1.046.364 1.604.942 2.523 1.445 1.171.641 2.655.954 3.907 1.409a580.749 580.749 0 0110.31 3.877c2.644 1.02 5.186 1.823 7.257 3.705.824.749 1.821 1.286 2.672 2.043.991.881 2.331 2.314 3.578 2.813l.76.593c.514-.357 1.029-.714 1.545-1.07.511-.354 1.022-.706 1.533-1.061 1.281-.891 2.553-1.794 3.826-2.696 2.889-2.047 5.795-4.074 8.482-6.385 4.772-4.104 9.724-7.987 14.714-11.831 5.238-4.034 10.344-8.255 15.761-12.047 4.91-3.436 10.267-6.339 15.027-9.966 2.396-1.826 4.787-3.663 7.233-5.432.133-.096 2.124-1.317 2.144-1.453.034-.249-.621-.901-.815-1.111-.915-.995-1.93-1.881-2.842-2.887-4.251-4.688-9.802-4.525-15.669-4.746-2.66-.101-5.546 1.126-8.073 1.962-3.089 1.021-6.07 2.52-9.055 3.815-6.151 2.668-12.499 4.947-18.712 7.418-2.444.972-4.877 1.446-7.361 2.113-2.52.679-5.116.032-7.812.081-1.398.025-2.721.107-4.129.027-.837-.047-1.8-.205-2.626-.191-.67.012-1.364.288-1.98.218-2.697-.306-5.545-.734-8.326-1.085-2.761-.348-5.61-.521-8.334-1.066a29.742 29.742 0 01-4.046-1.127c-1.146-.404-3.228-.863-4.169-1.681-.841-.732-.473-.741-.004-1.936.186-.472.378-1.187.653-1.642.743-1.229 1.462-1.615 1.029-3.153-.762-2.711-3.36-4.441-5.585-5.776-5.01-3.007-9.593-6.863-14.869-9.413-10.872-5.255-20.779-12.08-31.381-17.851-11.654-6.343-22.678-13.786-34.494-19.861-10.999-5.655-21.947-11.342-33.037-16.819-5.415-2.674-11.539-5.12-16.453-8.625 2.723-.338 5.453-.774 8.184-1.016 1.267-.112 2.55-.009 3.809-.21 1.409-.225 2.742-.795 4.148-1.032 2.418-.408 4.592-1.237 7.013-1.543 2.595-.328 5.136-1.091 7.743-1.304 5.454-.447 10.376-2.458 15.157-4.993 1.184-.628 2.156-.269 3.29-.696.625-.234 1.288-1.172 1.99-1.676 1.932-1.388 3.591-3.026 5.428-4.542 3.861 8.665 11.442 14.559 18.677 20.371 3.665 2.944 7.643 5.44 11.345 8.328 2.87 2.239 5.477 4.244 8.541 6.024 2.942 1.709 5.706 4.017 8.511 6.07 1.901 1.392 4.129 2.442 6.151 3.65 1.652.987 4.877 2.46 5.327 4.25.369 1.463-.35 3.204 1.882 2.531 2-.601 3.449-2.821 4.613-4.384 3.011-4.045 5.82-8.228 8.616-12.422 1.501 2.931 4.092 5.042 6.486 7.215a62.682 62.682 0 004.535 3.724c.762.572 1.533 1.132 2.296 1.703.301.225.982.571 1.177.888.456.743.179.406.108 1.304-.111 1.405-.58 2.511.216 3.858.747 1.265 2.376 1.805 3.518 2.669 2.716 2.056 5.573 4.241 8.586 5.846.684.365 1.331.68 1.968 1.126 1.063.744.869 1.014 1.941.301 1.676-1.116 3.123-2.968 4.636-4.314a464.278 464.278 0 019.618-8.333c6.184-5.204 12.551-10.15 18.659-15.447 5.803-5.035 12.025-9.368 18.017-14.154a388.438 388.438 0 004.89-3.992c1.444-1.192 3.788-2.506 4.856-4.032 1.552-2.216-4.518-5.244-6.349-5.695-3.157-.777-7.24-.333-10.403.304-3.319.669-6.699 2.904-9.799 4.297-3.494 1.569-7.053 2.926-10.572 4.407-1.57.661-3.234 1.188-4.691 2.078-1.547.945-2.927 2.021-4.571 2.813-1.895.912-3.863 1.763-5.856 2.438-.903.305-1.875.612-2.824.736-1.343.174-1.161-.444-2.277-.79-.948-.294-1.174.482-2.027.698-.802.204-1.403-.002-2.098-.434-1.55-.962-2.93-2.289-4.48-3.291-1.439-.93-3.025-1.798-4.373-2.851-.601-.469-1.046-1.112-1.638-1.588-.95-.764-1.326-.461-2.435-.987-.906-.43-1.728-1.231-2.59-1.762-.535-.329-1.833-.746-2.179-1.279-.906-1.4.641-2.372 2.027-1.959.208-1.209 1.274-4.079.814-5.213-.408-1.002-1.477-.815-2.376-1.346-3.381-1.995-5.875-5.621-9.038-7.966-2.981-2.211-5.611-4.85-8.565-7.101-2.529-1.929-5.294-3.812-7.598-5.891-2.724-2.459-6.211-4.372-9.172-6.567-3.059-2.267-5.902-4.79-8.928-7.082-2.912-2.206-5.771-4.51-8.763-6.61-2.689-1.888-5.508-3.611-8.141-5.524-1.443-1.048-3.02-1.969-4.666-2.657-1.637-.684-3.07-1.487-4.668-2.223-3.177-1.465-7.315-2.477-10.769-2.896-3.799-.462-7.613-.875-11.447-.879-2.043-.001-4.027.387-6.057.511-1.866.112-3.883.584-5.735.522-.839-.028-1.568-.383-2.38-.268-.678.095-1.268.505-1.996.576-1.62.16-3.249.001-4.887.21-3.764.481-7.532 1.167-11.304 1.548-4.018.407-8.002.484-11.999 1.17-3.906.669-7.837 1.363-11.72 2.137-8.254 1.645-16.593 3.251-24.716 5.694-1.899.571-3.809 1.114-5.634 1.897-.886.379-1.736.839-2.66 1.123-1.323.407-1.584.561-2.265-.549-1.173-1.91-1.82-4.437-2.671-6.516-.842-2.057-1.864-4.13-2.352-6.278 1.419-.224 3.21.212 4.674.262 1.791.062 3.562.023 5.35.013 3.605-.022 6.424-1.087 9.835-2.205 2.875-.942 6.703-1.483 8.896-3.641 1.176-1.157 1.567-1.361 3.334-1.153 1.784.209 3.545.57 5.345.629 6.785.225 13.539 1.409 20.355 1.643 1.844.064 6.456.938 6.154-2.19-.063-.649-.56-1.212-.657-1.88-.104-.717.075-1.444.187-2.144.267-1.656.546-3.312.811-4.968 6.216 1.994 12.509 3.611 18.843 5.191 2.626.655 6.845 2.161 9.559 1.335 2.624-.798 1.104-4.495.287-6.264 5.213 1.189 10.773 3.135 16.089 3.582 1.617.136 3.191.494 3.568-1.461.299-1.558-.826-3.463-1.4-4.832 4.08-.364 8.304-.329 7.537-5.559-.704-4.797-4.689-5.752-8.933-6.629-5.237-1.082-10.586-1.443-15.858-2.319-4.587-.762-9.591-1.612-14.275-1.228-2.48.204-4.975.25-7.453.48-1.17.108-2.295.289-3.427.608-1.044.294-2.505 1.205-3.575 1.221-1.616.026-3.563-2.159-5.301-2.664-2.152-.625-4.472-.739-6.695-.892-2.521-.173-5.045-.269-7.564-.474-.574-.046-2.745.096-3.198-.241-.66-.49-.221-3.003-.175-4.036.043-.955-.141-2.744.521-3.119.622-.351 2.434.131 3.046.229 2.537.406 4.947.36 7.475.256 1.167-.047 2.288.264 3.444.111 1.24-.164 2.489-.582 3.724-.814 2.676-.502 5.114-1.128 7.419-2.627 2.024-1.316 4.42-2.207 5.551-4.511.828-1.687 1.165-4.943-1.271-5.423 1.659-2.392 2.804-5.08 3.683-7.845.16-.501.265-1.256.504-1.694.842-1.546.06-.175 1.262-.793 1.187-.61 2.043-1.094 2.971-2.156 1.479-1.693 2.102-3.777 2.289-5.984.253-2.997.727-6.376.29-9.358-.758-5.165-4.533-9.046-8.368-12.17-2.083-1.696-4.824-2.327-7.266-3.356-2.358-.994-4.991-2.036-7.475-2.27-2.242-.21-4.428-.942-6.672-1.237-3.085-.406-6.173-.255-9.272-.378-1.427-.057-2.85-.258-4.271-.411-.802-.087-2.158.006-2.892-.312-1.202-.521-.553.573-.982-1.02-.817-3.031-1.484-5.873-2.721-8.818-1.153-2.744-2.553-5.367-4.403-7.713-1.735-2.2-3.985-3.81-6.029-5.69-1.515-1.392-3.233-2.65-4.961-3.776-.988-.644-2.089-.992-3.054-1.56-1.198-.705-2.256-1.24-3.604-1.672-2.894-.926-5.766-1.91-8.839-1.861-3.313.052-6.635-.72-9.86.258-5.99 1.816-8.924 8.307-8.824 14.269-2.049-.512-3.839-1.496-6.009-1.58a30.002 30.002 0 00-6.337.467c-3.81.72-7.729 2.838-10 6.048-2.167 3.062-2.492 7.127-1.16 10.6.638 1.663 1.649 3.142 2.726 4.547.789 1.03 2.551 2.17 2.634 3.55-14.748-4.458-29.556-7.6-44.811-9.634-7.734-1.03-15.48-.515-23.221-1.104-3.307-.251-6.901.1-10.319.114-1.444.006-2.567-.195-3.613-1.129-1.06-.945-1.906-2.102-3.141-.738-.315.348-.382 1.19-.806 1.452-.514.317-2.008.1-2.623.137-2.15.131-4.248.496-6.359.916-3.873.771-7.72 1.55-11.548 2.53-7.286 1.863-14.476 3.666-21.657 5.879-7.328 2.257-14.733 5.043-21.489 8.697-3.272 1.77-6.54 3.98-9.55 6.17a31.443 31.443 0 00-3.869 3.347c-1.3 1.313-2.891 2.198-4.18 3.521-2.801 2.876-5.592 5.928-8.134 9.044-1.327 1.627-2.544 3.343-3.726 5.077-.83 1.217-3.015 3.445-2.512 5.017.268.839 1.206 1.426 2.064 1.22.286-.069.525-.44.77-.476.828-.117.074-.41 1.042-.017 1.922.78 2.535 2.344 4.977 1.988 4.152-.605 8.056-2.566 11.832-4.275 1.078 4.123 1.23 8.396 2.175 12.568.92 4.071 2.455 7.952 4.308 11.686 1.626 3.275 3.713 6.766 6.59 9.107 2.196 1.786 7.614 4.005 9.227.202.685-1.615-.334-4.125-.622-5.787-.387-2.231-.814-4.468-1.047-6.721-.19-1.831-.285-3.672-.461-5.505-.152-1.576-.573-4.961.313-6.353.534-.84.581-.016.892.822.377 1.015.69 2.023.966 3.069.586 2.224 1.115 4.462 1.67 6.693.99 3.987 2.082 7.886 4.147 11.471 1.835 3.183 4.416 6.674 8.339 7.196 1.836.244 4.23-.596 5.632-1.833 1.573-1.388 1.103-3.678 1.09-5.565zM154.499 284.362c-2.156-.425-3.971-2.146-5.731-3.438-2.246-1.649-4.376-3.445-6.556-5.177-4.108-3.263-7.836-6.842-11.381-10.735-6.994-7.679-12.26-17.564-14.653-27.663-1.211-5.11-2.709-11.098-2.021-16.379.239-1.834.603-2.17 2.402-2.379.812-.094 2.874-.328 3.605-.008 1.896.828 2.919 4.353 3.481 6.124 1.661 5.23 2.638 10.647 4.139 15.92 1.471 5.168 3.841 10.413 6.186 15.246 5.216 10.753 12.466 19.75 20.529 28.489zm-42.765-59.372c1.29 14.644 5.355 28.596 14.471 40.389 4.334 5.605 9.429 10.482 14.953 14.912 5.703 4.575 11.527 8.883 17.998 12.295 1.722.908 3.447 1.813 5.19 2.679.967.48 3.407 2.249 4.521 1.969.893-.225 1.127-.916 1.266-1.814.312-2.018-.998-3.025-2.324-4.321-5.324-5.205-10.665-10.43-15.644-15.967-9.832-10.936-17.218-24.032-21.323-38.162-1.265-4.351-2.393-8.75-3.758-13.07-.832-2.631-2.011-7.316-4.774-8.628-1.481-.704-3.208-.019-4.766-.441-1.462-.395-2.43-1.202-3.676.151-2.185 2.375-2.283 7.032-2.134 10.008zM501.238 309.483c1.091.387 1.137.77 1.637-.352.252-.566.184-1.341.124-1.929-.142-1.408-.883-2.709-1.492-3.958-5.732 4.729-11.685 8.99-17.831 13.168-6.574 4.468-12.85 9.436-19.067 14.385-5.568 4.432-11.202 8.733-16.711 13.221-2.657 2.165-5.687 3.842-8.213 6.073-2.041 1.803-5.426 2.61-7.166 4.731 2.758 1.648 6.439 2.975 9.495 1.549 3.371-1.573 5.956-3.623 8.956-5.754 1.546-1.098 3.153-2.095 4.723-3.157 1.381-.935 2.355-2.299 3.753-3.176 2.936-1.842 5.949-3.872 8.735-5.976 2.863-2.16 6.027-3.879 8.788-6.176 2.831-2.354 6-3.914 8.956-6.058 6.264-4.542 11.78-9.651 15.313-16.591zM332.232 68.288l.234 1.255c-.048.01-3.796-7.23-4.417-8.105-2.106-2.965-4.847-5.432-7.489-7.908-5.598-5.244-12.149-9.477-17.634-14.816-1.805-1.756-5.038-4.417-4.324-7.386.709-2.952 6.698-2.352 8.749-1.498 3.215 1.339 5.827 4.14 8.223 6.58 2.614 2.662 5.248 5.294 7.463 8.306 2.389 3.249 4.656 6.767 6.12 10.537 1.639 4.224 2.28 8.595 3.075 13.035zm-1.231 12.957c2.544.784-.645 1.314.352 2.673 1.092 1.49 2.929-3.101 3.204-3.969 1.619-5.122.895-11.346.011-16.547-.447-2.624-.735-5.29-1.337-7.886-.588-2.531-1.867-4.936-3.049-7.238-2.366-4.606-5.5-8.898-9.056-12.654-3.567-3.768-7.543-7.538-12.249-9.858-3.889-1.915-10.053-.586-11.874 3.599-1.86 4.276.656 8.934 3.631 11.94 3.88 3.922 8.109 7.817 12.468 11.198 2.24 1.738 4.117 3.84 6.294 5.654 2.316 1.93 4.32 3.872 6.033 6.369 1.658 2.419 3.366 4.836 4.444 7.582 1.18 3.007 1.128 5.956 1.128 9.137z" fill="#2C2D36"/><path fill-rule="evenodd" clip-rule="evenodd" d="M432.742 265.654c5.845-3.763 11.71-7.068 16.8-11.867 5.025-4.739 9.416-10.083 15.009-14.195 2.791-2.052 5.672-3.977 8.413-6.096 2.602-2.011 5.592-3.733 7.944-6.026 3.134-3.059 9.003-8.741 4.998-13.3-4.97 5.912-11.79 10.571-18.008 15.059-6.556 4.732-12.573 10.253-18.791 15.408-5.991 4.966-11.961 9.979-17.807 15.076-1.535 1.34-3.015 2.746-4.568 4.064-.19.161-1.8 1.181-1.8 1.452 0 .651 1.247 1.058 1.692 1.239.702.286 2.599.997 3.395.756.417-.126.424-.466.725-.668.173-.326.375-.633.604-.922.465.008.93.015 1.394.02zM88.647 200.033c4.167-.107 10.51-.12 10.276 5.57-.116 2.817-1.643 4.887-2.898 7.296-1.318 2.533-2.295 5.149-2.681 7.987-1.565 11.49 2.632 22.715 6.428 33.337-8.152-6.58-14.04-15.736-17.131-25.772-1.499-4.866-2.082-11.122-1.598-16.189.242-2.536 1.178-4.809 2.304-7.068.565-1.135 1.13-2.431 2.033-3.35.903-.92 2.155-1.227 3.267-1.811zm14.535 60.771c2.692-4.427-1.546-10.945-2.932-15.261-1.657-5.161-3.185-10.534-3.893-15.916-.742-5.638.216-10.021 2.829-15.001 2.337-4.452 3.724-10.381 1.126-15.092-1.046-1.896-2.591-2.129-4.428-2.885-2.254-.928-2.875-2.498-5.641-2.249-4.936.443-7.22 5.124-9.055 9.113-4.282 9.297-3.118 21.296.533 30.633 2.102 5.372 4.498 10.95 8.066 15.524 1.75 2.243 3.806 4.188 5.94 6.059 2.308 2.023 4.376 4.463 7.455 5.075zM385.044 99.378c6.507 1.308 12.445 4.241 13.488 11.553.947 6.646-3.58 12.795-9.139 15.906-6.012 3.366-13.546 3.925-19.537.195-6.307-3.927-7.737-11.796-3.899-17.969 4.284-6.89 11.459-8.923 19.087-9.685zm-4.181-3.188c-7.749 1.135-14.942 6.65-17.552 14.077-2.691 7.656-.218 16.073 6.905 20.268 14.398 8.479 33.64-5.651 30.165-21.891-.882-4.124-3.388-7.317-6.791-9.732-3.758-2.666-8.302-2.738-12.727-2.722zM105.366 18.441l28.01-12.664 1.149 12.696c.104 1.145.528 2.703.347 3.833-.193 1.206.22 1.077-1.353.906-2.01-.22-4.027-.716-6.017-1.071-3.577-.639-7.381-.82-10.883-1.76-1.786-.48-3.497-.54-5.311-.83-1.992-.317-3.93-.907-5.942-1.11zm31.583 8.182c0-4.768-.53-9.47-.966-14.216-.392-4.27-.544-8.34-1.937-12.407-1.302 2.364-4.907 3.31-7.138 4.526-3.074 1.676-6.347 2.91-9.493 4.438-3.091 1.5-6.068 3.221-9.162 4.718-1.568.759-3.161 1.467-4.727 2.231-.98.48-3.305 1.25-3.914 2.139-1.851 2.699 4.485 2.96 5.708 3.198 3.667.715 7.378 1.118 11.039 1.853 3.413.687 6.832 1.324 10.257 1.946 3.391.616 6.883 1.574 10.333 1.574zM424.832 144.643c-3.676-.382-7.337-.932-11.009-1.296-3.478-.344-6.553-.71-9.73-2.303a469.394 469.394 0 0113.062-3.729c2.17-.586 4.335-1.206 6.515-1.754 1.686-.424 3.156-.668 3.805-2.508.754-2.143-1.344-1.818-2.652-1.274-1.803.751-3.768 1.218-5.638 1.842-4.172 1.393-8.37 2.674-12.582 3.941-1.309.393-8.895 1.849-6.161 4.38 1.169 1.084 3.779 1.679 5.209 2.457 1.835.998 3.832 1.395 5.873 1.792 4.253.828 8.667 1.145 12.973 1.863l6.595 1.1c1.288.215 1.784.194 2.121-1.243.245-1.044-.075-2.088-.31-3.099-.596-2.569-1.259-5.125-1.916-7.679-.25-.974-.692-5.257-1.561-5.726-1.972-1.063-.45 4.867-.304 5.593.553 2.739 1.21 5.459 1.506 8.238a178.537 178.537 0 01-5.796-.595zM372.705 166.449c-.729 1.832.482 2.241 1.952 2.876 1.907.823 3.782 1.692 5.723 2.433 4.084 1.558 8.197 3.006 12.184 4.809 7.603 3.438 15.309 6.74 22.794 10.422 1.86.915 3.722 1.827 5.598 2.708 1.941.912 4.167 2.446 6.243 2.967 1.811.454 2-.835.927-2.023-1.383-1.532-3.523-2.676-5.26-3.741-7.152-4.383-14.956-7.952-22.767-10.967-9.028-3.486-18.081-6.831-27.394-9.484zM352.857 62.54c.262-5.57-.483-11.153-.039-16.707 7.636 6.769 3.874 17.23-.519 24.576l.558-7.87zm-3.305-.319c-.049 2.72-.203 5.44.061 8.146.278 2.841-1.055 4.305-2.792 6.397 1.475 1.498 4.861-1.993 5.795-3.022 1.925-2.12 3.357-4.935 4.632-7.48 2.714-5.42 4.583-11.223 2.411-17.174-.806-2.206-1.791-5.205-3.923-6.49-2.341-1.41-4.132.58-5.104 2.625-2.371 4.991-.563 11.641-1.08 16.998zM268.657 339.038c-3.521.279-6.989.554-10.51.777l1.823-14.48 6.112 1.414c.963.223 2.44.282 3.292.762l.957.222c.008.626.015 1.253.021 1.879.024 1.854.077 3.706.154 5.558.033.776.303 1.912.118 2.681.329.778.12 1.108-.631.992l-1.336.195zm2.424 3.49c2.76-1.374 2.006-5.573 2.001-8.246-.003-1.701-.123-3.39-.168-5.088-.031-1.167.236-2.611-.165-3.739-.715-2.006-4.21-1.952-6.007-1.811-1.333.104-2.448.037-3.814-.051-.674-.043-1.425.085-2.086-.114-.143-.043-1.489-.981-1.429-.984-2.415.093-2.447 5.882-2.604 7.35a557.855 557.855 0 00-1.053 10.876c-.083.96-.44 2.046.472 2.594.822.494 3.003.006 3.912-.022 3.667-.111 7.314-.683 10.941-.765zM98.798 127.433c-1.595 1.436-.829 2.918-.306 4.712.314 1.077 2.04 4.612 1.564 5.619-.55 1.164-3.137 1.45-4.243 1.818-1.926.641-3.861 1.284-5.684 2.187-.809.401-3.726 1.322-4.273 2.07-.313.429-.428.765-.192 1.318.414.97 1.004.457 2.012.249 4.606-.952 9.174-2.169 13.446-4.177 1.192 2.765 2.2 5.589 3.208 8.425.295.832.577 2.721 1.699 2.855 1.368.164 1.386-1.668 1.295-2.657-.132-1.443-.88-2.982-1.331-4.349-.373-1.128-1.68-3.476-1.519-4.639.111-.8.598-.744 1.467-1.058.821-.297 1.643-.592 2.464-.892 1.315-.481 2.625-.964 3.906-1.535.702-.314 2.173-.68 2.681-1.33.295-.377.625-1.736.252-2.112-.871-.88-6.664 1.49-7.855 1.814-.791.215-1.585.379-2.352.66-.29.108-.634.542-.947.559-1.333.067-1.439-.958-1.852-2.057-.96-2.554-2.003-5.16-3.44-7.48zM430.941 178.253c.711-1.742-6.83-3.845-8.23-4.432-3.416-1.43-7.077-2.295-10.614-3.388a223.325 223.325 0 01-10.364-3.473c-1.058-.385-8.677-4.095-9.076-3.553-1.32 1.795 14.669 7.434 16.227 7.995 7.234 2.605 14.704 4.605 22.057 6.851zM106.62 42.06c1.955.019 4.774.573 6.568-.22l-6.568.22zM380.861 96.19l4.346-.016c-1.45-.336-2.899-.54-4.346.016zM154.523 95.029c-1.024-.005-2.05-.01-3.067-.017l3.067.017zM64.925 121.576c.008 1.096.015 2.192.024 3.284-.007-1.098-.015-2.191-.024-3.284zM266.744 323.644l3.264.236-3.264-.236zM260.611 114.711l3.315.27-3.315-.27zM146.223 94.668l-2.341-.004 2.341.004zM303.611 116.85l2.916.263-2.916-.263zM260.673 47.46l2.917.018c-.97-.514-1.942-.382-2.917-.018zM438.142 215.618c.809-.043 1.468.349 1.924-.422-.746-.583-1.177.088-1.924.422zM288.136 150.688l2.524-.284-2.524.284zM271.082 342.528l-1.666.038 1.666-.038zM141.542 43.647l2.606.233-2.606-.233zM416.946 307.274c.835.004 1.669.008 2.503.01l-2.503-.01zM484.043 292.478l2.527.004-2.527-.004zM271.149 115.406l2.566.253-2.566-.253zM295.011 116.794l2.524-.291c-.834.163-1.76-.48-2.524.291zM218.793 150.576c-.524-.059-1.259-.243-1.799-.157.07.308 1.598.156 1.799.157zM272.18 216.594c-.565.011-1.13.022-1.688.031l1.688-.031zM323.171 149.36l2.474.239-2.474-.239zM415.473 146.55l-1.343.037 1.343-.037zM293.971 149.981l2.115-.042-2.115.042zM424.831 144.644l2.138.263-2.138-.263zM327.043 138.588zM293.457 212.632l-1.335-.088 1.335.088zM259.262 154.651l2.156-.269-2.156.269z" fill="#2C2D36"/><path fill-rule="evenodd" clip-rule="evenodd" d="M432.746 265.654c-.467-.006-.933-.012-1.394-.02l1.394.02zM471.051 207.675l2.23-.225-2.23.225zM486.91 292.579zM88.686 94.91zM412.581 306.643l2.204.253-2.204-.253zM419.792 307.372c.744.519 1.487.549 2.231.002l-2.231-.002zM433.892 307.993l2.163.002-2.163-.002zM349.553 62.221l.185-1.916-.185 1.916zM270.791 47.932a3222.839 3222.839 0 010 0zM268.224 47.593l2.21.248-2.21-.248zM382.598 132.862l-1.354-.021 1.354.021zM316.992 125.775c-2.405-.397-4.809-.529-7.213-.001l7.213.001zM252.859 98.725c-.5-1.307-.624-1.797-1.846-2.474.508 1.27.588 1.95 1.846 2.474zM194.219 228.1l-.145 4.076.145-4.076zM107.015 45.199l3.258.074-3.258-.074zM251.93 252.257l-.114 3.399.114-3.399zM385.23 215.955l-3.296.024 3.296-.024zM291.829 157.754c.663.006 1.324.012 1.98.02-.664-.005-1.322-.013-1.98-.02zM293.985 121.737l1.628-.054-1.628.054zM371.848 215.613l-2.578-.252 2.578.252zM390.566 215.999l-2.524-.039 2.524.039zM381.586 215.977l-2.615-.227 2.615.227zM378.409 217.359l1.294-.008-1.294.008zM194.602 197.886l-.194-1.914.194 1.914zM324.727 133.321l-1.641.14 1.832.093c-.003-.125-.067-.203-.191-.233zM184.291 240.75l.104-1.742-.104 1.742zM314.915 131.101l1.312.026-1.312-.026zM154.273 204.527l-2.193.256 2.193-.256zM306.198 156.331zM332.235 68.288c-.472.252-.227 1.36.234 1.255l-.234-1.255zM88.65 200.033zM352.855 62.54l.137-2.927-.137 2.927zM270.664 338.745zM275.082 87.287c2.358.485 4.779.74 7.081 1.453.575.179 2.46 1.273 3.147.985 1.046-.44.517-1.566.077-2.167-1.178-1.608-3.285-2.509-5.218-2.489-1.929.02-4.576-.05-5.087 2.218zM281.629 91.6c-2.596 1.818-4.579 2.713-4.799-1.371-2.813.383-1.552 4.914.576 5.256 2.317.371 3.863-1.943 4.223-3.884z" fill="#2C2D36"/><path fill-rule="evenodd" clip-rule="evenodd" d="M113.321 45.37c-.177 1.531-2.078.362-2.256 1.192-.112.521 1.845 1.815 2.267 2.172-1.363.822-3.104-1.071-4.125-1.865-.527.572-.705.872-.221 1.526.853 1.154.814-.376 1.829.427-.423.71-.794.304-1.331.113.234 1.366-.29.501-.699 1.366-.333.704-.293 1.224-.392 2.01l1.445 3.32c.579 1.33.407 1.759 1.824 1.314-.16-.276-1.22-1.627-1.134-1.959.098-.38 1.548-.904 1.931-1.223.673-.56.666-1.041 1.096-1.643-.171-.56-.038-.822.399-.785l.483 1.298c-.04.921-.818.835-1.277 1.715-.703 1.346-.31.552.265 1.635.564 1.065.627 2.423 1.554 2.958-.498.22-.996.438-1.495.656 1.164 1.277-1.256.655-1.656.532l1.227 2.607c1.227-.687 1.832-1.988 2.649-3.063l1.865 3.468-1.855-.172c.086.163.878 1.282.81 1.53-.276 1.014-2.382.443-2.149 1.769.03.17 1.917 2.073 2.241 2.257-.948.425-1.377.249-1.038 1.367l1.321-.798c.375.673.81 1.33 1.049 2.068-.046.482.04.94.258 1.371.26.386.552.747.877 1.08.258.679.34 4.38.03 4.984-.692-.895-2.24.684.372.684 1.144 0 1.067-.238 1.504.767.344.79.53 1.48-.445 1.556.733 1.444.576 2.557.642 4.096.054 1.246.404 2.485.663 3.709l-.696-1c-.626 1.333-.149 2.457.148 3.884.649-.858.729.672 1.284.514 1.132-.323.284-.561.745-1.304.399-.643.357-.828 1.094-1.221.979-.522 2.693-.541 3.8-.725 1.86-.31 3.723-.388 5.605-.47 7.046-.306 14.067-.384 21.111.003 6.481.357 13.12 1.265 19.475 2.496 6.766 1.31 13.383 2.519 19.936 4.735 1.266.429 2.534 1.322 3.8 1.636 1.201.298 2.404.294 3.656.73 2.998 1.04 6.1 1.829 9.121 2.823 3.255 1.071 6.778 1.964 9.877 3.446 1.345.643 2.567 1.516 3.912 2.169 1.267.614 3.398 1.175 4.067 2.594.261.553.217.954.055 1.527-.325 1.151-.582 1.026-1.465.949-1.229-.109-2.819-1.065-4.013-1.441-3.266-1.03-6.572-1.854-9.894-2.678-5.966-1.481-11.956-4.103-17.843-5.129-3.491-.608-6.799-2.262-10.309-2.887-.771-.137-3-1.236-3.632-.856-.168.1-.578 1.307-.723 1.595a19.217 19.217 0 01-1.809 2.964c-2.098 2.798-4.913 5.051-7.425 7.462-2.87 2.754-5.363 5.792-8.012 8.749l-.689-.8c.242 1.866-1.156 3.213-2.299 4.48-1.357 1.507-2.448 2.922-3.518 4.639-.878 1.408-2.001 2.641-2.993 3.924-.976 1.262-1.625 2.785-2.522 4.145-2.06 3.125-4.088 6.309-6.166 9.391-.978 1.451-1.751 3.083-2.525 4.735-.614 1.31-2.463 3.991-2.463 5.262.133.623-1.218 4.369.226 2.604l.691 1.069-1.184-.496c1.199 1.085-1.04 1.225-1.089 1.831l.598.578c.341.702.784.793 1.329.273.601.036.721-.299 1.391-.076-.64.999-1.464.368-1.788 1.747-.285 1.216.619 1.477 1.573 2.196l.059.045.021.072c.208.621.798.357 1.455.221 1.572-.324 3.309-.944 4.839-1.421a104.798 104.798 0 0110.063-2.607c7.804-1.61 15.546-1.534 23.421-2.044-.207-.862-.208-.786.037-1.321-.315.685 1.587-.21.154 1.305 3.659.598 7.612.148 11.323.347-.173-.384-.57-.827-.199-1.106 1.757 2.541 7.629 1.452 10.531 1.815 1.704.214 3.388.624 5.086.894l.715.112c.597.095 1.193.199 1.776.356.75.203 2.001 1.033 2.712.841-1.041-2.1.16-.282.323-.258.495.073 1.346.239 2.057.239-.81-3.252-2.199-6.247-2.759-9.596-.349-2.088-1.308-5.451.757-6.93 1.131-.811 2.984-.987 4.294-1.263 1.435-.302 3.944-.289 5.193-1.101.975-.634 1.181-1.216 2.459-1.701 1.473-.559 2.153-1.115 3.642-.663-.606-.758-1.454-1.311-.266-2.086.488-.317 1.442.109 1.613-.584.883.623.673 1.127.909 1.981a2.551 2.551 0 01-.285 1.033l1.4.564c-.296-.797.575-.322.748-.714.259-.586.106-1.481.106-2.117.962.304 1.969.68 2.39 1.682 1.178-.703.71-.751.106-1.805.99-.234 1.199.275 1.35 1.095l1.566-.484c-1.177-.008-1.459-.928-1.487-1.926l1.374.447.282 1.449c.721.611 2.597-.492 3.206-.808 2.122-1.1 2.898-1.418 2.599-3.918-.25-2.096-.804-4.202-.927-6.308-.136-2.34.137-4.842.342-7.175.398-4.513 1.038-8.962 1.262-13.494.121-2.454.256-4.908.352-7.364.077-1.951.75-4.099-1.684-4.272.297-.945-.594-2.038-1.514-2.555-.322-.733-.674-.799-1.056-.196-.332.104-.64.055-.926-.148-1.34-.304-2.948-2.206-4.152-2.892-1.18-.672-3.753-1.65-4.595-2.782-.815-1.095.417-.972.168-1.975-.34-1.372-1.578.598-1.768.872-.414-.415-1.994-1.195-1.975-1.8l1.161-.206c-.423-.245-1.362-.974-1.854-1.07-.836-.165-.522-.377-1.192.545-.233-.361-.8-1.548-1.155-1.789-.17-.115-1.176-.191-1.387-.266-1.096-.387-.986-1.24-1.791-1.645-.391-.196-.871.106-1.2-.037-.523-.23-.525-1.011-1-1.295-.412-.246-1.454-.041-1.946-.22-.813-.297-.777-.574-1.385-1.117-.851-.76-1.635-.65-2.583-1.226-.983-.597-.833-1.942-1.725-2.199-1.191-.342-1.496.786-2.144-.328-.146-.25.515-.625.101-1.026-.512-.495-.723.095-.958.48l-.808-1.526c-1.297.71-.752-.206-1.742-.694-.439-.216-.801.211-1.282-.05-.354-.192-.415-.61-.67-.87-.488-.497-.758-1.18-1.515-1.418.273.086-1.969.02-1.769-.075l.655-.96c-1.174 0-2.199.116-3.334-.237-.402-.124-1.03-.316-1.365-.572-.919-.702-.711-.53-.711-1.821-1.268.806-2.882.525-4.133-.411-.653-.489-1.072-1.073-1.788-1.515-.307-.16-.62-.308-.938-.446-.397-.411-.795-.415-1.194-.011-.564-.152-.558-.256-.995-.53a11.422 11.422 0 00-.402-.73 9.146 9.146 0 01-1.387-.253c-1.771-.477-2.84-1.659-4.484-.611l-.63-1.286c-.7 1.092-1.178.048-2.106-.394-.39-.186-.895-.232-1.247-.401l-.594.14-.503-1.557c-.338.132-1.679.852-2.082.814-.578-.054-1.268-1.032-1.828-1.216-.854-.282-.548.09-1.386.096-.645.004-.949.096-1.506-.446 1.883-.489-.493-.72-1.287-.885-1.236-.257-1.873.018-2.732-.959h.892c-.88-.8-.584-.518-1.51-.44-.292.024-1.561.721-1.563-.208-1.197.705-1.211.707-2.445.389-.546-.142-1.012-.6-1.612-.611-.586-.01-1.006.255-1.529.198-.313-.033-1.408-.444-1.779-.579-.587-.214-.973-.67-1.535-.847-.618-.196-1.404.036-2.053-.106-1.931-.425-3.064-1.58-5.154-.955-.223-1.87-2.555-1.455-3.81-1.262-.873.135-1.318.488-2.223.06-.736-.348-1.156-.9-1.975-1.178-.629-.214-1.476-.369-2.133-.505a2.997 2.997 0 00-1.244-.123c-.425.06-.782.245-1.07.555l-.053.061c-.065-.154-1.054-.887-.94-.796-.739-.591-1.085-.366-1.539-1.516l1.583-.334c-.815-.055-1.427-.149-2.152.168-.501.219-1.342 1.379-1.844 1.38-.907 0-1.225-1.278-1.134-1.943-.762 1.773-1.412 2.068-3.121 1.162l-.603-.32c-.407-.427-.811-.419-1.214.024l-.717.39-.862-1.434c-.61.84-1.189.88-2.184.684-.686-.135-2.094-1.378-2.6-1.378-.294 0-.668.715-1.157.855-.809.232-2.067-.352-2.356-1.127l-.459.971c-.382-.358-.766-.714-1.146-1.074zm29.05 120.145l.002.027-.028-.021v-.001l.026-.005zm.993-1.687v1.506l-.509.093-.484.088-.005-.083c-.021-.724.35-1.26.998-1.604zm45.055-5.99l.476 1.464-1.606.131 1.13-1.595zm62.879-38.578c-1.17.342-1.154.3-1.389 1.383-1.337 6.164 2.8 13.234-.238 19.094 8.88-.072 17.778.105 26.605 1.146 0-3.357-.11-6.707.144-10.058.115-1.521.287-3.037.442-4.554.196-1.926.134-1.814-1.442-2.145-.828-.174-1.124-.699-1.915-1.019-.594-.24-.86.055-1.446.138-1.047.148-1.06-.028-2.02-.233-2.059-.439-3.809-.282-5.436-1.82-.844-.073-.571.708-1.159.632-.427-.056-.699-.854-1.136-1.045-1.356-.593-3.615-.448-5.099-.634-1.517-.189-2.859-.873-4.311-1.076-.597-.083-1.033.025-1.6.191zm-17.128 17.79c.286 1.066 1.543-.321 1.563.515l-.001.076-.003-.019c-.066-.143-1.338 1.54-1.263 1.484-.683.514-1.081.466-1.855-.125 1.386-.052 1.233-.907 1.559-1.931zm-3.862 1.506c-.505.278-.66-.433-.922-.867.565-.282.648.373.922.867zm1.566-4.637c-.197.693-.183 1.223-.183 1.938-1.17-.165-1.537-.251-1.559-1.495l.625.393c.329-.649.401-.7 1.117-.836zm9.052 1.159l-.795-.512c.391-.562 1.086.106.795.512zm-2.958-10.343l-1.015-.532c.877-1.119.942-.743 1.015.532zm1.222-8.874h1.33c-.261.855-1.33 1.039-1.33 0zM108.903 66.125l-.911.531c.789.72 1.759 1.444.991 2.288-.611.669-3.461.988-4.315 1.232.296.34.906 1.272 1.31 1.507.321.185.613-.55 1.258.182-1.07.555-.783.135-.505 1.312.164.695.751 1.441 1.081 2.064a202.57 202.57 0 002.474 4.518 173.78 173.78 0 005.474 9.034c.323-1.668-.601-3.538-1.08-5.148a3144.63 3144.63 0 00-1.815-6.075c-1.171-3.902-2.223-7.762-3.962-11.445zm46.506 5.09l2.33.593c-1.301.415-1.301.415-2.33-.593zm-38.348-7.52c1.104.518 1.222.893.329 1.526-.107-.492-.185-.853-.329-1.526zm.134-12.234c.149.656 1.078.025 1.284.504.471 1.098-1.026.95-1.566.883l.282-1.387zm-6.26-.834c.296 1.404.296 1.404-1.073 1.615.36-.54.661-.994 1.073-1.615zm24.831-.969l.003.015c-.002.009-.01.013-.026.012l.023-.027z" fill="#72855D"/></svg>