<svg width="487" height="456" fill="none" xmlns="http://www.w3.org/2000/svg"><path fill-rule="evenodd" clip-rule="evenodd" d="M290.483 179.664c.425.075 1.425-3.379 1.609-3.899.12-.339.872-1.794.742-2.093-.101-.233-2.14-.958-2.351-1.052v7.044zM123.342 93.059c.269-3.646-.046-7.361.518-10.979.206-1.324 2.638-9.534-.388-6.762-2.372 2.172-2.693 6.247-2.568 9.177.089 2.089-.859 8.941 2.438 8.564zm189.692 95.039c-3.103-3.045-6.699-6.009-10.746-7.709-2.361-.993-2.381-.685-3.407 1.588-.92 2.037-1.781 4.008-2.513 6.121h16.666zm-42.586-.463c-3.6-5.737-9.714-10.82-15.497-14.32.533 1.353.554 2.757.799 4.166.247 1.418.879 2.52 1.269 3.868.701 2.43.156 5.286.156 7.789l13.273-1.503zm12.092-28.846c-.109-4.719 1.79-9.083 2.943-13.571-6.239 1.044-7.049-10.111-10.786-12.645.747 5.069 1.08 10.057 1.64 15.111.248 2.231.32 5.299 1.076 7.355.788 2.14 3.177 2.745 5.127 3.75zm13.175 8.773c1.258-1.154 2.249-3.728 3.163-5.297 1.325-2.276 2.967-4.152 4.652-6.175 3.148-3.78 6.798-7.168 9.852-10.973-3.465.346-6.924 1.151-10.375 1.989-1.835.445-3.707 1.036-5.438 1.782-1.434.618-3.098.68-4.424 1.254-2.676 1.16-2.131 8.213-2.458 10.727-.171 1.317-.839 2.657.016 3.802.958 1.283 3.652 2.176 5.012 2.891zm-121.536 21.934c-5.2-.909-10.044-2.205-14.247-5.576-3.586-2.876-6.758-6.366-9.767-9.809-.695-.794-1.321-1.615-2.395-1.896-.794-.209-1.581.237-2.34-.251-.67-.431-.628-1.326-1.127-1.792-.819-.765.365-.343-.918-.598-.82-.163-2.248.551-3.115.756-2.114.501-4.264.827-6.374 1.294-2.065.457-3.212 2.072-5.065 3.103-1.85 1.028-3.651 1.466-5.293 2.844-1.701 1.426-3.728 2.231-5.403 3.552-1.397 1.102-1.35 3.005-2.879 4.076-.654.459-1.551.503-2.128 1.073-.672.663-.965 1.774-1.542 2.536-1.488 1.963-2.594 2.954-3.404 5.381-.817 2.449.158 4.481-.22 6.991-.337 2.239-1.63 4.235-1.203 6.495.4 2.117 1.55 3.968 1.16 6.226-.22 1.269-1.002 2.205-.808 3.488.144.954.89 1.873 1.258 2.757.772 1.852 1.446 4.278 1.054 6.296-.189.983-1.042 1.567-1.278 2.364-.332 1.124.486 2.513.854 3.906.671 2.537.927 5.16 1.504 7.716.344 1.525.509 4.168 2.101 4.841 1.906.805 3.471-.841 5.161 1.241 2.739 3.37 2.761 8.427 5.522 11.97 1.191 1.529 2.816 2.987 4.831 3.195 1.174.121 2.011-.438 3.138-.025.857.314 1.55 1.121 1.993 1.881.924 1.584.622 3.584 1.48 5.201.558 1.05 2.62 3.363 3.627 3.911 1.559.851 2.322.453 3.581 2.087 1.434 1.861 2.525 4.268 4.344 5.814 1.757 1.493 2.926.699 4.94.863 2.007.164 2.669 2.003 3.787 3.475.421.552 1.357 2.186 2.031 2.384.963.285.663-.156 1.529-.545 1.738-.779 2.854-1.289 4.199.499 1.361 1.811 1.68 4.294 3.049 6.16 1.482 2.02 2.555 1.738 4.813 2.024 1.998.252 3.484 1.786 4.94 3.035 2.412 2.07 3.113 2.099 6.04 1.339 1.735-.451 2.681-.323 3.811 1.116 1.209 1.539 2.324 4.831 4.075 5.694 1.367.673 2.797-2.255 4.732-1.73 1.677.455 3.742 3.079 5.282 4.05 1.479.931 3.684 2.513 5.521 2.58.841.03 1.502-.555 2.287-.563.923-.007 2.294.524 3.138.897 1.826.807 2.846 2.549 4.631 3.516 2.742 1.486 3.847.115 6.414-.871 2.714-1.041 3.919.339 6.219 1.295 1.733.72 4.343 1.521 6.224 1.791 2.357.337 4.431-1.416 6.821-1.429 1.201-.007 1.913.23 2.88.955.424.318.801.763 1.181 1.132 1.18 1.143.627.984 1.969.476 1.621-.613 3.387-1.657 5.249-1.262 1.382.294 2.815 3.115 3.963 3.074.541-.02 2.002-1.826 2.436-2.221 1.031-.941 1.697-1.723 3.2-1.393 1.133.249 1.717 1.197 2.659.926.803-.23 1.923-1.842 2.181-2.543.696-1.896.24-4.48.475-6.491.323-2.784 1.001-5.524 1.456-8.289.431-2.623.486-5.271.858-7.893.277-1.958 1.509-4.483-.998-5.428-1.963-.74-3.17-.322-4.981-1.767-2.046-1.632-3.454-1.504-5.989-1.451-5.448.115-9.236-3.478-14.157-5.239-4.472-1.601-8.738-3.65-13.195-5.331-2.416-.912-4.203-2.16-6.395-3.352-1.992-1.083-4.634-.811-6.82-1.531-4.409-1.453-8.59-3.28-12.999-4.594-2.428-.723-4.941-.999-7.384-1.771-2.767-.873-4.623-2.533-6.696-4.533-2.344-2.259-8.88-7.481-7.436-11.31 1.512-4.01 8.811 4.137 10.638 5.248 1.568.954 3.309 2.112 4.984 2.582 2.266.633 4.063-.244 6.29.692 4.626 1.945 9.098 4.887 13.89 6.311 2.143.637 4.698.515 6.611 1.647 1.978 1.17 3.796 2.528 5.874 3.614 4.329 2.264 8.667 4.337 13.248 6.022-1.497-8.078-3.093-16.279-5.049-24.275-2.049-8.384-1.336-17.116-2.314-25.653-3.661 2.354-7.435 4.248-11.168 6.29-3.605 1.972-7.417 2.921-11.272 4.199-4.236 1.405-8.681 3.361-13.119 3.92-4.455.561-9.44 1.074-13.93.81a171.171 171.171 0 01-25.918-3.521c-1.335-.288-2.513-.809-3.905-.745-.869.039-2.102.677-2.891.199-1.658-1.004-.307-3.689.66-4.676 1.3-1.328 2.707-1.821 3.95-3.385 1.791-2.255 3.593-4.478 5.514-6.625 3.623-4.049 7.802-8.065 10.358-12.907 2.761-5.228 4.824-10.731 7.033-16.199-2.463.032-5.053-.26-7.526-.34zm121.64 5.928c-2.575.229-4.791.057-7.185.249-3.455.278-7.419-.042-10.845-.512-3.219-.441-6.368.352-9.533.062-3.284-.302-6.715-.33-10.127-.644-2.132-.197-1.997.325-2.578 2.291-.597 2.015-1.351 3.756-2.348 5.609-1.866 3.467-4.051 6.633-6.566 9.66-1.161 1.397-2.358 2.762-3.55 4.133-1.412 1.624-2.472 2.272-1.998 4.503.802 3.769 2.01 7.482 2.519 11.303.488 3.658.478 7.359 1.138 10.989.71 3.901 1.62 7.769 2.278 11.676.623 3.697 1.093 7.449 1.55 11.17.378 3.077.134 8.788 3.06 10.767 1.38.933 3.869 1.072 5.421.922 1.601-.154 3.18-1.312 4.76-1.272 1.436.037 2.021 1.001 2.922 1.988 1.486 1.628 1.527 2.023 3.534 2.035 1.287.007 1.464-.422 2.72.483 1.288.929 2.132 2.647 3.817 3.047 2.754.654 7.289-2.962 9.663-4.15 7.19-3.599 15.379-4.505 22.683-7.514 3.431-1.415 6.899-3.282 10.089-5.24 1.612-.99 3.171-2.028 4.56-3.322 1.297-1.207 3.969-3.113 4.568-4.709-4.049 0-7.909 1.712-12.007.674-3.952-1.001-2.942-6.225-2.51-9.174-5.622.838-16.288 3.885-14.97-5.585.472-3.396 2.984-6.018 5.605-8.008 2.016-1.531 5.54-2.783 6.649-5.201-4.399-.585-15.139 1.131-15.794-5.285-.697-6.814 6.068-10.391 11.352-12.663 6.441-2.77 13.261-5.334 20.215-6.471 3.058-.5 6.161-1.15 9.235-1.302 2.892-.143 6.904.336 8.858-2.295-3.957-.71-7.448-1.537-11.089-3.264-1.483-.703-3.083-1.752-4.48-2.614-1.569-.969-2.283-3.119-3.85-3.923-1.372-.705-3.366.233-4.898.384-2.446.242-4.89.494-7.343.655-5.131.338-10.389.755-15.525.548zm-132.501-58.61c2.252.81 4.512 1.6 6.763 2.413 1.91.69 4.691 1.214 6.255 2.555 4.615 3.956-2.9 3.962-5.229 4.104 1.003 3.482 2.316 6.972 3.126 10.496.267 1.164.916 3.874-.134 4.79-1.27 1.108-2.343-.393-3.23-1.417-4.877 5.267-11.591 8.001-17.871 11.197 4.675 4.252 9.164 9.035 15.565 10.468 3.036.68 5.919 1.431 8.989 1.95 1.183.2 2.358.707 3.517 1.036.514.146 1.539.659 2.057.583.969-.142.953-.768 1.465-1.894 2.569-5.642 5.077-11.411 9.286-16.029 2.142-2.348 4.545-4.133 7.407-5.54 2.963-1.457 6.388-1.35 9.44-2.645-3.582-5.191-7.364-10.384-9.448-16.399-.619-1.787-.282-2.45-1.89-2.711-1.114-.181-1.667.491-2.662-.407-2.387-2.154.459-4.662 1.919-6.166 3.513-3.615 7.356-7.486 9.791-11.958 1.026-1.883 1.901-4.097 1.182-6.149-1.111-3.172-2.829-6.313-4.384-9.284-2.88-5.5-5.548-11.621-9.189-16.657-1.871-2.588-3.965-5.06-5.608-7.808-1.33-2.224-1.387-4.385-4.38-3.314-1.156.413-1.444.555-2.318 1.303-.946.808-.922 1.41-2.316 1.786-1.227.33-2.618.132-3.867.388-1.74.358-2.53 1.278-3.921 2.395-2.506 2.011-5.012 1.324-7.861 2.068-1.051.274-1.214.74-2.059 1.353-1.357.983-3.103 1.167-4.692 1.546-1.579.378-3.39.645-4.805 1.418-1.321.722-2.282 1.865-3.704 2.488-1.279.56-3.345.543-3.816 1.478-.654 1.3.27 4.004.563 5.311.66 2.939 6.574 18.847.573 18.763.437 2.149.567 3.96-2.154 3.068-2.303-.755-5.403-2.374-7.84-1.475-1.998.738-4.366 3.722-4.906 5.779-.825 3.143.497 4.075 3.068 5.316 2.981 1.439 5.136 1.685 8.315.576 1.242-.433 2.521-.897 3.59-1.677 1.182-.861 1.674-1.948 3.263-1.983 1.117-.023 2.325.503 2.855 1.509.308.586.084 1.207.26 1.786.308 1.012.164.792.895 1.643 2.286 2.661 4.879 3.505 8.14 3.947zm23.077 195.13c2.522.507 4.957-.28 7.487.223 2.236.444 4.694 1.908 6.714 2.941 4.229 2.165 9.384 1.715 14.106 2.335 2.443.32 5.208-.102 7.511.753 2.231.828 4.138 2.005 6.514 2.337 4.61.643 9.483.079 14.036.002 4.712-.078 9.099 1.013 13.982.101.982-.184 2.016.201 2.854.033.63-.126 1.25-.836 1.87-1.089 2.028-.829 4.678-.772 6.815-.915 4.978-.331 9.648-.156 14.479-1.434 1.804-.477 15.295-2.224 15.217-2.854-6.627.378-13.469.068-19.903-1.713-4.788-1.325-8.584-3.699-12.923-6.023-1.166-.624-2.377-1.019-3.722-1.084-1.836-.09-1.682.155-3.068 1.452-2.625 2.457-4.574 2.219-7.181-.119-2.615-2.343-2.86.393-5.778.623-3.018.238-3.375-3.443-6.406-2.963-1.404.223-2.517 1.259-3.965 1.156-1.339-.097-2.166-1.034-3.372-1.464-1.407-.502-3.043-.357-4.506-.738-1.645-.43-2.967-1.514-4.692-1.307-2.681.321-4.469 2.409-7.422 1.783-3.146-.667-4.893-3.852-8.204-3.763-3.667.099-6.402.332-9.823-1.321-1.156-.559-1.907-1.469-2.992-2.062-1.371-.749-2.819-.089-4.254-.455-2.753-.702-4.438-4.288-5.996-6.426-1.281-1.757-1.464-1.736-3.591-2.066a20.477 20.477 0 01-4.581-1.273c-1.651-.673-3.113-1.909-4.796-2.467-1.491-.495-3.019-.134-4.426-.91-1.373-.756-2.401-2.512-3.372-3.693-.488-.592-.971-1.188-1.456-1.783-1.092-1.339-.941-1.423-2.408-1.677-1.432-.247-2.541-.061-3.867-.861-1.457-.879-2.355-2.411-3.697-3.396-1.165-.854-2.419-.952-3.768-1.443-1.774-.644-3.156-1.722-4.708-2.757-.166 3.087.48 7.528-1.707 9.898-.572.62-1.334.95-1.806 1.717-.831 1.346-.656.565-.354 2.314.349 2.02.29 2.925-.443 4.708-.139.338-.972.408-1.106.769-.191.51.391 1.933.521 2.507.246 1.089.396 2.478 1.031 3.37.854 1.198 2.719 2.435 3.758 3.578 1.218 1.339 2.443 2.556 3.894 3.648 2.401 1.806 5.732 4.447 8.659 5.237 1.658.448 3.402.253 5.082.775 1.707.53 2.977 1.653 4.569 2.316 6.688 2.782 14.067 2.968 21.194 3.48zm90.168-15.756c1.074.622 1.438.122 2.434.171.889.043 1.918.164 2.887.168 1.827.007 4.063-.454 5.837-.927 3.351-.893 6.723-1.466 10.055-2.105 2.837-.544 5.613-1.78 8.459-2.843 3.738-1.397 7.706-1.698 11.655-1.917 3.613-.201 7.154-.604 10.754-.899 3.621-.295 7.136.164 10.709-.642 1.665-.375 3.498-.641 5.021-1.398 1.759-.874 3.393-2.283 5.121-3.266 2.06-1.171 7.359-2.787 8.179-5.257-1.65.395-5.314 1.788-6.757.672-1.483-1.147-.939-4.136-.352-5.569.881-2.154 2.784-2.781 4.467-4.207 1.216-1.029 2.268-2.254 3.345-3.421.547-.603 1.097-1.204 1.65-1.803-.229-.619-.676-.633-1.343-.042-3.143.133-11.751 6.912-12.079.823-.176-3.259 1.775-4.793 3.716-7.055 1.922-2.239 3.42-4.776 5.041-7.229-3.158.514-5.949 2.163-9.036 3.037-3.283.93-6.838 1.993-10.178 2.373-1.276.144-4.613 1.355-5.68.713-.866-.521-1.05-2.913-1.077-3.786-.103-3.328 2.526-5.995 4.095-8.756-3.665 2.234-6.213 5.392-9.558 7.966-3.317 2.553-6.217 4.896-9.981 6.816-3.44 1.755-7.32 2.614-11.007 3.714-3.761 1.122-7.413 2.254-11.244 3.087-4.219.918-8.422 2.418-12.672 3.119-1.041.172-3.348-.398-3.939.294-.492.576-.132 4.641-.209 5.565-.383 4.553-1.288 9.075-2.027 13.581-.372 2.262-1.372 5.232-1.201 7.522.117 1.564.14 1.584 2.131 1.663.955.037 1.844-.229 2.784-.162zm43.909-65.441c-.514.106-.654.346-.421.719 7.24-1.59 14.323-4.593 21.779-5.373 1.971-.206 3.669-.991 5.622-1.145.901-.07 1.816.051 2.717.064.631.008 2.075.423 2.513.358 1.657-.243 3.432-2.081 4.729-3.055 1.543-1.16 3.491-2.329 4.734-3.838 4.86-5.903 6.089-13.384 2.928-20.277-.757-1.653-1.456-3.585-2.514-5.072-.927-1.303-3.228-2.153-3.655-3.403-.189-.554.329-1.73 0-2.211-.301-.441-2.484-.535-2.969-.639-2.169-.462-4.346-.954-6.315-2.024-.554 1.583-.379 2.535-1.931 3.473-1.757 1.062-4.429.841-6.358 1.399-4.2 1.215-8.724 1.534-13.023 2.732-9.741 2.715-19.919 5.952-28.642 11.176 3.948 1.548 8.899.737 13.035.765 2.942.02 10.685-1.821 12.245 1.429 1.99 4.148-3.364 6.865-6.048 8.568-4.207 2.668-8.569 5.099-12.408 8.277 2.228.082 4.289-.433 6.436-.952 2.315-.558 4.682-.593 6.987-1.159 3.536-.868 8.194-4.566 12.022-3.068 3.357 1.315 2.245 6.405-.063 8.137-1.502 1.129-3.434 1.107-5.173 1.609-2.384.687-4.186 2.172-6.227 3.51zM232.43 48.857c-7.251-5.391-14.242-11.15-21.822-16.087.067 2.371 3.285 5.413 4.438 7.518 1.663 3.038 3.214 6.144 4.769 9.24 2.783 5.538 5.794 10.955 8.599 16.485 5.756 11.354 14.184 20.53 22.368 30.086 4.353 5.084 8.003 10.574 12.12 15.833.827 1.056 1.664 2.492 2.704 3.369 2.031 1.711.904-.349.488-1.795-.97-3.38-1.918-6.765-2.852-10.154-.814-2.953-2.116-6.074-1.515-9.169.577-2.97 2.331-5.532 3.779-8.129 1.387-2.489 2.891-4.862 4.444-7.256.706-1.086 1.571-1.907 1.038-2.893-.573-1.058-2.854-2.23-3.828-2.942-5.356-3.915-9.901-8.848-15.443-12.588-3.363-2.27-7.225-3.885-10.812-5.763-3.059-1.6-5.722-3.685-8.475-5.755zM414.008 152.64c-1.256-.808-2.208-1.499-3.634-1.862-.839-.214-1.72-.196-2.555-.469-2.528-.828-4.698-2.149-7.369-2.72-4.544-.972-9.204-2.243-13.812-2.206-5.128.042-10.139.181-15.252.755-2.705.305-5.371.751-8.069 1.128-2.566.359-5.056.135-7.445 1.371 1.72.982 3.804.938 5.71 1.379 1.523.352 2.901 1.066 4.348 1.476 4.036 1.146 8.151 2.381 12.234 3.422 3.407.868 6.783 1.965 10.128 2.871 3.15.852 6.66 2.889 9.425 4.65 3.241 2.065 5.614 4.551 8.288 7.304 2.829 2.915 5.791 5.592 8.279 8.82 5.277 6.851 7.91 15.336 11.503 23.158 1.799-5.129 3.174-10.12 5.134-15.089 1.107-2.807 2.563-5.435 3.651-8.299l1.338-3.524c.751-1.978.966-2.372-.141-4.196-1.309-2.158-2.849-4.043-4.929-5.489-1.938-1.347-3.058-3.053-5.069-4.236-4.061-2.39-7.587-5.863-11.763-8.244zm-35.744-43.306c7.43-2.783 14.478-6.808 21.739-9.77.641-.262 1.254-.05 1.93-.343.902-.392 1.691-1.21 2.613-1.64 1.792-.838 3.695-1.46 5.493-2.313a4604.21 4604.21 0 0113.227-6.249c7.021-3.302 13.356-7.793 19.985-11.813 2.834-1.718 5.565-3.791 8.044-5.67 2.793-2.118 5.008-5.452 8.107-7.18-1.083-.525-4.261.819-5.409 1.161-1.676.501-3.471 1.154-5.24 1.73-4.518 1.47-9.298 2.33-13.723 3.987-4.785 1.79-9.993 2.878-14.881 4.42-5.398 1.702-10.908 2.991-16.316 4.635-4.698 1.427-9.178 3.245-13.874 4.706-2.515.783-5.211 1.438-7.542 2.709-2.035 1.11-2.082 2.343-2.721 4.445-1.384 4.55-2.595 9.16-4.388 13.577-.169.418-3.272 5.895-3.205 5.989.437.612 5.538-1.962 6.161-2.381zM229.348 142.76c2.21.047 4.117.663 6.29 1.014 2.323.375 4.736-.084 7.013.509 1.813.472 3.539 1.284 5.352 1.779 2.208.603 4.632.165 6.779.977 2.133.807 4.259 2.687 6.248 3.854 1.387.816 3.091 3.447 4.804 1.78.97-.945-.143-4.652-.435-6.279-.323-1.805.065-4.801-1.19-6.275-1.678-1.971-4.827-1.953-7.076-1.967-2.357-.014-4.611-.47-6.89-1.037-5.339-1.329-10.771-2.952-15.669-5.48-4.268-2.201-8.346-5.007-11.992-8.142-3.874-3.331-6.247-7.29-8.679-11.695-.582 2.156.774 5.019.762 7.254-.016 2.915-.764 5.756-2.017 8.377-1.075 2.248-2.512 4.54-4.113 6.463-.892 1.071-1.937 1.998-2.891 3.012-1.357 1.443-1.512 1.648-.643 3.468 1.168 2.444 2.921 4.535 4.328 6.835.198.323 1.14 2.5 1.421 2.655 1.153.638 2.28-.602 3.248-.933 3.092-1.059 5.773.165 8.46-2.192 2.006-1.758 3.942-4.085 6.89-3.977zm32.895-19.364c-3.431-8.121-10.039-15.354-15.382-22.344-2.414-3.157-5.531-5.438-8.071-8.439-2.727-3.22-5.414-6.356-8.041-9.658-2.679-3.365-5.068-6.778-7.002-10.642-1.88-3.758-4.145-7.252-6.066-11.004-3.892-7.604-7.418-15.363-11.459-22.903-1.881-3.509-3.534-6.914-4.908-10.66-.418-1.137-1.901-7.043-2.209-3.53-.188 2.129.881 4.794 1.181 6.908.611 4.31 1.225 8.62 1.776 12.938.601 4.715 1.909 9.335 2.417 14.056.9 8.366 2.317 17.314 5.242 25.242 3.166 8.579 6.832 16.849 10.856 25.043 1.82 3.705 3.526 7.849 6.661 10.618 3.429 3.028 6.941 5.584 11.144 7.45 3.819 1.694 8.289 3.608 12.439 4.109 5.188.626 9.201 1.039 13.82 3.829-.513-1.923-.179-3.03-.386-4.926-.22-2.025-1.347-4.185-2.012-6.087zm5.888 44.939c-.016-1.959-.404-3.729-.651-5.638-.204-1.577-.587-2.299-1.55-3.524l-.543-.691c-.31-.85-.748-.895-1.315-.138-.463-.065-.859.157-1.411.028-.63-.147-1.747-1.018-2.491-1.26-1.925-.629-3.146-2.095-5.059-2.739-.315-.106-1.033.28-1.47.194-.443-.514-.998-.743-1.669-.685a10.4 10.4 0 01-1.497.066c-2.691-.152-4.492-1.537-6.963-2.261-2.698-.788-5.344.043-8.04-.15-2.098-.149-3.672-1.238-5.862-1.164-2.863.097-2.102 1.351-1.758 3.879.301 2.199.061 3.559 2.552 3.918 2.294.331 4.289-.721 6.583.022 2.431.785 4.437 2.485 6.186 4.279.945.971 1.48 1.895 2.816 2.164.953.191 2.309-.309 3.263-.376 2.601-.181 4.844.57 7.069 1.903 4.564 2.737 8.543 6.445 12.37 10.101.066-2.639.319-5.382-.56-7.928zm69.851-21.929c4.075-4.396 11.41-5.993 16.895-7.71-1.591-1.786-4.632-3.609-7.012-3.588-2.459.022-5.7 1.425-8.022 2.249-4.833 1.714-8.526 5.514-12.255 8.857-8.965 8.035-16.323 17.142-23.985 26.384 3.424 2.153 7.112 4.687 9.958 7.556 1.324 1.334 2.885 2.772 3.988 4.305.432.601.653 1.292 1.017 1.911.719 1.224-.026 1.366 1.635 1.269-3.283-7.508-4.793-17.556-3.04-25.59 1.005-4.607 4.293-8.453 8.153-10.996 1.952-1.288 4.068-2.441 6.307-3.148 1.385-.438 5.68-.247 6.361-1.499zm141.047-73.724c.364-2.671.38-5.357.617-8.04.225-2.563.78-4.945.262-7.538-1.88.716-2.348 1.155-3.724 2.54-1.623 1.633-3.159 3.135-5.065 4.39-4.224 2.782-8.12 6.193-11.939 9.5-7.801 6.757-15.877 14.107-25.22 18.746-8.766 4.354-17.254 9.124-26.337 12.928-4.238 1.774-8.318 3.352-12.605 5.143-5.008 2.092-9.831 4.619-14.924 6.48-2.463.9-4.907 1.855-7.374 2.737-2.613.933-6.1 1.342-8.382 2.782-1.896 1.196-3.564 3.358-5.192 4.9-2.871 2.718.822 2.002 2.796 2.265 2.496.333 4.557 1.001 6.726 2.075 1.933.958 4.166.342 6.247.552 2.413.244 4.401-.245 6.759-.286 2.91-.05 5.787-.26 8.701-.224 4.991.062 10.044.323 15.004.084 2.158-.103 4.329.027 6.49-.082 2.523-.128 4.723-1.022 7.176-1.448 9.522-1.652 19.096-3.36 27.842-7.612 9.291-4.518 17.127-9.89 24.437-17.28 4.196-4.24 5.199-8.302 5.677-14.219.498-6.169 1.413-12.236 2.028-18.393zM307.27 324.9c5.902-.811 11.947-1.914 17.648-3.692 2.813-.878 5.614-1.757 8.451-2.552 3.186-.893 3.755-1.478 4.788-4.599-3.959.937-7.743 2.017-11.828 2.646-2.052.316-3.925 1.094-5.927 1.394-2.314.346-4.719-.385-7.017-.121-2.169.249-4.315 1.666-6.438 2.258-1.844.513-3.689.686-5.508 1.252-1.767.551-3.678 1.13-5.503 1.482-1.723.333-3.39-.186-4.907.938 2.321.978 5.857 1.295 8.25 1.047 1.457-.152 2.984-.229 4.446-.053 1.176.142 2.441.706 3.545 0zm38.378-63.059c.004-3.277.442-6.406.892-9.65-3.547-.587-6.367 1.854-9.545 2.903 2.568 4.608 2.875 7.618 1.361 12.858 1.644-.726 3.305-1.316 4.952-2.002.551-.23 1.316-.498 1.756-.914 1.127-1.064.733-1.567.584-3.195zm-62.97-75.907c-.062-3.937-.083-7.872-.271-11.806-.083-1.748.005-3.625-.284-5.345-.338-2.014-1.782-2.802-3.349-4.197-.538 3.864.245 8.524.59 12.471.203 2.333.198 4.14.851 6.335.764 2.565-.006 3.718 2.801 4.511l-.338-1.969zm-47.385 27.256c3.833-2.199 6.235-5.485 9.024-8.808 3.663-4.364 6.111-7.737 7.551-13.343 1.017-3.96 2.101-10.262-.131-14.002-1.001-1.679-2.886-4.592-4.705-5.365-1.902-.809-4.618.585-6.352 1.327-4.602 1.966-8.626 4.947-13.067 7.31-4.877 2.594-9.546 6-13.974 9.296-8.743 6.507-16.716 12.921-24.999 19.936-3.251-3.804 4.292-10.624 7.109-12.954 4.14-3.424 8.053-7.342 12.415-10.676 5.14-3.929 10.404-7.623 15.935-10.984 2.559-1.555 5.191-3.619 7.939-4.798 1.132-.485 2.165-.656 3.228-1.329.923-.585 1.7-1.342 2.765-1.686-.762-1.404-5.416-3.441-7.016-3.619-3.117-.346-7.126.676-10.152 1.352-5.617 1.257-11.623 2.24-16.847 4.539-2.409 1.061-4.067 2.51-6.032 4.32-2.469 2.274-3.502 4.993-4.881 8.036-2.886 6.37-6.01 12.654-8.775 19.073-2.538 5.894-5.075 10.868-9.566 15.543-1.892 1.97-3.825 3.945-5.875 5.752-1.118.985-6.475 4.531-5.56 5.838.363.518 4.443.315 5.218.39 1.626.158 3.231.423 4.862.541 3.246.235 6.127.733 9.369.646 3.202-.086 6.32.285 9.514.005 3.022-.266 6.013-.641 9.019-1.036 6.738-.884 13.093-3.996 19.373-6.435 2.795-1.086 5.241-2.477 7.891-3.707 2.19-1.017 5.481-3.205 6.72-5.162zm-18.774-59.895c-.945-.024-2.732-.498-3.118.362-.215.48.577 2.029.776 2.625.356 1.071.4 1.949 1.318 2.263.922.315 3.451-.454 4.444-.543 1.31-.117 2.461-.356 3.767-.587-.405-1.11-.67-2.869-1.689-3.573-1.151-.795-4.228-.455-5.498-.547zm176.045 17.316c-.954-1.102-1.961-.93-3.199-1.318-1.557-.489-2.988-1.441-4.464-2.129-3.042-1.419-6.381-1.907-9.502-3.152-5.985-2.389-11.796-4.65-17.813-6.636-3.171-1.047-6.385-1.942-9.675-2.529-3.057-.544-7.366-1.941-10.412-1.412-5.117.888-12.14 6.521-13.943 11.348-1.047 2.805-.266 5.439.303 8.24.699 3.442 1.311 6.993 2.679 10.252 2.368 5.64 8.799 7.182 13.983 8.806 5.753 1.802 11.528 2.605 17.277 4.356 2.902.885 5.888 1.296 8.769 2.165 2.771.835 5.395 1.193 8.33 1.796 7.672 1.576 15.466 2.694 23.183 3.944 4.032.653 8.035 1.359 12.058 2.045 1.7.29 3.449.235 5.104.743 1.893.582 3.098 1.338 5.204.871-3.619-7.075-5.974-14.658-10.922-20.976-4.954-6.325-10.204-12.204-16.96-16.414zm-58.309-42.902c3.084-.623 6.182-1.135 9.196-1.941 1.211-.324 2.52-.924 3.653-1.47 1.259-.605 1.573-1.376 2.537-2.191.399.186.771.153 1.117-.098.162-.54.489-.962.982-1.265.826-.875 1.877-1.5 2.788-2.28 2.279-1.947 4.388-4.141 6.55-6.215 2.237-2.146 4.166-4.383 5.588-7.168.342-.669 1.224-1.864 1.424-2.434.269-.768.192-1.666.559-2.396.309-.614 1.129-.996 1.473-1.675.518-1.023.424-2.46.808-3.574.866-2.514 1.927-4.98 2.662-7.536 1.681-5.847 1.433-12.749 1.214-18.79-.115-3.18-1.129-6.289-1.956-9.338-.79-2.917-1.363-6.056-2.519-8.855-.812-1.965-2.085-3.638-2.86-5.637-1.083-2.795-2.2-5.455-3.034-8.398-1.687-5.956-4.226-11.42-7.104-16.884-1.21-3.782-2.45-7.485-4.139-11.107-3.253 2.842-6.782 5.542-9.756 8.66-2.432 2.55-5.242 5.39-7.894 7.692-3.018 2.62-5.846 5.133-9.068 7.486-1.758 1.285-3.134 2.928-4.722 4.396-1.654 1.528-3.521 2.422-5.049 4.086-1.445 1.574-2.593 2.251-4.158 3.4-1.169.858-2.028 2.31-3.176 3.27-3.211 2.69-5.863 5.943-8.843 8.864-6.681 6.548-12.908 13.16-18.756 20.517-.8.47-1.738 2.18-2.375 3.05-1.155 1.577-1.961 3.382-3.035 5.013-1.179 1.792-2.523 3.525-3.544 5.417-.526.975-.731 2.264-1.346 3.15-.346.5-1.037.785-1.413 1.316-2.646 3.739-1.775 7.048-.508 11.122 1.294 4.16 2.235 8.239 4.098 12.194 2.001 4.248 3.769 8.591 5.638 12.898.877 2.019 1.797 4.02 2.723 6.018.549 1.184 1.319 4.229 2.599 4.936 2.323 1.283 2.126-2.536 2.502-4.027.471-1.867 1.234-3.652 1.774-5.5 1.182-4.052 4.082-8.567 4.433-12.69 2.967-6.245 3.718-13.322 7.039-19.497 1.419-2.636 2.514-5.238 4.225-7.773 1.837-2.722 3.308-5.255 4.45-8.268 1.225-3.232 3.255-6.822 5.21-9.678.893-1.304 1.873-2.34 2.695-3.663 1.087-1.75 2.111-3.546 3.18-5.308 4.203-6.925 8.932-13.856 13.754-20.37 2.092-2.827 4.167-5.736 6.508-8.075 1.166-1.165 6.784-9.483 8.25-9.068 4.295 1.216-7.108 18.232-8.186 20.061-3.984 6.758-7.494 13.862-11.658 20.5-4.347 6.928-8.514 13.834-12.174 21.158-1.947 3.895-3.144 8.153-5.335 11.914-2.094 3.596-4.1 7.01-5.754 10.833-1.844 4.266-3.25 8.81-4.822 13.185-1.323 3.679-4.394 7.797-4.432 11.771 3.079-.772 6.241-1.28 9.376-1.845 3.241-.583 6.456-1.815 9.654-2.704 6.42-1.782 13.143-1.787 18.957-5.189zm-131.29-38.277c.249.919.409 1.85 1.401 2.262-.51-1.517-1.012-3.023-1.617-4.505l.216 2.243zm-87.616 302.79c-.975-10.041-1.208-20.37.417-30.346.371-2.281.379-4.866 1.202-7.021.904-2.366.643-4.4 1.237-6.842 1.157-4.764 2.635-9.517 3.796-14.282 1.179-4.842 3.082-8.328 5.639-12.534 1.208-1.988 2.571-3.681 3.959-5.486.735-.958.957-.877 1.152-2.168.258-1.697-.484-3.197-.638-4.813-.209-2.204.398-4.644 1.263-6.641.978-2.264 1.293-4.668 2.296-6.892.897-1.991 2.474-2.972 2.787-5.158.274-1.908.607-4.22.706-6.104.1-1.915-1.073-3.397-2.556-4.388-.675-.45-1.3-.516-1.966-1.116-.724-.653-1.448-1.727-2.132-2.474-1.384-1.514-2.048-4.694-3.482-5.513-.933-.532-2.487-.384-3.527-.718-1.27-.406-2.218-1.047-3.189-1.936-1.602-1.465-2.957-3.256-4.021-5.142-.608-1.078-1.114-2.211-1.585-3.354-.275-.667-.78-3.267-1.334-3.612-1.254-.781-3.629.906-5.313-.176-2.075-1.334-3.191-4.625-3.759-6.891-.636-2.547-.678-5.202-1.244-7.771-.643-2.922-1.324-5.827-1.878-8.77-.985-5.242-2.007-10.963-1.518-16.26.107-1.163.454-2.487.387-3.641-.063-1.077-.651-2.132-.758-3.248-.21-2.208.957-4.817.368-6.751-.863-2.83-1.941-4.219-.793-7.31.784-2.109 2.785-3.605 3.443-5.549.322-.953.041-2.063.314-3.042.339-1.212 1.167-1.682 1.747-2.698 1.133-1.98 1.114-3.436 3.2-4.736 2.644-1.647 3.11-2.567 4.746-5.129 1.107-1.733 3.441-3.137 5.266-4.056 2.188-1.101 4.179-2.481 6.416-3.504 1.123-.513 2.412-.875 3.465-1.491.53-.31.902-.839 1.497-1.118 1.811-.852 5.436-.676 7.287-.456 2.541.302 5.116 1.095 5.861 3.808 1.392-1.312 3.582-1.736 5.234-2.542 1.949-.95 4.146-1.28 6.115-2.263 4.597-2.292 8.874-4.62 13.926-5.882-.937-3.217-1.23-6.787-4.026-8.848-2.631-1.94-5.38-3.549-7.802-5.767-1.203-1.103-2.492-2.139-3.617-3.324-.814-.856-1.705-2.746-2.847-2.963-.755-.144-2.646 1.339-3.374 1.632-1.615.649-3.241 1.268-4.982 1.469-6.092.705-12.348-3.751-13.643-9.673-1.695-7.756.792-12.264 6.515-17.187l-2.74-1.613-.911-.536c-.705-.829-1.206-.731-1.504.295-1.556 1.079-2.483 2.905-4.236 3.927-1.632.952-3.063 1.229-4.961 1.169-1.104-.035-2.062-.002-3.105-.442a6.162 6.162 0 01-1.618-1.033c-.433-.857-.999-.923-1.698-.198-1.508.284-2.669 1.269-4.232 1.427-.581.059-1.979.226-2.569.118-.942-.17-1.091-1.116-1.862-1.387-1.883-.661-4.037 1.199-5.723.587-1.298-.472-3.117-2.588-3.716-3.787-.82-1.641-.531-3.695-1.767-5.092-1.04-1.174-2.528-1.747-3.53-3.039-1.278-1.648-1.58-3.377-2.046-5.337-.577-2.426-1.956-4.49-2.773-6.851-1.38-3.982-1.773-8.333-.26-12.325.696-1.839 1.75-2.535 2.764-4.098 1.162-1.794 1.325-4.207 2.366-6.152.754-1.409 1.412-2.624 2.733-3.503 1.627-1.084 3.087-1.067 4.396-2.716 1.159-1.46 1.903-2.881 3.575-3.88 1.461-.872 3.554-.57 4.842-1.378 1.401-.877 1.74-2.5 3.463-3.225 1.523-.642 3.247-.71 4.868-.587 1.983.15 4.114.97 6.11.753 1.981-.214 3.356-1.646 5.452-1.92 2.169-.284 4.27-.284 6.256.76 1.668.876 2.89 3.155 4.732 3.527 1.636.331 2.601-.449 4.303.16 1.458.52 2.7.984 3.488 2.475.232.439.287 1.84.639 2.127.803.654.299.229 1.394.072 2.113-.3 4.462-1.747 6.486-2.47 2.038-.73 4.266-1.477 6.4-1.861.701-.127 1.823.019 2.463-.17.769-.227 1.25-.798 2.031-1.112 3.99-1.599 8.19.75 12.13 1.099 2.688.238 3.439.672 5.05 2.87 1.38 1.884 2.376 1.666 4.228 2.663 1.612.867 3.216 3.481 4.161 5.023 1.244 2.029.564 3.588.967 5.642.349 1.782 2.214 2.317 3.492 3.606 1.786 1.8 3.367 3.911 5.068 5.805.339-2.655-1.188-5.452-1.888-7.948-.828-2.944-.848-5.797-1.348-8.76-.931-5.508-1.925-11.083-2.345-16.68-.45-5.98-.792-12.04-1.442-17.979-.283-2.58-.005-5.117-.174-7.686-.078-1.174-.178-2.317-.186-3.494-.007-1.252-.503-4.152.004-5.214.882-1.849 3.138.721 4.507 1.366.954.45 2.036.5 2.97 1.014 1.426.783 1.964 2.085 2.92 3.313 3.075 3.945 8.197 6.71 12.296 9.474 9.926 6.692 19.203 14.53 29.387 20.804 5.483 3.379 11.042 6.323 16.169 10.27 4.317 3.325 10.431 7.712 12.178 13.136 2.616-1.701 3.775-4.839 5.758-7.127 2.261-2.608 4.419-5.301 6.646-7.945 1.426-1.694 3.146-2.724 4.572-4.307 2.176-2.415 4.423-4.93 6.82-7.189 8.764-8.26 17.912-15.905 27.364-23.403 2.742-2.176 5.538-4.288 8.238-6.514 2.752-2.268 5.139-5.033 8.044-7.056 2.516-1.753 4.632-3.979 7.21-5.65 1.61-1.044 5.512-4.476 7.715-2.998.734.492.693 1.378.978 2.118.653 1.7 1.646 3.124 2.602 4.666 1.797 2.897 3.209 6.016 4.778 9.04 1.583 3.053 3.362 5.918 4.519 9.174 1.264 3.557 2.315 7.189 3.782 10.672 2.993 7.104 6.029 13.905 7.597 21.491.854 4.129 1.351 8.27 1.794 12.462.254 2.405.35 4.729.142 7.144-.102 1.18-1.148 4.288-.323 5.25 6.48-3.544 12.647-6.857 19.732-8.728 3.235-.855 6.412-2.504 9.693-3.451 3.951-1.142 8.134-2.422 11.939-3.96 3.565-1.44 7.308-2.343 10.924-3.669 3.923-1.438 8.178-2.717 12.245-3.734 8.304-2.078 17.219-4.038 25.186-7.162 2.231-.875 4.36-1.963 6.617-2.788 1.448-.53 3.763-1.883 5.287-1.727 3.293.335 3.406 6.843 3.393 9.366-.046 7.908-.184 15.84-1.142 23.83-1.029 8.585-.919 17.876-4.241 26.03-2.872 7.046-9.782 12.915-16.199 16.724-4.173 2.477-8.487 5.479-12.937 7.378-3.833 1.637-7.715 2.93-11.589 4.399-8.302 3.149-17.016 5.534-25.875 6.476 1.798 1.173 3.796 2.258 5.7 3.271 2.247 1.197 3.823 2.538 5.824 4.003 3.349 2.453 6.74 5.045 9.485 8.212 3.672 4.237 6.266 8.004 7.029 13.74.747 5.617-2.402 11.03-4.286 16.143-2.23 6.052-4.424 12.073-6.287 18.251-.603 2-2.182 5.187-1.855 7.331.158 1.035.97 1.67.956 2.803-.03 2.549-1.243 2.356-3.186 2.105-2.592-.334-5.243-.437-7.817-.882-2.444-.422-4.788-.328-7.192-.682-2.465-.362-4.778-.683-7.287-.813a101.158 101.158 0 00-3.855-.142c-1.281-.02-1.795-.436-2.916-.621-1.141-.189-2.348.281-3.563.111-1.281-.179-2.618-.919-3.892-.927-1.615-.01-1.614.162-3.193-.295-1.177-.341-2.322-.132-3.524-.239-2.64-.233-5.329-.744-7.923-1.297-1.704-.364-3.356-.453-5.069-.689-1.23-.169-2.464-.993-3.699-.958 3.358 5.356 4.557 9.627 4.51 15.898-.045 5.872-2.359 11.093-5.658 15.899-2.96 4.311-6.349 6.765-11.222 8.489-2.868 1.014-4.047.669-4.325 3.878-.26 2.997-.472 5.916-.933 8.892 3.205-1.479 12.306-8.008 14.157-2.814 2.074 5.821-2.825 11.011-5.582 15.538 3.282-.432 6.763-1.917 7.511 2.383.342 1.974-.464 4.053-1.209 5.842-.519 1.246-3.146 4.547-2.933 5.619.11.555 1.616 1.346 1.967 1.853.504.73.691 1.566.828 2.429a8.485 8.485 0 01-1.026 5.577c-1.638 2.821-5.973 5.253-8.694 6.829-3.413 1.977-6.231 4.039-10.195 4.568-.337.045-1.664.156-1.816.304-.273.265-.306 2.958-.403 3.45-.423 2.129-.998 4.523-1.865 6.519-1.379 3.18-6.02 3.981-9.002 5.311-4.319 1.927-8.606 3.299-13.099 4.751-2.224.719-4.45 1.422-6.723 1.966-1.499.359-5.593.408-6.676 1.409-.67.618-.87 2.125-1.521 2.908-.338.407-1.064.103-1.357.374-.807.749-1.122 2.873-1.845 3.864-.142.195-1.441 1.381-1.487 1.731-.084.635 1.169 2.496 1.439 3.086.992 2.159 1.934 4.335 2.665 6.6 1.279 3.962 1.206 8.172 2.409 12.09 2.54 8.274 3.738 16.903 5.129 25.451.74 4.541 1.609 9.082 2.429 13.607.81 4.467 2.652 8.657 4.079 12.942 2.642 7.931 2.732 16.68 1.905 24.911-.229 2.275.902 8.53-3.163 6.54-3.542-1.733-3.261-8.72-4.219-12.004-2.534-8.689-3.565-17.835-6.219-26.54-2.722-8.928-4.251-17.785-5.73-26.984-1.528-9.505-3.522-18.894-5.165-28.359-.346-1.993-.484-10.297-2.913-10.971-1.014-.283-3.516.582-4.756.633-2.8.118-5.431.705-8.149 1.373-3.784.928-7.484.26-11.226 1.016-2.176.44-4.395.606-6.571 1.045-2.359.475-4.533 1.449-6.914 1.87-4.111.725-8.211-.015-12.355.221-4.255.243-8.716.716-12.974.438-4.382-.285-7.331-2.896-11.63-2.928-4.112-.03-8.406.534-12.465-.192-1.798-.322-3.898-.775-5.614-1.276-1.78-.52-3.283-1.83-5.089-2.439-4.623-1.562-9.43-.357-14.268-1.267-1.969-.371-4.909-.713-6.699-1.541-1.078-.498-1.177-.67-2.204-.858-.887-.162-1.596-.265-2.483-.546-2.163-.688-3.959-1.053-6.058-2.072-1.762-.855-3.033-2.233-5.037-2.627-.964-.19-1.971.009-2.92-.242-1.16-.309-2.34-1.133-3.463-1.598-2.17-.901-4.091-2.018-5.898-3.531-3.593-3.008-5.756-6.385-7.757-10.562-2.683 6.613-4.389 13.637-6.683 20.413-1.094 3.231-1.24 6.445-1.808 9.788a269.23 269.23 0 01-2.122 11.026c-.274 1.29.148 2.621.04 3.94-.152 1.858-.744 3.686-.899 5.578-.305 3.713-.427 7.557-.529 11.28-.196 7.186 1.434 14.341 1.33 21.536-.021 1.489-.642 2.983-.39 4.48.339 2.008 1.12 3.336 1.193 5.472.127 3.684.454 7.342.232 11.029-.358 5.964-1.871 12.071-4.156 17.729-1.223 3.027-2.199 6.303-3.87 9.119-1.207 2.033-2.811 5.463-5.637 4.878-2.551-.526-2.883-2.389-2.346-4.561.84-3.388 1.397-6.72 2.014-10.153.673-3.746.507-7.499 1.033-11.253.542-3.872 1.696-7.78 1.825-11.706.144-4.416-1.596-8.901-1.179-13.322.188-1.992.665-3.25.358-5.313-.133-.89-.227-1.788-.346-2.681-.154-1.162.371-2.615-.208-3.601zM67.66 259.833c-.06-8.255-.23-16.452-.19-24.598.008-1.853-.628-8.254 1.119-9.479 1.086-.761 2.603.197 2.878 1.479.173.811-1.212.552-.757 1.916.447 1.34.92.515 1.89 1.333 1.631 1.376.63 7.205.593 9.206-.02 1.061.278 2.117.278 3.059-.002 1.75-.56 3.619-.339 5.436.187 1.531.619 3.261.497 4.817-.099 1.261-.581 2.07-.483 3.424.057.795.359 1.404.406 2.283.216 4.118.65 8.166 1.113 12.28 1.838 16.298 5.097 32.251 4.69 48.725-.105 4.236.31 8.465.132 12.706-.182 4.361-.621 8.709-.808 13.07-.253 5.915.02 11.53.075 17.054.024 2.528-.18 5.813-.118 8.639.036 1.663.273 3.525.181 5.348-.112 2.253-.488 4.628-.48 6.867.006 1.368.379 2.614.431 3.837.06 1.394-.138 2.522-.16 3.897-.014.863.26 1.757.223 2.621-.072 1.651-.323.949-.445 1.957-.267 2.218-.013 4.596.064 6.817.254 7.441-.134 14.987-.39 22.409-.123 3.564-.21 7.241.128 10.789.117 1.225.901 3.239.502 4.379-.165.473-.475.682-.665 1.076-.64.025-.863.313-.67.864l.05 1.685c.058 1.888.067 3.797.241 5.68.151 1.631 1.31 3.727-.948 4.1-3.99.657-3.985-5.361-4.155-7.693-.602-8.279-1.18-16.818-.657-25.116.231-3.679.023-7.149-.02-10.831-.05-4.344.542-8.699.671-13.046.244-8.229.62-16.341.319-24.571-.698-19.019-.553-38.165-.848-57.206-.144-9.286-1.099-18.592-2.367-27.785-.62-4.495-1.4-9.018-1.602-13.556-.207-4.625-.09-9.247-.379-13.872z" fill="#2C2D36"/><path fill-rule="evenodd" clip-rule="evenodd" d="M252.406 379.386c6.981 5.339-5.939 17.229-9.596 20.885-1.57 1.57-2.918 3.151-4.687 4.538-.932.73-5.296 3.109-5.482 4.239-.2 1.211 3.275 4.845 3.985 5.86 1.549 2.213 3.13 4.402 4.703 6.597 5.745 8.014 12.201 16.157 14.951 25.764.581 2.029 1.549 5.229.918 7.344-.8 2.683-2.601.933-3.609-.723-2.406-3.949-3.572-8.139-6.532-11.848-3.648-4.569-7.621-8.832-11.024-13.605-3.372-4.729-5.556-9.967-8.592-14.867-1.629 1.322-3.537 2.306-5.042 3.632-.666.586-.994 1.488-1.58 2.135-.787.87-1.603 1.249-2.543 1.962-1.507 1.143-4.063 2.827-5.086 4.36-1.39 2.082-1.483 5.29-2.525 7.613-2.512 5.592-6.588 10.631-9.841 15.816-1.296 2.066-3.039 4.326-5.1 5.696-2.667 1.772-4.446-1.528-4.945-3.892-1.018-4.831 3.258-10.571 5.284-14.714 2.546-5.207 6.191-9.761 8.766-14.936 1.384-2.782 2.028-4.853 4.316-7.066 1.869-1.807 3.956-3.088 5.757-4.898.858-.862 1.835-1.089 2.782-1.762.862-.613 1.149-1.273 1.866-2.107 1.511-1.76 3.312-2.947 5.315-3.876 2.17-1.007 4.24-3.515 6.244-5.056 2.68-2.061 5.443-3.914 8.005-6.128 4.402-3.806 8.714-7.317 13.292-10.963zM393.512 317.335c1.006-.638.881-1.071.201-1.689l-.201 1.689zm3.098-57.265c.721-1.77.721-1.77-.194-2.056l.194 2.056zm3.788 5.374c-.08 5.84-.466 11.741-.394 17.567.029 2.426.064 4.916-.06 7.354-.115 2.285-.023 4.271-.042 6.4-.007.683-.344 1.582-.336 2.409.015 1.54-.179 3.061-.304 4.596-.245 3.017-.382 6.042-.528 9.065-.134 2.786-.127 5.55-.151 8.339-.023 2.58-1.035 4.074.168 6.57-2.031.282-.958 2.097-1.142 3.788-.137 1.273.012 2.158-.106 3.381-.118 1.217-.559 2.61-.334 3.852.113.631 1.778 1.573-.406 1.173-.323.473-.06.805.79.995a1.224 1.224 0 01-.611.849c.062 1.007-.223 2.398-.395 3.506-.25 1.595-.608 3.244-.647 4.863-.024.964.355.452.764 1.01-1.709 1.186.083 2.637-.484 4.271.273.921-.097 1.298-1.106 1.129l.096 1.379.094 1.364c-.452.121-.628.398-.53.832.016.729.671 1.51.615 2.216-.17.315-.365.615-.584.898-.221.467-.104.859.353 1.174-.178.833-.306 1.469-.387 2.204-.097.873-.441 2.244.479 3.002-1.453.506-.556.983-.494 2.054.086 1.486-.295 2.731-.321 4.132-.006.273.15.881.117 1.114.134.277.213.571.235.882l-.526.52c-.127.847.18 2.535-.296 2.752 1.204.471.622 2.129.752 3.191a1.92 1.92 0 01-.303.884c.213.13.418.272.615.425-1.395.825-.854 4.845-.811 6.311.083 2.805-.106 5.619.071 8.415.298 4.72.087 9.312.168 14.007.019 1.126.41 2.498.256 3.587-.151 1.078-.5 1.606-.439 2.827.113 2.267.244 4.373.278 6.69.035 2.333.023 4.448.184 6.646.143 1.944.415 5.086-1.481 6.277.51.267 1.561.503 1.363 1.126-1.683-.117-2.225.829-2.941-.889l-1.142 1.224c-1.76-3.321-1.139-7.554-1.148-11.181-.005-2.527.019-5.23-.032-7.461-.167-7.195-.399-14.457-.231-21.672.336-14.506-1.321-29.163-.584-43.677 1.358-26.744 4.273-53.599 4.803-80.391.155-7.823.599-15.674.781-23.508.082-3.517.126-7.018.104-10.564-.013-2.045-.275-4.135-.076-6.165.334-3.41.42-1.113 1.238-.9.804-3.852 2.638-.93 2.895 1.509.131 1.245-.137 2.531.24 3.732.394 1.258.941 1.775 1.03 3.22.426 6.855.71 13.826.883 20.697zM103.8 367.279l-1.007.927c1.775.379 2.954 1.338 4.48 2.442-.411.706-1.098-.454-1.502-.123-.937.771.207 1.492.085 1.994-.082.342-.498 1.119-.477 1.483.026.46 1.027 1.822 1.178 2.418-1.11-.495-1.387-.862-2.379-.201 1.919.705 1.504 1.508 1.504 3.458l-1.344-.329c1.903.532.078 2.306 1.712 3.003-1.249 1.768-.488 2.575.522 4.34-.682.162-1.487.203-1.515 1.134-.036 1.241.849.673 1.554 1.334-1.757.606-.96.901-.871 2.36.091 1.472-.737 4.812 1.478 4.354-.067.62-.937.835-.933.957.037 1.246.055 2.472.064 3.719.014 1.657.13 3.374.336 4.911.472 3.531.441 7.161.46 10.642.021 3.724.995 7.684.536 11.523-.408 3.414-.811 6.417-.653 9.872.128 2.828 1.64 8.081.123 10.398-2.482 3.798-5.966-1.986-6.131-4.482-.57-8.592-.397-17.236-.786-25.861-.383-8.542-.537-17.019-1.278-25.65-.756-8.818-.895-17.444-1.007-26.302-.105-8.196-1.066-16.292-1.394-24.477-.358-8.923-.308-17.775.072-26.696.397-9.331-.593-18.663-.216-27.968.09-2.21.144-4.48.134-6.735-.011-2.218-.584-5.329-.006-7.473.332-1.234.29-.95.665-1.758.195-.419-1.09-.933.159-1.261 1.46-.384 1.078 4.073.834 4.696 2.174-.161 1.926.887 2.286 3.056.239 1.434.355 2.921.441 4.371.162 2.743 1.044 5.303 1.389 7.929.034.257-.208.727-.141 1.225.117.877.371 1.763.548 2.634.4 1.965.422 3.562.345 5.561-.164 4.216.006 8.52-.268 12.691-.199 3.024.113 5.834.018 8.85-.054 1.699.353 2.843.206 4.537-.14 1.613-.033 3.388-.01 5.02.043 3.062-.389 6.66.258 9.53.373 1.656.329-1.435.692.677.035.206-.409.525-.373.79.248 1.839.614 4.542-.331 6.11l1.04.06c-.384 1.075-.733.109-.968 1.07.139.291.329.541.571.747.381.224.326.48-.164.768.272.906-.13 2.195.189 3.253.235.78.725.944.879 1.613l-.247.831c.126.527.375.989.746 1.385.021.883-.566 2.092-.791 2.923l-.985-1.887v2.552l1.901-.133c-.708.653-1.14 1.364-1.438 2.259-.513 1.549-.761 1.586.864 2.601.335.21 1.941.751 2.001 1.117.109.685-.634.486-.819.714-.37.46-1.312 1.253-1.894.541 1.041-.471.541-.897.198-1.919-.836.411-1.11 1.091-.54 1.875zM52.61 316.706c-.618-6.154-.836-12.507-1.065-18.702-.1-2.705-.775-5.525-.562-8.339.12-1.585.394-3.177.543-4.766.227-2.413.632-2.785 2.816-3.841.593 1.342.103 1.961.044 3.183-.06 1.242.064 1.733.519 3.139.916 2.829 1.057 5.934 1.422 8.892.682 5.541.938 11.082 1.685 16.626.607 4.497.21 8.99.881 13.304.65 4.175.282 9.039.124 13.251-.367 9.86-.36 19.451-.243 29.33.063 5.331-.422 10.867-.361 16.058.053 4.571.22 9.183-.07 13.795-.141 2.256.088 4.173-.054 6.418-.11 1.775.563 3.856.356 5.593-.066.549-.513.96-.589 1.469-.129.868.224 2.452.182 3.419-.1 2.366-.009 4.435-.23 6.603-.54 5.313.208 11.06.088 16.428-.06 2.66.046 5.339-.253 7.985-.228 2.02.061 6.233-2.681 5.716-3.767-.709-2.834-7.643-2.983-10.358-.313-5.712.365-11.427.352-17.136-.026-12.075-.053-24.147-.01-36.221.082-23.847.756-48.059.089-71.846zM7.51 376.315c-.277 1.309.147 2.29.073 3.516-.055.9-.324 1.397-.409 2.279.046.247.09.494.134.74.637.52.593.934-.131 1.24.044.555.371 1.161.386 1.684.107 3.748-.23 7.971-.304 11.842-.04 2.079.06 3.999.164 6.01.077 1.49-.716 3.152-.625 4.707.057.973.57 1.925.56 3.013-.01.966-.555 1.679-.609 2.844-.064 1.378.448 2.828.516 4.136.06 1.136-.529 1.509-.537 2.499l.242.509c.784.467.877 1.109.281 1.925l-.45.624c-.097.49.027.922.372 1.296.036.792-.229 1.638-.221 2.303.022 1.928.376 4.006.524 5.947.361 4.716.788 9.43.552 14.162-.044.891.565 1.943-.821 2.553-.308.136-1.075-.274-1.35-.221-.823.159-1.126.801-1.928.28-.912-.593-.7-1.846-.708-2.747-.08-9.073-1.468-18.342-1.766-27.533-.306-9.433.143-18.896.196-28.34.058-10.252-.338-20.568-.165-30.806.15-8.878.603-17.721.21-26.678-.237-5.432-1.55-10.728-1.644-16.181-.038-2.176-.321-3.777.988-5.497 1.752-2.301 3.677-1.99 5.175.303 1.113 1.703 1.48 4.202.457 6.06-.202.367-1.431 1.292-1.48 1.506-.153.658.321.732.635 1.551.022.056-.127 1.116-.08 1.358.207 1.062.509 1.926.346 2.991l-.294.674c-.853.544-.757 1.086.288 1.624.999.506 1.131 1.093.398 1.759l.132 1.451-1.01-1.159c.081 1.908 1.068 2.976 1.415 4.728.288 1.454-.455 3.19-.344 4.873.084 1.269.205 2.116.213 3.289.005.824.624 1.754.652 2.191.05.808-.533 1.499-.585 2.204-.059.786.074 1.121.248 2.084.798 4.395.097 9.551.077 14.021-.01 2.18-.096 4.396.001 6.575.05 1.119.19 2.357.134 3.354-.05.878-.184 1.459.092 2.457zM367.899 381.06c-.558-.104-.731.888-.179.99l.179-.99zm5.23 3.318c-.083 1.483-.64 1.519-.447 3.319.126 1.171-.215 2.934.943 3.671-1.352.762-.179 6.275-.137 7.776.095 3.358.111 6.715.171 10.073.115 6.463.735 12.81.182 19.254-.287 3.339-.393 6.693-.524 10.041-.066 1.654.761 6.387-1.692 6.297-4.34-.16-2.233-11.64-2.258-14.18-.058-6.044-1.923-11.839-2.163-17.848-.216-5.386-.712-11.083-1.201-16.556-.501-5.606-.102-11.254.039-16.881.155-6.152.11-12.303.323-18.452.253-7.279-.016-14.558.179-21.839.094-3.481.309-7.014.622-10.487.259-2.856-.23-7.356 1.301-9.849 2.205 1.271 1.106 1.336 1.452 3.402.253 1.504.726 1.838 1.764.358.06.839-.439 1.689-.368 2.432.085.89.609 1.268.803 2.194.274 1.31-.89 3.707.741 4.46-.628.724-.266 1.234-.223 2.084.059 1.188-.129 2.686-.1 3.954l1.016-1.194c.826.379.421 1.049.325 1.685-1.574-1.15-1.212 1.192-1.229 1.783-.031 1.097-.007 1.8-.143 2.989-.093.815-.161 3.227.067 3.963l1.382.483-.095 1.822c-.869-.583.172-1.628-1.543-1.09.624.871.712.79.588 1.97.223 2.571.362 6.419.278 8.624-.023.63-.633 1.753-.637 2.594-.003.855.362 1.595.403 2.381-.012-.244-.237 1.505-.242 1.537-.136.905-.13.978-.233 2.139-.202 2.27.206 4.61.093 6.852-.047.904-.221 1.694-.36 2.8-.187 1.487.294 2.953.288 4.373-.005 1.128-.472 2.502.635 3.066zM422.805 338.812c1.348-.632 1.38-.858.332-1.915l-.332 1.915zm.809-23.282c-.03.68.039.848-.084 1.595.543.618.5.981-.132 1.09a1.23 1.23 0 00-.33.516c-.079 1.722.426 3.58 1.55 4.86-1.456.817-1.262 2.342-1.012 3.73.29 1.612-.046 1.746-.33 3.133-.454 2.213 1.623 2.024.626 4.288-.565 1.284-.896-.035-.206 1.468.712 1.551 1.067.69.396 2.532-.101.275.36.537.32.794-.075.488-.735.015-.755.733-.008.31.484.612.508.92.09 1.117.105 2.253.157 3.372-.969-.423-1.066-1.614-1.403-2.584-.531.139-.252 2.254-.252 2.783l1.018-.411c-.021 1.159.828 1.134 1.642 1.595-1.975.856-.653 1.86-.988 3.645-.198 1.052-1.225 2.088-1.322 3.265-.036.433.569.82.68 1.253.066.259-.101 1.112-.009 1.473-.01-.041.732.634.842.937.346.949-.265 1.82-.304 2.705-.073 1.655.106 2.727-.05 4.33-.154 1.572.068 3.472.091 4.96.013.812.235 1.106.305 2.014.121 1.557.153 3.287.151 4.712-.001 1.396.122 2.804.193 4.198.064 1.263.2 2.751.158 3.873-.032.837-.097 2.004.09 3.077.239 1.377.163 2.665.522 4.031.557 2.123.348 2.35-.249 4.397-.455 1.561.273 2.821.309 4.279.027 1.153-1.002 2.878.837 2.827-.241 1.498 1.408 1.484 1.409 3.342a402.95 402.95 0 00-1.094-.846c-.482.701-1.141-.01-1.398.61-.312.756.112 1.477 1.018 1.307-.346.551-.998 1.028-.813 1.78l1.593-1.025c-.349.985-.674 1.626-.747 2.654-.096 1.366.932.899-.337 1.979 1.24.871.712 1.922.695 3.335-.01.814-.137 1.134.091 2.189.254 1.17.203 1.663-.125 2.714-.318 1.017-1.283.453-.405 1.991 1.504-1.722.893.698.599 1.459-.697 1.809-.76 2.064 1.043 3.07-.575.468-1.175.903-1.798 1.305.248.511.677.49 1.285-.062-.011.338-.126 1.055-.044 1.423-.038-.167-.686.284-.702.537-.043.718.807 1.744.837 2.619.058 1.717.264 2.252.173 3.869-.081 1.433-.069 2.859-.069 4.294 0 1.528.496 2.526-1.355 2.579-2.746.076-2.981-3.234-3.313-5.206-.995-5.923-.35-12.374-.814-18.403-.415-5.383-.611-10.785-1.055-16.181-.903-10.949-1.786-21.421-2.335-32.378-.275-5.488-.193-11.244-.217-16.906-.027-6.004.122-12.028.028-18.002-.101-6.375-.596-12.834-.41-19.293.188-6.587 0-13.734 2.121-19.995 3.08 5.701 2.639 12.471 3.17 18.851zM28.453 426.32c-.526-10.668-.253-21.402-.185-32.082.067-10.445-.354-21.097 1.089-31.442.626-4.49 1.212-9.096 1.186-13.626-.017-2.766.313-5.554.286-8.305-.018-1.929-.572-3.806-.487-5.798.198-4.619.307-9.787 1.114-14.329.26-1.46.575-2.129 1.86-.953 1.298 1.188.21 3.992 1.778 4.637.274-1.168.456-.78.529-.232.051.401-.292 1.124-.32 1.609-.033.576-.39 2.68-.263 3.217.227.953 1.11.736 1.516 1.402.372.609.54 2.625.516 3.403-.05 1.593-1.08 3.035-.867 4.647.114.854.658 1.349.574 2.158-.078.744-.651 1.198-.806 1.797-.238.924-.11.71.057 1.787.118.763.245 1.404.2 2.239-.078 1.461-.484 1.588 1.01 2.015-2.153 1.406-1.2 4.28-1.421 6.297-.102.925-.624 2.299-.294 3.173.47 1.239 1.444.791 1.215 2.329-.617-.764-1.494-.111-2.262-.376.294 1.069 2.461 1.165 2.346 2.247-.026.243-1.588.672-1.8 1.081-.206.395.355 1.335.258 1.911l-1.271-1.002c.14.462.779 2.851.761 2.926-.082.355-.935.353-1.159 1.237l1.79-.603c.046.703-.343.97-.555 1.518.581.395.547.728-.105.998-.363.118-.543.333-.54.645.07 1.144 1.88 1.45-.88 1.575.267.603 2.149 3.989.653 3.079.264 1.429.483 2.796.57 4.245.077 1.292-.338 2-.509 3.102-.232.264-.42.556-.566.877.07.283.22.517.448.702.097 1.575.37 1.652-.792 2.802 1.94 1.705.132.725.059 2.205-.043.875.36 2.428.44 3.376.097 1.114.426 2.375.271 3.49-.15 1.084-.94 1.486-.286 2.415-1.202.257-.387 1.601-.365 1.889.279.159.472.381.58.669-.163.28-.325.559-.486.839l.057 2.014c.037 1.227.067 1.956.278 3.004.073.361-.32.815-.129 1.194.355.702.825-.152 1.173.896-1.168.021-1.754.987-1.759 2.132-.003.712.573 1.768.544 2.694-.027.869-.249 1.718-.263 2.585-.014.889.24 1.701.278 2.555.155.329.31.657.467.985-.429.142-.622.402-.58.784-.075 1.091-.034 1.768-.28 2.924-.49 2.32.466 5.502.37 8.299-.029.817-.203 1.651-.105 2.466.1.829.786 1.673.846 2.371.08.923-.625 2.151-.501 3.208.281 2.412.697 5.027.641 7.829-.035 1.826-2.226 6.303-4.117 4.169-.807-.91-.43-5.415-.519-6.682-.15-2.117-.284-4.235-.43-6.353-.299-4.305-.87-8.549-.858-12.864zM328.063 357.017l.618-.08-.447-1.399c-.531.12-.214 1.014-.171 1.479zm-2.267-1.417c.176-2.979-.236-7.801 1.767-10.136.766 1.18.436 1.412.613 2.29.222 1.096.422 2.183 1.422 2.728.723-1.908 2.049 1.074 2.177 1.82.397 2.318.202 5.066.423 7.447.432 4.666.738 9.249.697 13.926-.029 3.355-.025 6.853.164 10.241.112 1.996.036 3.964.065 6.01l.046 3.409c.006.453-.354 2.077-.339 2.105.386.753.326 1.364 1.128 2.308-1.451.428-.731 1.006-.631 2.56.12 1.882-.102 3.752-.084 5.641.014 1.329.129 2.666.163 3.985.022.818-.134 1.715-.032 2.556l-.2.758c.53.131.731.414.602.846-.133.997-.596 1.777-.656 2.962a74.293 74.293 0 01-.535 5.762c-.157 1.212-.689 2.771-.738 3.937-.068 1.559 1.096 2.192-.47 3.144 1.774 1.032 2.232 4.592-.18 4.796 1.661 1.053 1.763.834 1.583 2.632-.204 2.034-.757 2.886-.311 4.92-.834-.686-1.765 1.02-2.714 1.17-1.384.219-1.903-.47-2.468-1.719-1.292-2.86-.634-7.162-.754-10.239-.272-6.972-.549-14.019-.596-20.949-.047-6.871.102-13.78.074-20.661-.007-1.866-.126-3.755-.026-5.62.057-1.049.592-2.309.487-3.322-.11-1.055-.507-1.834-.475-3.069.042-1.567-.134-3.146.016-4.713.23.073 1.642.737 1.785.319.233-.689-.716-.566-1.016-1.019-.873-1.317-.832-3-.953-4.623-.302-4.042-.06-8.15-.034-12.202zM451.558 434.837c-.66 1.625-.476 3.79-1.12 5.232-.734 1.645-2.204 1.225-3.178-.163-1-1.426-.68-4.363-.829-6.046-.195-2.205-.19-4.344-.107-6.555.297-7.908.263-15.968.46-23.812.212-8.46-.326-16.997-.067-25.465.267-8.701-.419-17.449.93-26.072 1.729 1.25.545 2.165.865 4.051.205 1.203.726 2.077 1.057 3.529 1.777-.421-.095.559.489 1.261.226.272.036 1.828.954.584-.519 1.971-.154 2.283.362 4.033.476 1.613-.274 2.794-.475 4.059-.043.271.14 1.331.159 1.823.032.817.313 1.735.48 2.357.214.791.935 2.281.967 3.409.121 4.252-1.096 8.785-.634 13.068.172 1.597.464 2.476.314 4.053-.179 1.866-.729 2.093-.161 3.836.059.179.769 1.9.769 1.803.003.806-.802 1.407-.837 2.292-.066 1.642.978 1.96.153 3.733-.621 1.335-.956 1.561-.924 3.32.028 1.635.076 2.978.136 4.562.082 2.195.673 4.179.636 6.432-.031 1.855-.589 3.4-.68 5.139-.095 1.834-.273 3.996-.147 5.831.036.528.398 1.002.372 1.484-.048.885-.806 1.368.056 2.222zM36.873 299.326c-3.68.969-4.352-6.51-4.338-8.734.014-2.001.267-4.028.435-6.021.081-.965-.045-5.604.907-6.105 2.993-1.577 3.243 7.925 3.365 9.079.454 4.27.48 7.618-.37 11.781zM472.405 435.455c-1.002 1.281-2.366.424-3.222-.516-1.355-1.487-1.383-3.281-1.294-5.194.101-2.15.462-4.26.935-6.356.483-2.136.708-4.917 1.61-6.905.463-1.022-.037-1.455 1.366-1.102.565.141.941.535 1.248 1.004.846 1.291.445 3.894.361 5.328-.279 4.728-1.261 8.937-1.004 13.741zM353.253 414.167c-.388 1.063-.185 1.446-1.401 1.385.506 1.111-.731 2.027-1.616 3.09-.503-1.807-.074-3.745-.09-5.662-.019-2.26-.034-4.511-.124-6.771-.173-4.307-.494-8.403.683-12.572.75.962 3.438 4.468.227 4.009.933.977.721 1.272 2.028.426 1.102 1.988-.07 4.058-.221 6.082-.154 2.087.704 3.836.525 5.919l-.553-1.189c-1.083.539-.012.693-.226 1.609-.302 1.297-.481 1.843-1.391 3.08 1.192.375 1.069.549 1.373 1.806l.786-1.212zM421.705 266.135c1.38 1.298.493 1.126.873 2.723.086.362.444 1.088.471 1.255.074.446.345 1.185.19 1.842.006-.026-.975 2.055-.994 1.734.019.331.408.861.458 1.22l.531.129-.003 1.503c.038.744.122 1.664-.242 2.356-.401.762-.924-.064-1.163.308-.446.693-.176 4.395-1.991 2.976-1.049-.819-.881-6.345-.826-7.583.078-1.777.212-3.668.522-5.424-.035-.571.088-1.1.367-1.585.076-.667.384-.76.924-.278.408-.411.585-.575.883-1.176zM349.486 429.567c-.003-1.606-.88-8.371 1.129-8.513 1.888-.132.928 4.641.981 5.84.023.52.674 1.045.599 1.769-.083.801-.706.359-.9 1.243-.181.826.46 2.357.41 3.313-.045.862-.722 2.058.704 2.051-.106.59-.21 1.18-.315 1.771h-.771c-.605 1.287-.015 1.015.097 1.967.063.544.291 1.362.155 2.264-.176 1.165-.352 1.997-.93 3-1.326-1.281-.531-5.665-.823-7.367-.411-2.395.573-5.226-.336-7.338zM70.89 131.267c-1.56-7.841-2.014-16.26-.688-24.169 2.62 2.186 1.35 8.418 1.365 11.465.008 1.763.686 12.608-.677 12.704zM70.72 164.477c1.927 2.266 1.057 4.11 1.118 6.114.087 2.806.778 5.934-.448 8.874-.186.445.257 1.136-.491 1.209-1.558.151-.921-1.907-.913-2.769.018-1.8-.073-3.601-.373-5.376a66.131 66.131 0 01-.65-4.96c-.062-.664-.158-5.637 1.757-3.092zM4.077 240.385c-.073-5.238-.36-10.458-.45-15.692-.075-4.284-.89-10.53.98-14.434.906 4.836.573 10.066.568 14.971a326.054 326.054 0 01-.474 17.085 1561 1561 0 00-.624-1.93z" fill="#2C2D36"/><path fill-rule="evenodd" clip-rule="evenodd" d="M106.052 382.351c-1.689-.72.25-2.455-1.714-3.003l1.345.329c0-2.064.467-2.734-1.503-3.458.992-.661 1.268-.294 2.378.2-.151-.596-.911-1.637-.948-2.198-.613-.291-.614-.604-.004-.937.54-.249.624-.504.252-.765.088-.465-.888-.934-.221-1.677.519-.579 1.278.423 1.638-.193-.964-.699-2.099-.878-1.526-2.031.438-.881 1.043-.581 1.672.109 1.209 1.327-.042 3.792-.03 5.188.003.475.497 1.057.505 1.319.01.326-.019 1.585-.021 2.084-.004 2.047-.062 2.785.605 4.75-1.045.345-1.243.427-2.428.283zM448.5 327.359c-1.123-.399-.853.668-1.03 1.143.101.201.255.356.462.463l-.459 1.498 1.088.169c-.008.559-.262.8-.763.723.66.668-.54 2.023-.642 2.836-.054.428.323 1.045.209 1.433.42.684.284 1.003-.407.956l-1.643.36c-.498-2.624-.82-12.144 2.839-12.955.179 1.129.275 2.232.346 3.374zM103.004 310.349c-.482-3.415-.029-7.002.052-10.436 2.711 2.369 1.187 8.544 1.452 11.836.1 1.234.66 3.086.454 4.597-.168 1.23-.942 1.786-1.857 2.799-.071-1.83.099-2.851.532-4.544.343-1.347.899-4.252-.633-4.252zM122.194 292.903c-.184.725-.507 2.346-1.726 1.525-.397-.267-.184-3.791-.214-4.389-.159-3.126-.322-6.021.642-9.052 1.516.352.734 3.68.776 4.712.046 1.137.314 2.132.418 3.269.116 1.251-.392 2.792.104 3.935zM33.613 398.714c-.654-.93.138-1.332.287-2.416.154-1.115-.175-2.377-.27-3.49-.082-.948-.485-2.501-.442-3.376.074-1.481 1.882-.5-.06-2.205 3.76-3.72 1.76 2.415.973 4.378 2.661 1.107 1.288 5.09 1.045 7.494l-1.533-.385zM36.496 116.761c.258 2.855.572 5.689.915 8.535.247 2.042 1.313 5.313-1.007 6.472-.315-1.039.19-1.898.18-3.001-.012-1.399-.59-2.759-.779-4.138-.322-2.354-.673-5.875.691-7.868zM33.557 431.238l-.087-1.709c1.252-.003 1.039.144 1.058-.753-1.41.054-1.439-.801-1.484-2.249-.108-3.514-.219.018.354-1.756.224-.696 2.031-2.639-.025-2.741.498-.215 1.1-.313 1.663-.43v11.341l-1.479-1.703zM45.96 247.168c-1.748-.63-1.222-8.568 1.08-6.638.375.316.336.975.45 1.5.259.128.465.307.617.536.256.298.066.576-.573.835.047 1.756.223 2.924-1.574 3.767zM424.531 333.325c-.549-1.211-1.235-1.028-1.189-2.563.019-.621.428-1.188.463-1.57.067-.725-.193-1.809-.405-2.716.954.255.304-.975.907-.959 1.102.033 1.163 1.511 1.26 2.189.116.811.615 6.608-1.036 5.619zM427.789 437.109c.173-2.137-.037-2.821-.103-4.808-.03-.878-.944-2.116-.784-2.814.321-1.395 1.277 1.228 1.324 1.343l.875-2.145.504 8.424h-1.816zM106.857 366.068c-1.121-.68-3.161-1.143-3.348-2.409-.239-1.615.876-1.167 1.973-.777.498-1.825.259-2.167 2.144-2.167-.11.356-.222.711-.331 1.067-.587.664-.566 1.134.061 1.41.47.144.533.362.189.653-.225.359-.452.717-.678 1.075l1.254.313-1.264.835zM36.887 340.23c-1.375-2.423.107-3.904.185-6.409.052-1.638-1.311-3.124.82-3.566.413 2.664.185 5.372.267 8.053l-1.31-.324c-.12.732.774 1.606.038 2.246zM394.751 373.988c.025-.96.827-1.015.827-1.096 0-.576-.443-.836-.497-.983-.246-.672-1.628-1.667.127-2.279-1.8-1.485.671-3.439 1.751-4.386-.17 1.368-.009 5.805-1.58 5.641 1.829 1.262 1.43 1.694.078 3.253.217-.164-.017-.214-.706-.15zM33.983 420.17c-1.412-2.322-.532-5.582-.578-8.161 1.402.969 1.39.687 1.616 2.393.158 1.203 0 2.658 0 3.872 0 .534.373 3.012-.398 2.785-.352-.104-.275-.76-.64-.889zM104.204 350.935c-.5-.655-.35-1.006-.464-1.381.556-.376.532-.71-.072-1.002-.332-.219-.418-.471-.258-.758 1.368-.939 1.964 2.516 1.964 3.418.795-.188.757-.659.742-1.308.586.804.113 6.696-.808 6.732-.611-.843-.782-2.182-.784-2.853 0 .168-.369-.659-.355-.598-.173-.766.69-1.181.035-2.25zM106.049 382.351c1.537.187 1.792 2.19 1.907 3.826.032.458.117 3.591-1.348 2.982-.865-.358.045-1.86-.038-2.468-.287-2.105-2.048-2.181-.521-4.34zM452.008 381.346c.144-1.466.651-3.274.574-4.721-.043-.837-.526-1.923-.625-2.831.678.187.855-.288.989-.829.515 3.137.828 6.303.948 9.48-.681-.343-1.312-.604-1.886-1.099zM332.367 424.496c.052-.848.636-1.686 1.367-.72.545.718.245 2.793.279 3.681.089 2.354-.136 3.895-2.634 2.442 1.401-.852.628-.831.548-2.287-.193-.623-.096-1.199.292-1.731.349.491.667.559.954.203l-.806-1.588zM423.721 344.301l.595.26-.157-3.372c1.135.002 1.256.116 1.752-.895.52.183.113 4.837.192 5.771.128 1.526.492 1.931-1.286 2.204l.504-2.325a1.635 1.635 0 00-.639-.344c-.335-.653-1.228.011-.961-1.299zM418.749 229.132c2.348-.041 2.823.71 2.439 3.674-2.406.45-3.073-.512-2.439-3.674zM451.548 411.781l-.348-.942c.968-.041.798-1.165.978-1.986-.563.033-.711.784-.94 1.255-.046-.972-.237-2.072-.002-3.001.199-.787 1.019-.469.83-1.572 1.977-.596 1.082 1.56 1.011 2.673-.103 1.623.398 3.191-1.529 3.573zM425.742 399.093c-.609-.778 1.204-1.438 1.363-1.755.477-.95.187-2.365.358-3.433-.157 2.886 1.013 5.68.577 8.575-2.032-.88-.72-2.644-2.298-3.387zM396.577 351.046c-1.224.117.039-8.837.808-9.683.284.926.67 1.943.676 2.931.007 1.377-.736 1.838-1.066 3.028-.281 1.011-.542 2.656-.418 3.724zM106.713 404.245c-.508-1.658-1.188-7.145.438-7.747.121 1.284.326 2.562.451 3.841.154 1.573-.372 2.623-.445 4.153l-.444-.247zM36.876 359.367c-1.156-1.261-1.333-1.224-1.272-2.886.05-1.35.167-2.452 1.576-2.7.035 1.871.761 3.851-.304 5.586zM103.814 344.935c-.093-1.585-.576-3.486.149-4.926 1.932 1.442 2.016 4.504 1.828 6.675-.585-.982-.656-1.563-.844-2.669l-1.133.92z" fill="#2C2D36"/><path fill-rule="evenodd" clip-rule="evenodd" d="M445.316 336.94c.931-.204 1.849-.175 2.131-.9.154-.396-.339-1.412-.29-1.849.099-.876 1.364-2.105.643-2.836 1.469-.204.925 3.991.69 4.843-.251.91.028 1.232-1.101 1.568-.825.245-1.682-.016-2.073-.826zM107.217 395.873c-2.364.489-1.286-3.378-1.501-4.858.695.148 2.216.279 1.846 1.48-.198.638-.873.307-1.464.528.753 1.801 2.76-.178 1.119 2.85zM6.95 329.467l-1.718-1.95c.344-.263.582-.593.715-.99.261-.378.194-.756-.204-1.133.351-.3.516-.663.494-1.089-.107-.555-.39-1.265-.592-1.804.074.199-.363-2.224-.532-1.616.603-2.177 1.384 1.535 1.437 2.647.038.778.795 5.873.4 5.935zM373.126 384.378c-1.531-.78-.288-2.654-.395-3.953-.158-1.912-1.079-3.444.032-5.321 1.297 1.265.151 2.617.195 4.01.023.74.513 1.359.557 2.206.053 1.025-.504 2.004-.389 3.058zM103.027 328.612l.052-3.337c2.238.075 1.722 2.825 1.854 4.425-1.145.412-1.044-.973-1.906-1.088zM333.143 387.391c.421-2.393-.16-4.747-.03-7.196 1.48.88 1.789 6.261.03 7.196zM452.401 392.628c-.09-.895.506-1.181 1.102-1.806.996 1.315.345 5.442.345 7.063-1.083-.508-.578-4.527-1.626-2.442l-.074-2.519c.093.399.348.675.765.827 0-.993.117-.803-.512-1.123zM452.015 390.685c-.374-1.352-.007-3.115.012-4.54 1.001.783 1.517.57 1.837 1.475.103.29-.429 3.206-.369 3.206-.432-.825-.925-.873-1.48-.141zM105.308 356.636c.762-.029 1.846-.149 1.741 1.138-.072.877-1.987.721-1.013 2.105-.826.29-1.631.284-2.505.345v-2.551l.985 1.886.792-2.923zM34.658 375.435l-1.338-3.015c1.803-.081 1.019-.058 1.425-.932-.194.416-1.538-1.729.284-.905 2.393 1.083.375 3.411-.371 4.852zM332.244 441.176c-.399-1.27.523-1.589.68-2.94.188-1.613-.858-1.428 1.042-2.178.178.948 1.182 3.353.583 4.054-.592.689-1.969-.217-2.305 1.064zM33.916 384.425c-.827-1.117.82-3.822 1.86-4.337v4.717l-1.86-.38zM55.354 288.552c-.393-1.061-2.468-4.968-.001-4.453 1.697.355.903 3.389.001 4.453zM373.472 357.754c-1.291-1.482-.563-5.03-.54-6.926 1.055 1.18 1.574 2.312 1.201 4.042-.104.48-.583.693-.633.918-.123.56-.148 1.08-.028 1.966zM351.939 427.314c-.613-.716.148-1.894.067-2.86-.039-.475-1.593-3.75-.027-3.742 1.043.006.47 3.226.528 3.757.092.828 1.466 3.452-.568 2.845zM427.432 422.981l.327-1.102c1.829.969.831 3.2.458 4.708-.706-.469-1.547-.628-1.694-1.41-.324-1.733.853-1.295 2.047-1.219l-1.138-.977zM333.194 395.04l-.062-4.546c-.021-1.554-.44-2.133 1.062-2.637.121 1.166-.429 1.702-.495 2.943-.096 1.813 1.014 2.799-.505 4.24zM450.233 359.379l-.664.157c-.285-1.25-.926-1.993-1.205-2.996-.262-.943.316-2.769.435-3.753.254.641.718 1.331.794 2.015.043.382-.307 1.442-.261 1.644.068.301.9.405.985.908.122.722.021 1.305-.084 2.025zM6.744 333.985c-.96-.9-1.082-2.21-1.135-3.445l1.01 1.158c-.044-.483-.087-.967-.132-1.45 2.797.34 1.765 2.832.257 3.737zM394.459 380.841c-.664-1.2-.81-2.097.288-3.029.23 1.016.687 1.199 1.371.551.526 1.636.319 2.791-1.659 2.478zM333.208 379.211c-.057-1.715.57-3.372.079-5.057l-.303 1.071-.226-4.131c1.093.002.806 1.919.888 2.632.233 2.028.308 3.883.166 5.955l-.604-.47zM372.898 374.738c-.674-1.238-1.253-7.941-.192-9.038.605 2.97.866 6.054.192 9.038zM352.409 435.27c-1.381.007-.747-1.199-.704-2.051.041-.776-.704-2.96-.435-3.519.587-1.226 1.032.029 1.315.957.439 1.45.069 3.165-.176 4.613zM103.027 299.237c.209-3.034-.185-5.501-.793-8.479 1.908.361 1.772 6.969 1.479 8.732l-.686-.253zM35.43 364.209c-1.025-1.056.189-1.853 1.287-1.013.888.681.473 3.094.473 4.309l-1.437-.32c1.047-.523.978-2.83-.323-2.976zM451.582 432.463c-.332-.927-.628-1.49-.427-2.555.254-1.342.006-1.216 1.496-1.347 0 .727.575 4.713-1.069 3.902zM426.563 404.896l.33-.48c1.118.861 2.052 1.66 1.605 3.223-1.372-.627-1.512-.353-2.797.474-.196-.796.827-2.219.862-3.217zM394.692 441.117l-1.481-.773c1.717-1.078 1.289-2.881 1.475-4.593.735.494.736 2.012.929 2.862.358 1.578.37 1.587-.923 2.504zM424.4 355.765c-1.162-.211-1.242-.649-.708-1.657-.092.174 1.491-.954 1.343-.945 2.066-.134.742 1.568.617 2.706l-1.252-.104zM7.295 363.154c-.002-.813-.393-5.017 1.073-3.43.841.909.128 2.668.11 3.721l-1.183-.291zM332.754 422.05c.082-1.109-.008-2.672.276-3.746.447-1.688.28-1.67.694-.113.207.78.624 4.961-.97 3.859zM33.962 437.578c.449-.883-.62-3.159-.526-4.465 1.13 1.34 2.909 3.201 1.008 4.881a4.282 4.282 0 01-.482-.416zM372.989 340.933c-.217-.814-1.174-3.258.495-2.967.616.108.78.937.844 1.485.149 1.287.04 1.482-1.339 1.482zM451.302 369.999c-.717-1.121.123-2.203.242-3.674 1.907-.21 1.273 3.324 1.273 4.388-1.077.35-.418-.978-.984-1.354l-.531.64zM395.116 364.424c-1.132-.923.041-.816-.019-1.648-.045-.635-.017-1.312-.256-2.11 1.429-.369 1.478.954 1.642 1.809.31 1.608.078 1.845-1.367 1.949zM8.048 439.506c-.062-.601-.823-4.615.403-3.887.952.566.345 3.029.3 3.938l-.703-.051zM395.258 359.305l-.126-1.822c-.359-.739-.2-1.082.476-1.027.655.055.844-.286.566-1.024l.055-1.851c.762.542 1.045 3.268.641 4.059-.113.219-1.789 1.586-1.612 1.665zM452.592 403.837c-.574-.047-.708-1.668-.577-2.141.357-1.285.597-1.238 1.821-1.238-.631 1.173.393 2.759-1.244 3.379zM36.215 344.595c-.706-1.467-.768-1.512.246-2.782 1.348 1.1 1.297 2.737.907 4.272l-1.153-1.49zM372.855 331.563c-1.366-.632-.748-2.739-.653-3.864 1.535.937 2.13 2.615.653 3.864zM371.683 322.477c-1.955 2.788-1.616-.941-1.486-2.361.792.39 2.28 1.443 1.486 2.361zM122.197 292.903c-.757-1.744.099-4.232-.525-6.188 2.853.217 1.034 4.411.525 6.188zM373.853 349.131l.07-1.351c.177-.498-.038-.734-.647-.705l-.71-.248.154-2.504c.75.395 1.908 2.184 2.039 3.144.041.3-.24 2.32-.906 1.664zM397.607 332.713c0-1.02-.303-2.579 0-3.576-.407-1.147-.026-1.611 1.14-1.393a.915.915 0 01.221.361c.073.486-.501 1.685-.596 2.292-.181 1.155-.023 2.371-.064 3.535l-.701-1.219zM424.612 323.591c-1.394-1.589-1.227-1.874.227-3.205.587.945 1.234 3.159-.227 3.205zM103.12 332.34l-.108-2.143.955 2.203 1.117-1.329v3.59l-1.964-2.321zM7.316 409.363c-.856-1.626-.261-3.485-.054-5.276.564 1.504 2.26 4.705.054 5.276zM419.836 282.181c2.006.185.97-.397 1.762-1.882.146-.274.365-1.981 1.223-.966 1.215 1.44-1.315 4.01-2.985 2.848zM30.742 453.007l2.826-1.64c.499 1.177.583 1.432-.819 1.9-.673.224-1.415.206-2.007-.26zM8.416 448.659c-.713-1.267-1.015-4.273.494-4.519.109.775 0 4.478-.494 4.519zM52.833 334.532c.025 3.458-.013 6.917-.037 10.375-.143-3.5-.325-6.889.037-10.375zM350.645 444.272c.875-1.521.94-3.146 1.192-4.874.511 1.419.017 1.802-.115 3.284-.137 1.526.713 2.158-.772 3.057l-.305-1.467zM7.298 369.938l-.028-5.236c1.018 1.572.85 3.533 1.23 5.292l-1.202-.056zM78.792 352.931c-.659-1.557-.325-3.154-.218-4.827.595.65.588 1.209.78 2.075.296 1.338.961 2.397-.562 2.752zM353.257 414.167l-.786 1.212c-.304-1.257-.181-1.431-1.373-1.806.463-.631.927-1.261 1.392-1.892 1.02.532.876 1.53.767 2.486zM394.703 431.246c-.074-1.457-.147-2.914-.223-4.371 1.416 1.378.729 3.082.964 4.793l-.741-.422zM73.563 250.009c-.546-2.188-.392-4.246-.334-6.498.748-.118.636 5.853.72 6.717l-.386-.219zM423.257 311.327c-.004-.153-.689-3.639.536-3.081.942.43.577 3.214.465 3.981a2.592 2.592 0 00-1.001-.9zM73.612 257.569c-.845-1.463-.65-3.085.018-4.568.254 1.618.938 3.189-.018 4.568zM426.446 397.6l-.84 1.2c-.529-1.669-.646-4.03.534-5.471-.545 1.45.394 2.82.306 4.271zM333.96 436.058l-.986.388c.385-1.177-1.084-1.311-1.779-1.751 1.671-.141.73-1.084 1.523-1.344 1.794-.586 1.201 1.625 1.242 2.707zM72.288 174.438c-.385-.747-.258-4.148.027-4.121 1.3.125.758 3.696-.027 4.121zM372.946 363.61c-.804-1.514-.269-3.187-.026-4.76 1.468 1.155.537.769.46 2.278-.054 1.054.083 1.551-.434 2.482zM326.021 395.007c.291 3.329.233 6.579.156 9.919-.102-3.309-.248-6.609-.156-9.919zM45.957 247.168c2.556-1.199.436-3.218 2.21-4.513.411 1.145-.948 6.53-2.21 4.513zM352.549 396.286c-.808-1.271-.581-1.278-.66-2.576-.042-.675-.157-.721-.866-.979 1.433-.635 1.482.193 1.682 1.655l.574.298-.73 1.602zM96.525 275.699c.016 3.173.297 6.455-.198 9.593-.028-2.788-.854-7.014.198-9.593z" fill="#2C2D36"/><path fill-rule="evenodd" clip-rule="evenodd" d="M423.258 311.327c.73.45 2.089 4.774 1.422 5.027-.34-.95-.192-1.863-1.071-.822-.118-1.401-.235-2.803-.351-4.205zM373.524 344.749c-1.186-.628-.951-2.283.264-2.947 1.4.74.425 2.198-.264 2.947zM423.705 353.856c-1.389-1.696 1.013-4.292 1.442-3.429.247.495-.99 1.612-1.034 1.704-.15.313-.317 1.093-.408 1.725zM427.103 410.955c-.866-1.076-.805-2.158-.028-3.243-.583.94 3.046 1.639.028 3.243zM78.945 395.063c-.124-1.428-.972-4.481-.135-5.717.584 2.342.324 3.46.135 5.717zM424.656 372.449c-.092-1.514-.194-1.682 1.027-2.555.747 1.143-.54 2.692 1.21 3.301-.033.02-.737.516-.807.544l-1.43-1.29zM2.477 287.491c1.64-.108 1.527 1.167 1.985 2.028-1.62.399-1.993.018-1.985-2.028zM36.102 353.727c-.341-1.593-.6-3.314.359-4.758l.537 4.119-.657-.832-.24 1.471zM424.619 361.693c-.784-.587-.74-2.688.521-2.485 2.149.347.313 1.802-.521 2.485zM34.508 378.808c-.105-1.118-.328-2.204-.531-3.309 1.084.66 1.586 2.297 2.174 3.4l-1.643-.091zM58.55 395.391l.042-6.865c.382 2.33.613 4.575-.041 6.865zM34.33 441.977c-1.274-1-.812-2.858.568-2.977-.03 1.08.534 2.204-.568 2.977zM73.188 240.806c.01-1.488.022-2.976.034-4.465.904.601 1.074 4.09-.034 4.465zM424.413 338.352c.26-.984-.2-1.002-.174-1.641.024-.563-.849-.139-.281-.92.141-.194 2.109 1.161 2.11 1.162.222.826-1.054 1.598-1.655 1.399zM423.832 318.017c-.208-.594-.41-1.189-.609-1.787-.028-.084 1.214.888 1.352 1.151.478.91.375 1.992.372 2.993l-1.115-2.357zM388.588 363.087l-.018 8.06c.005-2.689.012-5.374.018-8.06zM71.352 180.45c.028-.483.224-4.63 1.177-3.627.427.449-.472 3.434-1.177 3.627zM351.7 439.183c-.94-.411-1.282-2.008.01-2.142 2.039-.212.565 1.595-.01 2.142zM333.86 433.354c-1.045.376-1.44.07-1.182-.919l-.088-1.833c1.008-1.185 1.309 2.481 1.27 2.752zM325.798 355.6c-.016 2.538-.031 5.076-.048 7.61l.048-7.61zM101.798 287.056c-.768-.918-.3-2.032-.352-3.085 1.925.685 1.15 2.187.352 3.085zM448.564 330.632l-1.087-.169c.286-.935.683-2.722 2.087-1.977l-1 2.146zM389.336 425.511l.018 7.667-.018-7.667zM451.556 434.838c-.702-.696-.516-2.82.776-1.697.871.756.347 1.915-.776 1.697zM398.587 322.278c-.015-1.841-.031-3.681-.048-5.519.067 1.842.541 3.676.048 5.519zM121.678 284.683c.065-1.359-.695-3.927-.443-4.626.846 1.405 1.874 3.21.443 4.626zM36.822 362.134c-.158-1.249-2.006-1.009-2.345-2.247.421.145 4.37.625 2.345 2.247zM353.442 398.939l-.481-.867c-1.307.846-1.094.551-2.027-.427.836.12 1.387-.771 1.891-.513.706.361 1.145 1.09.617 1.807zM333.456 401.431c-.031-.284-.489-3.511-.322-3.54.359-.061.889 1.312.932 1.489.285 1.181.322.968-.61 2.051zM35.499 326.297c-.32-1.039-.12-1.449.283-2.48.92 1.218 1.875 2.347-.283 2.48zM328.535 443.522c.767-.125 1.506-.019 2.243-.255.674-.217.472-2.026 1.694-1.021-1.394 2.039-1.488 1.977-3.937 1.276zM78.733 365.783c-.02-.879-.362-1.863.373-2.589 1.058.375.993 2.793-.373 2.589zM54.345 281.058l-2.234 1.079c-.25-1.758 2.339-3.097 2.234-1.079zM6.74 333.985a8.07 8.07 0 001.189-.141c0 .283.307 3.445-.73 2.813-.585-.356-.455-2.063-.458-2.672zM350.236 418.641c.854-1.025 2.308.568 1.305 1.525-1.315 1.253-1.871-.409-1.305-1.525zM105.249 345.767c1.175 1.978-.594 1.222-1.987 1.142.549-.911.864-1.789 1.987-1.142zM399.92 289.718l-.002-3.948c.112.543 1.36 4.458.002 3.948zM394.761 383.841l-.273-2.534c.332.406 1.685 1.429 1.423 2.078-.254.632-.704.035-1.15.456zM394.379 413.671c.124-1.822-.309-2.683 1.489-3.181l-1.489 3.181zM425.543 387.949c-.573-1.149-.904-3.106-.156-4.206.933.665.212 3.306.156 4.206zM56.788 300.428l-.3-2.869c1.477.936 1.054 1.491.3 2.869zM426.92 412.219l-.709-.497c.764-.651 1.438-.321 2.423-.196l-.479 1.508-1.235-.815zM103.707 338.397c-.079-.549.09-1.027.508-1.435.619.731 1.64 2.839-.57 2.606l.062-1.171zM372.11 327.103c-.05-.65-.399-1.885.619-1.984.484 1.09.778 1.828-.619 1.984zM395.016 435.974c-.611-.412-.324-1.806-.321-2.469 1.155.512.887 1.682.985 2.877l-.664-.408z" fill="#2C2D36"/><path fill-rule="evenodd" clip-rule="evenodd" d="M351.873 418.776l-1.287-.559c.59-.307.49-1.687 1.43-1.454.77.191.089 1.772-.143 2.013zM96.856 305.922c-.042 2.02-.085 4.041-.125 6.059l.125-6.059zM423.231 275.038c-1.305.106-.694-1.776-.427-2.167.842.719.967 1.189.427 2.167zM424.718 369.293c-.314-.533-.854-1.037-.333-1.675.481.854.689-.088 1.114-.714.31 1.518.739 1.591-.781 2.389zM446.273 412.473l-.041 5.567c-.499-1.861-.318-3.715.041-5.567zM121.678 284.683c.257-.314.577-.546.959-.695-.018.214-.07 2.664-.239 2.783-1.076.756-.721-1.772-.72-2.088zM372.853 331.563l.764-.646.517 1.741c-1.013.046-2.364.155-1.281-1.095zM373.544 336.407l-1.015 1.195-.08-3.608c1.087.088.514 1.945 1.095 2.413zM4.892 211.762l-.282-1.503c-.182.38-.364.761-.548 1.14l.091-2.413c.921.723 1.125 1.704.739 2.776zM326.158 371.234c-.112 1.099 1.874 1.55 1.645 2.21-.121.349-1.123-.014-1.37-.188-.638-.451-.342-1.118-.275-2.022zM100.911 280.97l-.286-2.907c.627.041.729 1.958 1.372 2.791l-1.086.116zM394.988 385.585c-.088-.272-1.354-1.198.229-.874.791.162 1.677.961.517 1.728l-.746-.854zM36.484 330.32c-1.586-.582-1.741-.949-1.083-2.541l1.083 2.541zM423.925 321.224l-.379.329c-.259-1.199-.803-2.27-.152-3.338.174 1.003.352 2.007.531 3.009zM394.525 406.488l-.087-4.041c.562 1.337.778 2.679.087 4.041zM78.507 404.227l-.155-4.532c1.185.672.293 3.322.155 4.532zM397.711 339.059c-.901-.462-.534-1.26-.495-2.207.901.291 1.289 1.372.495 2.207zM35.272 323.646l-.182.776c-1.306-.538-.633-1.64-.825-2.655l1.007 1.879zM426.063 373.72c.563 1.229.588 2.541.278 3.843-.614-.942.422-2.605-1.056-2.977.872-.36 1.132-.649.778-.866zM7.23 347.338l.31-1.718.855 1.479-1.165.239zM446.635 387.771zM101.796 287.056l.511-.577c.941.881.209 1.819.004 2.807-.727-.57-.465-1.457-.515-2.23zM7.303 350.962c-.154-1.703-.454-1.976 1.071-2.738-.366 1.256-1.11 1.931.307 2.895l-1.378-.157zM35.76 367.185c-.53.74-1.286.812-2.147 1.102.262-1.03.79-1.093 1.443-1.802l.705.7zM423.246 270.211c-1.057-.636-.668-2.095-.67-3.256.719.946.87 2.111.67 3.256zM400.088 284.965l-.127-2.929c1.049 1.289 1.06 1.542.127 2.929zM333.693 417.048c-1.198.015-.743-2.091.066-2.585.648.84.005 1.711-.066 2.585zM4.076 240.385c.398 1.23.624 2.152.624 3.438-.9-.993-.697-2.225-.624-3.438zM394.611 377.18c-.342-1.01-.196-1.451.114-2.489l1.146 1.036c-.375.46-.846.997-1.26 1.453zM426.906 415.056l.11-2.26c1.048 1.123 2.405 2.438-.11 2.26zM422.353 300.542c-.71-.549-1.051-1.268-.996-2.167 1.301.516 1.353.63.996 2.167zM388.852 392.213c.454 1.436.149 2.901.169 4.35l-.169-4.35zM4.61 450.488c.74-1.068 1.722-.324 2.598-.344-.825.446-1.598 1.254-2.599.344zM352.608 410.893c-.287-.959-.879-1.52.105-2.009.448.96.557 1.115.499 2.254l-.604-.245zM103.804 367.279c-.569-.784-.295-1.464.54-1.875.318.947.819 2.05-.54 1.875zM34.515 408.612c-.265-.032-2.125-.956-.84-1.484 1.353-.556 1.272.859.84 1.484zM349.975 420.368c.875-.342 1.309-.127 1.299.646-1.578.097-1.415.34-1.797 1.868-.089-.886-.378-1.877.498-2.514zM72.603 343.266l-.1 4.934.1-4.934zM452.791 399.822c-.764-.678-1.304-1.405-.305-2.144.446.897 1.153 1.452.305 2.144zM319.715 433.465l.146-4.684-.146 4.684zM351.875 418.776c.134-.138 2.703 1.133-.336 1.39.113-.463.225-.926.336-1.39zM33.671 403.024c-1.532-1.633 2.255-2.44 1.164.13-.275-.482-.548-.964-.822-1.447l-.342 1.317zM70.72 164.478c-.4-.58-.912-.709-1.536-.386l.58-1.586c.675.462 1.29 1.091.956 1.972z" fill="#2C2D36"/><path fill-rule="evenodd" clip-rule="evenodd" d="M394.982 385.585c1.006 1.151.534 1.251-.255 2.439.139-.209-1.007-1.694.255-2.439zM33.704 401.029l-.919-.854c.949-.659 1.83-.617 2.114.525l-1.195.329zM351.024 392.731c1.179.429.925.934.554 2.027-.704-.905-.965-.86-.554-2.027zM78.735 365.783c1.044.156 1.04 2.571-.012 2.204l.012-2.204zM390.496 441.805l1.142-1.224c.365.874.115 2.631-1.142 1.224zM398.093 326.382c-.323-1.048-.38-2.057.428-2.938.659 1.098-.009 2-.428 2.938zM418.633 362.809l.179 4.359-.179-4.359zM96.27 334.204l.186 4.293-.187-4.293zM394.82 394.32l.821-2.754c.478 2.185.478 2.185-.821 2.754zM353.398 408.52c-.384-.618-.719-1.327-.178-1.99.529.618 1.615 1.66.178 1.99zM400.03 293.681c-.632-1.09-.272-2.206-.089-3.316.127 1.103 1.032 2.185.089 3.316zM424.559 358.088l-.047-2.095c.409.641.819 1.28 1.229 1.92l-1.182.175zM7.263 426.856c-.072-1.321-.228-1.491.616-2.62v2.72l-.616-.1zM78.718 385.505c-.667-1.026-.391-2.108-.188-3.181.375 1.045.605 2.093.188 3.181zM78.057 434.661l-.045-4.353.045 4.353zM399.597 299.991c.133-1.109-.593-2.263.307-3.226.005.516.235 3.579-.307 3.226zM427.669 421.68c-.793-.191-1.059-.738-.799-1.64 1.237.49 1.953.578.799 1.64zM96.668 300.803c.042 1.441.085 2.881.125 4.317l-.125-4.317zM422.775 306.789l-.173-4.433.173 4.433zM392.453 441.815c.558-1.033 1.389-.396 2.123-.345-.727.758-1.463.877-2.123.345zM395.943 395.296l-.142 2.625c-.765-.561-1.042-2.665.142-2.625zM349.883 402.927l.187 4.374-.187-4.374zM349.875 437.239c.393 1.248.466 2.507.139 3.778l-.139-3.778zM418.617 330.63c.6 1.329.262 2.668.039 4.003-.012-1.336-.026-2.67-.039-4.003zM333.959 397.748c-.52-.613-1.417-1.095-.748-2.127.618.58 1.23 1.163.748 2.127zM58.127 423.986c-.042-1.229-.39-2.49.376-3.633.083.738-.157 3.053-.376 3.633zM452.059 411.679l.721-.254c.001 2.069-.338 2.666-.721.254zM333.31 407.011l-.122-2.122c.18.297 1.736 2.575.122 2.122zM98.443 272.654c-.078-.952-.156-1.903-.232-2.855.69 1.364 1.145 1.627.232 2.855zM349.484 429.567c.464 1.075.724 2.152.015 3.229-.004-1.079-.009-2.154-.015-3.229zM100.439 276.624l-.595-2.568c1.532.079.757 1.316.595 2.568zM35.252 369.746c-.469-.586-.852-1.152.185-1.452.504.839 1.653 2.236-.185 1.452zM326.017 389.849l-.005 3.966.005-3.966zM424.196 364.446l-.024-.894c1.07.451 1.103.142 1.901-.716-.056 1.155-.743 1.721-1.877 1.61zM428.024 417.528a459.87 459.87 0 00-.727-1.171c.687-.342 1.257-.715 1.899-1.137-.344.938-.477 1.611-1.172 2.308zM120.113 114.788c1.139-.002 2.278-.004 3.41-.004-1.142.003-2.276.003-3.41.004zM7.25 423.259l.332-1.268c1.211.84.79 1.893-.332 1.268zM394.18 240.355zM59.119 351.719c-.474-1.205-.409-2.407.012-3.605l-.012 3.605zM52.311 309.805zM28.452 426.32l-.01 3.638c.002-1.215.006-2.426.01-3.638zM328.724 349.078c-.523-1.583.191-1.508 1.453-2.378-.221.447-.867 2.429-1.453 2.378zM7.633 373.573l-.36-2.504c.322.655.292 1.322 1.063 1.47l-.703 1.034zM427.99 404.227l-.658-1.029c.808-.218 1.844.444.658 1.029zM7.261 395.036l-.003-2.898c.434.469.658 3.172.003 2.898zM399.862 296.079c-.629-.622-.336-1.778.506-1.633l-.506 1.633zM369.975 319.587c-.505-.289-1.009-.58-1.514-.87l.94-.995c.115.246 1.181 1.751.574 1.865zM446.642 402.127c.08 1.212.467 2.443-.212 3.607l.212-3.607zM78.652 355.681l.101-1.268c1.008.548 1.888.911-.1 1.268zM421.701 266.135c-.321.647-.423 1.672-1.561.902-.067-1.32 1.066-.558 1.561-.902zM395.921 414.19v2.135c-1.237-.576-.73-1.163 0-2.135zM451.206 364.502c-.753-.362-.758-1.086-.549-1.78.93.437.665.767.549 1.78zM78.7 358.207l1.067-1.232v2.052c-.694.033-1.05-.241-1.068-.82zM52.783 321.837l-.04 3.608c.012-1.204.027-2.406.04-3.608zM448.5 327.359l-.121-1.952c.838.626.75 1.621.432 2.491l-.311-.539zM7.133 345.398c-.572-.935-.287-2.005.085-2.94.612 1.063.218 1.752-.085 2.94zM45.224 241.932zM51.762 300.793l.205 3.149-.205-3.149zM57.151 306.831l-.233-2.51c.923.626.4 1.483.233 2.51zM395.7 234.607l-.351 1.679c-.69-.18.218-1.462-.966-.989.037-.89.686-.769 1.317-.69zM372.664 334.085c-.759-.673.92-.783 1.206-.783.232.636-.17.897-1.206.783zM59.13 336.58l-.189-3.255.189 3.255zM78.012 425.959l.141-3.067-.141 3.067zM394.706 423.66l-.335-.889c.754-.274 1.142.107 1.051.867a4.388 4.388 0 01-.716.022zM419.994 384.14c.057.974.114 1.948.173 2.921-.562-.944-.736-1.91-.173-2.921zM373.316 393.43c-.393-.762-.677-1.507.308-2.062l-.308 2.062zM97.667 355.143v3.26c-.496-1.089-.438-2.175 0-3.26zM103.711 338.397l-.062 1.171c-.759-.577-.647-.877-.638-1.847l.7.676zM396.112 353.466c-.419-.872-.063-3.042 1.246-2.067-.823.381-1.325 1.15-1.246 2.067zM97.95 365.6c-.012 1.05-.023 2.099-.036 3.145.012-1.05.023-2.098.036-3.145zM418.617 350.111zM99.713 273.816l-1.514.112c.374-.958 1.808-1.73 1.514-.112zM125.488 382.699l.01-3.195-.01 3.195zM102.969 324.29c.158-.561.152-1.272.733-1.454.53.918.283 1.395-.733 1.454zM332.995 368.807l-.276-2.047c1.18-.379.374 1.648.276 2.047zM103.703 322.836c.248-1.074.337-1.377 1.447-1.089-.423.342-1.035.85-1.447 1.089zM52.695 348.437l.048 3.204-.048-3.204zM34.237 445.548l-.034-1.68c.214.29 1.587 2.218.034 1.68zM34.544 407.212c-.827.177-1.262-.185-1.306-1.085.63.243 1.436.108 1.306 1.085zM67.45 236.38l.08 3.139c-.028-1.049-.054-2.094-.08-3.139zM78.453 407.757l.136-2.836-.136 2.836zM36.457 348.24c-.755-.284-.313-1.101-.227-1.791.881.469.35.802.227 1.791zM33.604 405.819c-.017-.164-.476-2.114.428-1.747.824.334-.41 1.723-.428 1.747zM373.004 349.009l-.692-.967c1.119-.351 1.896.721.692.967zM79.046 372.022c-.746-.767-.23-1.713-.201-2.595.74.512.26 1.798.2 2.595z" fill="#2C2D36"/><path fill-rule="evenodd" clip-rule="evenodd" d="M34.233 404.989c-.142-.423.332-1.41.742-1.378.069.532.136 1.065.204 1.597l-.946-.219zM96.66 343.751l.19 2.779-.19-2.779zM419.193 367.993l-.37 2.285c-.159-1.064-.575-1.688.37-2.285zM125.734 377.089l.157-2.743-.157 2.743zM104.36 320.167c-.248-1.76.172-1.691.522.015l-.522-.015zM107.436 415.659l-.022-2.861.022 2.861zM58.465 407.753l.02-.906c1.242.287.298 1.193.633 1.936l-.653-1.03zM7.511 376.315l-.238-.859c.591.291 1.256-.067 1.27.926l-1.032-.067zM328.724 349.078c.835.073 1.154.673.877 1.403-.578-.314-1.249-.58-.877-1.403zM7.263 398.554l-.013-2.81c.34.937.568 1.871.013 2.81zM105.371 367.189c.481-.703.922-.175 1.58-.861 1.088.979-1.287.877-1.58.861zM420.586 395.418l.244 2.751-.244-2.751zM7.012 414.941c-.601-.786-.011-1.448.225-2.145.77.805.06 1.452-.225 2.145zM59.035 329.005l-.14-2.803.14 2.803zM422.211 418.051l.189 2.764-.189-2.764zM333.368 409.821l-.11-1.872c.694.587.909 1.199.11 1.872zM452.008 381.346c.729.629.526 1.285.227 2.154l-.227-2.154zM426.886 381.491l-.111 2.218c-1.005-.551-.552-1.167.111-2.218zM423.708 353.856c.053-.368-.063-2.171.656-1.697 1.005.661-.768 2.623-.656 1.697zM59.045 332.538l-.111-2.759.11 2.759zM350.949 445.739l.811-.491v1.357c-.526.212-.796-.077-.811-.866zM422.988 278.897c.299-1.066 1.18-1.208 1.103 0h-1.103zM48.042 242.477c-.758-.363-.857-1.001-.721-1.734 1.114.216.813 1.019.721 1.734zM388.578 356.349l-.152 2.928.152-2.928zM397.515 335.688l-.023-1.548c.955 1.13.956 1.15.023 1.548zM349.465 433.548l.2 2.357-.2-2.357zM7.277 386.323c.246-.886.633-.766 1.16.36-.31.465-.696.345-1.16-.36zM372.598 386.791c-.314-.972-.206-1.287.471-1.366.478.676-.13.975-.471 1.366zM452.016 416.834l-.375-1.271c.368-.108.738-.216 1.107-.326l-.732 1.597zM451.645 424.387c-.166-.706-.374-1.417.278-2.009l-.278 2.009zM472.403 435.455zM452.207 434.964l.455-.387.289 1.803c-1.028-.251-.243-.887-.744-1.416zM73.294 235.638l-.161-1.253c.969.289 1.022.706.16 1.253zM365.975 390.542c-.01.823-.019 1.646-.03 2.466l.03-2.466zM425.264 383.532c-.757-.394-.17-.973-.201-1.466.679.263.715.528.201 1.466zM73.27 232.817l-.102-1.663c1.029.63 1.044.887.101 1.663zM390.188 328.553l-.176 2.473.176-2.473zM367.162 328.566c-.07.837-.142 1.673-.213 2.508l.213-2.508zM419.215 272.126l-.211 2.473.211-2.473zM96.455 327.31l-.158 2.564.158-2.564zM96.441 293.254l.048 2.376-.048-2.376zM394.167 252.68l-.171 2.468.171-2.468zM400.398 265.444l-.062-2.428.062 2.428zM7.631 380.739l-.049-.908c1.178-.375 1.01 1.622.05.908zM367.564 324.221l-.216 2.448.216-2.448zM451.834 397.031c-.774-1.382.521-.645 1.088 0h-1.088zM120.465 294.428c.45-.012.899-.025 1.349-.036-.759 1.1-1.209 1.113-1.349.036zM371.676 322.477l.338-.39c.399.575.622 1.252-.264 1.426l-.074-1.036zM114.773 375.088c-.021.787-.041 1.574-.063 2.357-.444-.801-.47-1.587.063-2.357zM393.824 260.578c-.044.803-.089 1.605-.136 2.403l.136-2.403zM446.445 419.698l.071 2.414-.071-2.414zM426.465 401.344l.404.629c-.865 0-1.489-.073-1.37-1.161l.966.532zM395.456 374.137c.362.329 1.859 1.523.404 1.577.029.128-.447-1.717-.404-1.577zM99.488 401.402zM52.613 316.706c.023.785.044 1.571.065 2.353-.023-.787-.044-1.57-.065-2.353zM51.355 295.635c.799.731.067 1.586.19 2.369l-.19-2.369zM373.531 344.748l.761-.828c.262.717.068 1.466-.426 2.03l-.335-1.202zM381.499 82.38c-.616-.717-.322-1.447-.028-2.172l.028 2.172zM451.242 427.979l.145-1.602c.869.618.308 1.106-.145 1.602zM328.484 346.879l-.922-1.415c1-.238 1.209.083.922 1.415zM421.395 404.949l.198 2.346-.198-2.346zM106.993 406.88c-.161-.581-.033-1.082.384-1.503.189.781.25 1.011-.384 1.503zM428.335 426.487c.1-.75-.301-1.169.458-1.602v1.995l-.458-.393zM395.485 366.537l-.476.764c-.186-.448-.372-.896-.56-1.343.248.368 1.095-.34 1.036.579zM243.34 349.727c.601-.001 1.203-.002 1.798-.001l-1.798.001zM391.37 311.864l-.179 2.481.179-2.481zM333.802 413.725c-.627-.247-.899-.614-.425-1.235.241.379 1.189.511.425 1.235zM400.154 259.114zM332.663 364.494l-.245-1.027c.95.306 1.032.648.245 1.027zM126.931 364.308l-.029-2.39c.476.792.503 1.588.029 2.39zM380.074 212.178l1.811-.007-1.811.007zM333.344 411.336l.104-1.289c1.292.538.307.891-.104 1.289zM366.355 361.505l-.187 2.521.187-2.521zM58.644 387.049l-.074-1.727c.75.512.344.901.074 1.727zM58.36 412.9c-.19-.523-.698-1.044-.013-1.571.003.526.008 1.049.012 1.571zM367.012 408.9l.138 1.982-.138-1.982zM394.616 409.385c-.551-.95-.289-1.297.787-1.044l-.787 1.044zM67.66 259.833a1414.442 1414.442 0 010 0zM107.224 409.754zM1.48 407.653l-.023 2.017.022-2.017zM326.193 407.27l-.119 2.043.119-2.043zM353.439 402.159l-.072-1.609c.725.507 1.023 1.03.072 1.609zM421.801 413.29l.232 1.946-.232-1.946zM115.35 392.221c.392.667.47 1.334-.006 1.996l.006-1.996zM419.653 268.141l-.247 2.064.247-2.064zM96.905 269.743c-.097.452.975 1.094-.221 1.365l.221-1.365zM8.05 389.827v-1.553c.766.045.235 1.571 0 1.553zM352.267 416.464l-.415-.912c1.051-.212 1.19.093.415.912zM114.555 384.264l.209 1.938a759.84 759.84 0 01-.209-1.938zM7.744 383.587l-.44-.737c.696-.682 1.08.202.44.737zM428.023 417.528l.513-.514c.226.665.101.862-.284 1.461l-.229-.947zM7.258 419.519l.007-1.194c.703.721.703.748-.007 1.194zM114.731 380.225l-.184 2.066.184-2.066zM424.922 379.532c.35-.153 1.083-.251 1.57-.32-.461.422-.984.529-1.57.32zM395.253 419.264c.05.345.397 1.352-.026 1.457l-.434-1.356.46-.101zM419.195 372.667l.015 2.087c-.004-.697-.01-1.392-.015-2.087zM8.345 372.544l-.53-1.765c-.066-.044 1.723 1.765.53 1.765zM72.824 365.592l.09 2.101c-.029-.701-.06-1.401-.09-2.101zM58.756 366.845l-.162-2.178.162 2.178zM413.434 215.787l1.426-.046-1.426.046zM446.912 362.389l-.088 2.035.088-2.035zM393.367 280.895l-.062 2.075.062-2.075zM372.902 350.159c.456-.424 1.22-.391 1.461.688l-1.461-.688zM326.205 350.044zM393.388 284.079l-.185 2.134.185-2.134zM388.992 348.017l-.203 2.098.203-2.098zM96.464 286.046l-.195 1.65.195-1.65zM105.49 347.129c.413.402.329-.368.742.74a.654.654 0 01-.264.211c-.544-.219-.704-.536-.478-.951zM399.678 252.8l-.131-2.128.131 2.128zM427.597 427.721c-.608.552-1.036.573-1.285.063.547-.794.974-.815 1.285-.063zM389.398 341.678l-.195 2.078.195-2.078zM397.552 340.933c-.85-.19-1.113-.522-.789-.994 1.027-.154 1.29.177.789.994zM446.227 429.903l.03 1.992-.03-1.992zM424.048 340.997c-.621-.94-.58-1.176.225-1.308-.077.437-.151.872-.225 1.308zM418.802 337.304l-.013 1.973c.003-.66.008-1.316.013-1.973zM366.767 335.714l-.224 2.064.224-2.064zM393.006 290.005l-.221 2.08.221-2.08zM68.617 166.362l.463 1.608-.463-1.608zM100.874 436.285c-.009.673-.017 1.347-.027 2.017-.22-.678-.643-1.355.027-2.017zM70.523 293.346l.132 1.881-.132-1.881zM390.613 321.806l-.211 2.077.211-2.077zM79.313 320.724l.08-2.018-.08 2.018zM391.011 316.285zM132.236 306.7c-.04.677-.081 1.355-.123 2.029.04-.679.082-1.353.123-2.029zM71.625 306.384l.199 1.978-.199-1.978zM339.234 37.876c1.779-2.63 3.984-6.202 6.914-7.635-1.016 1.433-5.129 7.787-6.914 7.635zM479.722 63.372c-.641-.746-.598-2.545-.867-3.521-.555-2.018-.984-1.971 1.052-2.748.415 2.084.334 4.211-.185 6.269zM216.52 153.294a39.062 39.062 0 00-3.153.552c.24-1.087 2.178-.577 3.153-.552zM182.398 331.657l3.993.287-3.993-.287zM369.141 99.815l1.244-2.798c.054 1.14-.345 2.08-1.244 2.798zM345.648 261.84l.005-3.263-.005 3.263zM176.836 189.581c-.888-.029-1.778-.059-2.66-.086.892.03 1.776.058 2.66.086zM281.086 187.356c1.414 0 1.314-.045 1.594-1.426.113.658.224 1.315.338 1.973l-1.932-.547zM126.75 261.302l3.647.019c-1.218.505-2.434.574-3.647-.019zM297.99 195.511c-.728-.028-1.456-.057-2.178-.087l2.178.087zM191.06 237.637l-2.205.006 2.205-.006zM286.461 195.517l-1.844-.013 1.844.013zM320.468 250.747l1.874.214-2.296.505c-.233-.373-.091-.613.422-.719zM227.285 340.411l2.875.243-2.875-.243zM203.325 88.596l-.359.838-.216-2.246.575 1.408zM276.562 316.188l2.921.006c-.974.464-1.948.558-2.921-.006zM479.025 72.683c.071-.566-.894-1.274.23-1.695l-.23 1.695zM160.934 136.491l2.381.324-2.381-.324zM229.348 142.761c.754-.419 1.501-.525 2.233.048l-2.233-.048zM335.875 147.147l2.11-.741c-.48.882-1.328.717-2.11.741zM341.828 246.093l2.475-.238-2.475.238zM275.818 287.721l-.651 1.152c-.193-1.176-.193-1.176.651-1.152zM249.25 164.259c.761-.765 1.544-.366 2.326-.047l-2.326.047zM268.128 168.335l-.015-1.808.015 1.808zM175.238 330.908zM316.649 171.992l-.188-1.967.188 1.967zM304.832 324.898l2.434.001c-.812.519-1.622.583-2.434-.001zM260.016 316.843c.737-.493 1.461-.501 2.169.056l-2.169-.056zM396.608 260.07l-.194-2.056c.915.286.915.286.194 2.056zM393.512 317.335l.2-1.689c.68.618.805 1.051-.2 1.689zM367.895 381.06l-.179.99c-.552-.102-.379-1.094.179-.99zM423.681 344.349l-1.018.411c0-.53-.279-2.644.253-2.783.193.559.765 1.752.765 2.372zM422.805 338.812l.332-1.915c1.048 1.057 1.015 1.283-.332 1.915zM35.434 364.209c.894.101-.227 2.072-.541 2.462-1.266-.36-.607-1.626-.885-2.547.423.335.847.669 1.272 1.003l.154-.918zM328.066 357.017c-.042-.465-.359-1.359.172-1.479l.447 1.399-.619.08zM159.412 107.29c2.325 2.607 4.774 6.513 8.756 5.101-.652-1.544-1.871-3.533-1.556-5.297.357-1.995 1.705-1.769 2.854-.388 1.967 2.363 3.239 7.763 1.248 10.427-1.868 2.5-6.532.849-8.355-.922-1.651-1.603-5.6-6.835-2.947-8.921zM180.697 111.08c.82-.866 2.782 0 3.167-1.455.447-1.688-3.852-.856-4.136-2.877-.228-1.628 2.097-3.069 3.451-3.229 2.317-.274 3.767 1.733 4.541 3.647 1.7 4.206-.619 8.026-5.162 8.557-4.218.492-5.134-4.276-2.752-7.034l.891 2.391zM162.104 92.77c1.934 0 3.394-.414 3.588 2.039.131 1.666-.865 2.423-2.061 3.475-1.36 1.195-2.871 2.04-4.313 3.089-.841.612-2.034 2.518-3.186 2.536-2.765.043-2.455-5.007-1.917-6.538 1.135-3.226 4.875-4.177 7.889-4.6zM186.592 97.854c2.387.818 3.232 4.013 5.865 4.302-.277-1.425-2.431-8.553 1.094-6.6 2.636 1.46 3.25 7.283 2.394 9.682-2.806 7.861-12.018-2.218-9.353-7.384zM175.396 122.879c3.747.55 6.662 1.798 10.23.12 1.617-.76 3.277-2.377 4.256-.205.727 1.612.13 3.276-.937 4.55-3.292 3.927-15.018 1.641-13.549-4.465zM182.721 85.209c6.025 0 1.556 5.377-2.24 4.665-1.463-.274-2.173-1.919-1.581-3.338.337-.807 3.821-2.243 3.821-1.328z" fill="#2C2D36"/><path fill-rule="evenodd" clip-rule="evenodd" d="M162.104 92.77l-2.303.324 2.303-.323z" fill="#2C2D36"/><path fill-rule="evenodd" clip-rule="evenodd" d="M235.817 163.494c1.63.228 6.236 2.182 7.017 3.619-1.065.344-1.842 1.101-2.765 1.686-1.063.673-2.096.845-3.228 1.33-2.749 1.178-5.381 3.242-7.939 4.797-5.531 3.36-10.795 7.055-15.936 10.985-4.361 3.333-8.274 7.251-12.414 10.676-2.817 2.33-10.361 9.149-7.109 12.953a497.593 497.593 0 016.867-5.688c1.307-1.068 3.381-3.78 5.067-3.873-2.009 2.529-4.167 4.91-6.321 7.315 3.016.377 6.026-3.8 8.112-5.644 1.331-1.178 2.889-1.612 4.351-2.663 1.307-.94 2.098-2.16 3.565-2.898 3-1.511 5.614-3.761 8.242-5.711 1.157-.859 2.183-1.911 3.163-2.719.628-.517 3.088-2.681 3.664-2.821l.448.946c.672-1.448 1.087-.631 2.17-1.441.587-.44.286-1.103.587-1.37.456-.403 2.1-1.236 2.723-1.631 1.273-.807.776-1.316 2.347-.594-.336-.948-.028-1.203.924-.765l-.134-2.055c4.302 0 7.656-1.758 11.248-4.18 1.353-.913 1.321-1.59 2.848-.791.839.438 1.523 1.678 2.051 2.4 1.209 1.651 1.814 2.811 2.211 4.802-.517-.519-.912-.552-1.183-.098.401.606 1.178 1.339 1.13 2.07-.058.892-.463-.104-.688.46-.238.599-.981 1.2-1.078 1.844-.192 1.263.847 1.253.012 2.677-.713-.645-.893-.698-1.717-.201l.77 1.361c-1.71 0 .195 1.91-.291 3.187-.764 2.006-3.508 2.228-3.274 4.831l1.233-1.938c-.088 1.312-.565 1.76-1.014 2.841-.26.624-.434 1.809-.922 2.313l-1.215-1.947c.292 2.667-.112 4.581-1.681 6.852-.481.697-1.423 1.202-1.778 1.861-.42.782.156 1.859-.293 2.524-.362.537-.995.582-1.521.859-.455-.321-.825-.244-1.112.232a1.663 1.663 0 00-.353.87l.345.44c-.424.973-.866 1.066-1.327.28-.843.45-1.016.669-1.523 1.712-2.156.371-4.585 2.339-6.609 3.41-2.58 1.366-4.856 2.161-7.511 3.039-1.032.341-1.684 1.118-2.597 1.522-.992.439-2.096.179-2.881.523-.981.43-1.32 1.365-2.608 1.55-1.316.189-2.702-.238-3.841-.883 1.035 1.881 1.177 1.774-.707 2.813-.003-.01-.581-2.548-1.114-1.836-.399.533.501 1.697 0 2.365-.311.414-1.481.658-1.893.853l-.811-.122-1.226 1.811-3.279.388c.498-1.493.56-1.436-.853-2.131l.642 2.204c-1.845.248-3.876.548-5.499.433-.307-.022-.424-.446-.915-.404-.403.034-1.37.447-.692.731-3.223.301-6.306.015-9.534.054-1.421.018-2.904.344-4.315.211-1.482-.139-2.962-.674-4.499-.787-3.209-.234-6.778-.235-9.921-.882-1.834-.379-1.991-.354-.625-1.745.72-.732 1.519-1.373 2.303-2.032 4.433-3.725 8.867-7.771 12.363-12.416 3.578-4.753 5.288-10.566 7.868-15.869 4.81-9.89 7.746-23.366 19.157-27.482 2.379-.858 4.991-.991 7.433-1.832 2.89-.996 5.84-1.49 8.835-2.116 2.583-.539 6.424-1.432 9.05-1.065zm-29.29 60.174c-.281.732-.909 1.437.545 1.52l-.545-1.52zm132.817-67.899l.134.012c2.417.196 4.775.581 7.303.889.596.072 1.887-.245 2.382-.135 1.103.245 1.991 1.025 3.135 1.249 2.116.412 4.324.815 6.454 1.491 5.212 1.653 10.305 3.91 15.179 6.376 10.368 5.245 19.803 12.03 29.596 18.256 5.297 3.368 9.864 6.534 14.019 11.282 1.557 1.779 3.106 2.984 3.977 5.036 1.128 2.659 2.411 5.206 3.725 7.775-2.421.537-3.909-.632-6.165-1.144-2.148-.489-4.534-.638-6.726-1.029a289.374 289.374 0 00-14.142-2.143c-4.894-.624-9.68-1.908-14.566-2.587-3.987-.553-8.105-1.215-11.798-2.414-1.817-.59-3.808-.79-5.677-1.177-2.428-.503-4.733-1.572-7.15-2.135a986.65 986.65 0 01-11.67-2.769c-1.763-.433-4.22-.846-5.848-1.603-1.18-.548-2.255-2.019-3.414-3.162-1.661-1.636-3.118-3.59-4.603-5.383-1.311-1.583-3.993-3.751-2.469-6.009-1.735.209-1.094.48-1.827-1.015-.496-1.012-.558-2.526-.797-3.611 1.032-.071.63-.54.523-1.456-.449-.135-.654.132-.613.802-1.737-5.495 1.494-9.797 5.595-13.086.936-.751 2.271-1.992 3.444-2.325 1.568-.445.728-.114 1.999.015zm-149.916 50.837l1.048-.463c-.884-.439-.884-.439-1.048.463zm202.012-61.222c4.607-.037 9.267 1.245 13.813 2.206 2.686.568 4.822 1.885 7.369 2.72.839.275 1.708.253 2.555.469 1.426.363 2.379 1.055 3.634 1.863-2.598 1.564 10.035 10.417 11.044 11.485 2.062 2.181 3.515 4.833 4.681 7.578.953 2.238 3.331 6.193 1.285 8.35l1.144-.452c.24.22-.181 2.886-.249 3.316l.879.097c-1.298 2.117-1.19 2.439-3.674 1.915-.009 1.469.429 2.915.08 4.367-.13.539-.542.986-.594 1.473-.045.418.403.765.35 1.343-.286 3.177-2.116 6.606-3.167 9.605-3.5-7.619-6.057-16.001-11.154-22.697-2.472-3.248-5.365-5.942-8.208-8.848-2.818-2.88-5.303-5.569-8.708-7.738-2.719-1.731-6.018-3.569-9.068-4.544-1.662-.532-3.382-.562-5.078-1.239a37.936 37.936 0 00-4.829-1.59c-4.298-1.094-8.533-2.458-12.813-3.569-1.291-.336-2.482-1.002-3.816-1.36-2.057-.551-4.371-.428-6.241-1.496 2.401-1.242 4.867-1.016 7.445-1.371 2.701-.371 5.364-.803 8.069-1.128 5.105-.612 10.129-.713 15.251-.755zm-2.047 44.264c.534.456.314.471.992-.303-.282-.463-.613-.362-.992.303zm1.398-.249l.54.084c.203-1.565-.198-1.569-.54-.084zm-144.698-5.575c-1.052.542-1.429.971-.512 1.797l.512-1.797zm188.583-1.466l.398 1.317c.584-1.242.584-1.242-.398-1.317zm-79.137-6.975c-.284.558.025.942.243 1.528.653-.241-.004-.993-.243-1.528zm41.955-4.623c2.265.862 6.716 3.476 7.504 5.907-1.72-.59-2.812-1.929-4.394-2.87-1.078-.643-3.534-1.381-3.11-3.037zm-41.974 1.686c2.02.446 3.689 1.754 5.861 1.144-.229-.767-1.094-1.339-1.878-1.417-.597-.061-1.166.599-1.821.314-.603-.262-.242-1.313-1.098-1.385-.719-.059-1.199.735-1.064 1.344zm-141.746-1.05l1.294-.687c-1.046-.529-1.109.18-1.294.687zm183.593-.786c-1.087.075-2.007-.307-2.688-1.115 1.09-.095 1.978.295 2.688 1.115zm-60.138-9.116l2.112-1.073c-1.552-.61-1.648-.561-2.112 1.073zm1.162-4.333l.397 1.129c.697-.736.595-1.099-.397-1.129zM357.996 8.456c1.692 3.628 2.904 7.308 4.145 11.114h-.001l.358.688c3.341 6.483 5.633 12.928 7.846 19.89.94 2.956 1.552 6.007 2.479 9.048.525 1.723 1.127 3.446 1.551 5.197.383 1.583.113 2.867.161 4.478.043 1.475.635 2.381.968 3.71.441 1.77.242 3.99.234 5.818-.019 3.946-.598 7.897-.606 11.83-.008 3.557-.099 7.04-.29 10.6-.15 2.824-.461 7.812-2.905 9.611.607.492 1.433.776 1.195 1.661-.475 1.757-1.694-.046-1.852.148-.812.998.784.786.753 1.551-.032.8-.696 1.505-1.137 2.21-2.735 4.371-6.416 7.601-10.154 11.127-.766.722-1.515 1.621-2.434 2.156-.462.268-1.629.516-1.805.661-.914.754-.525 1.661-1.739 2.206-.936.421-2.896-.276-3.53.069l-.769 1.161c-.159.798-.445.979-.86.543-.391.283-1.982 1.084-2.726 1.682l1.376.152-1.55.24c-.481.231-.792.061-.932-.512-.822.039-.698.25-.719.992-1.568-.008-1.51-.466-2.764-.702-.526-.099-1.31-.072-1.831-.212l.492-1.067c-1.084.789-2.124 1.783-2.321 3.179-1.479.098-.31-2.417-1.887-.812-.397.405-.164 1.117-.424 1.53.349.71.164 1.065-.557 1.064l-1.911.605 1.163-1.397c-1.055-.349-2.486.355-1.788 1.8-.841.076-1.763.298-2.596.235-.912-.069-1.93.767-1.123-.591l-1.389.189-1.385.188-.014.019c-.273.343-.463.667.155.836-1.085.116-2.394.19-3.127.025-.427-.097-.498-1.48-1.256-.569l1.223.902c-7.282 2.992-15.112 3.851-22.642 5.737.023-2.386 1.248-4.41 2.266-6.48 1.213-2.467 2.062-5.059 2.993-7.639 1.796-4.972 3.531-10.002 5.743-14.796 1.113-2.414 2.672-4.584 4.006-6.874 1.319-2.265 2.14-4.673 3.136-7.087 1.978-4.797 4.803-9.127 6.992-13.791 2.192-4.67 5.315-8.772 7.981-13.162 2.74-4.509 5.06-9.276 7.721-13.835 2.919-5.002 6.018-9.902 8.919-14.911 1.282-2.215 2.296-4.47 3.025-6.931.238-.807.649-1.661.433-2.525-.533-2.145-1.468-.886-2.606.05-.416-1.047-1.22-8.976-3.406-6.297-.431.527-.096 1.357-.401 1.88-.317.541-.915.632-1.336 1.175-.738.95-1.087 2.143-1.894 3.077-1.967 2.276-4.25 4.387-6.063 6.659-.618.775-1.422 1.413-2.091 2.295-.955 1.261-1.64 2.81-3.011 3.616.007-.918.253-1.464-1.029-1.422 1.426 1.888.694 1.818-.517 3.203-1.012 1.156-2.113 3.09-3.166 4.525-2.332 3.178-4.436 6.195-6.544 9.496-4.872 7.629-9.429 15.32-13.659 23.325-4.108 7.774-8.122 15.636-11.371 23.815-3.316 8.352-5.387 17.119-8.569 25.487 1.947-.493 1.603-2.267 2.266-3.802.399-.925 1.222-1.645 1.575-2.559.33-.858-.002-1.955.275-2.822-.002.005.924-1.518 1.014-1.719.335-.748.51-1.615.805-2.393.781-2.058 1.783-4.035 3.033-5.854l.944 1.065c-.44 1.218.159 2.306 1.545 2.463-.558 1.723-.38 2.271-2.185 2.458-.22.575.116.881 1.008.919l-.395.848-.39.834-.029.281c-.297 2.358-1.73 4.82-2.637 7.015-1.025 2.479-1.637 5.042-2.476 7.585-.645 1.952-.76 4.889-1.742 6.601-1.561 2.723-2.963-1.064-3.673-2.6-2.236-4.841-4.343-9.725-6.445-14.627-1.197-2.792-2.568-5.501-3.786-8.282-.444-1.012-.938-2.058-1.142-3.161l-.044-.271c.06.156.615-3.225-.295-1.289l-.383-1.519 1.048.089c-.91-1.851-.691-3.826-.859-5.809-.062-.721-1.087-3.873.476-3.098 0-2.762-.363-5.62.561-8.263 1.112-3.183 3.435-6.007 5.344-8.747 1.023 2.214 2-1.527 2.674-2.231-.122-.494.01-.711.394-.652l.949-.08c.417-.663.522-3.163.522-3.852 2.595 1.18 5.532-4.363 6.844-5.888 1.757-2.04 8.22-4.055 7.583-7.347 1.172 1.062.861-.008 1.345-.88.503-.909 1.36-1.461 2.199-2.191.261-.227.871-.64 1.091-.787.336-.224.715.047 1.127-.345 1.053-1 1.712-2.84 2.405-4.079 1.287.842 5.076-2.508 6.12-3.693.626-.71.772-1.71 1.367-2.346.906-.967 1.759-.76 1.948-2.223 1.599 1.316 1.334-1.716 2.339-2.662l1.237.218c.379-.564.754-1.13 1.125-1.699 1.567-2.335 3.326-3.823 5.329-5.733.813-.774 1.397-1.775 2.19-2.54.847-.817 1.901-1.154 2.812-1.897.796-.649 1.783-1.677 2.353-2.53.435-.653.496-1.752.901-2.226l.552 1.323c2.385-2.625 3.904-5.159 6.379-7.68.455 1.323.223 2.126 1.562 2.009.724-.064 1.351-.944 1.905-1.352.185-.137 1.829-1.151 1.878-1.342.27-1.048-1.473-2.239-1.141-3.426.402-1.433 2.825-2.802 3.878-3.72 2.033-1.775 4.061-3.559 6.093-5.335zM204.338 22.902c.216-.031 2.228 6.069 2.445 6.66 1.503 4.096 2.369 8.375 3.92 12.513 3.118 8.322 7.105 16.476 11.367 24.192 3.893 7.046 5.876 14.843 10.464 21.654 3.069 4.556 6.467 8.862 9.673 13.316 2.54 3.529 4.666 7.067 8.108 9.815 3.487 2.784 6.422 5.838 8.882 9.544 1.137 1.714 2.423 3.343 3.955 4.723 1.687 1.517 3.68 2.224 4.139 4.65l-1.217-.053.79 2.934c-3.433-1.306-6.572-1.732-10.149-2.301l2.415-.219c-1.413-.99-3.369-1.139-5.005-1.726-1.661-.596-3.11-1.493-4.73-2.156-3.878-1.587-7.797-3.044-11.672-4.713-1.176-.507-2.653-.794-3.568-1.773l-.498-.632c-.067-.88-.419-1.058-1.056-.534l-.561.225a6.818 6.818 0 01-1.36-1.211c-2.479-2.749-3.927-6.646-5.554-9.925-4.272-8.615-8.639-17.577-11.42-26.82-2.481-8.246-3.325-16.731-4.744-25.16-1.588-9.425-2.571-19.074-4.452-28.436-.167-.833-1.336-4.398-.172-4.567zm273.833 39.7c.913 3.818 1.25 7.602 1.193 11.537-.023 1.68.389 3.518.375 4.962-.018 1.85-.514 4.094-.593 6.069-.151 3.81-.634 7.466-1.003 11.208-.123 1.245-.093 1.756-.05 3.076.043 1.282-.031 2.875-1.01 3.756v-2.501c-.885 1.744-2.004 3.259-4.031 3.667 1.397 1.257.531 2.075-.535 3.094l1.412.39-3.062 2.697a3.21 3.21 0 00-.444-.508c-.571.287-.592.614-.065.981-1.034.867-2.108 2.054-3.389 2.543-.085.032-3.201.008-.961.662l-3.011 2.258c-.015-.663.66-1.103-.34-1.483-1.05 1.963-1.272 2.353-3.262 3.352-1.738.87-3.477 1.736-5.216 2.603-.197-1.073-.818-2.174-1.825-2.678.343.748.88 1.61.838 2.479-.071 1.474-.563 1.343-1.912 2-2.12 1.032-4.297 2.235-6.561 2.916-4.312 1.296-8.729 1.979-13.115 2.897-4.222.885-8.428 2.127-12.672 2.84-4.197.704-9.144.629-13.392.387a168.01 168.01 0 00-13.963-.201c-2.58.068-5.247.141-7.745.53-2.358.368-4.644-.106-7.043-.054-2.196.048-2.826-.57-4.7-1.429-1.938-.89-4.775-1.221-6.899-1.353-.73-.046-1.506.542-2.106-.123-.956-1.059.519-1.599 1.326-2.364 2.304-2.18 3.615-3.481 6.621-4.417l-1.55-.362c11.011-2.964 21.017-7.931 31.532-12.173 4.223-1.704 8.205-3.287 12.391-5.061 4.814-2.04 9.666-4.099 14.272-6.584 9.018-4.868 17.476-10.09 25.927-15.883 8.663-5.94 15.733-13.91 24.568-19.73zM374.13 130.344c-.566.309-.423.662.43 1.061.48-.28.336-.634-.43-1.061zm-47.374.123h-.03l.001.029.005-.001.024-.028zm-1.677-2.799l-.273 2.799h1.92l-.003-.124c-.072-1.104-.945-1.853-1.644-2.675zm-78.705-32.085c4.638 3.318 7.805 8.84 11.147 13.343 3.472 4.681 7.25 9.085 9.524 14.469-1.162-.339-1.601-1.928-2.478-2.747-.913-.854-1.329-1.171-1.971-2.263a52.546 52.546 0 00-5.291-7.489c-4.164-4.942-8.17-9.377-10.931-15.313zm160.831 24.602c-1.394 0-.985.922-1.096 2.159l1.096-2.159zm-3.351.141c-.59 1.658 1.135 1.717 0 0zm-106.462-2.108c-1.013.714-.323 2.559.667 1.569l.047-.05-.714-1.519zm.728 1.505l-.014.014.007.012.005-.013.002-.013zm.69-4.56l-.596.661c.303.499.588.359.855-.42a3.947 3.947 0 00-.259-.241zM215.411 32.77c4.084 2.66 8.015 5.56 11.9 8.505 1.048.794 2.083 1.603 3.122 2.408l1.038.807c.774.298 1.216.838 1.325 1.617 1.352.898 2.913 1.617 4.438 2.75-.498.373-.997.744-1.495 1.115 1.404.881 3.368.977 3.685 2.962l1.129-1.58c4.901 3.402 10.44 5.52 15.463 8.704 4.452 2.821 8.751 6.614 12.534 10.22 1.818 1.733 3.994 3.073 5.967 4.62.997.782 1.553.863 1.448 1.923-.103 1.028-1.598 2.572-2.155 3.428-2.624 4.033-6.029 8.656-7.174 13.401-1.215 5.043 1.84 11.324 3.208 16.17.437 1.55 1.244 3.316 1.406 4.914.139 1.377.738 1.826-.841.566-2.092-1.668-3.751-4.657-5.364-6.817-3.385-4.533-6.571-9.016-10.27-13.326-.931-1.084-2.664-2.475-3.235-3.775-.236-.538-.063-1.447-.286-1.84-.455-.802-1.018-.58-1.469-1.207-.524-.728-.774-1.852-1.098-2.675l-.64 1.998c-7.235-7.907-12.436-17.359-17.423-26.754-2.492-4.693-4.983-9.367-7.394-14.103-1.291-2.538-2.538-5.122-3.967-7.586-1.084-1.87-3.792-4.289-3.852-6.445zm117.998 80.18l.495-.129c-.442-1.586-.858-1.443-.495.129zm-34.26-5.725l-.516 3.242c1.289-.492.762-1.415 1.04-2.408 1.82.305-.733 1.798 1.594 1.802-.189 1.201-.074 1.849-.965 2.254-.325.148-1.418-.017-1.767.1-.299-2.465-1.656-2.858.614-4.99zm161.449-40.561c-.986 1.256-1.791 2.166-3.075 3.07-1.022.718-1.99 1.26-2.714 2.327-1.086 2.3-4.664 3.868-6.756 5.146-2.894 1.77-5.891 3.478-8.724 5.342-6.217 4.088-12.75 7.182-19.499 10.344-5.977 2.8-11.886 5.807-17.823 8.16-3.128 1.239-6.202 2.69-9.28 4.069-1.822.816-3.638 1.649-5.458 2.469-1.447.653-3.945 2.556-4.514.748-.431.441-.745.919.097 1.061l-3.957 1.841c-1.235.575-1.618 1.237-1.766.017-.078-.644 1.609-2.491 1.936-3.126.48-.933.856-1.918 1.237-2.895 1.746-4.477 2.79-9.12 4.398-13.637l1.247.65c.648-1.657.848-.165 2.056-.688.428-.185.478-1.184.895-1.399.143-.073.739.489 1.004.44 1.023-.185 2.398-.366 3.32-.857.383-.204 1.025-1.087 1.34-1.16.443-.1 1.051.535 1.613.423.881-.177 1.182-1.287 2.031-1.6.638-.237 1.646-.111 2.285-.214 1.583-.254 3.754.018 4.409-1.864 2.332 1.152 4.671-.41 6.799-1.47 1.08-.537 2.047-.543 3.171-.98 1.219-.473 2.076-1.218 3.36-1.578 1.959-.55 3.697-1.565 5.443-2.427 1.328-.656 4.617-3.56 5.546-2.131 1.042-1.841 4.937-2.563 6.97-3.165 2.971-.878 5.916-1.747 8.913-2.556 2.634-.711 5.134-1.77 7.719-2.537 2.055-.609 5.748-2.323 7.777-1.823zM335.346 108.66l-1.702 1.844c1.143.33 1.143.33 1.702-1.844zm-32.429-7.319c.125.487-.691.982-.696 1.392.623.141.829.46.619.956l-.129.912c-.001 1.44-.605 3.003-.948 4.382-1.043-.787-.266-1.769-.458-2.753-.28-1.436-.553-.522-1.116-1.405-.838-1.314-.2-1.019.473-2.272.304-.566.484-2.392.513-2.431.571-.786 1.473.176 1.742 1.219zm67.661-1.75v1.368c.718-.752.718-.752 0-1.368zm-65.514-4.77c.68.38.524.148.56 1.242-.495-.295-.681-.71-.56-1.243zm170.119-1.668l-.462 1.109c.532-.123 1.168-.326.462-1.109zm-169.735.66l-.001.002.001-.002zm.262-2.215c.979.23 1.775-.036 1.364 1.247.128-.398-1.465.816-1.617.96l-.009.008.131-1.105.131-1.11zm-80.463.613c-.553.19-1.427-.024-1.365 1.302l1.365-1.302zm125.374-1.898v1.052l1.308-.395-1.308-.657zm-42.103-1.236l-.649 1.945c-.91-.99-.541-1.427.649-1.945zm148.823-6.261c-.68.108-.705 1.308-.858 1.903l1.43-.268-.572-1.635zm-210.683.59l1.209.946c-.021-1.303-.021-1.303-1.209-.946zm113.665-12.529c-.026.541 1.109 1.823 1.185 2.623.187 1.942-1.072 3.55.149 5.37.233-1.074.556-2.166.704-3.256.148-1.083-.23-1.6-.162-2.55.074-1.023 1.11-2.702.033-3.42-.769-.513-1.86.235-1.909 1.233zm-6.995 4.94c-.619 1.126-.619 1.126-.3 1.894l.3-1.895zm1.819-2.333c-.947.764-.791.57-.353 1.877a86.598 86.598 0 012.637-2.166c-.835-.513-1.577-.281-2.284.289zm3.729-3.312c-.091.06-.173.13-.245.212l.55.836c.611-.313.508-.662-.305-1.048zm2.166-4.236c-1.148.67-.757 1.555-.495 2.396.516-.724 1.07-1.442.495-2.396zm13.62-.374c-.944.771-.451 1.277.027 2.077l.477-.12c-.167-.653-.335-1.305-.504-1.957zm-121.637 1.495c.696-.17.518.02.281-1.078-.681-.052-.775.307-.281 1.078zm106.653-6.707c-.621.136-.601.55.06 1.243.701-.162.681-.577-.06-1.243zm-2.113-5.724l-.506 1.967c1.273.268.747-1.326.506-1.967zm3.527-1.324l-.452 2.116.355.263 1.381-1.927-1.284-.452zm-3.226-2.142c-.574.07-.515 1.024.302.898l-.302-.898zm-123.02-2.608h-1.242c0 .738 1.263.522 1.242 0zm128.99-21.042l-.325 1.47c.441-.361 1.079-.688.325-1.47zm-1.702-7.94h.007c-1.501.068-.946 1.282-1.292 2.234 1.277-.237 1.057-1.2 1.265-2.146l.02-.088zm.002-.007l-.002.007h.006l-.004-.007zm-9.786-2.231c-.349 1.049-.066 1.16-1.317.685.679 1.274 2.149.006 3.069.753l-1.752-1.438zm.012-2.544c.328 1.138.612 1.82 1.857 1.532l-1.857-1.532z" fill="#72855D"/></svg>