<svg width="374" height="432" fill="none" xmlns="http://www.w3.org/2000/svg"><path fill-rule="evenodd" clip-rule="evenodd" d="M88.831 107.974l-1.475 24.122c3.164-.911 23.297-6.835 22.053-.829-.892 4.308-6.552 8.968-9.436 11.967a207.25 207.25 0 01-8.19 8.061 383.315 383.315 0 0115.577-5.586c3.958-1.321 7.945-2.612 12.002-3.602 1.505-.368 5.571-1.87 6.993-.846 3.738 2.69-16.542 22.502-19.32 25.294 3.928-1.826 7.95-3.486 12.041-4.909 2.954-1.029 12.078-4.957 14.692-1.603 2.797 3.59-4.133 11.833-6.055 14.447-2.754 3.745-5.739 7.337-8.87 10.773 13.015 11.69 28.309 22.094 44.586 28.561 11.935 4.742 23.658 5.949 36.251 3.347 12.938-2.674 25.346-7.801 37.14-13.663 6.927-3.443 13.763-7.168 20.275-11.354a278.717 278.717 0 01-7.824-9.983c-3.614-4.833-8.056-10.113-10.117-15.866-2.017-5.63 5.55-4.53 9.18-4.225 5.256.443 10.497 1.383 15.648 2.507a254.82 254.82 0 01-10.722-7.888c-4.567-3.545-10.659-7.554-13.649-12.653-2.628-4.485 3.141-3.352 5.809-2.765 6.361 1.402 12.55 3.789 18.616 6.118a360.693 360.693 0 0113.231 5.373 138.256 138.256 0 01-7.858-7.395c-3.389-3.446-7.959-7.653-9.478-12.398-3.094-9.663 17.718-2.374 21.272-.883-.657-10.009-1.312-20.019-1.968-30.029l-82.676 22.001c-2.978.792-6.706 2.518-9.812 2.61-2.813.085-6.211-1.182-8.954-1.706l-49.871-9.528-39.09-7.47z" fill="#72855D"/><path fill-rule="evenodd" clip-rule="evenodd" d="M365.177 407.033c-2.678 1.532-5.815 2.715-8.789 3.508-1.747.467-4.634 1.907-6.169.587-.737-.633-.906-2.073-1.34-2.907-.689-1.321-1.667-2.461-2.583-3.629a149.56 149.56 0 00-6.95-8.218c-1.146-1.262-3.239-4.206-5.258-4.012-2.516.241-2.456 3.725-1.825 5.504 2.008 5.666 8.086 10.605 12.057 14.873-1.01 1.554-6.554 1.369-8.093 1.005-2.351-.555-2.589-2.228-3.661-4.143-2.509-4.474-7.599-6.977-11.784-9.607-1.525-.96-4.767-3.618-6.755-2.949-1.884.634-1.803 3.04-1.203 4.612.907 2.375 3.485 4.023 5.392 5.524 2.543 2.001 4.868 4.178 6.987 6.628-3.054.249-6.097.679-9.144.931-3.684.303-6.755-1.718-10.147-2.864-3.151-1.065-6.292-1.965-9.391-3.193-3.479-1.378-7.124-1.857-10.634-3.066-13.774-4.744-27.27-10.711-40.544-16.725-6.325-2.866-12.52-5.734-19.11-7.977-4.803-1.635-12.35-4.893-13.498-10.614-.606-3.023 1.602-6.273 1.927-9.293.382-3.554.082-7.463-1.001-10.872-.954-3.003-2.535-5.784-3.781-8.667-1.451-3.361-.151-3.306 2.668-3.688 3.375-.458 7.314-2.358 10.486-3.595 3.655-1.426 7.277-3.418 10.624-5.467 3.028-1.853 5.662-4.241 8.072-6.835 2.451-2.638 4.039-5.765 6.409-8.468 8.747 10.758 17.062 21.68 26.357 31.973 4.387 4.859 9.158 8.876 14.564 12.57 2.258 1.544 4.497 3.305 6.957 4.525 3.075 1.527 6.514 2.474 9.675 3.867 12.121 5.34 23.688 11.179 34.996 18.07 5.47 3.333 10.061 7.155 14.878 11.336 1.5 1.302 13.782 8.889 9.611 11.276zm-142.185-88.136c-1.959.888-3.826 2.04-5.916 2.61.592-3.605 3.956-9.042 8.269-8.444 1.648.228 2.891 1.508 2.167 3.272-.659 1.603-3.125 1.931-4.52 2.562zm-136.34-97.77c-2.221 1.226-4.29 1.941-5.592-.691.964-.194 5.345-.777 5.592.691zm-3.698-7.439c-1.716-.52-.343-1.068.247-1.696.46-.488 1.983-2.203 2.516-2.486 2.354-1.247 4.174 3.393 5.299 4.899-2.665-.237-5.468.069-8.062-.717zm18.348 16.064c-3.252.551-2.891-3.518-2.794-5.58.686.838 5.331 5.151 2.794 5.58zm10.779-7.029c-3.965.669-6.585-6.182-5.874-9.179.625-2.64 3.699-4.113 6.145-4.503 2.371-.377 5.673.138 6.377 2.872.622 2.417-4.004 10.364-6.648 10.81zm93.867 103.425c-2.849.875-5.642.986-8.506 1.845-3.25.976-6.257.889-9.513 1.553-1.325.269-4.899 2.2-6.191 1.769-1.28-.427-3.133-4.4-3.868-5.433 5.761-2.395 10.676-5.487 14.473-10.533 3.02-4.012 6.258-10.024 4.358-15.203-2.142-5.839-9.528-7.107-14.452-4.668-2.329 1.153-4.638 2.588-6.559 4.345-2.196 2.01-3.059 4.203-4.482 6.682-1.438 2.507-2.448 1.112-3.885-1.016-1.229-1.82-1.069-3.657-2.604-5.453-.783-.915-1.996-1.799-2.404-2.982-.26-.75.286-2.08-.205-2.671-.691-.829-1.532.146-2.111-.595-.421-.538-.283-1.765-.718-2.438a6.074 6.074 0 00-1.259-.981c-.562-.278-.665-.625-.308-1.043-.447-.827-.016-1.106-.974-2.113-1.492-1.569-2.853-3.073-3.915-4.925-.485-.848-.437-2.106-1.041-2.839-.827-1.008-2.206-.857-2.918-2.104-.634-1.111-.21-3.054-1.255-4.063-.551-.158-1.102-.312-1.654-.465a2.378 2.378 0 01-.726-1.468c-.581-.894-.696-1.944-1.429-2.888-1.403-1.806-3.291-3.475-4.53-5.379-1.303-2.002-.612-2.339 1.651-3.055 2.041-.647 3.905-1.247 5.797-2.348 8.746-5.09 17.039-18.592 3.156-22.717-5.152-1.531-9.385-5.647-15.097-4.029-2.477.701-4.826 2.195-6.673 3.967-1.277 1.225-2.459 4.502-4.026 5.13-2.818 1.128-1.627-1.691-2.426-2.986-.382-.619-1.92-1.331-2.489-1.894a11.01 11.01 0 01-1.779-2.308c-.862-1.514-1.389-2.358-2.631-3.591-.469-.466-2.808-2.871-.698-2.557-.855-2.603.392-2.995 2.115-4.897 2.023-2.234 4.113-5.337 4.124-8.467.024-6.009-7.097-8.701-11.569-5.135-.909.726-6.291 7.733-5.19 3.264.594-2.409 6.091-8.7 8.64-7.072-2.857-4.163-9.418 5.944-10.949 8.012-1.304-2.4-1.396-4.279-3.554-6.137-1.756 2.817-.829-.262-1.216-.888-.837-1.351-.377.194-.831-.286-.565-.598-1.454-1.069-2.055-1.861-1.03 1.397-.619-.106-.934-.628-.738-1.22-.452-1.927-1.717-2.988-.92-.772-2.732-1.97-3.97-2.079-1.428-.127-1.823.42-3.278.015-1.85-.514-4.18-1.305-3.284 1.791.65 2.249 3.295 3.527 3.874 5.825.584 2.314-1.704 4.645-2.813 6.542-1.426 2.433-2.59 2.234-5.173 2.783-1.65.35-3.852 1.1-2.437 3.102 1.01 1.43 3.379 1.129 4.713 1.976 1.87 1.188 1.844 4.116 4.232 4.625 2.63.561 4.136-2.367 6.353-3.073 1.576-.503 6.46-.447 7.7.736 1.692 1.613.23 4.695.656 6.698.633 2.972 2.643 3.153 5.185 3.248 3.13.117 4.23 3.122 5.913 5.506 3.943 5.583 7.369 11.535 11.408 17.044 1.787 2.439 4.402 4.609 5.866 7.256 1.808 3.269-.702 5.155-2.867 7.501-2.83 3.067-4.943 6.556-7.397 9.907-2.181 2.979-4.891 2.237-8.376 2.237.777-1.601 1.711-2.599 3.622-2.405-1.998-2.44-3.596.351-4.892 1.897-1.875 2.235-4.319 2.775-6.728 4.245-.852.519-5.493 3.89-4.083 5.042.16.13 7.843-4.924 8.718-5.387 0 1.865-.408 3.804-.147 5.659.192 1.361 1.148 2.78.944 4.194-.386 2.67-3.837 4.774-5.318 6.854-1.115 1.566-.846 2.801-1.413 4.482-.518 1.533-.246 1.069-1.536 1.543-2.626.964-7.045.444-9.423-.928-1.476-.851-2.608-2.196-3.807-3.382-.903-.894-3.175-2.421-3.426-3.672-.43-2.153 3.845-6.155 4.691-8.376 2.39-6.269-1.708-11.143-8.085-11.499 1.965-1.516 4.401-.373 6.473.205-3.542-4.907-9.59-.869-12.594 2.466-2.053-5.189-3.043-10.662-4.297-16.074-.854-3.684-4.105-10.261-2.655-14.054.7-1.834 2.68-2.857 4.049-4.129 1.555-1.445 2.888-3.173 4.025-4.961 2.68-4.214 4.226-9.533.537-13.686l3.364-.553c-1.824-1.713-4.7-.878-7.067-1.386-1.5-.322-5.82-.114-6.823-.963-1.206-1.022-.433-5.723-.39-7.114.1-3.251.371-6.377.73-9.608.34-3.053.272-6.351.903-9.35.512-2.434 2.148-3.176 4.037-4.61 4.513-3.43 8.191-7.601 6.65-13.511l1.638-.26c-1.766-1.277-4.051-.813-6.015-1.488 1.803-5.077 5.793-14.002 12.27-14.483.223 2.27.07 4.969 1.602 6.848 1.743 2.139 4.804 2.354 7.165 1.223 2.143-1.028 4.155-3.206 5.143-5.357.667-1.456.547-3.919 1.72-5.073 1.573-1.549 12.418-.615 12.086 1.999-.196 1.536-3.096 4.119-3.907 5.48-1.483 2.492-2.67 5.188-3.215 8.05-.827 4.346-.348 10.084 4.066 12.369 5.02 2.6 11.137-.705 15.254-3.56a72.408 72.408 0 006.515-5.115c1.1-.967 2.205-1.964 3.175-3.063.716-.812 1.288-2.121 2.169-2.729 2.081-1.436 4.122 1.001 5.883 2.231 2.869 2.005 5.724 3.909 8.804 5.577 6.249 3.385 11.964 7.87 17.489 12.322 5.558 4.479 11.289 9.087 15.791 14.667-2.727 1.677-2.24 2.113-3.454 5.105-.861 2.124-2.047 3.931-2.183 6.29-.237 4.072 2.377 7.542 6.344 8.443 2.219.505 4.333.101 6.388-.806 1.598-.705 3.19-2.441 4.859-2.872 3.103-.8 5.585 5.061 7.325 7.126 7.724 9.169 15.888 17.976 23.162 27.52.805 1.057 3.198 3.122 3.392 4.522.28 2.01-2.882 3.925-4.193 5.077-.689.605-7.992 7.474-5.539 8.566.698.311 2.744-3.904 3.256-4.264 1.915-1.35.467 1.296.353 2.633-.286 3.323 1.997 5.134 5.206 4.713 3.424-.45 6.473-3.153 8.592-5.706 2.655 3.076 6.806 7.725 7.574 11.834.491 2.625-1.78 9.049 2.459 9.584.647.081 2.99-1.656 3.426-.67.364.824-2.167 2.231-2.533 2.504-1.56 1.165-2.502 2.412-3.762 3.823-1.479 1.656-3.499 3.051-5.163 4.638-1.753 1.671-5.22 6.211-7.533 4.018-1.162-1.103-.856-2.544-2.718-3.191-1.696-.589-3.844.158-5.419.811-1.774.735-7.616 3.419-8.265 5.629-.894 3.047 3.935-.617 4.793-1.152-.979 2.485-1.52 6.083-4.013 7.533-2.072 1.205-5.051 1.913-7.324 2.612zm-33.116-18.798c1.658-5.329 11.436-14.83 17.615-11.859-7.202 1.51-12.917 6.439-17.615 11.859zm3.657 15.26c-2.41-1.343-2.28-5.244-3.122-7.526-.483-1.31-1.448-2.266-1.164-3.719.332-1.704 2.505-3.598 3.661-4.826 3.641-3.868 10.046-9.152 15.906-8.266 7.457 1.129 2.401 11.141-.138 14.588-2.164 2.94-10.504 12.335-15.143 9.749zm-17.398-6.517c-8.065-.539-16.102-1.259-24.057-2.74-2.82-.525-5.183-.447-3.57-3.69.533-1.07 3.746-7.778 4.471-7.585.43.114.332 4.724.459 5.252.569 2.374 2.168 4.585 4.864 4.434 4.411-.245 7.254-5.949 9.577-9.01 1.86 2.502 3.207 5.281 5.078 7.741.894 1.176 4.006 3.911 3.178 5.598zm-47.282-31.658c-1.353 3.105-4.074 6.058-5.967 8.871-1.07-2.265-1.822-7.465.716-9.14.961-.633 6.107-1.694 5.251.269zm27.971 9.246a50.453 50.453 0 011.245-3.545c.789 2.483 1.192 2.557-1.245 3.545zm6.904 2.543c.979 1.66 2.61 3.291 2.354 5.375-.194 1.579-1.621 3.197-2.64 4.297-1.687 1.82-5.423 5.314-7.867 2.897-2.042-2.019-1.331-7.57-.381-9.842 1.356-3.246 6.2-6.679 8.534-2.727zm-4.79-3.4c.561-.223-.618-3.845.477-4.205.954 2.175 1.853 2.764-.477 4.205zm-15.41-48.738c-.364-1.337-1.197-1.28-.897-2.932.197-1.084 1.056-2.24 1.709-3.098 1.299-1.711 3.014-3.121 4.868-4.188 3.913-2.253 9.288-3.189 12.792.338-3.276.517-13.318 3.751-13.382 8.232 3.643-.702 6.507-4.361 10.161-5.514 2.999-.947 6.252-.881 9.235.119 8.166 2.735 4.771 9.794.161 14.378-2.736 2.723-6.017 4.755-9.604 6.157-1.66.649-2.678.721-4.31.395-.305-.062-.663-.629-1.029-.75-.91-.302-.646.72-1.396.261-.655-.4-2.05-2.982-2.495-3.722-.709-1.176-1.039-2.321-1.909-3.395-.87-1.075-1.294-2.516-2.099-3.488-.387-.468-1.446-.449-1.731-.906-.427-.686.117-1.185-.074-1.887zm-12.542 52.641c1.856-3.225 5.031-5.963 7.488-8.782.151 4.633-3.171 7.805-7.488 8.782zm2.508 1.489c3.833-1.348 5.945-4.575 6.336-8.488.496-4.956 3.608-7.557 5.481-12.009.718-1.706 1.556-7.321 4.34-5.714.956.551 1.522 2.625 2.02 3.561 1.204 2.266 2.573 4.462 3.851 6.687 1.04 1.812 2.598 3.633 2.14 5.813-.401 1.902-1.688 3.927-2.442 5.72-1.781 4.235-4.119 8.135-6.074 12.276-.788 1.671-1.721 5.626-4.129 5.606-1.905-.016-1.692-2.099-2.946-2.814-1.584-.901-3.384.814-4.685 1.525 1.497-2.529 4.116-3.961 7.06-3.485-3.525-3.51-5.906 1.226-8.931 2.281-2.866.999-7.951-3.714-10.364-5.05.923-1.563 1.757-3.476 3.345-4.504 1.506-.976 3.354-.826 4.998-1.405zm-31.163 32.077c.42-2.021 1.605-3.216 2.357-5.051.872 2.225-1.17 3.538-2.358 5.051zm60.9 12.401c-.206 6.807-.762 13.594-.963 20.402-.092 3.14-.648 6.135-1.017 9.238-.312 2.624-.153 5.202-1.805 7.444-2.605 3.535-7.668 4.551-11.6 5.86-2.887.962-5.807 1.834-8.658 2.902-2.565.962-4.632 2.418-7.071 3.561-2.182 1.022-4.538 1.628-6.71 2.717-2.246 1.127-4.022 2.5-6.33 3.503-2.762 1.201-5.038 3.337-7.495 5.033-2.163 1.493-4.45 2.646-6.311 4.523-1.745 1.761-3.953 2.533-5.93 4.098-2.09 1.654-4.28 2.73-6.589 4.027-4.73 2.659-11.114 7.199-16.807 4.617 1.628-2.08 4.96-4.079 5.214-6.945.33-3.733-2.919-2.358-4.8-1.166-2.85 1.805-4.426 3.985-6.596 6.391-2.536 2.813-5.74.92-8.843.129 2.122-1.91 4.227-3.838 6.345-5.751 1.788-1.615 4.524-3.362 5.613-5.595.778-1.597.74-3.786-1.138-4.614-2.101-.927-4.477 1.027-6.033 2.191-4.131 3.091-6.852 7.011-9.564 11.312-1.443 2.287-2.107 2.112-4.762 1.654-2.812-.484-5.626-1.001-8.462-1.34 3.757-3.859 7.956-8.039 10.923-12.553.961-1.463 2.215-5.318-.714-5.672-1.207-.147-3.61 2.321-4.54 2.986-4.069 2.909-7.98 6.576-10.677 10.822-.89 1.402-1.17 2.96-2.893 3.076-2.253.153-6.44-1.998-8.615-2.663 4.155-5.237 8.28-10.513 13.135-15.131 4.46-4.245 8.909-7.328 14.125-10.583 5.59-3.49 10.798-7.507 15.93-11.629 4.913-3.946 10.045-7.668 14.568-12.074 9.033-8.801 17.08-18.923 23.742-29.626 1.56-2.504 3.027-5.074 4.296-7.739 1.19-2.502 1.74-5.495 3.349-7.771.555-.787 1.338-1.371 1.833-2.191.467-.773.309-1.707 1.021-2.391 1.648-1.582 4.647-.628 6.187.48 2.477 1.783 4.48 3.947 7.201 5.439 2.738 1.501 5.699 2.592 8.73 3.329 7.084 1.723 14.107 3.136 21.324 4.183-.743 2.754 1.081 3.188 1.685 5.666.734 3.007-.206 6.789-.298 9.851zm-68.213-45.926c-1.606-2.387-3.04-4.882-4.618-7.284-.961-1.463-2.153-3.034-1.331-4.823 1.384-3.016 6.267-3.553 8.916-2.238 6.024 2.99.428 11.537-2.967 14.345zM62.03 242.19c-.554-4.664 1.23-7.974 5.449-10.419 3.007-1.743 5.429.639 5.018 3.816-.624 4.841-5.797 10.226-9.745 12.752-.258-2.048-.477-4.1-.721-6.149zm-.643-13.346c1.245-.988 4.578.273 6.02.359l-5.95 5.199c-.13-1.189-1.218-4.646-.07-5.558zm6.693-45.045c10.036-1.305-1.517 9.466-4.426 11.154.473-2.292 1.636-10.79 4.426-11.154zm26.718-18.856c-1.348 5.52-11.825 11.542-11.934 2.5-.04-3.369 1.852-3.097 4.614-3.42 1.576-.184 8.09-2.236 7.32.92zm-36.187 8.549c-1.177 3.087-2.12 6.254-3.272 9.344-.511 1.368-1.112 2.309-2.064 3.393-.796.907-1.743 1.136-1.712 2.569.998-.193 1.778-.787 2.584-1.361-.195 2.841-1.2 5.899-1.685 8.73-.583 3.396-1.068 6.793-1.248 10.237-.39 7.487-.393 14.948-.23 22.44.085 3.818.123 7.638.329 11.451.103 1.898.219 3.803.453 5.688.095.761.648 2.382.306 3.095-1.34 2.801-7.278-4.892-9.856-3.763.37-2.131-.485-1.665-1.914-2.713-.693-.508-1.143-1.372-1.865-1.825a4.549 4.549 0 00-.72-.628c-.299-.407-.614-.364-.945.129-2.905-1.736-3.656-5.437-5.215-7.927-.802-1.281-1.577-1.48-1.714-3.25-.118-1.543.114-3.114.05-4.663-.07-1.747-.172-3.674-.662-5.366-.57-1.964-1.352-1.804-2.876-2.85.47-.206.78-.551.929-1.035-.487.086-1.966.69-2.334.256-.722-.852.983-.965 1.431-1.305-1.912-.849-1.5-1.547-.81-3.103.195-.44.382-1.098.548-1.469.363-.812.571-.298.691-1.305.114-.961-.737-2.85-.988-3.874-.421-1.717-.654-3.201-.276-4.989.306-1.449 1.13-2.76 1.187-4.25.017-.418-.62-.557-.63-.961-.012-.59.54-.849.683-1.395.365-1.395.2-2.871.826-4.196.563-1.189 1.7-2.728 2.505-3.767.558-.719 1.926-1.53 2.076-2.479.099-.63-.88-.557-.837-1.031.06-.642.598-.85.746-1.327.407-1.309.51-2.567 1.562-3.57 1.325-1.263 1.901-.734 1.956-2.816.027-1.016-.786-1.173-.35-2.344.236-.636.934-1.011 1.38-1.462 1.326-1.337 2.22-2.525 3.163-4.177.835-1.459 2.166-2.308 3.02-3.569 1.115-1.643-.55-2.457 1.71-2.921-.322-1.02-.663-1.844.182-2.708.533-.544 1.886-.211 2.358-.841.54-.723-.259-2.437.556-2.907.663-.381 1.656.794 2.697.213.794-.444 1.992-2.893 1.736-3.793 2.053 1.155 1.541.36 2.523-1.121.22-.332.888-.406 1.077-.741.38-.67.293-1.353.839-1.897.91-.907 2.4-.674 3.4-1.322.829-.535.785-1.111 1.445-1.616.564-.431 1.491-.514 2.04-.961 1.074-.875 1.085-1.799 2.43-2.553 1.591-.892 3.001-1.651 4.45-2.834.944-.771 1.84-2.138 2.944-2.647 1.528-.703 2.718-.753 4.212-1.757 1.08-.725 2.1-1.923 3.161-2.535.8-.46 1.36-.361 2.369-.647 1.814-.514 2.256-2.223 3.736-2.919 1.016-.478 2.495-.041 3.61-.292 3.473-.779 6.902-2.461 10.386-3.392 4.253-1.136 8.535-2.131 12.821-3.135-3.938 5.337-8.954 10.153-14.04 14.392-1.67 1.391-10.82 7.735-5.889 10.444 1.98 1.087 6.281-2.425 7.88-3.283 3.218-1.729 6.552-3.113 9.923-4.511 5.451-2.261 12.55-6.282 18.608-5.959-3.688 4.524-8.291 8.156-12.508 12.153-3.876 3.673-9.717 7.118-7.889 13.129-5.444-1.385-10.334-3.022-15.995-2.659-2.535.162-5.072-.143-7.596.212-2.745.388-5.33 1.307-7.967 2.113-2.086.637-4.392.687-6.312 1.747a25.886 25.886 0 00-2.908 1.88c-1.111.848-1.364 1.41-2.236 2.527-3.113 3.986-6.125 7.723-7.975 12.579zm-17.028 75.445l-.52-2.108c1.733 1.067 1.733 1.067.52 2.108zm-13.095-21.973c-.214.295-1.111.39-1.372.135-.325-.317.528-1.551.665-1.813.338.259 1.116 1.109.707 1.678zm-3.71-7.997l.689-2.528c.281.781 1.551 1.645 1.58 2.389.017.493-2.018.248-2.27.139zm.736 1.155c1.988 1.309 2.196 2.854 2.255 5.113-2.379-.788-2.037-3.092-2.255-5.113zm34.576-89.151c-.2.543-1.053 2.235-1.677 1.052-.2-.379 1.262-.896 1.677-1.052zm-.571-1.845c.491-.443 1.482.108 2.038-.25.39-.251.26-.505.444-.654.036-.03.566-1.102.783-1.346.383-.427 1.22-.694 1.685-1.08 1.302-1.08 2.037-2.499 2.856-3.942.978-1.724 1.29-1.923 2.865-2.712 1.088-.544 1.93-1.21 2.814-2.135 1.02-1.065.945-1.827 1.781-2.991.413-.575 1.008-.646 1.49-1.109.578-.554.87-1.33 1.404-1.889.231-.242.971-.242 1.11-.449.179-.262.318-1.311.484-1.504l.956 1.291c1.257-2.209 2.174-4.035 4.275-5.505 2.206-1.545 4.11-3.804 6.392-5.186.512-.311 1.556-.442 1.948-.9.662-.775.089-1.464.572-2.122.548-.746 1.61-.142 2.306-.464.882-.407 1.134-1.596 2.269-1.465-3.733 4.416-3.686 11.287-3.884 16.802-.086 2.377 1.41 3.575-.799 5.319-1.88 1.484-4.53 1.043-6.752 2.02-2.79 1.226-5.775 1.878-8.622 2.947-2.945 1.105-5.313 3.04-8.147 4.32-2.499 1.128-4.206 2.732-6.492 4.126-.85.517-2.166 1.269-3.18.65-.634-.388-1.424-1.025-.596-1.772zM101.674 92.1c.163-.627 3.349-2.276 4.133-2.814 1.176-.809 2.917-2.784 4.23-2 .455-1.821 2.23-3.849 3.799-4.235 1.74-.43 4.725-1.921 6.437-3.224.5-.38.664-.936 1.253-1.293 1.024-.622 2.041-.282 3.028-1.13.151-.129 1.516-2.383 1.57-2.362.07.242.134.487.189.733 1.036-.575 1.959-1.032 2.605-1.765.146-.166-.803-.599-.503-.928.366-.403 1.186.047 1.556-.335-1.153 5.726-.294 13.096 5.515 15.999-6.908.747-13.656-1.33-20.649-.055-3.348.611-6.751 1.614-9.796 3.153-1.866.944-4.252 4.324-6.109 2.683.737-.983 1.861-1.594 2.742-2.427zm33.52-16.473c2.584-3.16 6.502-4.41 10.448-3.279 4.621 1.325 2.672 4.554 1.974 8.138-1.333-1.955-4.221-3.894-6.68-3.952-3.487-.083-2.169 2.822-.075 3.863 1.903.945 5.167 1.209 6.53 2.928 1.326 1.674.818 4.41 1.031 6.384l-3.093-.46c.865-4.605-2.943-4.828-6.494-6.127-3.588-1.311-6.58-3.9-3.641-7.495zm11.572-11.342v4.275c-1.436-.82-2.873-1.638-4.31-2.457l4.31-1.818zm11.547 34.154c4.797 1.3 9.561 2.675 14.172 4.469 1.675.651 3.509.881 5.15 1.617 1.563.7 1.797.627 1.241 1.996-1.556 3.837-5.245 3.175-8.476 2.588-5.059-.919-10.012-2.193-15.007-3.392-4.882-1.17-9.867-1.938-14.676-3.405-4.934-1.506-9.743-2.931-14.818-3.925-1.482-.29-13.199-1.365-13.11-2.59 7.38-.959 14.977-.014 22.39.085 7.704.104 15.662.531 23.134 2.557zm-6.511-14.841c.092-2.638.128-5.285.456-7.907 2.196 2.71 4.177 3.52 6.945.98 2.649-2.43 3.241-3.699 6.6-1.413 2.912 1.983 5.667 1.892 8.76.156 1.887-1.058 4.918-5.384 6.901-4.493.945.424 1.638 2.135 2.592 2.764 1.197.789 3.038 1.336 4.433 1.642 3.295.722 5.259-1.398 7.327-3.665 3-3.288 2.912-1.378 5.693.901 3.102 2.543 5.696 1.3 8.504-.869 1.712 5.013 2.352 10.488 2.835 15.744.163 1.775.772 4.295-.822 5.55-1.123.885-3.508.92-4.861 1.408-4.835 1.749-9.482 4.229-13.526 7.404-1.576 1.238-2.949 2.753-5.102 2.471-2.052-.269-4.047-1.987-5.697-3.121-1.791-1.23-3.603-2.627-5.696-3.312-1.226-.402-3.19-.257-4.262-.993-1.994-1.369.352-4.96-.144-7.37-.376-1.83-1.429-5.646-3.95-4.573-3.751 1.596-1.568 7.826.495 9.77-4.22-.749-8.892-1.843-12.961-3.233-3.144-1.074-4.633-4.624-4.52-7.841zm70.768 12.849c8.662-2.432 16.767-4.073 25.782-4.515 3.99-.197 7.853-.073 11.799-.037 2.271.021 4.002-1.811 2.187-3.918-2.511-2.918-10.172-1.807-13.567-1.938-9.098-.352-17.441.682-26.057 3.682.911-1.679 3.099-1.897 4.6-2.765 1.84-1.066 3.092-2.82 3.878-4.769 2.046-5.066-.013-9.84-2.154-14.467 4.204 1.13 8.553 3.607 12.779 4.236.886.131 1.454.046 2.238.37.481.197.633.881 1.229 1.03.288.073.98-.578 1.306-.486 1.287.364.269.46 1.083.987.646.418.594.956 1.779.759.525-.087 1.094-.9 1.371-.922.353-.028.272-.458.811-.332.982.228.895 1.493 1.222 2.115.349.662-.147 1.543.912 1.906.792.271.991-.565 1.664-.505.409.037 1.257.626 1.618.984 1.163 1.156 2.756 2.432 4.32 3.184-.154-.154.737-.527.524-.614-.144-.058.792.168.778.164.903.206 1.38 1.592 1.836 2.098.84.926 2.144 1.905 3.32 2.313 2.034.708 1.972-.138 2.714 2.28 1.446-2.274 2.001 1.533 3.794 1.953.929.217.82-.181 1.664.305.58.333.966 1.354 1.403 1.846l.561-2.13c1.292 2.446 4.08 6.327 7.137 5.625 0 .668-.275 1.466.242 2.036.361.398.946-.054 1.228.178.247.202.837 1.006 1.026 1.139.372.26 1.047.451 1.371.711.284.23.425 1.323.741 1.718.594.743 1.62.89 2.106 1.781l.331-2.636c.964.744 1.046 1.322 1.283 2.411.337 1.55-.11 1.187.959 1.841 1.051.643 1.599.571 2.562 1.688.944 1.094.953 1.768 2.315.628.254.843.335 1.935 1.012 2.581.51.488 2.626.509 2.828 1.663-3.975-3.354-1.359 1.74.002.008.288 1.854 1.644 2.453 3.193 3.773 1.445 1.23 1.682 1.14 2.175 3.207-.011-.046.726.411.779.503-1.407.201.775 1.774 1.144 2.061.269.21.62-.291 1.067.049.511.388.928 1.272 1.344 1.805 1.128 1.444 1.963 2.685 3.15 3.86 1.281 1.268 1.904 2.87 3.135 4.352 1.364 1.645 2.103 3.537 3.244 5.324 1.085 1.699 2.526 3.062 3.782 4.618 2.003 2.475 2.684 7.928 6.417 8.071-.219.226.085 1.916.121 2.228.177 1.534.059 3.011.967 4.401.208-1.586 1.038-.975 1.758-.142 1.199 1.386.146 1.037.209 2.441.077 1.702.271.386.919 1.872.508 1.164.786 1.919 1.059 3.211-2.109.167-3.075-1.556-3.854-3.225-.326-.699-.439-1.847-1.016-2.393-.613-.581-1.457-.626-2.087-1.275-1.211-1.245-1.736-3.187-3.163-4.4-1.612-1.369-1.969-2.016-3.302-3.654-1.474-1.811-3.51-3.083-5.056-4.834-1.549-1.755-1.423-.797-3.369-1.433-2.069-.676-5.415-7.181-8.021-4.676.102-1.639-2.352-3.18-3.593-3.774-.536-.257-1.161-.025-1.698-.409-.582-.418-.623-1.223-1.21-1.723 0 0-.9.218-1.083.126-.372-.188-.375-.855-.703-1.074a37.238 37.238 0 00-2.955-1.761c-2.344-1.257-4.415-2.804-6.676-4.317-1.937-1.297-4.281-3.638-6.52-4.322-1.956-.596-3.186-.292-4.787-1.488-.872-.651-.616-.869-2.017-1.274-1.335-.386-2.084-.187-2.791-1.603-1.237-2.476-.457-7.309-.696-10.086-.254-2.947-.556-5.968-1.324-8.833-.909-3.387-2.109-5.158-5.742-4.36-7.198 1.582-14.309 3.087-21.54 4.477-14.409 2.767-28.57 7.284-42.662 11.295-1.074.305-7.062 1.676-5.839-1.42.564-1.428 4.354-1.961 5.623-2.409 6.965-2.466 13.962-4.977 21.081-6.975zm-2.421-6.303l-3.156 1.204v-2.926l3.156 1.722zm-4.373-15.473c.914.748 2.773-1.051 3.551-1.416 1.328-.622 3.019-1.156 4.503-1.028 2.736.237 4.737 2.93 4.236 5.662-.848 4.621-7.433 6.807-11.063 8.613-.117-1.637-.646-3.606.502-5.023.997-1.23 2.93-1.14 3.85-2.449 2.316-3.288-3.959-3.586-5.361-.971l-1.66-5.013c1.335-.221.749 1.06 1.442 1.625zm6.476-9.046l-3.919 2.534c-.648-2.924 1.559-3.308 3.919-2.534zm119.042 101.761c-1.711.816-2.139-1.134-3.369-1.218 1.453-.894 1.453-.894 3.369 1.218zm6.958 42.576c.213 2.802.046 5.637.419 8.429.284 2.123 1.145 4.099 1.237 6.247.2 4.703-1.388 9.493-4.595 12.941-3.034 3.262-7.376 6.069-11.472 7.44-1.845.617-3.771 1.986-5.564 2.492-1.983.56-3.867-.659-5.503 1.527-1.09-9.377-.294-19.175-.38-28.611-.086-9.457.016-18.916-1.584-28.271-1.424-8.332-4.233-17.703-9.41-24.519-2.103-2.768-4.692-5.034-7.422-7.157-1.417-1.101-2.834-2.278-4.412-3.147-2.429-1.338-4.497-1.153-7.138-1.535-3.78-.545-7.294-1.007-11.088.058-3.532.991-7.422 2.12-10.586 3.842-3.151 1.716-6.811 2.423-10.082 3.959-2.225 1.046-6.848 4.538-9.317 3.909-2.391-.609-5.929-4.665-7.455-6.482-1.95-2.323-3.564-5.014-5.294-7.513-.607-.877-1.846-2.233-2.004-3.359-.274-1.955.509-1.316 2.377-1.098 4.803.564 9.319 1.455 13.922 2.966 2.291.752 6.769 3.795 9.06 1.972 3.497-2.784-1.817-7.569-3.763-9.177-3.317-2.739-7.173-4.773-10.708-7.207-3.755-2.587-8.722-5.34-11.139-9.323 7.059 2.084 14.109 4.47 20.962 7.156 3.135 1.229 6.233 2.528 9.178 4.162 1.654.918 4.995 3.4 6.987 2.211 4.329-2.585-5.614-10.091-7.049-11.625-2.23-2.383-4.414-4.744-6.864-6.907-1.653-1.459-4.25-2.484-5.019-4.637 2.744.994 4.962 2.939 7.532 4.261 1.345.693 2.572 1.091 4.057 1.303 1.584.227 1.773.479 3.021 1.109.972.491 1.97 1.147 3.061 1.481.777.238 2.135.279 2.815.72.347.495.706.983 1.076 1.461.415.122.823.263 1.225.422.603.538.96 1.279 1.546 1.833 4.256 4.024 9.947 6.904 14.718 10.275 4.513 3.189 9.303 6.074 13.638 9.555 4.988 4.006 10.166 8.312 14.409 13.116 2.398 2.715 4.369 5.793 6.383 8.795 1.459 2.174 3.58 3.977 4.84 6.218 2.749 4.887 5.03 10.17 7.989 14.978 3.015 4.899 6.943 9.767 7.396 15.73zm-40.55 28.354c.821-3.391 5.459-7.351 8.423-8.847-1.494 3.695-5.473 6.215-8.423 8.847zm7.647 11.83c-2.528 5.245-13.643 5.845-12.135-1.916.739-3.803 3.875-6.137 6.567-8.625 1.245-1.15 4.292-5.264 6.219-4.601-.09 2.957-.264 5.928-.258 8.886.004 1.975.501 4.4-.393 6.256zm-3.213-60.45c1.026 2.304 2.048 4.222.145 6.283-.859.93-3.657 2.965-4.922 2.513-4.063-1.449 3.683-7.759 4.777-8.796zm-24.575-20.495c.979-.053 1.929.092 2.896.033.963-.06 1.065-.231 1.958-.109l.283.411c.122.919.604 1.018 1.447.3 1.172.261 1.935.435 3.056 1.068-3.025 2.182-6.708 4.718-10.417 5.45-5.862 1.157-4.243-6.876.777-7.153zm-89.873 49.058c-.608 1.223-2.357-1.833-2.789-2.402.807-.003 3.403 1.168 2.789 2.402zm47.104-32.191c4.555-2.657 9.965-4.991 14.857-6.97.86 4.145-3.335 9.495-5.919 12.331-2.089 2.293-4.609 4.672-7.441 5.992-3.063 1.427-6.411.8-6.262-3.204.054-1.464.388-3.818.983-5.156.768-1.724 2.22-2.082 3.782-2.993zm-61.57-75.388c.677-.04 8.042-.992 8.003-.076-.116 2.754-7.264.592-8.003.076zm-52.077 53.178c3.89-4.799 10.169-9.98 10.261-16.687.136-9.87-10.818-4.946-16.325-4.535 2.912-2.862 17.545-14.865 8.89-19.128-2.488-1.225-6.024-.028-8.521.614-4.429 1.139-8.548 3.112-12.899 4.485 3.109-3.31 8.482-7.072 8.306-12.084-.215-6.102-5.224-4.627-9.555-3.732-1.664.345-9.099 3.302-10.496 1.294-.511-.735.316-1.67.492-2.325.309-1.159.214-1.563.224-2.747.021-2.388 1.608-5.454.314-7.676a10.83 10.83 0 00-.76 1.576c-.427-1.293-.14-2.664-.567-3.956 10.813 2.765 21.812 4.279 32.692 6.639 5.508 1.195 10.692 3.252 16.275 4.178 5.631.934 11.164 2.363 16.806 3.253 5.147.812 10.078 2.164 15.176 3.201 4.969 1.011 10.065-1.205 14.914-2.327 10.863-2.512 21.721-5.085 32.598-7.523 12.552-2.814 25.608-5.22 37.622-9.913.233 6.255.733 12.498 1.498 18.71-5.306-2.508-13.18-5.779-18.544-1.291-2.146 1.796-2.808 4.896-1.959 7.533.923 2.87 3.752 4.203 5.618 6.364-5.68-1.456-20.334-11.723-22.943-1.345-1.842 7.329 7.144 12.064 11.539 16.19-4.364-.855-10.207-4.343-12.77 1.264-2.214 4.847.453 10.121 3.185 14.119 1.481 2.165 3.146 4.204 4.719 6.303.832 1.11 1.645 2.236 2.52 3.313.877 1.081 2.531 2.212 3.146 3.375 1.237 2.345-1.26 2.489-3.202 3.336-2.425 1.058-4.507 2.834-6.724 4.25-5.078 3.242-9.516 6.253-15.516 7.289-6.178 1.067-12.126 2.181-18.223 3.668-6.077 1.483-11.038 2.908-17.25.991-2.832-.873-5.139-1.65-8.143-1.486-3.156.173-5.001.009-7.595-1.945-11.163-8.408-23.281-15.307-34.803-23.245zm-20.126-8.441c4.315-2.165 8.658-4.34 13.115-6.2 3.689-1.541 9.291-3.335 13.329-2.66-1.139 2.924-3.216 5.324-5.444 7.477-1.971 1.905-4.433 4.779-6.817 6.108-2.166 1.206-4.685-.704-6.82-1.505-2.347-.879-5.576-1.29-7.363-3.22zm1.085 10.921c2.149-.893 6.77 2.105 8.726 2.884 3.843 1.533 7.707 3.133 11.094 5.551-4.136 4.779-8.819 9.148-14.384 12.218-3.662 2.02-9.833 4.337-13.287.669-4.34-4.608.877-13.998 3.949-17.947l.306 2.026c.98-1.569 1.729-4.625 3.596-5.401zm78.932 40.905c-2.683.564-3.594.054-5.365-2.003-1.197-1.39-2.373-2.834-3.723-4.084-1.377-1.276-4.779-4.352-.445-2.581 3.951 1.614 7.335 2.422 11.681 1.789 4.97-.723 9.603-2.824 14.503-3.888-2.686 2.351-5.353 4.725-8.044 7.069-2.843 2.476-4.994 2.936-8.607 3.698zm.613 18.903c-5.878 4.424-17.712 3.945-13.729-5.788.605-1.478 1.452-2.869 2.431-4.129.327-.42.908-1.291 1.373-1.574 1.3-.788.94-.884 2.19.431 1.078 1.134 9.506 10.401 7.735 11.06zm-1.743-16.912c.539-.175 2.808-1.49 3.324-.762.524.737-3.924 3.286-3.324.762zM232.7 276.7c-1.322 3.162-11.9 7.74-9.929 1.365.872-2.824 1.695-4.961 4.988-5.176 1.901-.123 6.104 1.026 4.941 3.811zm18.974-42.857c1.741-2.535 7.491-5.964 9.947-2.182 1.183 1.821-1.688 2.754-3.424 2.286-.932-.252-1.694-.809-2.708-.851-1.302-.053-2.576.968-3.815.747zm4.616 2.517c-1.184 1.199-8.325 7.208-9.482 6.281 2.332-3.334 5.01-7.057 9.482-6.281zm-11.663 60.809c-2.48.141-1.242-3.596-1.002-5.09.6 1.04 3.757 4.935 1.002 5.09zm6.301-6.697c-.802-1.428-2.964-3.553-2.475-5.389.374-1.404 3.747-3.292 5.16-2.487 1.876 1.071-.844 8.112-2.685 7.876zm58.841-14.969c-1.061 3.655-2.16 2.712-5.486 3.42-3.337.71-5.644 3.544-8.582 5.063 1.021-2.157 1.653-4.786 3.362-6.536.395-.405 2.817-1.203 1.437-2.139-1.206-.819-2.94 1.837-3.458 2.561-2.544 3.563-4.324 7.914-5.794 12.013-.722 2.014-1.301 4.065-1.643 6.179-.305 1.884.024 3.856-.287 5.691-.5 2.956-4.514 2.971-6.929 3.733-2.186.689-4.361 1.437-6.63 1.809-1.967.322-4.008-.265-5.914.123-2.063.419-2.991 1.644-5.337 1.367-1.912-.225-3.702-1.105-5.64-1.193-1.815-.082-3.624.546-5.427.035-1.821-.516-1.733-.715-1.319-2.504l.778 1.448c.725-.569 1.227-2.303 1.671-3.118.69-1.261 1.251-1.697.996-3.269-.377-2.32-2.469-3.971-2.943-6.178-.495-2.302 1.208-4.185 2.214-6.108 1.375-2.631 1.357-4.583.204-7.304l2.609.689c-1.192-2.587-5.234-1.538-7.26-.772-1.019.385-2.633 1.898-3.729 1.86-1.506-.053-2.291-2.033-2.938-3.123-1.873-3.155-4.011-6.27-6.227-9.199-.609-.806-1.408-1.323-1.197-2.242.179-.778 1.926-1.883 2.493-2.363 2.125-1.797 4.829-2.793 6.825-4.684 3.017-2.858 6.495-4.906 9.579-7.708 3.213-2.918 6.523-5.598 9.872-8.356 3.391-2.794 6.329-6.085 9.695-8.907.873 1.581 2.562 7.241 4.495 7.679 2.254.51 2.187-2.156 2.074-3.76-.159-2.287-1.429-4.508-1.57-6.69-.152-2.334 2.094-3.378 3.789-4.728 2.617-2.086 8.411-6.836 5.297-10.746-2.683-3.368-11.407 3.09-13.812 5.031-2.043 1.65-3.622 3.142-5.923 4.444-1.619.914-4.333 4.432-6.251 4.107-2.281-.386-3.172-2.877-5.963-2.795-2.727.08-5.044 2.044-6.735 4.016-3.823 4.458-5.137 10.423-8.621 15.069-1.717 2.291-3.945 4.183-5.808 6.351-2.047 2.379-2.481 5.12-4.499 7.448-5.773-7.692-12.064-14.974-18.152-22.414-3.041-3.715-6.018-7.474-8.994-11.241-1.115-1.412-2.373-2.736-3.394-4.219-1.398-2.031-1.147-3.662-1.696-5.927-.243-1.004-1.383-2.207-1.078-3.166.411-1.289 3.293-2.301 4.332-2.828 4.245-2.155 8.095-4.848 12.052-7.48 7.329-4.874 14.743-9.444 22.538-13.607-.135 1.793-1.302 3.652-.518 5.451.365-1.035.943-5.646 2.325-5.844-.264.037-.047 5.914.167 6.752.638 2.504 2.489 4.216 5.137 4.199 5.043-.033 9.564-5.519 12.364-9.153 1.895-2.461 3.715-5.323 4.383-8.402.6-2.765-.06-4.689 2.814-6.093 5.898-2.881 11.843-5.228 18.151-6.755-.282 2.718-1.07 6.064 1.4 8.02 2.727 2.158 6.296.234 8.863-1.193 2.544-1.414 6.465-5.298 9.453-4.17 2.938 1.11 4.983 4.795 6.628 7.242 1.449 2.156 3.027 3.712 1.348 6.116-1.881 2.694-3.106 5.323-4.613 8.25-.579 1.125-1.132 1.858-.723 3.011.133.374 1.644 2.601 2.054 2.92 2.617 2.037 6.151-1.837 8.019-3.308.659 6.333.806 12.638 1.072 18.99.195 4.652 1.996 9.233-1.822 12.634-3.817 3.399-7.003 6.89-9.329 11.494-1.243 2.459-2.357 4.983-3.702 7.391-.898 1.609-2.792 3.969-1.633 5.863 1.223-1.161 1.588-2.926 2.607-4.235.61 2.716 1.225 5.73 4.098 6.881 3.306 1.325 6.592-.967 9.52-2.243-1.05 7.262-3.098 14.319-5.139 21.35zm-3.379 8.347c-2.269 4.849-4.318 10.696-8.508 14.266-.92.784-4.828 3.845-6.316 3.332-1.262-.435-.568-2.987-.348-4.08 1.117-5.549 3.048-9.041 7.547-12.581 1.863-1.465 4.254-3.338 6.655-3.699 2.585-.39 1.841.899.97 2.762zm63.995 115.099c-5.882-7.999-14.196-14.215-22.053-20.224-3.559-2.723-7.481-4.764-11.076-7.487-4.066-3.078-8.194-6.047-12.748-8.367-8.633-4.399-18.051-7.466-26.198-12.667-3.973-2.537-8.319-4.989-12.055-7.837-1.64-1.251-3.09-2.851-4.572-4.284-1.378-1.332-4.336-3.265-4.884-5.213 2.293-.375 3.597-2.6 5.643-2.827.674-.075 4.897 1.042 4.32-1.006 1.532-.039 1.71-.062 2.994-.397.532-.139 1.162.078 1.7-.112.822-.29 1.382-1.129 2.213-1.45.59-.229 2.783.026 3.115-.258.908-.776-.056-.707-.598-1.675 1.764-.045 2.976.846 4.744-.102.538-.288.994-.954 1.516-1.298.925-.612 1.26.336 1.894-.933.593 1.751.576 1.267 2.006.752 1.424-.514 2.452-.884 4.074-1.013 3.874-.306 7.763.164 11.619-.111 1.411-.101 2.617-.421 4.018-.237 1.235.163.863 1.021 1.889-.135.238-.269-.532-1.005-.163-1.391.163-.171.694-.051.895-.138 1.804-.787 1.811.312 2.131 1.745 1.058-.248 2.136-.472 3.055-1.092-.464-.414-1.24-.872-.792-1.628 1.525.578 2.522.311 1.759 1.985 1.535.507 1.822-.154 3.2-.299.815-.085 1.953.421 2.632-.23.742-.711-.428-1.483.934-2.094.279.142.486.357.622.643.735.222.603.512-.397.869 2.679 1.388 2.049-.164 3.174-1.806.26-.378 1.424-1.554 1.954-.986.804.861-.838 1.135-.486 1.991.61 1.484 2.738-.418 3.391-1.17.495-.568.696-1.657 1.229-2.082.74-.589 1.805.322 2.731.159 4.233-.743 8.23-6.433 5.042-10.243-.857-1.024-1.583-.82-2.604-1.467-1.009-.638-1.575-1.743-2.385-2.655a17.123 17.123 0 00-6.7-4.64c-5.998-2.314-12.46-4.001-18.759-5.243-2.917-.575-6.022-1.455-9.008-1.449-1.76.004-4.409 1.372-6.054.716-3.198-1.274 1.497-7.797 2.272-9.904 2.275-6.19 3.992-12.79 5.118-19.288.221-1.272.136-2.919.594-4.131.526-1.393.639-1.196 1.764-1.31 2.033-.205 4.257.861 6.374.493 2.346-.409 4.883-.219 7.252-.945 1.088-.333 2.098-.695 2.815-1.614.226-.289-.026-.54.117-.741.044-.064.854-.937.88-.988-.007-.452.032-.9.118-1.344.821.681.417 2.111 1.8 2.144.247-1.524.25-1.831 1.25-2.689-.076.066.753-.639.647-.564.05-.271.15-.525.299-.76a3.572 3.572 0 011.482-.359c1.081-1.112.632-1.705.632-3.202l2.617 1.36c.211-4.434 2.911-6.862 4.705-10.456.765-1.531 1.543-2.728 1.726-4.575.105-1.065-.17-2.005.272-3.009.4-.912 1.295-1.403 1.669-2.395.737-1.953.187-4.447.228-6.475.056-2.813.337-5.617.428-8.428.181-5.519-.374-11.191-1.2-16.647-.395-2.609-1.056-5.141-1.574-7.723-.427-2.122-1.448-4.112-1.813-6.087-.152-.82.083-1.556-.165-2.463-.326-1.193-.871-2.366-1.276-3.537-.946-2.736-1.882-5.468-2.946-8.162-2.063-5.22-4.477-10.283-6.771-15.403-2.206-4.923-4.034-9.999-6.892-14.596-2.815-4.528-5.846-8.98-8.948-13.314-3.232-4.514-7.318-8.392-10.452-12.948-5.884-8.553-14.092-15.6-22.679-21.42-17.719-12.011-36.867-24.003-58.115-28.12-3.202-.62-6.445-1.051-9.709-1.132-2.024-.05-5.38.93-7.297.244-2.147-.768-1.951-3.18-2.488-5.072-.691-2.432-2.251-4.025-4.021-5.744-1.864-1.81-3.556-3.923-5.88-5.154-2.356-1.246-5.135-1.713-7.745-2.09-2.33-.337-5.812-.022-7.941-1.037-1.938-.926-.981-1.889.834-1.097.133-.8.241-1.318.754-1.937.258-.31 1.475-.747 1.504-1.037.035-.34-.986-1.308-1.132-1.746-.314-.944-.136-2.25.237-3.136 1.83 1.627 2.361 2.348 4.404.792.864-.657 1.129-.946 2.128-1.278.271-.09.879.188 1.116.032.903-.594.072-.454.502-1.157-.109.177.65-1.691.614-1.3.092-.996.387-.69-.214-1.913-1.177-2.392-4.174-2.49-2.647-5.22.601-1.074 1.13-.967 1.3-2.524.09-.838-.022-1.798-.026-2.65-.008-1.741.32-2.961-1.312-3.848-1.569-.853-3.016.083-3.653-2.033-.667-2.22.005-5.066-2.4-6.586-1.757-1.11-4.295-.161-6.237-.704-1.946-.544-3.735-2.535-5.71-1.007-1.403 1.087-2.148 3.758-4.792 2.313-1.193-.651-1.85-2.838-2.603-4.065-1.199-1.955-2.16-2.662-4.005-.757-1.137 1.174-3.535 4.033-3.682 5.66-.161 1.794 1.405 2.544-.561 3.606-1.955 1.056-3.053.282-4.64 2.426-1.575 2.127-.356 3.303-2.18 5.338-2.28 2.544-3.493 3.642-3.462 7.07.023 2.351-2.055 4.382-.843 6.613 1.358 2.5 5.322 3.539 7.725 4.556-.802 1.483-1.903 2.433-.966 3.959.848 1.382 3.246 1.669 4.733 1.418.999-.169 1.035-.017 1.822-.72.516-.46-.191-1.035.87-1.29 1.13-.273 2.935 1.942 3.668 2.496-1.639 2.128-6.143 2.526-8.525 3.604-1.452.658-2.787 1.631-4.265 2.22-1.341.533-2.974.41-4.19 1.235-2.1 1.425-2.974 4.958-4.261 7.034-1.457 2.35-2.87 3.442-5.666 3.93-3.487.609-6.296.853-9.548 2.372-3.972 1.855-7.887 3.813-11.788 5.813-6.293 3.225-12.137 6.535-17.98 10.436-6.113 4.081-12.058 8.341-17.956 12.606-5.834 4.218-10.731 9.406-15.799 14.507-4.096 4.123-7.69 8.573-11.771 12.695-4.817 4.867-8.36 11.01-12.827 16.173-2.444 2.825-4.782 5.602-6.315 8.93-1.243 2.697-3.404 5.344-4.846 8.174-1.844 3.618-3.588 7.178-5.658 10.676-.85 1.436-1.859 2.668-2.755 4.038-1.148 1.755-1.08 3.45-1.39 5.473l-.966-1.48c-.585 1.276-1.292 2.533-1.798 3.84-.323.834-.272 2.019-.597 2.748-.407.917-.903.795-1.41 1.558-.544.816-.718 1.912-1.29 2.787-2.474 3.783-3.425 8.583-4.696 12.899-1.704 5.791-1.435 12.446-1.343 18.417.099 6.306.443 12.613 1.392 18.853.858 5.651 2.695 11.071 5.57 16.026 2.505 4.318 5.96 6.834 10.384 9.045 2.032 1.016 3.918.702 6.05.864 2.337.178 3.93.812 6.402.254 1.186-.268 1.747-1.131 2.69-1.419.583-.178.897.113 1.456.045.801-.097 2.467-.49 3.336-.395 2.702.294 2.249 4.38 2.514 6.466.41 3.214.71 6.462 1.261 9.655 1.161 6.716 3.667 12.99 5.147 19.59-6.863.837-12.75 2.118-19.183 4.716-6.453 2.605-12.977 3.489-19.769 4.785-6.354 1.211-12.465 3.476-17.55 7.578-2.384 1.922-4.86 4.171-3.11 7.336 1.12 2.025 3.137 2.539 4.879 3.716.352-.446-.666-1.389-.853-1.651 1.465.301 1.42.984 2.49 1.579.934.52 1.699.501 2.722.869 2.498.897 3.725 3.136 6.194 3.765.777.197 1.792.67 2.587.804.954.161 1.668-.256 2.635-.079a5.363 5.363 0 001.693.737c.398-.185.79-.38 1.178-.585 1.389.144 2.247 1.018 3.376 1.736.076-.905-.033-1.844.823-2.435.334.88-.206 1.437.706 2.042 1.156.768 2.675-.19 3.71-.675.292 2.923 7.062 2.751 9.208 2.709 2.971-.057 5.94-1.236 8.937-.578 1.53.335 3.162.685 4.684 1.121 1.833.524 4.05.992 5.854 1.653.718.262 1.597 1.104 2.36 1.048.608-.046.771-.943 1.479-.917.8.029 1.07.921 1.763 1.19 1.038.401 1.992-.362 2.978.023.354.139.835.733 1.288.927.689.293 2.051.297 2.818.438 1.086.202 2.06.066 2.99.133.75.054.734.559 1.093.591.412.038 1.13-1.379 1.683-1.586.806-.303 2.269.418 3.09.544-5.954 8.072-13.134 15.206-20.917 21.453-8.395 6.739-16.992 13.468-25.995 19.379-8.174 5.367-16.086 10.008-22.423 17.584-5.344 6.388-13.85 13.223-12.539 22.482 1.31 9.251 11.356 13.016 19.405 14.782 10.124 2.221 20.545 1.327 30.696 2.576 4.329.533 9.139.249 13.496-.205 5.147-.536 9.558-3.895 13.983-6.324 7.959-4.369 14.763-10.214 22.603-14.719 9.815-5.642 19.527-11.619 30.288-15.397 5.006-1.758 10.16-3.764 14.199-7.379.6-.538 1.048-1.35 1.727-1.793 1.154-.753 1.464.01 2.134-.218.515-.175 1.014-.732 1.46-.899 1.129-.424 1.633-.249 2.897-.249-1.085-.625-2.078-2.238-.952-3.552 1.929-2.252 2.261 1.346 2.986 2.179.613-.789.378-1.491.221-2.388l1.558 1.028c-.358-1.736-.018-3.334.901-4.846.848-1.394 1.057-1.198 1.291-3.13 2.634 2.404 3.149-3.431 3.386-5.558.229-2.063.002-3.544 1.359-5.348 1.457-1.937 3.672-3.161 5.52-4.665 2.921-2.378 6.134-5.381 10.173-3.101 3.189 1.801 4.924 6.214 7.915 8.482 1.815 1.376 3.73 1.515 4.887 3.648.935 1.724 1.238 3.788 2.121 5.559 2.139 4.292 5.218 9.203 8.731 12.496 3.269 3.064 7.466 3.049 11.292 4.949 3.788 1.882 7.723 3.921 11.733 5.285 4.378 1.489 9.1 2.122 13.363 3.927 2.193.929 4.154 2.326 6.366 3.215 2.386.958 4.899 1.634 7.317 2.512 9.579 3.479 18.953 7.746 29.016 9.674 4.463.855 8.595 3.179 13.091 3.668 1.928.21 3.501.475 5.389.958 2.96.756 2.333 1.159 3.424 3.627 1.794 4.064 6.176 1.658 9.553 1.759 5.407.163 10.731-.711 16.128-.752 9.44-.073 18.53-1.136 27.661-4.236 9.168-3.111 19.605-10.609 11.986-20.969z" fill="#2C2D36"/><path fill-rule="evenodd" clip-rule="evenodd" d="M261.27 81.442c.128.129.431.207 0 0zM94.992 254.522c2.05-2.077 10.773-1.658 11.432 2.059.736 4.149-7.06 10.415-9.912 12.172-3.67 2.26-8.151 2.684-7.5-2.992.492-4.288 3.06-8.28 5.98-11.239zm7.204-4.277c.266 1.149-1.695.759-2.235.486-.254-.523 1.969-1.639 2.235-.486zm-15.043 7.608c1.74.156 3.733-2.635 5.046-3.586.58.897-3.246 5.826-3.667 6.951-1.051 2.81-1.636 6.361-.203 9.164 4.189 8.192 14.908-3.506 17.588-7.592 1.876-2.857 3.175-6.401.525-9.201-.943-.998-2.501-1.275-3.378-2.223-1.153-1.247-.245-2.856-2.564-2.584-1.6.188-3.522 1.631-5.077 2.154-1.876.629-3.561 1.281-5.198 2.448-.368.263-5.222 4.276-3.072 4.469zM210.12 260.602c-1.094 5.629-6.671 11.402-12.539 11.626-5.844.223-7.736-5.9-6.704-10.78.88-4.162 4.477-11.392 9.609-10.596 4.035.626 10.571 4.926 9.634 9.75zm-3.722-9.406c-3.705-2.867-8.824-4.194-13.118-1.919-1.408.746-7.029 4.036-5.319 6.262 2.306-1.786 4.297-4.266 7.294-4.861-.504 2.323-3.382 4.413-4.396 6.675-1.185 2.643-1.834 5.668-1.64 8.572.346 5.169 3.808 9.186 9.168 8.475 4.907-.651 9.197-4.412 11.539-8.64 3.125-5.647 1.364-10.779-3.528-14.564zM171.993 273.396c-2.638 3.906-6.661 7.58-11.312 8.787-6.021 1.561-4.329-3.415-2.53-6.985 1.591-3.157 4.321-8.588 8.477-8.559 1.41.009 4.038.691 5.274 1.445 2.436 1.488 1.48 3.256.091 5.312zm-5.619-8.585c.946-1.054 5.139-5.576 5.701-2.051 1.203-1.396.253-2.554-1.287-2.702-1.86-.177-3.892 1.893-5.234 2.921-2.761 2.117-4.887 4.284-6.717 7.251-2.017 3.27-7.162 10.663-2.66 13.909 4.867 3.508 11.95-2.971 14.997-6.313 1.948-2.137 4.529-5.275 3.788-8.41-.91-3.849-5.387-4.253-8.588-4.605zM145.614 201.859c-2.723 3.107-8.255 7.634-12.813 7.101-4.157-.487-2.534-5.153-1.063-7.411 2.21-3.393 5.171-6.58 9.449-6.765 1.847-.08 4.241-.043 5.671 1.356 1.954 1.91.194 4.078-1.244 5.719zm-.29-8.632c-3.19-1.102-4.443-1.522-7.543.23-2.489 1.407-4.697 3.396-6.406 5.654-2.556 3.38-5.135 10.983 1.43 11.934 7.201 1.044 24.331-13.734 12.519-17.818zM155.134 212.625c-2.072 2.117-4.658 3.843-7.61 4.432 1.249-2.786 4.038-8.874 7.344-9.722 1.522-.391 3.259.121 3.134 1.857-.091 1.254-2.051 2.598-2.868 3.433zm2.667-7.365c-1.716-.86-1.175-1.447-3.171-.772-1.572.53-3.556 1.452-4.865 2.515-.715.579-2.939 2.634-2.667 3.679.493 1.9 2.153-1.011 2.589-1.571.747.609-3.075 6.079-3.302 6.979-.848 3.352 1.783 3.706 4.362 2.61 3.477-1.479 13.775-10.072 7.054-13.44zM208.789 295.46c.257-2.222.621-4.572 2.661-5.819 1.838-1.126 3.741-.962 4.013 1.344.253 2.143-1.846 5.948-3.544 7.117-2.364 1.627-2.82-.402-3.13-2.642zm3.037 5.057c4.854-2.841 7.914-15.867-1.034-12.216-5.085 2.075-3.214 14.702 1.034 12.216zM170.367 246.499c.766-1.569 1.641-2.089 3.194-2.776a57.18 57.18 0 01-3.194 2.776zm1.12-3.866c-1.099 1.103-3.619 2.784-3.266 4.679.323 1.73 1.643 1.631 2.841 1.091 2.513-1.129 3.911-6.073 6.539-6.537-2.915-1.847-3.596-1.761-6.114.767zM171.872 144.431c.14 5.266.263 10.531.379 15.797.041 1.851-.401 4.489.155 6.262.245.78 2.463 4.165 3.25 4.384 2.753.767 1.769-6.136 1.788-7.835.068-5.734-.017-11.474-.04-17.209-.013-2.955.822-27.733-3.013-27.612-.66.022-2.287 2.855-2.532 3.422-.771 1.784-.487 4.428-.469 6.329.052 5.485.337 10.978.482 16.462zM195.089 159.781c.216 1.456.102 3.884 1.741 4.639 1.426.656 1.973-.125 2.506-1.345 1.227-2.806.784-7.097.762-9.999-.046-5.75-.693-11.477-1.141-17.206-.196-2.514.212-5.039-.102-7.67-.138-1.154-.276-5.798-2.415-5.581-1.935.195-1.761 5.062-1.866 6.316-.877 10.438-1.03 20.426.515 30.846zM286.413 279.652c-.82 4.192-14.199 18.792-17.568 10.626-1.999-4.844 2.334-10.118 5.712-12.922 2.091-1.735 4.703-3.438 7.553-2.912 2.419.446 4.823 2.545 4.303 5.208zm-6.909-7.52c-.945.224-8.844 5.77-8.916 5.697-.686-.688 4.296-8.114 4.808-8.764 4.224-5.351 7.027-1.299 9.668 2.907-.562-2.512-2.11-6.159-4.696-7.222-3.264-1.341-5.811 1.97-7.382 4.35-2.22 3.364-3.444 7.017-4.678 10.814-.588 1.81-1.259 3.452-2.255 5.084-.983 1.611-2.704 3.387-2.45 5.425 1.398-.777 2.141-2.298 3.022-3.551.982.397.644 3.53.844 4.328.501 2.004 1.871 3.572 3.988 3.917 3.947.642 8.207-3.01 10.846-5.49 2.781-2.613 5.774-6.195 5.75-10.217-.025-4.202-4.158-8.317-8.549-7.278zM290.207 204.767c-2.24 3.427-6.169 7.536-10.326 8.332-3.052.584-5.065-1.678-3.839-4.731 1.035-2.58 4.563-4.21 6.876-5.345 1.834-.901 10.387-2.998 7.289 1.744zm-1.648-5.605c-4.587-.173-8.286 3.143-11.707 5.79.772-3.041 2.52-6.348 4.98-8.327 3.349-2.694 6.523-1.021 10.048.326-.87-2.745-4.774-3.732-7.26-3.344-3.145.49-5.406 3.174-6.996 5.771-1.896 3.098-2.545 6.749-4.777 9.655-1.022 1.329-7.351 6.306-5.918 8.34l7.092-7.528c.613 2.966 1.289 6.343 5.075 6.055 3.024-.231 6.473-2.802 8.685-4.766 2.856-2.538 8.476-11.681.778-11.972zM224.3 228.425c-1.943.894-6.221 2.108-7.307-.577-1.51-3.728 3.347-10.267 5.658-12.751 1.422-1.529 2.387-2.32 4.369-1.33 1.583.79 3.908 3.034 4.515 4.76 1.304 3.704-4.196 8.5-7.235 9.898zm4.458-17.906c1.582.357 1.776 2.366-.203 1.595-1.482-.578-1.827-2.052.203-1.595zm1.986 2.83c-.591-1.802.612-4.629-2.299-4.759-1.648-.074-4.669 1.603-6.109 2.284-1.995.944-3.873 2.386-4.915 4.416-.965 1.881-.276 2.377 1.196.815.179.123-3.328 9.168-3.358 10.075-.138 4.142 2.795 6.87 6.913 6.135 3.784-.675 7.195-3.77 9.278-6.893 1.054-1.582 1.919-3.391 1.998-5.328.121-2.971-1.859-4.165-2.704-6.745zM248.899 211.83c-1.597-3.075 2.103-8.25 5.416-6.737 6.898 3.152-3.321 10.769-5.416 6.737zm6.196-4.014c-.74.029-5.419 1.837-4.731 3.062.945 1.682 4.361-2.386 4.731-3.062zM28.834 202.132c-.185-1.31-3.12.591-3.104 1.435.486-.971 3.49 1.294 3.104-1.435zM189.406 103.154c3.738-.275-1.024-19.132-3.748-17.465-2.953 1.808.319 17.716 3.748 17.465zM196.384 94.349c3.501.501 2.945-7.54 1.061-8.98-3.476-2.656-5.313 8.37-1.061 8.98z" fill="#2C2D36"/></svg>