<svg width="32" height="24" viewBox="0 0 32 24" fill="none" xmlns="http://www.w3.org/2000/svg">
<path d="M30.2157 0C25.7948 2.3365 24.0868 4.97778 22.8811 7.00952C20.1682 11.4794 18.4601 18.5905 21.9768 22.2476C24.2877 24.5841 28.0053 24.5841 30.3162 22.2476C32.6272 19.9111 32.5267 16.1524 30.2157 13.8159C29.01 12.6984 27.6034 12.2921 26.2972 12.0889C24.5891 11.7841 24.0868 5.68889 30.8186 0.812694L30.2157 0ZM10.1207 0C5.80027 2.3365 4.09219 4.97778 2.88648 7.00952C0.173652 11.4794 -1.53443 18.5905 1.98221 22.2476C4.29314 24.5841 8.01072 24.5841 10.3217 22.2476C12.6326 19.9111 12.5321 16.1524 10.2212 13.8159C9.01547 12.6984 7.60882 12.2921 6.20217 12.0889C4.59456 11.7841 4.09219 5.68889 10.824 0.812694L10.1207 0Z" fill="#2C2D36"/>
</svg>
