<svg width="48" height="115" viewBox="0 0 48 115" fill="none" xmlns="http://www.w3.org/2000/svg">
<path fill-rule="evenodd" clip-rule="evenodd" d="M17.065 61.6006C16.8637 61.3749 17.3322 61.4188 17.0957 61.2295C16.8716 61.0497 17.0054 60.8132 16.9379 60.614C16.9043 60.5146 16.8352 60.5067 16.7817 60.5721C16.609 60.8285 16.8741 61.1678 16.6438 61.3923C16.5179 61.4184 16.4152 61.4395 16.3062 61.4618C16.4272 61.8437 16.8675 61.9456 16.9586 62.3014C16.8091 62.8676 16.3655 62.7653 15.9691 62.7778C15.9264 62.7794 15.8866 62.8614 15.8452 62.907C16.0092 63.1307 16.2938 62.8726 16.4176 63.0163C16.7523 63.5221 16.1062 63.356 16.0697 63.7714C16.09 63.7155 16.3385 63.6965 16.2118 63.8543C16.0329 63.9968 15.7595 63.7805 15.6021 64.0117C15.7752 64.6255 15.617 65.1047 14.9841 65.8851C15.0371 65.9381 15.0901 65.9915 15.1432 66.0442C15.0591 66.2459 14.7724 66.0736 14.6954 66.2873C14.6059 66.5105 14.8429 66.5892 14.8984 66.7487C14.2671 67.783 14.2671 67.783 14.2365 68.4212C13.9726 68.6395 13.6292 68.9237 13.2859 69.2078C13.1219 69.5591 13.488 69.7036 13.524 69.9306C13.1968 70.2379 12.882 70.5784 12.9069 71.0291C12.9251 71.3575 12.7553 71.5746 12.6604 71.8384C12.438 72.4601 12.2019 73.0777 11.9915 73.7036C11.955 73.8113 11.9198 73.9923 12.17 74.0552C12.3643 73.7359 12.5565 73.4186 12.6758 73.0292C12.9309 72.1996 13.1968 71.3604 13.5845 70.5888C13.9751 69.8096 14.0956 68.9121 14.6763 68.2117C14.8023 68.0601 14.8714 67.7689 14.9489 67.5407C15.3739 66.2889 15.967 65.1064 16.5597 63.9218C16.882 63.2777 17.362 62.6742 17.403 61.9054C17.4068 61.8388 17.3707 61.77 17.3525 61.7021C17.222 61.6561 17.0911 61.6097 17.065 61.6006ZM10.7104 64.1214C10.8454 64.2254 10.9187 64.2817 11.0136 64.3542C11.142 63.9388 11.1213 63.5797 10.8185 63.2255H11.1875C11.2277 63.1659 11.3105 63.0971 11.2994 63.0515C11.2037 62.663 11.3793 62.3168 11.5504 62.0243C11.7508 61.6818 12.1286 61.437 11.9853 60.9578C11.9753 60.9242 11.972 60.8633 11.9907 60.8501C12.7064 60.3452 12.7619 59.4028 13.3455 58.8105C13.5369 58.6159 13.5576 58.8872 13.7411 58.9315C13.8069 58.0927 13.6963 57.2001 14.4688 56.4637C14.4808 56.4624 14.6585 56.4409 14.8308 56.4206C14.9398 56.3643 14.9315 56.3253 14.8478 56.2553C14.6055 56.0515 14.5968 55.7761 14.7911 55.5731C15.3701 54.9676 15.5979 54.1702 15.9658 53.4562C16.6438 52.1407 17.4627 50.913 18.2008 49.6368C18.9443 48.3511 19.7313 47.1007 20.563 45.8721C21.6594 44.2522 22.7181 42.6095 23.8559 41.0148C24.5915 39.9826 25.3333 38.9384 26.0114 37.8553C26.6567 36.8231 27.4834 35.9065 28.1979 34.9149C29.0359 33.751 29.9981 32.684 30.7797 31.4724C31.1703 30.8677 31.7721 30.4059 32.2074 29.8028C33.8224 27.5644 35.8516 25.6993 37.7871 23.7517C38.1371 23.4001 38.4743 23.0265 39.1378 23.0327C38.9212 23.6511 38.7158 24.1904 38.2755 24.6224C37.6305 25.2553 36.996 25.8989 36.3569 26.5381C36.0375 26.8574 35.6494 27.1345 35.4179 27.5081C35.1859 27.8826 34.8359 28.134 34.6011 28.4993C34.3691 28.8601 34.044 29.1537 33.7876 29.5124C33.3448 30.1333 32.7786 30.6734 32.2716 31.2529C31.6238 31.9935 31.1703 32.86 30.5229 33.5965C29.8618 34.3495 29.3121 35.1998 28.6987 35.9963C28.5011 36.2527 28.2075 36.418 28.2261 36.8297C28.2336 36.99 27.9846 37.1839 27.821 37.3259C27.2358 37.8329 26.8841 38.5101 26.467 39.1401C26.0375 39.7896 25.6183 40.4461 25.1875 41.0947C23.9516 42.9553 22.7462 44.8379 21.4601 46.6637C20.6442 47.823 20.0767 49.1302 19.2135 50.2552C19.1936 50.785 18.5761 50.9059 18.4522 51.4129C18.3574 51.7985 18.2091 52.2049 17.881 52.5399C17.6458 52.7802 17.3537 53.0183 17.2117 53.3601C17.0646 53.7134 16.9085 54.0655 16.7233 54.3997C16.5357 54.7394 16.3389 55.084 16.0879 55.376C15.8245 55.6821 15.7487 56.083 15.5172 56.3783C15.3855 56.5461 15.4878 56.875 15.2003 56.8895C14.9303 56.9036 14.8892 57.0436 14.9232 57.249C14.9887 57.6417 14.7265 57.9196 14.5976 58.2385C14.4208 58.3052 14.2191 58.1681 14.0294 58.3487C14.3889 58.9994 13.7427 59.5341 13.7916 60.1699C13.1123 60.2863 13.3961 60.9863 13.0887 61.3281C12.7714 61.6814 12.8232 62.1896 12.5387 62.5715C12.0772 63.1915 11.8536 63.9404 11.5276 64.6346C11.2161 65.2973 10.8963 65.9609 10.5186 66.5863C10.3604 66.8489 10.3972 66.9773 10.6528 67.1911C9.85753 67.5195 10.2858 68.7207 9.2938 68.9489C9.36339 69.0595 9.51209 69.195 9.48599 69.2704C9.24866 69.9617 9.12357 70.6927 8.73794 71.3327C8.42812 71.8471 8.15309 72.4005 8.1651 73.0052C8.17049 73.3067 7.99942 73.5292 7.89215 73.6853C7.20581 74.6819 7.10889 75.8586 6.79658 76.965C6.54931 77.8406 6.23493 78.6901 5.94789 79.5508C5.59416 80.612 5.17002 81.6496 4.96416 82.7626C4.83783 83.4435 4.52179 84.0872 4.35321 84.7631C4.23351 85.244 3.96262 85.7096 4.08025 86.2311C4.16806 86.6208 3.76753 86.8623 3.80771 87.272C3.82221 87.4215 3.52729 87.7404 3.64327 87.955C3.78865 88.2246 3.16155 88.3464 3.57327 88.5895C3.42126 89.077 3.35664 89.6188 3.09694 90.0405C2.66327 90.7442 2.73617 91.5457 2.51871 92.2871C2.16996 93.4788 2.29836 94.7756 1.81706 95.9532C2.04197 96.4929 1.36309 97.0156 1.80049 97.5856C1.90487 97.7218 1.60747 97.9124 1.57268 98.1543C1.38629 99.4445 1.06197 100.721 1.15682 102.035C1.17753 102.322 0.767057 102.589 1.13363 102.868C0.758359 103.149 0.947649 103.552 0.919483 103.903C0.892146 104.239 1.03215 104.644 0.890075 104.906C0.535104 105.56 1.06363 106.141 0.925282 106.767C0.809306 107.291 1.06694 107.871 0.694986 108.371C0.64114 108.444 0.639069 108.635 0.6954 108.698C1.07232 109.117 0.938536 109.627 0.894217 110.077C0.816761 110.866 1.22268 111.581 1.15516 112.359C1.14729 112.452 1.35729 112.565 1.53292 112.732C1.55073 111.983 1.76528 111.292 1.41942 110.593C1.32913 110.41 1.36806 110.158 1.36723 109.938C1.36351 108.621 1.39333 107.302 1.35274 105.985C1.33451 105.39 1.70191 104.884 1.60871 104.268C1.52505 103.716 1.43889 103.081 1.63191 102.593C1.84564 102.052 1.64972 101.482 1.897 101.011C2.1654 100.5 1.92475 99.9809 2.05025 99.4897C2.31907 98.4368 2.26439 97.3313 2.52534 96.2941C2.74197 95.4346 2.84013 94.5528 3.10191 93.7115C3.1628 93.516 2.7751 93.4075 3.09694 93.2095C3.29037 93.0907 3.15617 92.7912 3.16735 92.5746C3.17812 92.3757 3.45895 92.3256 3.39848 92.1036C3.33096 91.8534 3.59315 91.7076 3.60972 91.5179C3.65611 90.9782 3.7199 90.4505 3.81765 89.9129C4.00777 88.865 4.31138 87.8506 4.54416 86.8172C5.0354 86.4924 4.54126 85.9034 4.92398 85.4959C5.20688 85.1943 5.13398 84.6824 5.23173 84.2736C5.55564 82.9137 5.94664 81.5651 6.39564 80.2409C6.71084 79.3114 7.13126 78.4275 7.26505 77.4318C7.32221 77.0081 7.57487 76.5744 7.76747 76.1809C8.3254 75.0418 8.61493 73.817 9.02333 72.6341C9.21966 72.0658 9.52534 71.5596 9.75274 71.0141C10.1263 70.1149 10.3107 69.1465 10.8346 68.2953C11.1772 67.7386 11.1548 66.979 11.7326 66.525C11.4721 65.8926 12.1663 65.5827 12.2375 65.0323C12.3075 64.4938 12.74 64.0535 12.904 63.5068C13.0523 63.0122 13.324 62.5512 13.57 62.0906C13.8165 61.6283 14.0985 61.1852 14.3653 60.7324H14.8926C14.7981 60.4669 14.589 60.2383 14.6913 59.9736C14.7733 59.7922 14.9547 59.8668 15.074 59.7959C15.0984 59.7301 15.1448 59.6646 15.1432 59.6C15.1266 58.8221 15.448 58.1014 15.856 57.5307C16.5817 56.515 17.0004 55.3561 17.6072 54.2895C18.3184 53.0386 19.0801 51.8147 19.7632 50.5518C20.5684 49.0623 21.5873 47.712 22.395 46.2254C22.9521 45.2011 23.6782 44.2675 24.3401 43.3016C25.1855 42.0685 26.0884 40.8723 26.8804 39.6061C27.5253 38.5747 28.3011 37.6436 28.9895 36.647C29.6824 35.6439 30.3713 34.6315 31.1748 33.7008C31.8769 32.8882 32.4605 31.974 33.1095 31.1141C33.8253 30.166 34.6069 29.2714 35.3152 28.3162C35.7874 27.6792 36.3121 27.0446 36.8804 26.4693C37.8596 25.4785 38.8479 24.496 39.8362 23.5144C39.9613 23.3901 40.0536 23.1971 40.3154 23.241C40.612 23.5173 40.4484 23.8234 40.2081 24.0955C40.7408 24.2401 40.7946 23.6797 41.1695 23.685C41.3662 23.7074 41.4263 23.9232 41.5812 24.0218C41.2117 24.1485 41.6475 24.4385 41.4714 24.576C41.283 24.7234 41.4246 25.0399 41.1562 25.126C41.1836 25.3949 41.5013 25.1641 41.6023 25.4818C41.2565 25.9283 40.8787 26.4428 40.4724 26.9336C40.1953 27.2679 39.8598 27.5383 39.6605 27.9534C39.4961 28.2959 38.9829 28.4421 39.0852 28.9649C39.1039 29.0601 38.9195 29.0672 38.8429 29.1189C38.3123 29.4776 37.8207 30.2207 37.5088 30.9973C37.3381 31.4223 37.0486 31.8046 36.7876 32.1579C36.3188 32.7937 35.7956 33.3906 35.3711 34.0641C35.3023 34.1734 35.1694 34.248 35.0323 34.3201C34.4346 34.6336 34.0398 35.124 33.8928 35.8075C33.817 36.1599 33.6729 36.2627 33.2566 36.6574C33.0561 36.8483 32.9016 37.1081 32.7392 37.333C32.0716 38.2566 31.5132 39.2532 30.8327 40.1603C30.421 40.7095 30.4669 41.4986 29.832 41.8987C29.9566 42.4152 29.4691 42.5784 29.2633 42.9073C28.7596 43.7117 28.0787 44.4286 27.8276 45.3569C27.7382 45.6886 27.1691 45.484 27.3468 45.933C26.8021 46.672 26.5005 47.5546 25.9733 48.2956C25.7711 48.5798 25.3913 48.8146 25.3383 49.1418C25.2368 49.7644 24.4676 50.0398 24.584 50.7365C23.9586 51.0124 23.9482 51.644 23.7092 52.1614C23.5245 52.5611 23.0937 52.7934 23.0204 53.3356C22.9587 53.7913 22.6137 54.2133 22.3734 54.6391C22.1328 55.0666 21.7509 55.4145 21.6561 55.924C21.0898 56.0242 21.0836 56.5792 20.8923 56.9458C20.686 57.3405 20.3567 57.7088 20.3505 58.1847C20.3455 58.5554 19.6753 58.4792 19.8754 59.0011C19.9988 59.3229 19.6389 59.5677 19.5179 59.8568C19.4016 60.1352 19.3767 60.5108 18.914 60.5315C18.7823 60.5373 18.6361 60.754 18.5404 60.9018C18.1598 61.4896 18.1453 62.3114 17.4059 62.6709C17.454 63.0988 17.0559 63.404 17.0278 63.747C16.9366 64.8612 16.2603 65.7074 15.793 66.6311C15.4472 67.3145 15.419 68.1678 14.7621 68.6921C14.8731 69.2849 14.316 69.6477 14.2481 70.1721C14.169 70.7851 13.6632 71.2134 13.5675 71.8115C13.4714 72.4104 13.0929 72.8963 12.9181 73.4641C12.8887 73.5594 12.7652 73.6261 12.648 73.7433C12.9367 74.7465 11.8676 75.5053 12.0288 76.6858C12.2479 76.2488 12.3974 75.9506 12.6277 75.4908C12.684 76.5355 12.0872 77.2222 11.9252 78.0336C11.7649 78.8339 11.3528 79.596 11.0769 80.3855C10.8011 81.1737 10.4184 81.9341 10.2295 82.741C10.0365 83.5653 9.6699 84.3249 9.48475 85.15C9.30167 85.9664 9.00469 86.7567 8.74499 87.6004C8.59463 87.6128 8.41611 87.6273 8.23759 87.6423C7.77658 88.2027 8.02759 88.9644 7.69789 89.5658C7.65067 89.6524 7.73889 89.8272 7.6838 89.8947C7.18096 90.5085 7.32925 91.3237 7.01445 91.9926C6.68931 92.6835 6.84629 93.4726 6.56753 94.1796C6.24363 95.0014 6.22623 95.9039 5.93049 96.7394C5.77723 97.1718 6.00546 97.6928 5.65794 98.0955C5.79463 98.7665 5.51836 99.3944 5.40777 100.031C5.30877 100.603 5.16877 101.162 5.20315 101.747C4.65972 102.179 5.28268 102.925 4.76451 103.381C4.68996 103.447 4.74422 103.671 4.75581 103.821C4.82871 104.776 4.54167 105.685 4.40416 106.613C4.36439 106.883 4.64232 107.093 4.53049 107.381C4.08605 108.53 4.40374 109.73 4.29688 110.901C4.25173 111.394 4.37723 111.825 4.62783 112.237C4.68126 112.194 4.73386 112.15 4.79516 112.099C5.41522 112.258 5.5515 112.749 5.40901 113.251C5.29013 113.669 4.83203 113.64 4.43895 113.593C4.24179 113.976 4.0815 114.428 3.51031 114.281C3.18682 114.197 2.95777 114.393 2.69806 114.517C2.42055 114.363 2.15132 114.096 1.86883 114.081C1.23883 114.048 0.942678 113.61 0.708655 113.184C0.462205 112.734 0.336702 112.213 0.214099 111.693C-0.12389 110.258 0.0475897 108.815 0.0165246 107.376C-0.0141263 105.946 0.0185956 104.515 0.00492693 103.084C0.000370716 102.571 0.322619 102.139 0.260489 101.593C0.2054 101.109 0.0525601 100.553 0.461791 100.108C0.311022 99.29 0.778655 98.542 0.704099 97.7152C0.609661 96.6665 0.919897 95.6467 1.14936 94.6307C1.20073 94.4041 1.18913 94.1357 1.27321 93.9696C1.40865 93.7028 1.39084 93.4464 1.34942 93.2174C1.26493 92.7494 1.57516 92.3902 1.63439 91.9586C1.69487 91.5175 1.85765 91.0702 1.80629 90.6784C1.99516 90.5089 2.19729 90.6332 2.27848 90.3549C1.90197 89.9431 2.07676 89.4664 2.25238 88.9325C2.59493 87.8904 2.82771 86.8151 2.95652 85.7183C2.9967 85.377 3.14209 85.046 3.25889 84.7168C3.55629 83.8797 3.85824 83.0446 3.8657 82.053C3.98789 81.9627 4.16765 81.8298 4.27741 81.7494C4.29978 81.5175 4.04836 81.5531 4.14777 81.3186C4.32463 80.9024 4.55534 80.489 4.53008 80.0077C4.52676 79.9377 4.54126 79.8631 4.56363 79.7965C4.63611 79.5852 5.20398 79.5276 4.75913 79.1569C5.15925 78.9966 4.85688 78.5435 5.13232 78.2884C5.31581 78.1189 5.3357 77.7499 5.38333 77.5097C5.44132 77.2185 5.63144 76.9969 5.66292 76.7098C5.72339 76.1478 6.30493 75.7257 6.09286 75.1305C6.19185 74.9271 6.37617 75.0091 6.49297 74.9288C6.41221 74.5556 6.72037 73.5346 7.08487 72.9775C7.18718 73.0263 7.29114 73.0765 7.39635 73.1266C7.4212 73.0524 7.48043 72.9696 7.45972 72.9228C7.31558 72.6039 7.03102 72.2978 7.42617 71.9614C7.47629 71.1703 7.85197 70.4599 8.18664 69.7956C8.48073 69.2128 8.63232 68.6168 8.81167 68.0182C8.98315 67.4458 9.50215 67.0266 9.49842 66.3871C10.1152 65.7662 10.1152 64.8115 10.7104 64.1214Z" fill="#2C2D36"/>
<path fill-rule="evenodd" clip-rule="evenodd" d="M18.7631 30.9164C18.8066 31.3704 18.2901 31.7688 18.6301 32.2518C18.9246 32.3781 18.9996 32.077 19.2216 31.9722C19.1632 31.3016 19.4353 30.7685 19.7617 30.175C20.084 29.5893 20.5831 29.1287 20.8254 28.4759C21.054 27.8612 21.5171 27.3311 21.8924 26.7744C22.2705 26.2127 22.6682 25.6647 23.055 25.1093C23.3607 24.6719 23.6237 24.198 23.9737 23.7996C24.8088 22.8482 25.5253 21.8098 26.292 20.8078C26.6901 20.2876 27.1734 19.8386 27.5798 19.3117C28.2773 18.4075 29.1546 17.6425 29.8608 16.7433C30.6213 15.7757 31.5694 14.9858 32.3344 14.0402C34.0591 11.9087 36.1471 10.1396 38.0301 8.16763C38.3357 7.84704 38.6655 7.54675 38.9728 7.2216C39.6475 6.50834 40.2854 5.71846 41.2575 5.39083C41.632 5.2645 41.4472 4.8387 41.8353 4.65686C42.1733 4.49905 42.5594 4.16769 42.8203 3.80609C43.0854 3.43911 43.4847 3.20467 43.802 2.89941C44.1839 2.53243 44.6324 2.19899 45.0495 1.81047C45.4683 1.75497 45.909 1.70527 46.3456 1.62905C46.4197 1.61621 46.4736 1.48905 46.5282 1.42444C46.4417 1.20988 46.0921 1.46254 46.1045 1.01645C46.4019 0.63497 46.7871 0.220355 47.391 0C47.5045 0.0443195 47.4167 0.229467 47.4937 0.337988C47.5662 0.439467 47.7435 0.495799 47.5555 0.662308C47.3504 0.844142 47.6602 0.862367 47.6735 0.991598C47.4403 1.23432 47.1065 0.989941 46.853 1.13201C46.527 1.44763 47.0957 1.54953 46.9876 1.85231C46.766 2.06728 46.4342 2.1642 46.1144 2.31456V2.7329C45.5752 3.29953 44.6739 3.43083 44.4005 4.26337C44.27 4.65935 43.7092 4.55911 43.5874 5.04083C43.5021 5.37716 43.0332 5.4484 42.7362 5.60746C42.5295 5.65592 42.501 5.43763 42.3286 5.40367C42.0739 5.83402 42.5875 5.92059 42.7068 6.18195C42.5225 6.36586 42.3365 6.55183 42.1501 6.73822C42.0714 6.66698 41.9919 6.59533 41.9124 6.52408C41.7036 6.7871 41.2836 6.75148 41.1411 7.07041C41.0657 7.30112 41.2352 7.41089 41.3507 7.53763C41.2314 7.65692 41.125 7.76337 41.0202 7.86817C40.9415 7.79651 40.8624 7.72444 40.7808 7.65071C40.6246 8.23888 40.6246 8.23888 40.14 8.74793C39.8646 8.73716 40.1408 8.27574 39.6078 8.35154C39.3145 8.49444 39.5469 9.31 38.8883 9.31746C38.9674 9.43136 39.0449 9.54195 39.172 9.7242C38.7562 10.0493 38.4451 10.4905 38.0566 10.7817C37.6183 11.1105 37.4038 11.608 36.925 11.9265H36.2382C36.2279 12.3096 35.7752 12.4737 35.725 12.8025C35.5569 13.9085 34.668 14.4403 33.9465 15.0773C33.6822 15.3109 33.3459 15.4514 33.2253 15.8171C33.1868 15.9343 33.145 16.0072 33.0062 16.0068C32.4201 16.0064 32.1472 16.3257 32.0875 16.8899C32.0577 17.1753 31.8746 17.3509 31.5739 17.3596C31.0872 17.3733 30.9414 17.7667 30.7327 17.9917C30.7517 18.3955 31.0872 18.1582 31.1866 18.4088C30.9054 18.4622 30.9116 19.0773 30.4055 18.7484C30.374 18.7281 30.1159 18.9195 30.1114 19.0193C30.0919 19.419 29.9333 19.7197 29.6168 19.9492C29.7199 20.498 29.2946 20.7573 28.9702 21.0302C28.5382 21.3935 28.2856 21.8938 27.9712 22.3267C27.5794 22.8656 27.1747 23.327 26.5985 23.6517C26.4382 23.742 26.3061 23.8812 26.1972 23.9686C26.2523 24.4358 26.1541 24.7274 25.896 25.0579C25.0432 26.1514 24.1535 27.2263 23.5102 28.4676C23.2857 28.9005 22.8831 29.0479 22.4623 29.0931C22.1869 29.1221 22.0995 29.3242 21.9678 29.4162C22.2283 30.1195 21.4111 30.6306 21.7412 31.2399C21.4218 31.4578 21.1501 31.3016 20.8693 31.408C20.702 32.0086 20.523 32.6486 20.3462 33.2827C20.4331 33.4849 20.7268 33.3034 20.8043 33.6182C20.7459 33.8854 20.4021 34.1376 20.6498 34.6918C20.383 34.4549 20.3035 34.3841 20.226 34.3153C20.0297 34.399 20.2281 34.7047 19.9643 34.7519C19.6453 34.7983 19.565 34.4752 19.3637 34.3414C19.0584 34.4963 18.7548 34.65 18.4686 34.7954C18.1774 34.5328 18.3414 34.3737 18.5162 34.2138C18.3841 34.0544 18.3017 33.8299 18.015 33.8543C17.7205 33.8564 17.9682 34.2002 17.7371 34.2913C17.2069 33.7027 17.9252 33.0296 17.5312 32.4349C17.7702 32.2596 17.9504 32.1271 18.1285 31.997C18.0295 31.8873 17.9819 31.8343 17.8945 31.7373C18.0639 31.4031 18.2424 31.046 18.4272 30.6927C18.4354 30.677 18.4992 30.6907 18.5369 30.6907C18.6935 30.6844 18.7689 30.7598 18.7631 30.9164Z" fill="#2C2D36"/>
<path fill-rule="evenodd" clip-rule="evenodd" d="M18.7625 30.9164C18.7683 30.7598 18.693 30.6845 18.5364 30.6907C18.473 29.8817 19.0094 29.2923 19.3557 28.6623C19.931 27.6144 20.641 26.6385 21.2867 25.6304C21.7634 24.8852 22.3831 24.1997 22.917 23.4728C23.6418 22.4858 24.4839 21.594 25.174 20.5767C25.582 19.9761 26.1465 19.4824 26.627 18.9311C27.3042 18.1549 27.875 17.2809 28.6624 16.5933C29.0699 16.2379 29.4837 15.8755 29.7281 15.3487C29.8341 15.1204 30.0636 14.9013 30.4062 14.8305C30.5747 14.7957 30.622 14.4233 30.803 14.2278C32.6039 12.2919 34.4173 10.3695 36.2986 8.5102C37.4621 7.35996 38.7229 6.31825 39.9096 5.19286C40.8523 4.2986 41.8576 3.43996 42.9001 2.65919C43.3015 2.3589 43.6246 1.85357 44.1713 1.75458C44.3743 1.97742 44.3163 2.1489 44.139 2.25783C43.0028 2.95328 42.0373 3.84836 41.1398 4.81967C40.8382 5.14647 40.395 5.25623 40.1001 5.60375C39.8483 5.8999 39.6031 6.2147 39.1752 6.35511C38.9201 6.43919 38.6475 6.72126 38.5502 6.97807C38.3886 7.4047 37.9956 7.56789 37.7578 7.87896C37.5101 8.2041 37.187 8.39298 36.905 8.64564C36.4962 9.0118 36.3015 9.61073 35.7071 9.80623C35.6682 10.3729 34.9922 10.3948 34.8302 10.778C34.6385 11.2319 34.2007 11.3603 33.9252 11.6908C33.6655 12.0023 33.4435 12.3631 33.1117 12.629C32.7613 12.9094 32.466 13.259 32.147 13.5779C31.8277 13.8973 31.5046 14.2125 31.1902 14.5372C30.8879 14.8487 30.6456 15.2248 30.3652 15.5363C29.7488 16.2206 29.2551 17.0034 28.5671 17.6342C27.824 18.3156 27.245 19.1523 26.6291 19.9554C26.0148 20.7561 25.4179 21.6014 24.703 22.299C24.1654 22.8233 23.9653 23.5879 23.3159 23.9906C23.272 24.5485 22.7086 24.7581 22.4725 25.2166C22.2965 25.5575 22.036 25.9833 21.5895 26.2136C21.3691 26.3271 21.3687 26.9264 21.1624 26.9972C20.7673 27.1335 20.8725 27.3994 20.7615 27.6322C20.6766 27.8107 20.612 28.0294 20.4711 28.191C19.7894 28.9717 19.3387 29.8842 18.9494 30.834C18.9307 30.8795 18.8268 30.8899 18.7625 30.9164Z" fill="#2C2D36"/>
</svg>
