<svg width="303" height="74" viewBox="0 0 303 74" fill="none" xmlns="http://www.w3.org/2000/svg">
<path fill-rule="evenodd" clip-rule="evenodd" d="M32.7759 50.195C30.2846 50.5847 27.9092 51.1883 25.5382 52.161C23.828 52.8643 21.8656 53.2464 19.8403 53.3918C17.6177 53.55 15.3817 54.4376 13.0724 54.6095C11.6461 54.7148 9.93871 55.7739 9.15182 53.9968C8.19104 54.0255 7.23027 54.0543 6.02233 54.0908C5.9031 53.2648 5.77693 52.4658 5.68148 51.6644C5.66109 51.4937 5.80117 51.156 5.7753 51.1519C3.67817 50.7879 4.05467 48.5025 2.11534 47.9477C1.06071 47.6462 0.274394 46.0687 0.886709 45.4292C2.12394 44.1369 1.50119 43.056 1.19718 41.8309C2.12026 39.942 3.82787 38.5841 5.88926 37.4055C7.92412 36.2413 9.75188 34.7928 11.8331 33.7051C16.056 31.4966 20.3782 29.4341 24.6767 27.3369C29.1132 25.1723 33.6298 23.1638 38.2368 21.2859C42.4424 19.5704 46.6064 17.768 50.8119 16.0448C53.3742 14.9948 55.9204 13.9098 58.4655 12.8243C58.5747 12.7779 58.5918 12.5662 58.7832 12.1332C57.7641 12.302 56.7766 12.7109 56.0953 12.517C55.1992 12.2634 54.5501 11.9276 53.806 12.7698C52.7135 11.736 51.1174 13.5317 50.0076 12.5922C49.0814 13.1614 47.8802 13.283 47.0312 13.1618C46.0333 13.0211 45.3195 12.6925 44.3701 13.4581C44.1023 13.6748 43.0696 13.652 42.8446 13.4214C41.8615 12.4119 40.8113 13.8861 39.9312 13.5086C38.8669 13.0514 38.0193 13.1895 37.2662 14.0617C35.7514 13.6804 34.2335 14.3523 32.7087 14.4168C31.3952 14.4711 29.8933 14.522 28.8092 15.0739C28.1144 15.4288 27.7223 15.492 27.0882 15.4089C25.0177 15.1403 22.9644 15.8975 20.8712 15.9642C18.7608 16.0308 16.6197 16.6106 14.4877 16.9423C11.808 17.3601 9.12599 17.7655 6.44263 18.1588C4.8319 18.3951 3.91091 17.4995 3.30143 16.6266C2.83914 15.9642 2.83908 15.1883 1.51438 15.3246C1.33829 15.3419 1.12735 14.5462 0.836475 13.9161C1.60501 13.8343 2.27394 13.764 2.94573 13.6939C2.95229 13.5455 2.96064 13.3966 2.96612 13.2477C2.40186 13.1875 1.83868 13.1278 1.19298 13.0584C1.26178 12.8902 1.27667 12.54 1.49076 12.3885C2.00401 12.027 2.57427 11.6371 3.1847 11.4735C6.60553 10.5553 10.0166 9.56204 13.4812 8.85544C19.312 7.66592 25.1695 6.57175 31.0398 5.631C35.0558 4.98638 39.0906 4.41838 43.1134 3.85501C46.7335 3.34758 50.4099 2.96023 54.0399 2.52789C58.6949 1.97357 63.3366 1.55324 67.9865 1.19842C70.9425 0.97277 73.8973 0.844976 76.8531 0.678516C78.8083 0.569417 80.1682 1.55414 81.7212 2.18612C82.408 3.16221 82.2833 4.35708 83.5652 5.26108C85.0241 6.29195 85.2206 11.6136 84.274 13.3379C83.573 14.6147 81.9859 15.4179 80.721 16.3786C78.5065 18.0618 76.1048 19.4633 73.33 20.364C73.031 20.4619 72.5885 20.6625 72.5352 20.8528C72.0978 22.4332 69.942 22.0704 69.0627 23.12C66.9166 23.2057 65.1548 24.2993 63.2492 25.0188C62.9228 25.142 62.3822 25.1165 62.2496 25.2986C60.5212 27.6866 57.3619 28.0333 54.8298 29.2622C54.04 29.646 53.1515 29.8929 52.4151 30.3337C51.9078 30.6361 51.5866 31.1629 51.1832 31.5893C51.5747 31.8273 51.768 32.0499 51.9169 32.0203C55.0873 31.3973 58.2385 30.594 61.4224 30.1374C65.5683 29.544 69.629 28.4125 73.8326 28.1317C75.8417 27.9966 77.8261 27.2447 79.9099 26.9883C83.751 26.5167 87.5573 25.3948 91.3935 25.0181C97.9848 24.3726 104.459 22.5262 111.082 22.3843C113.652 21.1955 116.508 21.627 119.159 20.8278C119.873 20.6116 120.69 20.7133 121.457 20.6281C122.571 20.5049 123.684 20.3635 124.794 20.1968C129.266 19.5265 133.734 18.8323 138.206 18.1696C140.094 17.8911 141.995 17.7183 143.878 17.4116C149.197 16.5463 154.539 16.0218 159.872 15.3635C162.646 15.0214 165.384 14.3036 168.176 14.5471C171.192 13.269 174.41 13.5002 177.532 13.0342C181.305 12.4714 185.092 12.0244 188.876 11.5467C193.762 10.9295 198.649 10.3237 203.536 9.72988C206.639 9.3538 209.744 8.99637 212.85 8.65184C216.615 8.23412 220.383 7.92338 224.15 7.44362C229.877 6.71541 235.627 6.28542 241.368 5.75266C248.535 5.08683 255.702 4.41479 262.871 3.80389C266.821 3.46731 270.773 3.22531 274.723 2.98326C279.428 2.69504 284.138 2.37633 288.838 2.21313C292.225 2.09614 295.594 2.14218 299.006 1.75955C299.839 1.66663 300.719 2.46664 301.92 3.01104C301.287 3.29703 300.909 3.55716 300.499 3.63737C299.264 3.87983 298.014 4.0524 296.543 4.28897C298.02 6.10022 301.23 4.22349 302.302 5.93692C301.407 6.16559 300.441 6.41151 299.475 6.65742C299.474 6.85984 299.471 7.06176 299.469 7.26417C300.211 7.3897 300.952 7.51473 301.937 7.68109C301.379 8.69471 300.833 9.68509 300.082 11.0462C298.966 11.2243 297.179 11.9151 295.784 11.6285C294.091 11.2802 292.477 12.6465 290.895 11.7554C290.483 11.5233 289.801 12.9827 288.953 12.1707C288.045 11.2987 287.509 13.2455 286.658 12.5156C285.865 11.8341 284.975 12.9332 284.741 12.8171C283.26 12.0877 281.891 13.1992 280.471 13.1586C278.957 13.1158 277.388 13.2523 275.866 13.4935C274.508 13.7081 273.247 13.8352 271.961 13.462C271.508 13.3297 270.584 13.4014 270.366 13.6521C269.639 14.4908 269.115 14.0768 268.35 13.9142C267.8 13.7973 266.98 14.3717 266.397 14.2831C265.72 14.1789 265.176 13.7484 264.749 14.6234C262.658 13.8069 260.355 16.0337 258.268 14.8115C258.064 14.6928 257.565 14.7389 257.308 14.8674C254.309 16.3702 251.072 15.984 247.94 16.4036C243.376 17.0145 238.813 17.6344 234.249 18.22C230.587 18.6896 226.925 19.1779 223.257 19.5338C221.308 19.7228 219.263 20.7183 217.388 19.6701C217.259 19.5978 216.888 19.6671 216.736 19.7759C213.685 21.9554 210.248 20.236 207.071 21.1578C206.54 21.3129 205.899 21.2106 205.413 21.4192C201.084 23.2816 196.405 22.9194 191.928 23.8914C188.642 24.6046 185.254 24.8233 181.917 25.3128C177.775 25.9196 173.641 26.5889 169.503 27.2057C169.086 27.2677 168.647 27.1723 168.226 27.123C164.788 26.7175 161.389 27.7845 157.968 28.0968C157.214 28.1664 156.335 28.4592 155.745 28.878C154.4 29.8329 152.719 29.8552 151.564 29.5817C150.334 29.288 149.378 29.4892 148.265 29.7022C146.072 30.1214 143.788 30.1848 141.804 31.3592C138.215 31.5944 134.656 32.3695 131.124 32.9635C128.215 33.4538 125.181 33.4788 122.32 34.6167C120.441 35.3622 118.338 35.2403 116.421 35.0385C115.621 34.9548 114.914 34.7958 114.144 35.0815C113.314 35.3888 112.513 35.9949 111.7 36.0528C110.809 36.1153 110.138 36.3956 109.337 36.6579C107.084 37.3954 104.729 38.0283 102.468 37.0655C102.288 36.9887 102.049 36.9345 101.846 36.9639C100.389 37.1787 98.9029 37.3039 97.4884 37.682C95.8436 38.1197 94.0192 38.167 92.6279 39.2974C92.4765 39.4206 92.183 39.4364 91.952 39.4793C90.0398 39.8324 88.1291 40.2051 86.2126 40.521C84.2932 40.8368 82.5012 41.5434 80.4733 41.6864C78.6187 41.8159 76.6882 42.1998 74.7826 42.4007C73.6934 42.4684 72.3091 42.2005 71.5715 42.6685C69.3393 44.0851 66.5813 42.9043 64.4768 44.4028C62.1083 43.9322 59.8977 45.3018 57.5693 45.3326C56.9199 45.341 56.1317 45.1843 55.6406 45.4411C52.9927 46.8295 49.8495 46.2172 47.2174 47.5547C45.2122 47.105 43.4451 47.9427 41.5553 48.5129C40.1354 48.9416 38.5211 48.7977 36.9944 48.908C35.913 50.2773 34.13 49.618 32.7759 50.195Z" fill="#EDDED3"/>
<path fill-rule="evenodd" clip-rule="evenodd" d="M295.98 42.7276C297.062 42.9745 298.144 43.2213 299.726 43.5816C298.807 43.8677 298.497 43.9655 298.086 44.0934C298.365 44.3586 298.627 44.6089 298.901 44.8678C298.54 45.7957 298.171 46.9111 296.77 46.8564C296.053 46.8281 295.461 46.0489 294.523 45.8545C294.774 46.1752 295.026 46.4965 295.309 46.8553C293.147 47.5873 291.365 47.0598 289.75 46.0249C289.255 46.5753 288.908 46.9605 288.419 47.5033C287.843 45.9656 285.993 46.7063 284.635 45.9684C284.554 46.6459 284.501 47.0811 284.449 47.5169C283.794 47.5705 283.009 47.7319 282.273 47.6723C281.223 47.5872 279.679 48.6007 279.217 47.0301C279.195 46.9568 278.91 46.902 278.758 46.9268C278.411 46.9825 278.051 47.1842 277.732 47.1629C276.559 47.0829 275.366 46.6923 274.249 46.8862C273.259 47.0583 272.401 47.9311 271.405 48.3409C270.826 48.5784 270.078 48.5937 269.432 48.562C268.745 48.5293 266.142 48.4902 265.461 48.9308C264.719 49.4092 264.448 48.9474 263.962 48.871C263.341 48.7732 262.685 48.6326 262.062 48.721C261.589 48.788 261.147 49.183 260.723 49.4148C260.506 48.8004 260.295 48.2004 259.926 47.1524C259.304 48.2216 258.093 47.8733 257.872 49.0875C257.74 49.8087 255.236 49.8611 254.403 48.9609C253.833 48.3444 253.464 48.9541 253.04 48.8757C252.498 50.7103 250.825 50.0906 249.512 50.1807C248.863 50.2259 246.819 50.4222 246.458 50.5489C246.143 50.657 245.804 50.7067 245.505 50.7754C245.39 50.496 245.331 50.2083 245.159 49.9888C245.059 49.8629 244.772 49.8464 244.439 49.7385C244.37 50.1626 244.306 50.5509 244.246 50.9125C244.021 51.05 243.84 51.2444 243.656 51.2583C242.234 51.3666 240.798 51.3315 239.39 51.5459C236.013 52.0594 232.652 52.6943 229.282 53.2647C225.098 53.9712 220.907 54.5792 216.767 55.5919C214.831 56.0665 213.556 56.4665 212.091 57.7933C211.332 56.7618 210.024 56.2002 209.69 54.8642C209.395 53.6849 207.865 54.234 206.646 54.1143C207.526 52.0466 209.575 52.5327 211.047 52.0493C210.946 51.6794 210.847 51.31 210.756 50.9698C209.901 51.0729 209.052 51.1738 207.997 51.3002C208.204 50.7948 208.217 50.4135 208.431 50.2944C210.847 48.9436 213.569 48.4198 216.28 47.8974C217.047 47.7506 217.845 47.768 218.606 47.602C224.702 46.2702 230.858 45.6009 237.023 44.8353C242.779 44.1212 248.535 43.8035 254.279 43.0826C255.941 42.8747 257.595 43.4264 259.238 42.6835C263.864 43.2828 268.62 41.4673 273.246 42.2872C273.255 43.2427 272.553 43.0256 271.692 42.8861C271.178 42.8036 270.924 43.4454 270.02 43.4505C266.205 43.4747 262.351 43.8626 258.511 44.1357C258.257 44.1539 258 44.3139 257.099 44.6447C258.135 44.7697 258.55 44.7636 258.901 44.8712C260.161 45.2632 261.449 44.4112 262.837 44.8018C263.942 45.1125 265.462 44.772 266.757 44.5074C269.524 43.9422 272.225 44.2886 274.959 44.1451C276.806 44.0484 278.652 43.5898 280.53 43.8884C281.259 44.0043 282.236 43.3736 283.101 43.0829C284.493 43.0263 285.885 43.0102 287.276 42.8992C288.553 42.799 289.687 43.2161 291.151 42.6848C292.588 42.1627 294.3 43.0336 295.98 42.7276Z" fill="#EDDED3"/>
<path fill-rule="evenodd" clip-rule="evenodd" d="M121.468 51.3573C122.788 51.2298 124.424 51.466 125.352 50.8843C126.657 50.0663 127.872 50.2102 129.131 50.0458C130.437 49.8752 131.755 49.8807 133.064 49.753C134.394 49.6236 135.758 49.5555 137.043 49.2298C139.81 48.5295 142.6 48.2025 145.409 47.969C146.049 47.914 146.692 48.033 147.337 47.9961C147.979 47.9582 148.768 47.9954 149.242 47.704C151.594 46.2578 154.181 46.492 156.688 46.363C158.132 46.2888 158.617 46.883 158.99 48.4069C157.677 49.4823 155.623 49.0125 154.301 50.2186C154.097 50.4046 153.117 50.0247 152.498 49.9012C151.551 49.7147 151.147 51.2771 150.152 50.6241C149.275 50.0486 148.82 50.7092 148.147 50.9539C147.938 51.0301 147.451 50.4783 146.992 50.1406C146.293 50.5338 145.401 51.0338 144.519 51.5296L143.537 51.0845C142.328 51.4925 141.036 52.3101 140.269 52.0954C139.114 51.7722 138.282 53.3719 137.299 52.3939C137.176 52.273 136.679 52.3213 136.412 52.4191C135.904 52.607 135.335 53.153 134.974 53.0814C133.565 52.8033 132.249 53.7832 130.989 53.5712C128.585 53.1668 126.189 53.9774 123.802 53.9221C123.324 53.9103 122.582 54.2107 122.316 54.5447C121.482 55.585 120.684 55.512 119.397 55.3272C118.419 55.1869 116.976 55.7411 116.069 56.3422C114.856 57.1427 114.078 55.5058 112.95 56.4652C112.386 56.9457 111.409 57.6342 111.121 56.2935C110.666 56.4098 109.956 56.4235 109.795 56.6596C108.948 57.9183 108.261 56.7431 107.486 56.7978C106.816 56.9375 107.982 57.8061 106.642 57.9111C104.62 58.0687 102.598 58.7729 100.584 58.8963C99.8496 58.9415 99.4528 58.9916 98.9081 59.3815C98.5838 59.6126 97.7803 59.8162 97.6117 59.6796C96.1939 58.5311 94.6183 59.2828 93.055 59.6207C92.9968 59.6332 92.8401 59.1792 92.692 58.8622C91.8306 59.2129 91.5219 60.7019 90.0608 60.021C89.857 59.9262 89.3511 60.1089 89.0614 60.2677C86.3026 61.7719 86.3099 61.7991 83.2635 62.1432C82.7137 62.2055 81.8734 63.7048 81.5647 62.0805C81.561 62.0601 80.6936 62.0727 80.4964 62.2584C78.8221 63.8345 76.5038 63.7235 74.4559 64.309C73.0208 63.3875 71.6048 64.513 70.1797 64.6534C69.2437 64.7455 68.4151 64.551 67.6664 65.5894C67.1419 66.3176 65.8013 66.1535 64.965 65.33C65.7774 64.9559 66.5747 64.5887 67.5986 64.117C67.1366 63.9466 66.97 63.8209 66.8509 63.8536C66.2154 64.0266 65.617 64.0355 65.594 63.4097C65.5867 63.1967 66.1984 62.7178 66.4963 62.7121C68.442 62.6781 69.9838 61.7415 71.6031 60.9619C72.7159 61.5703 72.7159 61.5703 72.5491 62.5634C72.5904 62.6324 72.6666 62.7636 72.6691 62.7622C73.728 62.3076 75.2014 63.3042 76.1463 61.6237C75.3156 61.5865 74.6306 61.899 73.442 62.1015C74.0916 61.5594 74.3888 61.1577 74.7963 61.007C75.427 60.7741 76.1314 60.67 76.8099 60.5894C78.1199 60.4332 79.3642 59.9809 80.2663 59.2229C81.015 58.5951 81.5539 58.2327 82.6155 58.3671C83.1648 58.4364 83.8446 58.0586 84.4662 57.8831C85.6312 58.7551 87.0961 57.3968 88.3057 57.9461C89.2392 56.5569 90.8721 57.1158 91.968 57.1175C93.4638 57.1196 94.4646 56.1162 95.9542 56.1619C97.6735 56.2162 99.4893 55.8032 101.24 55.4625C104.502 54.8255 107.746 54.0871 111.002 53.4149C111.418 53.3285 111.87 53.4341 112.29 53.3544C113.418 53.1421 114.533 52.8294 115.664 52.6462C116.573 52.4981 117.58 52.1517 118.307 52.113C119.489 52.0497 120.473 51.8798 121.468 51.3573Z" fill="#EDDED3"/>
<path fill-rule="evenodd" clip-rule="evenodd" d="M57.735 61.7342C58.6623 62.4615 59.6611 61.7405 60.6375 61.6273C61.4531 61.5324 62.3509 60.7094 63.2773 61.7646C62.5295 61.7791 61.9018 61.7919 60.7478 61.8159C61.378 62.7893 61.6735 63.2491 61.9372 63.657C60.2671 64.411 58.3009 64.047 57.7876 66.4164C57.4751 65.4644 57.3928 65.2087 57.2623 64.8124C55.8733 66.569 54.1112 67.0204 51.9883 66.1422C52.0819 66.4855 52.1311 66.6675 52.2406 67.0768C49.8612 67.6842 47.4475 68.2236 45.0868 68.9244C42.8095 69.5993 40.3464 69.7217 38.2434 71.0075C37.9113 71.2116 37.0619 70.8005 36.34 70.6495C36.3771 70.9472 36.4058 71.1862 36.4368 71.4337C35.4629 72.0587 34.1939 71.922 33.1167 72.7086C31.8877 73.6063 31.3165 73.1652 30.7939 71.6062C30.6941 71.3063 29.848 71.2288 29.1503 70.9789C29.3717 70.8045 29.6788 70.403 30.0853 70.2726C30.857 70.0254 31.6816 69.9259 31.9883 69.136C33.2315 68.7616 34.9187 69.2052 35.5135 67.6194C35.5303 67.5733 35.7505 67.5133 35.8347 67.5389C37.8381 68.142 39.4722 66.6513 41.3865 66.4287C43.55 66.1767 45.6544 65.1126 47.8112 64.4867C51.1071 63.5305 54.4258 62.6482 57.735 61.7342Z" fill="#EDDED3"/>
<path fill-rule="evenodd" clip-rule="evenodd" d="M121.285 51.0499C120.29 51.5726 119.306 51.7427 118.123 51.806C117.396 51.8447 116.388 52.1913 115.478 52.3394C114.347 52.5228 113.232 52.8357 112.103 53.0481C111.683 53.1278 111.231 53.0222 110.814 53.1086C107.556 53.7812 104.311 54.52 101.047 55.1574C99.2952 55.4982 97.4784 55.9116 95.7581 55.8572C94.2677 55.8114 93.2665 56.8154 91.7698 56.8133C90.6734 56.8117 89.0396 56.2524 88.1056 57.6424C86.8954 57.0928 85.4296 58.4518 84.264 57.5794C85.3819 56.059 87.4313 55.9207 88.9258 55.8728C91.4596 55.7907 93.7522 54.7937 96.2654 54.6281C99.1903 54.4354 102.115 53.4423 105.058 52.9122C109.856 52.0486 114.664 51.2504 119.477 50.5083C120.048 50.42 120.68 50.8562 121.285 51.0499Z" fill="#EDDED3"/>
<path fill-rule="evenodd" clip-rule="evenodd" d="M57.6023 61.7503C54.2937 62.6642 50.9756 63.5462 47.6803 64.5023C45.5239 65.1281 43.4199 66.192 41.2568 66.444C39.3429 66.6666 37.7091 68.157 35.706 67.554C35.6219 67.5284 35.4017 67.5884 35.3849 67.6345C34.7901 69.22 33.1033 68.7764 31.8604 69.1508C30.7891 69.3133 29.719 69.4762 28.5139 69.6592C28.6969 69.3427 28.7878 68.9295 28.9875 68.8739C34.5969 67.3073 39.8812 64.7534 45.6792 63.8403C46.7065 63.6791 47.03 62.4737 48.3918 62.9098C49.0011 63.1047 50.1386 62.232 51.0778 61.9884C52.0447 61.7362 53.0717 61.7097 54.0521 61.4898C54.9629 61.2846 55.8395 60.9278 56.7443 60.6862C57.7274 60.4238 58.7216 60.189 59.7209 59.9939C60.7774 59.7873 61.8451 59.6432 63.3703 59.3967C61.5846 61.1167 59.1941 60.6727 57.6023 61.7503Z" fill="#EDDED3"/>
<path fill-rule="evenodd" clip-rule="evenodd" d="M33.5928 46.552C34.9416 45.9775 36.7174 46.6339 37.7945 45.2706C39.3152 45.1608 40.9231 45.3041 42.3373 44.8773C44.2195 44.3096 45.9796 43.4756 47.9768 43.9233C50.5985 42.5917 53.7291 43.2013 56.3665 41.819C56.8556 41.5634 57.6407 41.7194 58.2876 41.711C60.6066 41.6804 62.8084 40.3168 65.1675 40.7853C67.2636 39.2934 70.0107 40.469 72.2339 39.0586C72.9686 38.5927 74.3474 38.8595 75.4322 38.7921C75.0202 39.1053 74.6418 39.6095 74.1866 39.6997C72.4179 40.0525 70.7735 40.8272 68.8477 40.7383C67.1031 40.6575 65.4412 41.6554 63.5169 41.7267C60.9707 41.8215 58.3806 42.6524 55.8116 43.1752C53.0136 43.7449 50.2306 44.4546 47.4179 44.8682C43.2611 45.4804 39.1393 46.2152 35.0062 47.1923L33.5928 46.552Z" fill="#EDDED3"/>
<path fill-rule="evenodd" clip-rule="evenodd" d="M295.846 44.0592C294.161 44.3663 292.444 43.4924 291.003 44.0163C289.535 44.5494 288.397 44.1309 287.117 44.2314C285.721 44.3429 284.325 44.359 282.929 44.4159C281.05 43.8738 279.043 44.55 277.111 44.451C276.051 44.3971 274.952 44.557 273.32 44.6525C273.961 44.0086 274.228 43.5046 274.575 43.4362C275.772 43.1981 277.004 43.0174 278.211 42.9841C283.077 42.8486 287.939 42.7801 292.803 42.6757C293.889 42.6528 294.988 42.5159 296.061 42.5541C296.763 42.5789 297.43 42.8242 298.413 43.0347C297.255 43.4971 296.551 43.7789 295.846 44.0592Z" fill="#EDDED3"/>
</svg>
