<svg width="95" height="77" viewBox="0 0 95 77" fill="none" xmlns="http://www.w3.org/2000/svg">
<path fill-rule="evenodd" clip-rule="evenodd" d="M5.77086 50.8127C5.99131 50.8717 6.17737 50.9743 6.22929 50.9278C7.12078 50.1276 7.98208 49.2945 8.87752 48.4989C9.66566 47.798 10.3586 47.0043 11.1213 46.2798C11.5317 45.8893 11.9836 45.5422 12.404 45.1608C12.7147 44.8783 12.9557 44.4463 13.3156 44.3065C13.8245 44.1084 13.8689 43.5808 14.2784 43.3025C14.9377 42.8552 15.4585 42.2062 16.0491 41.6552C17.0028 40.7653 17.9711 39.8914 18.9227 38.9998C19.4751 38.4827 20.0995 38.0278 20.4324 37.2898C20.1481 37.4032 19.8861 37.5538 19.6707 37.7542C19.0281 38.3522 18.4094 38.9759 17.7704 39.5778C17.4607 39.8696 17.1197 40.1277 16.8038 40.4136C16.4652 40.7203 16.1388 41.0407 15.807 41.3553C15.4753 41.6699 15.154 41.9968 14.8096 42.2964C14.0932 42.9201 13.372 43.5373 12.7692 44.278C12.6815 44.3861 12.5705 44.4756 12.4696 44.5734C11.9406 45.0868 11.244 45.4268 10.8748 46.1083C10.8259 46.1981 10.757 46.3113 10.6722 46.3413C9.9173 46.606 9.42834 47.237 8.92834 47.7715C8.41073 48.3254 7.63887 48.679 7.40058 49.4835C6.96958 49.5061 6.8874 50.0192 6.59881 50.1168C6.22189 50.2448 6.07832 50.507 5.77086 50.8127ZM15.8643 46.3204C16.4827 45.8961 17.0738 45.4232 17.7245 45.056C20.1653 43.6796 22.6206 42.3277 25.0817 40.9876C26.2201 40.3672 27.2657 39.5745 28.5212 39.1648C28.9069 39.0391 29.2513 38.7768 29.599 38.5526C29.9429 38.3304 30.4113 38.4341 30.6972 37.967C30.8637 37.6947 31.4014 37.6612 31.7575 37.4908C32.351 37.2073 32.9579 36.9222 33.5228 36.6126C34.9471 35.8326 36.5364 35.3661 37.837 34.3565C37.8956 34.3105 37.9699 34.2429 38.0315 34.2483C38.5713 34.2981 38.8905 33.8575 39.3254 33.6777C39.7599 33.4983 40.1969 33.3204 40.619 33.1135C41.4793 32.6923 42.305 32.1841 43.1959 31.8439C43.7859 31.6182 44.3054 31.278 44.8765 31.0417C46.2507 30.4725 47.6226 29.907 48.9625 29.2545C49.4837 29.0009 49.9981 28.664 50.5447 28.5236C51.5683 28.261 52.4625 27.7198 53.4361 27.3559C54.7904 26.8495 56.0757 26.1579 57.4313 25.6563C58.7085 25.1837 59.9629 24.6596 61.232 24.1708C62.3654 23.7352 63.5059 23.3196 64.6437 22.895C65.6132 22.5334 66.5845 22.1749 67.5515 21.8067C67.7029 21.749 67.8363 21.6463 67.989 21.5581C67.914 21.4733 67.8824 21.4198 67.8681 21.4237C67.3274 21.5867 66.7582 21.6932 66.2578 21.9394C65.7719 22.178 65.1179 21.9432 64.7638 22.498C63.6941 22.9004 62.6223 23.2981 61.5547 23.7058C60.4176 24.1408 59.2776 24.5686 58.1516 25.0311C57.2131 25.416 56.3179 25.9244 55.3579 26.2375C53.9869 26.6844 52.6928 27.3038 51.366 27.8479C50.2541 28.3038 49.1985 28.8988 48.0838 29.3462C46.7369 29.8871 45.4003 30.4423 44.1064 31.1008C43.4872 31.416 42.8771 31.7774 42.2209 31.9875C41.3133 32.2777 40.5173 32.7904 39.6418 33.1403C38.9628 33.4116 38.3263 33.7882 37.6515 34.071C37.534 34.1205 37.318 33.9375 37.0702 33.8269C37.1171 34.1881 36.881 34.5365 36.5626 34.5116C35.912 34.4608 35.5115 34.9405 34.9718 35.1064C34.7583 35.1718 34.6289 35.5012 34.4144 35.5767C33.4864 35.9035 32.576 36.2637 31.7365 36.7785C31.4652 36.9446 31.2658 37.2437 30.9831 37.3721C30.5022 37.5905 29.8519 37.5899 29.5106 37.9243C29.0993 38.3278 28.5034 38.3718 28.1506 38.8228C28.0677 38.9288 27.8093 38.8801 27.6559 38.9535C27.4856 39.0352 27.3013 39.3023 27.1966 39.2674C26.794 39.1325 26.4887 39.3534 26.2967 39.5708C26.0431 39.8579 25.7484 40.1829 25.4348 40.1898C24.9432 40.2004 24.8797 40.7079 24.4768 40.792C23.9867 40.894 23.5619 41.1991 23.1086 41.4091C22.6225 41.6339 22.2309 42.0551 21.7651 42.3343C20.6023 43.0313 19.4207 43.6962 18.2469 44.374C17.7578 44.6563 17.2622 44.9283 16.7818 45.2245C16.3699 45.4782 16.014 45.7954 15.8643 46.3204ZM18.6046 37.7881C18.0389 37.4238 17.6081 37.5686 17.2541 37.7761C16.9345 37.9636 16.7576 38.3965 16.2828 38.3139C16.1836 38.8186 15.6048 38.618 15.385 38.9168C15.1136 39.2862 14.6609 39.0216 14.3644 39.2591C14.428 39.5754 14.428 39.5754 13.6008 40.0463C13.0642 40.3524 13.0642 40.3524 12.4744 40.3242C12.3858 40.5123 12.2963 40.7023 12.1957 40.9164C12.1096 40.7848 12.0508 40.6953 11.8902 40.4499C11.8951 40.793 11.8983 40.9782 11.9015 41.2188C11.5888 41.1457 11.193 41.3762 10.8475 41.0174C10.8145 40.9837 10.4968 41.2249 10.2569 41.3711C10.1479 40.9058 10.0477 40.4815 9.93587 40.0073C10.4464 39.4575 11.0297 38.9432 11.7218 38.5368C12.417 38.1284 13.0503 37.6132 13.7475 37.2087C14.3789 36.8414 15.0553 36.5497 15.7213 36.2436C16.3553 35.9517 16.8592 35.3963 17.5972 35.3162C18.4545 34.3315 19.8593 34.4433 20.851 33.6807C21.3684 33.2829 22.0842 33.1544 22.7599 33.1099C23.0411 33.0909 23.3306 33.1917 23.6166 33.2383L24.5807 34.2509C24.623 34.3055 24.667 34.3593 24.7086 34.4151C25.3199 35.2337 25.3426 35.2496 24.7978 36.0217C24.4578 36.5035 24.037 36.9281 23.6446 37.3873C23.4033 37.3359 23.1555 37.2828 22.8236 37.2123C22.886 37.3602 22.9527 37.4428 22.9483 37.5214C22.9189 38.0538 22.8315 38.5609 22.2239 38.7574C22.1323 39.4048 21.4411 39.5442 21.1434 40.0343C20.857 40.5061 20.4582 40.9095 20.1067 41.341C20.018 41.4497 19.9204 41.5514 19.8183 41.6651C20.0611 42.0059 20.3479 41.8748 20.657 41.6943C21.7942 41.0299 22.9388 40.3769 24.0779 39.7152C25.0241 39.1655 26.0035 38.69 27.0284 38.3025C27.2385 38.2229 27.3853 37.9869 27.591 37.8803C28.3074 37.508 29.033 37.1523 29.7626 36.8062C30.4587 36.476 31.0311 35.9158 31.8345 35.7709C32.1482 35.7143 32.4071 35.3943 32.7231 35.2984C32.9948 35.216 33.1772 35.0586 33.4006 34.9195C33.9175 34.597 34.4954 34.3334 35.0841 34.1802C35.3815 34.1025 35.5663 33.5663 35.9756 33.9255C36.2569 33.711 36.522 33.469 36.8229 33.2872C37.7927 32.7006 38.8341 32.2674 39.8924 31.8644C40.5402 31.6182 41.1501 31.2739 41.777 30.9732C43.0305 30.3725 44.2732 29.7467 45.5412 29.1769C47.2224 28.4207 48.9188 27.6973 50.617 26.98C52.0747 26.365 53.5241 25.7199 55.0137 25.192C57.2044 24.4162 59.3093 23.4296 61.5119 22.675C63.2268 22.0874 64.9469 21.4818 66.6288 20.8142C68.3904 20.1147 70.2056 19.5878 71.9709 18.9116C73.1176 18.4727 74.3382 18.2303 75.5074 17.8454C76.5131 17.515 77.5474 17.2862 78.5476 16.9414C78.671 16.8986 78.8066 16.8903 78.9415 16.8651C79.1017 17.4788 78.6658 17.6236 78.3188 17.8003C77.9942 17.965 77.6433 18.0773 77.0594 18.3106C77.9922 18.4191 78.5519 18.0759 79.1266 17.8723C79.445 17.7595 79.6737 17.7063 79.9638 18.0014C79.851 18.1294 79.7399 18.2561 79.6176 18.3958C79.9172 18.5596 80.2467 18.7397 80.6161 18.942C80.4456 19.1575 80.2624 19.2894 80.2718 19.4047C80.283 19.5355 80.4672 19.6517 80.5855 19.7846C80.4037 20.0116 79.9665 20.0192 79.9607 20.4439C79.96 20.5059 79.7652 20.6278 79.7538 20.6175C79.3264 20.2345 79.2072 20.9037 78.8455 20.8917C78.6304 20.8846 78.1839 20.8177 78.0513 21.2599C78.0339 21.3166 77.5901 21.1822 77.4624 21.2844C77.3043 21.4118 77.2634 21.6749 76.97 21.5233C76.9075 21.4907 76.7712 21.4649 76.7637 21.4818C76.4135 22.2109 75.6872 21.828 75.1653 22.0346C74.8934 22.1419 74.5153 22.0839 74.3965 22.468C73.9185 22.2756 73.8838 23.1591 73.4271 22.8965C72.9872 22.6435 72.8538 23.519 72.3922 23.1291C72.3607 23.1026 72.0509 23.4218 71.8581 23.564C71.6268 23.734 71.1694 23.2662 71.0718 23.837C70.7589 23.8573 70.4337 23.9409 70.1352 23.8836C69.6751 23.7955 69.4349 23.9382 69.3196 24.3782C69.2965 24.4659 69.1879 24.5783 69.1029 24.5946C68.8643 24.6387 68.5933 24.5811 68.3818 24.6724C68.1672 24.7645 67.9159 25.1629 67.8415 25.1236C67.2665 24.8195 67.158 25.57 66.6942 25.5615C66.5656 25.4477 66.41 25.31 66.1877 25.1136C65.6668 25.9183 64.6416 25.9275 64.0302 26.5994C63.8598 26.787 63.6146 26.8765 63.3176 26.7575C62.7121 26.5159 62.2357 26.6374 61.9832 27.3094C61.9391 27.4276 61.7602 27.6022 61.6832 27.5841C60.9229 27.4048 60.607 28.2974 59.8906 28.2903C59.5339 28.2869 59.2471 28.8177 58.769 28.5841C58.7375 28.5688 58.6355 28.7126 58.5585 28.773C58.417 28.8847 58.2188 28.9603 58.1349 29.1038C57.8968 29.5091 57.5007 28.942 57.2367 29.2919C57.0698 29.5134 56.8025 29.6785 56.5503 29.8117C56.2686 29.9604 55.9316 30.0082 55.658 30.1669C55.3535 30.343 55.0556 30.328 54.7301 30.3586C54.4656 30.3838 54.2004 30.9303 53.9897 30.8974C53.4247 30.8086 53.1946 31.2594 52.8042 31.4314C52.3742 31.6214 51.9395 31.8017 51.5112 31.9966C51.2183 32.1295 50.9732 32.4073 50.5884 32.2433C50.5399 32.2226 50.4219 32.4242 50.3138 32.4742C49.8958 32.6675 49.5996 33.1614 49.0239 32.9913C48.9496 32.9692 48.8301 33.1255 48.7225 33.1829C47.7834 33.6838 46.8428 34.1809 45.9027 34.679C45.3723 34.4086 45.1769 34.9648 44.824 35.1249C44.1223 35.4425 43.4377 35.7968 42.7434 36.13C42.6847 36.1585 42.6057 36.1523 42.5369 36.1501C41.4972 36.1173 41.4973 36.1169 40.6558 36.5895C40.3129 36.426 39.9648 36.1389 39.6159 36.1368C39.3758 36.135 39.1339 36.5291 38.9841 36.8817C39.3067 36.782 39.6302 36.6822 40.2206 36.4999C39.9054 36.897 39.55 36.9381 39.5129 37.1023C39.4334 37.4549 39.18 37.2884 39.0155 37.3725C37.8277 37.9805 36.657 38.6209 35.4642 39.2173C35.1539 39.3721 34.9863 39.9271 34.4853 39.6106C34.0521 39.9855 33.3149 39.9827 33.1462 40.6875C33.1382 40.7205 33.1216 40.7666 33.0961 40.7783C32.4019 41.0935 31.7065 41.405 31.0109 41.7174C30.6294 41.5105 30.3744 41.8045 30.0979 41.9641C28.9423 42.6313 27.7703 43.2701 26.7021 44.0847C26.3753 44.3346 26.0165 44.7101 25.4912 44.4605C25.4299 44.4316 25.2738 44.5291 25.2051 44.6063C25.022 44.8146 24.9036 45.1156 24.6809 45.2442C24.4582 45.3727 24.0767 45.2474 23.8774 45.3908C23.3619 45.7608 22.8797 46.1891 22.4391 46.6473C22.0283 47.0746 21.26 47.4536 20.6062 47.4242L20.427 48.0932C19.746 48.5188 18.9867 48.832 18.3116 49.2999C17.6333 49.77 16.9158 50.2106 16.1591 50.5315C15.5903 50.7723 15.0408 50.9492 14.7501 51.5493C14.7095 51.6336 14.5609 51.6632 14.4651 51.7229C13.1741 52.5292 11.8784 53.3287 10.5944 54.1454C9.75954 54.6764 8.98762 55.3023 8.11046 55.7706C8.00228 55.8286 7.95059 55.9927 7.87772 56.1014L7.19237 55.9178C7.07789 56.0458 6.92589 56.1586 6.85292 56.3092C6.63865 56.7488 6.35908 57.0032 5.83091 57.1036C5.18209 57.2269 5.19817 57.3045 4.76539 56.8232C4.69566 56.7458 4.61247 56.6802 4.53488 56.6096C4.26861 56.3663 3.90926 56.9248 3.65249 56.4988C3.45778 56.1757 3.20256 56.2608 2.88376 56.3559C2.56639 56.4505 2.46322 56.3058 2.08605 55.6906C2.17366 55.4757 2.24417 55.3037 2.31468 55.1318C2.18532 55.1169 2.04701 55.0665 1.92955 55.0968C1.78909 55.1329 1.66615 55.2381 1.53172 55.3157C1.49963 55.2642 1.43683 55.2105 1.43988 55.1607C1.46785 54.7347 1.40329 54.2603 1.57485 53.8984C1.72705 53.5769 2.17627 53.4095 2.4387 53.123C3.36211 52.1158 4.27936 51.1043 5.29668 50.1882C5.84779 49.6918 6.28305 49.0756 6.93191 48.6752C7.12106 48.5583 7.1724 48.2178 7.36224 48.1014C7.54824 47.9866 7.86601 48.0954 7.88301 47.7183C7.88671 47.6356 7.99912 47.5474 8.0779 47.4806C8.77723 46.8871 9.39711 46.2029 10.0902 45.6133C10.6328 45.1519 11.1272 44.6511 11.63 44.1558C12.2823 43.5137 13.0739 43.0175 13.6116 42.2559C13.6311 42.2281 13.6736 42.2133 13.7078 42.1993C13.9948 42.082 14.2821 41.9668 14.5696 41.8509C14.4517 41.4394 14.749 41.2776 15.0099 41.0688C15.2544 40.8732 15.4303 40.585 15.6862 40.4108C16.457 39.8867 17.051 39.171 17.7499 38.571C18.0153 38.3437 18.2656 38.0994 18.6046 37.7881Z" fill="#2C2D36"/>
<path fill-rule="evenodd" clip-rule="evenodd" d="M61.3451 39.3204C62.2104 38.852 63.0337 38.2583 63.9536 37.9585C64.5747 37.7561 65.1263 37.4245 65.7303 37.2026C67.2825 36.6335 68.8046 35.962 70.3171 35.2944C71.6087 34.7245 72.9337 34.2365 74.2209 33.6573C75.4925 33.0855 76.7963 32.5614 78.1295 32.1644C78.6073 32.0218 79.0542 31.7972 79.5199 31.642C80.5347 31.3037 81.5488 30.9339 82.5357 30.5045C83.1924 30.2187 83.924 30.1257 84.5396 29.7216C84.6759 29.632 84.8867 29.5817 85.0441 29.6119C86.161 29.8284 87.0164 29.0941 87.9899 28.8074C88.745 28.5851 89.4481 28.1904 90.1957 27.937C90.5833 27.8059 91.0232 27.7535 91.4306 27.7837C91.6703 27.8012 91.8934 28.0505 92.1521 28.2133C91.935 28.385 91.7528 28.5382 91.5607 28.6775C91.4628 28.7486 91.3473 28.7953 91.2394 28.8526L90.2275 29.2971C90.0388 29.569 89.7948 29.7035 89.4748 29.5457C89.1225 29.372 89.2112 30.0891 88.7834 29.8501C88.4855 29.6833 88.3123 29.9872 88.092 30.1915C87.8475 30.4175 87.4647 30.5307 87.1226 30.6071C86.1328 30.8286 85.2534 31.3305 84.3326 31.715C84.0032 31.8531 83.4722 31.4471 83.3355 32.0662C82.9214 31.9921 82.6044 32.5028 82.3467 32.4226C81.7017 32.2214 81.5029 32.9233 80.94 32.9483C80.4515 32.9696 79.992 33.4267 79.4535 33.5894C78.7002 33.8177 77.9927 34.1907 77.2485 34.454C76.1969 34.8257 75.1447 35.1853 74.1501 35.7014C73.6043 35.9844 73.0285 36.2096 72.4616 36.4496C72.1289 36.5903 71.7878 36.7095 71.4844 36.8254C71.3961 36.7807 71.2401 36.6588 71.2016 36.6887C69.8128 37.7587 68.169 38.2732 66.5514 38.8432C65.9317 39.0614 65.4303 39.4969 64.7725 39.6826C64.0431 39.889 63.3765 40.3218 62.6895 40.6695C62.2679 40.8824 61.9111 41.2332 61.3497 40.982C61.1376 40.887 60.9276 41.1107 60.7744 41.369C60.586 41.6877 60.2485 41.912 59.8408 41.9404C59.3069 41.9775 58.8833 42.2058 58.452 42.5323C57.9327 42.9257 57.3436 43.231 56.6876 43.4116C56.0941 43.575 55.6775 44.1662 54.9984 44.1914C54.8988 44.1951 54.8045 44.3006 54.7047 44.3528C53.5895 44.9365 52.4921 45.5592 51.3535 46.0925C49.3775 47.0179 47.4608 48.0528 45.5254 49.0552C44.5754 49.5472 43.634 50.06 42.6823 50.5503C42.3651 50.7131 41.9259 50.7327 41.7079 50.9701C41.4438 51.2579 41.1714 51.3529 40.8303 51.4721C40.4843 51.5934 40.1756 51.7628 39.707 51.4983C39.832 51.7329 39.8662 51.7974 39.9278 51.913C39.429 52.1069 38.9358 52.2994 38.4352 52.4937C38.467 52.5575 38.5143 52.6513 38.5529 52.7281C38.2953 52.8254 38.0383 52.9748 37.7656 53.0115C37.4912 53.0482 37.2016 52.9732 36.7334 52.9301C36.9743 53.167 37.1269 53.3164 37.3233 53.5097C36.8095 53.6207 36.4425 53.7003 36.0442 53.7866C35.9548 53.6417 35.843 53.4603 35.7303 53.2792C35.5999 53.3545 35.4696 53.4298 35.3199 53.5162C35.4525 53.628 35.5787 53.7347 35.7263 53.8592C35.6629 53.9515 35.6163 54.0518 35.5415 54.1214C35.3853 54.2674 35.186 54.3743 35.0544 54.5376C34.7783 54.8813 34.7907 54.8863 34.0785 54.9772C33.9755 54.9904 33.8657 55.0673 33.7873 55.1437C33.503 55.4208 33.1125 55.6537 32.9046 55.6485C32.9195 55.7627 32.9862 55.941 32.9397 55.9787C32.8234 56.0719 32.6152 56.0615 32.5159 56.1632C32.095 56.5928 31.7684 57.1811 31.0053 56.9295C30.6925 57.1716 30.4124 57.5048 30.0581 57.6315C29.6563 57.7756 29.7076 58.3798 29.4675 58.3378C28.9229 58.242 29.1315 58.7276 28.9309 58.8651C28.4362 59.1557 28.2609 58.1264 27.6891 58.5658C28.0669 57.7541 28.6128 57.0723 29.3508 56.6131C30.3457 55.995 31.2591 55.2732 32.2099 54.6005C33.1585 53.9297 34.2208 53.4202 35.226 52.828C35.5412 52.6423 35.8346 52.4195 36.1381 52.2135C36.6138 52.1695 37.0423 52.0013 37.4422 51.7409C37.6931 51.5775 37.945 51.3864 38.2245 51.3018C38.5286 51.2104 38.5223 50.7666 38.9875 50.8068C39.2943 50.8333 39.6257 50.4529 39.962 50.2892C40.2828 50.1337 40.6511 50.0652 40.9505 49.8808C41.2663 49.6863 41.5221 49.4277 41.9109 49.3196C42.2615 49.2227 42.6208 49.0179 42.8795 48.7631C43.3012 48.3478 43.85 48.1689 44.352 47.9771C44.7619 47.8206 45.1431 47.6269 45.5312 47.4363C45.8631 47.2731 46.1509 47.0282 46.4648 46.8408C46.8016 46.6403 47.1145 46.5767 47.4611 46.4689C47.8936 46.3335 48.2458 45.9523 48.6467 45.6995C48.9103 45.5334 49.2164 45.2647 49.4712 45.2965C49.8222 45.3404 50.0209 45.1398 50.2916 45.0708C50.6461 44.9814 50.7163 44.4732 51.1469 44.5401C51.3654 44.0335 51.8974 44.3574 52.2319 44.1284C52.7132 43.7995 53.2201 43.5082 53.7236 43.1958C53.754 43.2567 53.787 43.3226 53.8392 43.4284C54.2694 43.1225 54.6867 42.8244 55.107 42.5301C55.1841 42.4757 55.3012 42.3797 55.3539 42.4037C55.7366 42.5774 55.9816 42.2936 56.2722 42.1583C56.6306 41.9919 56.9542 41.7879 57.3591 41.6769C58.0171 41.4968 58.6554 41.1666 59.2318 40.7918C59.6714 40.5066 60.089 40.2861 60.6107 40.1811C61.0018 40.1023 61.3583 39.8265 61.3451 39.3204Z" fill="#2C2D36"/>
<path fill-rule="evenodd" clip-rule="evenodd" d="M61.346 39.3204C61.3592 39.8265 61.0027 40.1023 60.6116 40.1811C60.0898 40.2861 59.6723 40.5066 59.2326 40.7919C58.6563 41.1666 58.018 41.4968 57.36 41.6769C56.955 41.7879 56.6315 41.992 56.273 42.1583C55.9825 42.2936 55.7375 42.5774 55.3548 42.4037C55.3021 42.3797 55.185 42.4757 55.1078 42.5301C54.6876 42.8244 54.2703 43.1225 53.8401 43.4284C53.7879 43.3226 53.7549 43.2567 53.7245 43.1958C53.221 43.5082 52.7141 43.7995 52.2327 44.1285C51.8982 44.3574 51.3663 44.0335 51.1477 44.5401C50.7171 44.4732 50.647 44.9814 50.2924 45.0708C50.0218 45.1398 49.8231 45.3404 49.4721 45.2965C49.2173 45.2647 48.9112 45.5335 48.6476 45.6995C48.2467 45.9523 47.8945 46.3335 47.462 46.4689C47.1154 46.5767 46.8024 46.6404 46.4657 46.8409C46.1518 47.0282 45.864 47.2731 45.5321 47.4363C45.144 47.6269 44.7628 47.8207 44.3529 47.9771C43.8509 48.1689 43.3021 48.3478 42.8803 48.7631C42.6217 49.0179 42.2623 49.2227 41.9118 49.3196C41.523 49.4277 41.2672 49.6863 40.9513 49.8808C40.652 50.0652 40.2837 50.1337 39.9629 50.2892C39.6265 50.4529 39.2952 50.8333 38.9884 50.8068C38.5232 50.7667 38.5295 51.2104 38.2254 51.3018C37.9459 51.3864 37.694 51.5775 37.4431 51.7409C37.0432 52.0013 36.6147 52.1695 36.1389 52.2135C36.2201 52.0132 36.2461 51.732 36.3949 51.6295C36.6515 51.4529 37.0051 51.4233 37.2795 51.2649C37.5538 51.1068 37.7595 50.8305 38.034 50.672C38.3084 50.5136 38.6743 50.4971 38.9217 50.3134C39.5292 49.8625 40.2272 49.586 40.8702 49.2073C41.5511 48.8061 42.2295 48.3996 42.9244 48.024C44.1312 47.3723 45.3164 46.6637 46.5749 46.1308C47.3989 45.7826 48.1221 45.2585 48.9381 44.9352C50.4628 44.3309 51.8565 43.4569 53.3939 42.8774C54.2505 42.5546 55.0426 42.0628 55.8677 41.6548C57.0997 41.0449 58.3469 40.4726 59.6461 40.0107C60.0645 39.8621 60.4231 39.553 60.8281 39.3553C60.9722 39.285 61.1723 39.3287 61.346 39.3204Z" fill="#2C2D36"/>
</svg>
